<?xml version="1.0" encoding="utf-8"?>
<!-- Generator: Adobe Illustrator 15.1.0, SVG Export Plug-In . SVG Version: 6.00 Build 0)  -->
<!DOCTYPE svg PUBLIC "-//W3C//DTD SVG 1.1//EN" "http://www.w3.org/Graphics/SVG/1.1/DTD/svg11.dtd">
<svg version="1.1" id="Layer_1" xmlns="http://www.w3.org/2000/svg" xmlns:xlink="http://www.w3.org/1999/xlink" x="0px" y="0px"
	 width="690px" height="85px" viewBox="0 0 690 85" enable-background="new 0 0 690 85" xml:space="preserve">
<rect fill="#24274A" width="690" height="85"/>
<g>
	<path fill="#F2F2F2" d="M239.992,31.572c1.533,0,2.965,0.386,4.297,1.152c1.333,0.767,2.38,1.817,3.147,3.145
		c0.766,1.334,1.149,2.766,1.149,4.297c0,2.383-0.837,4.41-2.51,6.083c-1.674,1.675-3.701,2.51-6.083,2.51h-2.863v6.86h-1.946v-22.1
		h-2.898l1.165-1.947H239.992z M237.129,46.814h2.863c1.982,0,3.584-0.659,4.81-1.979c1.226-1.32,1.839-2.876,1.839-4.669
		c0-1.319-0.318-2.486-0.955-3.5c-0.637-1.013-1.462-1.791-2.476-2.335c-1.014-0.541-2.086-0.812-3.219-0.812h-2.863V46.814z"/>
	<path fill="#F2F2F2" d="M250.177,55.619V31.572h1.945v24.047H250.177z"/>
	<path fill="#F2F2F2" d="M276.343,50.953c-1.131,1.555-2.587,2.8-4.369,3.729c-1.778,0.932-3.706,1.396-5.779,1.396
		c-2.287,0-4.38-0.56-6.277-1.68c-1.898-1.12-3.407-2.634-4.526-4.544c-1.12-1.908-1.68-4.007-1.68-6.296
		c0-1.67,0.318-3.274,0.953-4.806c0.639-1.533,1.541-2.884,2.708-4.049c1.167-1.167,2.511-2.063,4.031-2.688
		c1.521-0.625,3.118-0.938,4.792-0.938c2.074,0,3.995,0.454,5.764,1.362c1.768,0.907,3.218,2.163,4.349,3.765l-1.555,1.097
		c-0.589-0.826-1.344-1.574-2.265-2.246c-0.918-0.672-1.901-1.179-2.95-1.521c-1.049-0.341-2.165-0.513-3.342-0.513
		c-1.887,0-3.642,0.467-5.269,1.397c-1.626,0.932-2.912,2.222-3.854,3.872c-0.944,1.65-1.415,3.407-1.415,5.267
		c0,1.911,0.471,3.68,1.415,5.308c0.942,1.625,2.228,2.91,3.854,3.852c1.627,0.944,3.382,1.415,5.269,1.415
		c1.744,0,3.362-0.384,4.862-1.165c1.497-0.777,2.729-1.827,3.695-3.147L276.343,50.953z"/>
	<path fill="#F2F2F2" d="M292.433,55.619h-2.192l-7.885-14.497l-2.511,3.713v10.784H277.9V31.572h1.944v9.726l6.542-9.726h2.333
		l-5.163,7.711L292.433,55.619z"/>
	<path fill="#F2F2F2" d="M302.582,55.619h-8.557V31.572h1.944v22.1h6.613V55.619z"/>
	<path fill="#F2F2F2" d="M309.052,53.672h9.087v1.947h-11.033V41.157h-2.934l1.167-1.945h1.767v-7.64h11.033v1.947h-9.087v5.692
		h5.764v1.945h-5.764V53.672z"/>
	<path fill="#F2F2F2" d="M331.859,40.238c1.248,0.707,2.264,1.692,3.041,2.953c0.778,1.263,1.167,2.67,1.167,4.226
		c0,1.485-0.366,2.858-1.097,4.12c-0.73,1.257-1.726,2.257-2.988,2.987c-1.261,0.73-2.636,1.096-4.119,1.096h-5.198V41.157h-2.935
		l1.166-1.98h1.769v-7.604h6.4c1.319,0,2.446,0.468,3.377,1.399c0.931,0.931,1.396,2.068,1.396,3.411
		C333.84,38.011,333.179,39.295,331.859,40.238z M324.61,39.212h4.456c0.849,0,1.533-0.288,2.051-0.866
		c0.519-0.577,0.778-1.232,0.778-1.964c0-0.847-0.278-1.538-0.831-2.067c-0.554-0.53-1.22-0.795-1.998-0.795h-4.456V39.212z
		 M324.61,41.157v12.515h3.254c1.791,0,3.283-0.622,4.473-1.87c1.19-1.255,1.786-2.711,1.786-4.386c0-1.202-0.289-2.275-0.866-3.218
		c-0.578-0.941-1.35-1.685-2.316-2.228c-0.967-0.542-1.992-0.813-3.077-0.813H324.61z"/>
	<path fill="#F2F2F2" d="M341.583,48.831v6.788h-1.946v-6.788h-2.51l1.167-1.944h1.343v-9.548c0-1.108,0.281-2.146,0.85-3.112
		c0.565-0.966,1.331-1.733,2.298-2.298c0.966-0.566,2.003-0.85,3.112-0.85c1.111,0,2.145,0.283,3.113,0.85
		c0.966,0.565,1.734,1.332,2.298,2.298c0.565,0.967,0.853,2.004,0.853,3.112v18.28h-1.949v-6.788H341.583z M341.583,46.887h8.627
		v-9.548c0-0.849-0.207-1.602-0.615-2.264c-0.414-0.66-0.951-1.167-1.611-1.52c-0.658-0.354-1.356-0.531-2.087-0.531
		c-1.272,0-2.31,0.437-3.112,1.307c-0.801,0.874-1.202,1.875-1.202,3.008V46.887z"/>
	<path fill="#F2F2F2" d="M362.836,55.619h-8.559V31.572h1.945v22.1h6.613V55.619z"/>
	<path fill="#F2F2F2" d="M373.513,55.619h-8.556V31.572h1.949v22.1h6.606V55.619z"/>
	<path fill="#F2F2F2" d="M392.996,48.831v6.788h-1.943v-6.788h-2.511l1.167-1.944h1.344v-9.548c0-1.108,0.282-2.146,0.848-3.112
		c0.566-0.966,1.333-1.733,2.301-2.298c0.965-0.566,2.003-0.85,3.11-0.85s2.145,0.283,3.114,0.85
		c0.964,0.565,1.734,1.332,2.295,2.298c0.567,0.967,0.849,2.004,0.849,3.112v18.28h-1.943v-6.788H392.996z M392.996,46.887h8.63
		v-9.548c0-0.849-0.208-1.602-0.62-2.264c-0.408-0.66-0.945-1.167-1.605-1.52c-0.664-0.354-1.358-0.531-2.089-0.531
		c-1.273,0-2.312,0.437-3.11,1.307c-0.803,0.874-1.205,1.875-1.205,3.008V46.887z"/>
	<path fill="#F2F2F2" d="M406.327,31.572h4.671c1.695,0,3.271,0.315,4.719,0.939c1.448,0.624,2.716,1.478,3.801,2.564
		c1.084,1.084,1.939,2.351,2.564,3.801c0.623,1.451,0.937,3.023,0.937,4.722c0,2.167-0.536,4.178-1.609,6.028
		c-1.072,1.848-2.535,3.311-4.382,4.383c-1.854,1.074-3.863,1.609-6.029,1.609h-2.938v-22.1h-2.898L406.327,31.572z M410.998,53.672
		c1.837,0,3.527-0.445,5.071-1.338c1.546-0.897,2.765-2.129,3.66-3.68c0.896-1.557,1.344-3.242,1.344-5.056
		c0-1.367-0.271-2.683-0.813-3.945c-0.542-1.26-1.25-2.327-2.122-3.199c-0.873-0.872-1.939-1.579-3.2-2.123
		c-1.262-0.541-2.573-0.812-3.94-0.812h-0.992v20.152H410.998z"/>
	<path fill="#F2F2F2" d="M425.246,31.572h4.672c1.694,0,3.267,0.315,4.718,0.939c1.448,0.624,2.716,1.478,3.804,2.564
		c1.081,1.084,1.937,2.351,2.563,3.801c0.622,1.451,0.936,3.023,0.936,4.722c0,2.167-0.536,4.178-1.609,6.028
		c-1.072,1.848-2.535,3.311-4.386,4.383c-1.849,1.074-3.859,1.609-6.024,1.609h-2.938v-22.1h-2.896L425.246,31.572z M429.918,53.672
		c1.836,0,3.526-0.445,5.07-1.338c1.547-0.897,2.768-2.129,3.66-3.68c0.896-1.557,1.344-3.242,1.344-5.056
		c0-1.367-0.271-2.683-0.813-3.945c-0.542-1.26-1.25-2.327-2.122-3.199c-0.873-0.872-1.938-1.579-3.2-2.123
		c-1.262-0.541-2.572-0.812-3.939-0.812h-0.993v20.152H429.918z"/>
	<path fill="#F2F2F2" d="M444.872,50.032c0.284,1.198,0.896,2.169,1.838,2.899c0.943,0.731,2.007,1.097,3.184,1.097
		c1.462,0,2.681-0.503,3.66-1.499c0.978-1.007,1.468-2.213,1.468-3.628c0-1.249-0.355-2.316-1.063-3.2
		c-0.707-0.885-1.614-1.467-2.721-1.751l-2.76-0.708c-1.344-0.352-2.435-1.077-3.271-2.174c-0.837-1.098-1.257-2.339-1.257-3.729
		c0-1.698,0.597-3.14,1.787-4.333c1.189-1.19,2.637-1.785,4.331-1.785c1.084,0,2.104,0.276,3.06,0.831
		c0.954,0.554,1.703,1.292,2.245,2.21l-1.696,0.954c-0.779-1.367-1.98-2.051-3.608-2.051c-1.154,0-2.14,0.418-2.952,1.255
		s-1.22,1.81-1.22,2.918c0,0.966,0.294,1.826,0.884,2.581c0.588,0.755,1.319,1.238,2.192,1.45l2.758,0.707
		c1.532,0.401,2.787,1.238,3.766,2.511c0.978,1.272,1.472,2.71,1.472,4.313c0,1.98-0.699,3.655-2.09,5.021
		c-1.391,1.367-3.053,2.052-4.985,2.052c-1.628,0-3.077-0.508-4.351-1.522c-1.27-1.013-2.109-2.31-2.51-3.889L444.872,50.032z"/>
</g>
</svg>
