<?xml version="1.0" encoding="utf-8"?>
<!-- Generator: Adobe Illustrator 15.1.0, SVG Export Plug-In . SVG Version: 6.00 Build 0)  -->
<!DOCTYPE svg PUBLIC "-//W3C//DTD SVG 1.1//EN" "http://www.w3.org/Graphics/SVG/1.1/DTD/svg11.dtd">
<svg version="1.1" id="Layer_1" xmlns="http://www.w3.org/2000/svg" xmlns:xlink="http://www.w3.org/1999/xlink" x="0px" y="0px"
	 width="385px" height="128px" viewBox="0 0 385 128" enable-background="new 0 0 385 128" xml:space="preserve">
<radialGradient id="SVGID_1_" cx="179.7891" cy="64.0732" r="55.9917" gradientTransform="matrix(1.1328 0 0 1.1558 -24.9914 -10.0557)" gradientUnits="userSpaceOnUse">
	<stop  offset="0" style="stop-color:#FFFFFF"/>
	<stop  offset="0.1102" style="stop-color:#CBE2F1"/>
	<stop  offset="0.239" style="stop-color:#96C5E3"/>
	<stop  offset="0.3696" style="stop-color:#68ABD7"/>
	<stop  offset="0.4992" style="stop-color:#4396CD"/>
	<stop  offset="0.6276" style="stop-color:#2586C6"/>
	<stop  offset="0.7546" style="stop-color:#117AC0"/>
	<stop  offset="0.8795" style="stop-color:#0473BD"/>
	<stop  offset="1" style="stop-color:#0071BC"/>
</radialGradient>
<path fill="url(#SVGID_1_)" d="M178.678,0c-35.421,0-64.127,28.688-64.127,64.007c0,35.36,28.706,63.993,64.127,63.993
	c35.393,0,64.111-28.633,64.111-63.993C242.789,28.688,214.071,0,178.678,0z M195.082,27.816c0,3.868-4.364,7.008-9.78,7.008
	c-5.373,0-9.756-3.141-9.756-7.008c0-3.856,4.383-6.996,9.756-6.996C190.718,20.82,195.082,23.96,195.082,27.816z M169.832,5.726
	c5.549-0.847,10.188-0.328,10.434,1.157c0.207,1.49-4.073,3.357-9.613,4.217c-5.502,0.83-10.195,0.323-10.425-1.166
	C159.995,8.439,164.29,6.564,169.832,5.726z M123.818,81.109c-1.36,0.154-3.122-3.563-3.904-8.4
	c-0.801-4.822-0.329-8.897,1.014-9.131c1.386-0.217,3.104,3.5,3.911,8.344C125.651,76.75,125.188,80.826,123.818,81.109z
	 M127.177,38.047c-1.131-0.863,0.463-4.835,3.603-8.832c3.109-4.02,6.58-6.577,7.695-5.694c1.147,0.897-0.463,4.839-3.6,8.85
	C131.783,36.387,128.325,38.937,127.177,38.047z M130.091,55.168c0-5.281,3.541-9.552,7.927-9.552c4.385,0,7.952,4.271,7.952,9.552
	c0,5.279-3.566,9.57-7.952,9.57C133.631,64.738,130.091,60.447,130.091,55.168z M151.879,115.539
	c-1.002,1.287-5.21-0.182-9.358-3.367c-4.158-3.141-6.702-6.758-5.703-8.064c1.012-1.344,5.179,0.189,9.349,3.361
	C150.325,110.617,152.875,114.25,151.879,115.539z M165.853,109.797c-5.352,0-9.682-3.008-9.682-6.75
	c0-3.766,4.33-6.797,9.682-6.797c5.395,0,9.694,3.031,9.694,6.797C175.546,106.789,171.247,109.797,165.853,109.797z
	 M166.223,64.738c0-5.203,4.172-9.432,9.323-9.432c5.157,0,9.343,4.229,9.343,9.432c0,5.184-4.186,9.418-9.343,9.418
	C170.396,74.156,166.223,69.922,166.223,64.738z M187.051,122.844c-5.521,0.82-10.167,0.287-10.414-1.205
	c-0.217-1.461,4.069-3.357,9.588-4.17c5.581-0.869,10.214-0.338,10.464,1.148C196.871,120.094,192.604,121.975,187.051,122.844z
	 M204.391,13.451c1.025-1.303,5.226,0.194,9.352,3.371c4.184,3.154,6.73,6.8,5.744,8.067c-0.99,1.339-5.18-0.173-9.349-3.337
	C205.943,18.391,203.411,14.758,204.391,13.451z M210.89,84.195c-3.79-0.932-5.77-6.008-4.463-11.361
	c1.341-5.385,5.445-8.975,9.236-8.072c3.782,0.941,5.74,6.035,4.425,11.386C218.765,81.506,214.642,85.117,210.89,84.195z
	 M226.033,99.607c-3.15,4-6.58,6.539-7.754,5.664c-1.144-0.85,0.485-4.803,3.594-8.844c3.148-3.977,6.611-6.547,7.739-5.686
	C230.717,91.6,229.129,95.594,226.033,99.607z M236.426,64.728c-1.379,0.209-3.086-3.525-3.938-8.346
	c-0.799-4.859-0.343-8.935,1.035-9.175c1.385-0.208,3.114,3.543,3.892,8.362C238.244,60.411,237.765,64.488,236.426,64.728z"/>
<g opacity="0.7">
	<path fill="#F2F2F2" d="M156.811,4.569l0.175-0.122l-0.079-0.064c-0.135,0.056-0.31,0.107-0.467,0.171l-0.293,0.202
		c0,0.01-0.108,0.076-0.445,0.281l0.445-0.166L156.811,4.569z"/>
	<path fill="#F2F2F2" d="M159.752,3.825l0.289-0.136l-0.442,0.136C159.649,3.825,159.694,3.825,159.752,3.825z"/>
	<polygon fill="#F2F2F2" points="166.442,1.372 166.053,1.497 165.364,1.704 165.396,1.744 165.615,1.703 165.868,1.662 
		166.209,1.572 166.561,1.438 166.445,1.434 166.804,1.301 	"/>
	<path fill="#F2F2F2" d="M163.875,2.225l-0.517,0.203l-0.226,0.124l-0.15,0.128l0.15,0.005l0.552-0.176l0.313-0.143l0.26-0.139
		c-0.028,0-0.097,0.014-0.179,0.014l0.095-0.051L163.875,2.225z"/>
	<path fill="#F2F2F2" d="M159.978,3.509l0.311-0.078l0.234-0.056l0.205-0.002l0.45-0.201c0.194-0.102,0.42-0.171,0.632-0.257
		c0.157-0.079,0.308-0.102,0.452-0.156c0.097-0.016,0.52-0.183,0.544-0.255c-0.028,0.002-0.113,0.008-0.42,0.109l0.311-0.17
		l-0.125,0.003c-1.006,0.452-1.024,0.452-1.072,0.452l-0.009-0.008l0.006-0.006l0.62-0.273l-0.163,0.003l-0.516,0.199l-0.454,0.184
		l0.262-0.184l0.761-0.29l0.184-0.094l-0.757,0.249c-0.307,0.135-0.596,0.25-0.895,0.393l-0.077,0.124l0.27-0.071l0.176-0.054
		l-0.25,0.141L159.978,3.509z"/>
	<path fill="#F2F2F2" d="M158.019,5.178l0.521-0.279l0.173,0.051l0.476-0.176l0.681-0.314c0.751-0.311,0.751-0.311,0.751-0.407
		h-0.031c-0.066,0-0.164,0-0.243,0.011l-0.021-0.102c-0.407,0.045-0.407,0.045-0.466,0.09c-0.671,0.324-0.671,0.324-0.947,0.393
		c-0.297,0.161-0.614,0.317-0.93,0.492c-0.295,0.15-0.571,0.329-0.865,0.52l0.383-0.069L158.019,5.178z"/>
	<path fill="#F2F2F2" d="M159.548,3.369l-0.395,0.155c0.196-0.022,0.196-0.022,0.537-0.148c0.18-0.077,0.176-0.116,0.176-0.124
		h-0.004C159.752,3.259,159.665,3.353,159.548,3.369z"/>
	<path fill="#F2F2F2" d="M171.312,0.506h0.059l-0.047,0.057l0.49-0.102l0.3-0.027l0.18-0.031l-0.385,0.044l-0.485,0.116
		l-0.421,0.076c0.246,0,0.246,0,0.871-0.125l0.064,0.047c0.053-0.004,0.125-0.044,0.181-0.044l0.433-0.07l0.37-0.044
		c0.2-0.034,0.395-0.068,0.633-0.075l0.063,0.006h-0.116c-0.273,0.034-0.543,0.095-0.803,0.112h0.198h0.011h0.02l-0.279,0.06
		c-0.048,0.001-0.113,0.003-0.185,0.003l-0.151,0.004l-0.203,0.049c-0.171,0-0.296,0.02-0.485,0.063h-0.076l-0.144,0.013
		c-0.132,0.011-0.226,0.039-0.356,0.064l0.043,0.009l-0.139,0.063l-0.275,0.097l0.125,0.016l-0.181,0.01h-0.125
		c0.425-0.158,0.425-0.158,0.456-0.202l-0.037-0.006l-0.113-0.011l-0.452,0.079l-0.23,0.065l-0.29,0.12l-0.337,0.141l-0.064,0.043
		l0.133,0.054c-0.142,0.028-0.319,0.033-0.448,0.086c-0.121,0.061-0.272,0.087-0.417,0.134l0.319-0.172l-0.024-0.026l-0.296,0.026
		l-0.244,0.03l-0.383,0.08c-0.131,0.036-0.257,0.097-0.389,0.117l-0.259,0.113l0.012,0.005c0.106,0,0.18,0,0.247,0l0.251-0.009
		l-0.502,0.116l-0.313,0.124c0.173,0,0.173,0,1.016-0.231l-0.489,0.185l-0.527,0.141l-0.251,0.018l0.013-0.112l0.101-0.115
		c-0.101,0.016-0.176,0.02-0.239,0.027c-0.871,0.337-0.871,0.337-1.225,0.41l-0.46,0.125l-0.382,0.209l-0.038,0.115
		c0.158-0.055,0.357-0.074,0.534-0.133c0,0.003,0,0.003,0.639-0.014l0.049,0.032c0.097,0.032,0.194-0.021,0.32-0.03
		c0.081-0.001,0.137-0.001,0.157,0.013c-0.282,0.13-0.282,0.13-0.282,0.143c0.065,0.023,0.125,0.026,0.262-0.008
		c0.05-0.001,0.117-0.001,0.171-0.001c0.875-0.237,0.875-0.237,1.132-0.349l0.264-0.151l-0.414,0.119l0.396-0.204l0.274-0.046
		l0.489-0.186l0.301-0.186h0.15c0.369,0.045,0.665-0.18,1.006-0.266c0.056,0,0.109,0,0.229,0c0.019,0,0.183,0,0.363-0.181
		l-0.025-0.035h-0.069l-0.337,0.035l-0.292,0.085l0.292-0.085c0.251-0.062,0.531-0.116,0.788-0.179h0.15l-0.15,0.063
		c0.111,0.043,0.111,0.043,0.715-0.075l0.189-0.124l0.222-0.021l-0.178,0.091l0.2-0.002l0.319-0.069l0.282-0.115l0.028-0.047
		c0.065,0,0.129,0,0.182,0l0.165-0.003l0.28-0.082h0.248c0.395-0.078,0.776-0.132,1.17-0.229h0.151l0.207-0.016l0.125-0.064
		c-0.105,0.009-0.105,0.009-0.611,0.021l0.251-0.024l0.217-0.023h0.143c0.043,0,0.104,0,0.163-0.017
		c0.163-0.014,0.319-0.017,0.463-0.03c0.231-0.031,0.231-0.031,0.467-0.067c0.041,0,0.128-0.011,0.16-0.028l-0.146,0.017
		l-0.027-0.015l0.153-0.013l0.127-0.027l-0.139,0.006h-0.114l-0.236,0.023l0.222-0.029l-0.142,0.006l0.156-0.025V0.022l-0.125,0.005
		c-0.088,0.02-0.196,0.025-0.278,0.027l0.167-0.007l-0.145,0.006c-0.084,0-0.188,0.003-0.245,0.003l0.057-0.002l-0.316,0.022
		c-0.06,0.001-0.119,0.005-0.179,0.01l-0.037,0.001l0.125-0.01c-0.231,0.01-0.495,0.036-0.715,0.036l-0.332,0.031l0.057-0.019
		c-0.172,0.051-0.401,0.115-0.629,0.101c0.1-0.017,0.167-0.024,0.229-0.036l-0.062-0.006c0.142-0.008,0.29-0.037,0.425-0.07
		l-0.135,0.03l0.116-0.03l-0.209,0.03c-0.211,0.033-0.417,0.043-0.598,0.059h-0.069l0.075-0.01h-0.003
		c-0.179,0.01-0.376,0.048-0.555,0.057h-0.003h-0.086l-0.315,0.024L172.6,0.273l-0.375,0.061h-0.013l-0.031,0.025l-0.483,0.074
		C171.586,0.494,171.437,0.49,171.312,0.506z"/>
	<path fill="#F2F2F2" d="M189.025,1.056h0.007c0.112,0.007,0.171,0.034,0.243,0.034l-0.072-0.031
		c0.079,0.005,0.292,0.066,0.452,0.094c-0.06-0.027-0.091-0.027-0.182-0.027c0.123,0.06,0.278,0.076,0.392,0.113
		c0.113,0.019,0.234,0.063,0.371,0.087h0.153c0.191,0.01,0.349,0.128,0.498,0.102c-0.038-0.056-0.163-0.075-0.288-0.1
		c0.123,0.008,0.163,0.024,0.275,0.024c-0.238-0.079-0.501-0.095-0.766-0.165h0.007l-0.081-0.063c-0.131,0-0.508-0.074-0.561-0.073
		l0.11,0.011l-0.058-0.001c-0.556-0.116-0.808-0.166-0.808-0.166c0.169,0.056,0.37,0.063,0.548,0.112h-0.171l-0.359-0.071
		l-0.08-0.041c-0.077,0-0.125-0.01-0.157-0.016c0.032,0.016,0.08,0.016,0.153,0.016h-0.004l-0.117-0.005l-0.042-0.001
		c0.016,0.001,0.016,0.001,0.016,0.006c-0.107-0.006-0.15-0.01-0.258-0.01C188.264,0.897,188.686,0.997,189.025,1.056z
		 M189.404,1.09c-0.122-0.027-0.205-0.043-0.372-0.081C189.207,1.047,189.32,1.063,189.404,1.09z"/>
	<path fill="#F2F2F2" d="M188.97,10.759l0.469,0.3c0.056,0.078,0.041,0.192,0.125,0.27c-0.282-0.026-0.714-0.141-1.237-0.017
		c0.063,0.09,0.172,0.247,0.205,0.336c0.125-0.03,0.125-0.03,0.187-0.03c0.169,0.003,0.314,0.004,0.488,0.006l0.076,0.07
		c0.063,0.139,0.157,0.311,0.191,0.477l0.186,0.226c0.121,0,0.206,0,0.292,0c0.264-0.007,0.459-0.032,0.747-0.022
		c0.056,0,0.15,0,0.254,0c0.335-0.025,0.542,0.302,0.809,0.391c0,0.005,0.981,0.199,0.946-0.276
		c-0.003-0.184-0.003-0.184,0.147-0.342c0.056-0.108,0.231,0.076,0.31-0.069c0.135-0.245,0.135-0.245,0.227-0.275
		c0.203-0.107,0.203-0.107,1.106-0.042c-0.064-0.151-0.15-0.315-0.234-0.461c-0.118-0.09-0.142-0.199-0.256-0.241
		c-0.212-0.115-0.212-0.115-0.513-0.146c-0.234-0.465-0.234-0.465-0.405-0.734c-0.185-0.003-0.33-0.031-0.517-0.033
		c-0.182,0.025-0.182,0.025-0.584,0.439c-0.321-0.021-0.511-0.128-0.766-0.128c-0.46-0.008-0.555,0.104-0.642,0.172
		c-0.077,0.056-0.168,0.057-0.232,0.078c-0.132-0.008-0.279-0.021-0.445-0.021c-0.038-0.053-0.082-0.124-0.119-0.229
		c-0.019-0.067-0.033-0.131-0.095-0.219c-0.08-0.092-0.199-0.114-0.281-0.228l-0.204,0.067c0.063,0.067,0.079,0.161,0.079,0.231
		c-0.187-0.07-0.187-0.07-0.884-0.083c-0.034,0-0.652,0.129-0.156,0.613C188.505,10.834,188.656,10.684,188.97,10.759z"/>
	<path fill="#F2F2F2" d="M165.113,2.056l0.172,0.061c0.216,0,0.675-0.234,0.833-0.314l-0.38,0.077L165.113,2.056z"/>
	<path fill="#F2F2F2" d="M176.633,0.148h-0.097h-0.031h-0.028l-0.03,0.029h-0.025l-0.04,0.003v0.003l0.04,0.001l0,0h0.008l0,0h0.003
		l0,0v0.008l-0.013,0.003l-0.058,0.007l-0.021,0.007l-0.019,0.031v0.005h0.023l0,0l0,0h0.003l0,0h0.014l0,0v0.001l-0.017,0.008
		v0.006l-0.009,0.011l-0.014,0.043h-0.086V0.275h-0.002l-0.023-0.008l0.018-0.004l0.005-0.006l0.002-0.002l-0.025-0.006V0.247
		h-0.014V0.228V0.204l0.014-0.007l0.023-0.003l0.023-0.008V0.184c0,0,0,0-0.06,0.001l-0.068,0.006l-0.013,0.002l-0.037,0.003h-0.035
		l-0.098,0.014c-0.075,0.017-0.125,0.036-0.188,0.045l-0.012,0.006l-0.045,0.003l-0.006,0.008c-0.125,0.051-0.218,0.061-0.313,0.115
		l-0.093-0.02l0.003-0.005l0.027-0.004l-0.156-0.025l-0.175,0.054c-0.132,0.01-0.238,0.041-0.359,0.053
		c-0.055,0.005-0.104,0.019-0.173,0.048l-0.032,0.003h-0.106l-0.01,0.003h-0.054l-0.043,0.01l-0.051,0.006l-0.074,0.003
		l-0.007,0.001l-0.076,0.046h-0.048h-0.004h-0.021c-0.088,0-0.177,0.021-0.226,0.063l-0.032,0.012
		c-0.054,0.004-0.125,0.028-0.198,0.041l0.081,0.018l-0.009,0.008l-0.044,0.009h0.051c0.063,0,0.127-0.005,0.174-0.009h0.019
		l0.094-0.002c-0.089,0.011-0.137,0.053-0.176,0.087L173.62,0.79l-0.003,0.021l-0.062,0.008c-0.054,0.053-0.114,0.065-0.249,0.123
		c-0.069,0.011-0.128,0.048-0.194,0.055l-0.047,0.013h-0.144h-0.01c-0.085,0-0.129,0-0.223,0.047l-0.094,0.026
		c-0.05,0-0.066,0-0.219-0.023c-0.045-0.003-0.098,0-0.194,0.031l-0.094,0.035c-0.025,0-0.028,0-0.106,0l-0.079,0.063l-0.078,0.001
		c-0.011,0-0.075,0.006-0.125,0.006L171.6,1.211c-0.114,0.028-0.23,0.017-0.352,0.028l-0.062,0.018l-0.014,0.001l-0.068,0.008
		l-0.063,0.036l-0.053,0.025l-0.052,0.01l-0.063,0.017h-0.054l-0.116,0.014c-0.351,0.119-0.351,0.135-0.393,0.205l0.074,0.07
		l-0.068,0.046c0.078,0,0.153,0,0.256,0v0.056l0.013,0.007l-0.013,0.052h0.107c0.019,0,0.028,0,0.099,0l0.146-0.045l0.037-0.006
		c0.074-0.001,0.102-0.001,0.227-0.01l0.096-0.007c0,0,0.019,0,0.088,0.005h0.003c-0.031,0.016-0.125,0.063-0.187,0.086
		l-0.095,0.057l-0.051,0.008c-0.081,0.008-0.167,0.053-0.238,0.063l0,0l-0.063,0.005l-0.005-0.01h-0.029V1.915h-0.01h-0.066h-0.008
		l0,0l0,0h-0.007h-0.031c0,0,0,0-0.065,0.029c-0.054,0.006-0.117,0.01-0.167,0.017h-0.034l-0.134-0.017h-0.063l-0.171,0.061
		c-0.017,0-0.08,0.018-0.143,0.018c-0.125,0.031-0.125,0.031-0.245,0.112l-0.005,0.05c0.086,0.011,0.125,0.016,0.24,0.12v0.01
		l-0.109,0.015l-0.06,0.036h-0.071v0.063l0.052,0.011l-0.052,0.015V2.5l-0.014,0.015l0.001,0.008l0.013,0.029v0.022l0.062,0.039
		l0.001,0.005v0.028l0.08,0.041h0.039l0.053-0.004l0.041-0.031l0.039-0.031l0.143-0.115c0,0,0,0,0.054,0
		c0.055,0,0.117,0.007,0.18,0.017v0.028l0.012,0.001l0.012,0.023l0.074-0.001l0.061-0.068h0.154l0.012,0.01
		c0.013,0.022,0.107,0.035,0.149,0.022l0.083-0.026l0.044-0.008l0.069-0.013l0.02-0.031l0,0l0,0h0.011h0.001h0.005l0,0h0.001l0,0
		h0.006l0.074-0.007l0.027-0.015l0.129-0.056l0.08,0.067l0.012,0.01h0.088l0.1,0.001h0.028l0.088,0.063v0.051l0.014,0.01h0.024
		c0.094,0,0.189,0,0.239,0h0.04l0.053,0.063l0.007,0.037h0.1h0.047h0.046v0.075l0.057,0.054c0.011,0,0.013,0,0.094,0l0.005,0.078
		c-0.034,0.07-0.124,0.149-0.199,0.298v0.015l0.005,0.046l0.041,0.001h0.046l0.018,0.008l0.054,0.039l0.015,0.016l-0.015,0.117
		v0.022l0.003,0.1l0.012,0.033l-0.009,0.037l0.009,0.061l-0.012,0.141L172.278,4l0.015,0.012l0.05,0.119l-0.05,0.034
		c-0.086,0.089-0.093,0.093-0.081,0.274c-0.031,0.061-0.057,0.124-0.125,0.176c-0.149,0.112-0.149,0.112-0.185,0.219h0.211
		c-0.042,0.042-0.054,0.109-0.167,0.162c-0.038,0.005-0.133,0.016-0.133,0.041c-0.064,0.025-0.065,0.042-0.073,0.074
		c4.583-0.422,8.169,0.137,8.362,1.437c0.195,1.396-3.596,3.132-8.665,4.027c-0.292,0.791-0.292,0.791-0.223,0.907
		c0.373,0,0.599-0.396,0.986-0.344c-0.041,0.185-0.082,0.344-0.144,0.558c-0.154,0.117-0.371,0.117-0.53,0.234
		c-0.097,0.084,0.662,1.874,0.668,1.883c0.558,0.833,1.043,1.256,1.425,1.24c0.057,0,0.085,0,0.217-0.029
		c0.119-0.063,0.119-0.063,0.319-0.072l0.091,0.002c0.077,0.008,0.197,0.008,0.291,0.043c0.005,0.551,0.639,0.462,0.906,0.758
		c0.109,0.181,1.19,0.191,1.149-0.308c0-0.032,0.001-0.072,0.007-0.205c0.081-0.616,1.091-1.217,0.445-1.766
		c-0.001-0.026-0.411-0.404,0.244-0.448c0.05,0,0.072,0,0.206-0.008c0.117-0.012,0.117-0.012,0.314-0.012
		c0.2-0.389,0.2-0.389,0.563-0.643c0-0.217,0-0.421,0.094-0.668l0.047-0.065c-0.003-0.321-0.125-0.391-0.25-0.529l0.035-0.093
		c0.208-0.128,0.458-0.011,0.64-0.181c0.143-0.119,0.047-0.258,0.112-0.371c0.239,0,0.5,0.001,0.739,0.001
		c-0.03-0.251-0.03-0.278,0-0.406c0.16,0,0.294,0,0.439,0.03c-0.009,0.308-0.009,0.309,0.038,0.43c0.42-0.053,0.692-0.333,1.056-0.5
		h0.135c0.182,0.041,0.182,0.041,0.489-0.077l-0.013-0.106c0.05-0.21,0.316-0.323,0.504-0.519c0.129-0.083,0.129-0.083,0.205-0.352
		c0.097-0.009,0.187-0.036,0.237-0.075c0-0.048-0.006-0.065,0.007-0.143c0.257-0.232,0.257-0.232,0.206-0.506V8.211h0.006
		l0.113,0.024l0.013,0.021l0.022,0.007l0.087,0.002l0.032,0.048l0.022,0.011l0.091,0.055c0.109,0.06,0.159,0.06,0.294,0.056
		c0.251-0.023,0.501,0.178,0.814,0.178c0.348,0,0.359-0.513,0.724-0.511c0.278,0,0.467-0.214,0.718-0.153
		c0.435,0.041,0.285-0.521,0.57-0.617c0.153,0.002,0.351,0.028,0.535,0.028c0.138-0.057,0.138-0.057,0.259-0.298l-0.044-0.085
		l-0.11-0.034l-0.125,0.125l-0.021,0.123h-0.123c-0.006,0-0.022,0-0.116,0c-0.169-0.059-0.296-0.3-0.514-0.295
		c-0.016,0-0.062,0-0.147-0.005c-0.664-0.026-0.789-0.218-0.837-0.321c-0.043-0.058-0.077-0.135-0.084-0.18
		c0.73-0.124,0.73-0.124,0.884-0.229c0.329,0.104,0.34,0.564,0.742,0.589l0.073-0.05l0.009-0.179
		c0.177-0.086,0.408,0.037,0.553-0.063c-0.25-0.338-0.583-0.453-0.915-0.719c-0.252-0.231-0.641-0.283-0.778-0.661l0.066-0.017
		c0.428,0.228,0.428,0.228,0.441,0.228c0.019,0,0.024,0,0.149-0.024l0.117,0.024c-0.11-0.148-0.11-0.148-0.146-0.34
		c-0.096-0.004-0.102-0.019-0.12-0.141c-0.006-0.106-0.316-0.411-0.633-0.117c-0.119-0.003-0.158-0.003-0.282-0.077l0.159-0.125
		c-0.035-0.043-0.035-0.043-0.376-0.171l0.029-0.045c0.112,0,0.225,0,0.347,0c0.011,0.095,0.103,0.125,0.125,0.218
		c0.125,0.002,0.223,0.008,0.416-0.029l0.063-0.078h0.114c0.017,0,0.031,0,0.157,0c0.15,0.106,0.15,0.106,0.274,0.06
		c0.088-0.506-0.673-0.295-0.961-0.506l0.053-0.077c0.369,0.077,0.5,0.03,0.532,0.003l0.005-0.107l0.125,0.032l0.125,0.014
		c0.081,0.018,0.139-0.016,0.208-0.041c-0.326-0.261-0.738-0.301-0.987-0.625c0.019-0.016,0.019-0.016,0.226-0.059
		c-0.04-0.038-0.101-0.117-0.229-0.242c-0.237-0.077-0.237-0.077-0.275-0.139c0,0,0-0.005-0.094-0.071
		c-0.254-0.119-0.566-0.073-0.817-0.273l-0.023-0.046c0.06-0.063,0.06-0.063,0.274-0.102c0,0,0.045,0,0.106,0.003
		c0.082,0,0.129,0,0.347,0.128c0.025,0.017,0.032,0.029,0.076,0.093c0.082,0.087,0.095,0.109,0.395,0.313l0.015-0.045
		c-0.148-0.158-0.315-0.332-0.532-0.489l-0.031-0.073l-0.035-0.018c-0.16-0.112-0.16-0.112-0.467-0.119c-0.01,0-0.031,0-0.125-0.001
		l-0.069-0.005c-0.092-0.048-0.123-0.104-0.153-0.189l0.061,0.026l0.092,0.007l0.069-0.033c-0.143-0.059-0.542-0.231-0.7-0.115
		l0.045,0.078c-0.113-0.014-0.188-0.05-0.345-0.203V1.458c-0.168-0.122-0.168-0.122-0.29-0.219h0.139l-0.104-0.05V1.101
		c0.003,0,0.035,0-0.009-0.05c-0.176-0.113-0.176-0.154-0.285-0.261l0.112-0.001l-0.108-0.064l-0.004-0.083l-0.084-0.056
		c-0.12-0.001-0.196-0.003-0.3-0.007l-0.109-0.067c0.102,0.004,0.152,0.051,0.198,0.051l0.072-0.047l-0.145-0.077l0.032-0.047
		c-0.028-0.023-0.131-0.032-0.175-0.057c-0.154-0.06-0.375-0.018-0.607-0.071c-0.019-0.007-0.057-0.007-0.151-0.007l0,0l0,0l0,0
		v0.01c0.094,0.052,0.132,0.068,0.151,0.097c-0.05,0-0.125,0-0.276-0.029l-0.034,0.063l0,0l0,0h-0.028l0,0l0,0h-0.003
		c0,0,0,0-0.048,0.05l0.048,0.116c-0.185-0.166-0.185-0.166-0.248-0.199c-0.009-0.029-0.063-0.029-0.175-0.102
		c-0.138-0.035-0.138-0.051-0.232-0.065c-0.029,0-0.044,0-0.094,0l-0.066,0.031l0.066,0.046c-0.051,0-0.144,0-0.188,0.043
		l-0.063-0.07h0.044l0.062-0.019c-0.169-0.034-0.169-0.034-0.319-0.023c-0.038,0-0.132,0-0.21-0.007
		c-0.079,0-0.128,0.014-0.153,0.045l0,0l0,0h-0.064h-0.007l-0.035,0.005h-0.004l0,0h-0.003l0,0l0,0l-0.003,0.004l-0.117,0.004
		l0.033-0.077c0.122,0,0.263,0,0.401-0.029c0.125,0,0.241,0,0.407-0.035h0.063l-0.157-0.026h-0.063c0,0,0,0-0.072,0
		c-0.079-0.006-0.226-0.031-0.351-0.035l0.009,0.001c-0.031,0-0.037,0-0.15-0.001l-0.12-0.006h-0.086h-0.019l-0.088-0.02
		l-0.031,0.02h-0.154l-0.006-0.025l0.042-0.01c0.119,0.003,0.3,0.005,0.42,0.005C179.832,0.012,179.764,0,179.717,0h-0.076
		c-0.041,0-0.091,0-0.153,0h-0.042c-0.097,0-0.194,0-0.31,0H179.1h-0.026c0,0-0.009,0-0.101,0.027l-0.112-0.011
		c-0.022,0-0.035,0-0.122-0.017c-0.038,0-0.142,0-0.175,0.012c-0.004,0-0.016,0-0.098,0h-0.094h-0.007h-0.008l-0.104,0.016v0.02l0,0
		l0.044,0.006v0.001v0.002l-0.06,0.031l0,0V0.082V0.078h-0.003h-0.013l-0.009-0.001h-0.009h-0.001V0.074H178.2V0.056h-0.069v0.018
		l-0.057,0.002l-0.015,0.011l0,0l0.018,0.026h0.007h0.047l0,0h0.035h0.034h0.002l0.006,0.013l0.004,0.051v0.003v0.004l-0.009,0.008
		l-0.038,0.017l-0.035-0.007l0,0l-0.063-0.01l-0.009-0.002h-0.001l-0.049-0.008l-0.075-0.036h-0.01l-0.006-0.007V0.126V0.115V0.114
		l0,0h-0.003h-0.037l0,0h-0.001h-0.053c-0.078-0.011-0.134-0.026-0.213,0h-0.038h0.016l0.01,0.001l-0.026,0.033v0.014v0.016
		l-0.015,0.016l-0.005,0.009l-0.051,0.043l-0.016,0.004h-0.028l-0.01-0.002l-0.006-0.001h0.003l-0.009-0.019l0.009-0.017
		l-0.009-0.007V0.203V0.194V0.178l0,0l0,0V0.145V0.142l-0.076-0.026l0,0l0.063-0.001h0.013h-0.013h-0.067h-0.021
		c-0.019,0-0.028,0-0.115,0.031l-0.098,0.041l-0.003,0.008l-0.047,0.003l-0.015,0.007l-0.151,0.052l-0.021,0.006l-0.075-0.008
		c0.015-0.004,0.016-0.004,0.075-0.027l0.122-0.034l0.038-0.008l0.021-0.004l0.054-0.003l0,0V0.148l0.003-0.022l0.041-0.011
		l0.057-0.001l0,0l0,0h0.012l-0.012-0.026l-0.057,0.026h-0.097h-0.022h-0.037h-0.031h-0.006h-0.02h-0.043l-0.072,0.001h-0.003
		h-0.072h-0.034l-0.016,0.011l-0.047,0.022H176.633z"/>
	<path fill="#F2F2F2" d="M190.761,1.486c0,0-0.038-0.032-0.258-0.055c-0.155-0.06-0.284-0.094-0.406-0.125
		c-0.482-0.041-0.893-0.181-1.316-0.253l-0.044-0.001c0.156,0.048,0.295,0.074,0.467,0.102c0.072,0.033,0.079,0.036,0.141,0.047
		c0.689,0.153,0.689,0.153,0.755,0.2c-0.003-0.001-0.003-0.001-0.495-0.125c-0.025-0.009-0.11-0.019-0.141-0.036
		c-0.06-0.011-0.126-0.028-0.182-0.038c-0.02-0.012-0.079-0.016-0.132-0.025c-0.3-0.075-0.3-0.075-0.414-0.089
		c0.145,0.038,0.282,0.089,0.42,0.116h-0.094c-0.064-0.015-0.175-0.05-0.242-0.078c-0.165-0.007-0.288-0.066-0.416-0.102
		c0.1,0.036,0.173,0.067,0.25,0.1c-0.026,0-0.123,0-0.151-0.004v0.007c0.698,0.204,1.403,0.324,2.074,0.563
		c-0.327-0.071-0.545-0.198-0.859-0.23c0.376,0.114,0.782,0.283,1.153,0.345c0-0.041,0-0.041-0.423-0.158
		c0.279,0.002,0.535,0.158,0.771,0.175h0.047l0.082,0.001c0,0-0.471-0.138-0.604-0.188c-0.079-0.063-0.172-0.063-0.242-0.071h0.016
		c0.226,0.009,0.226,0.009,0.618,0.177l0.136,0.003l-0.16-0.064l0.111,0.024c0.156,0.047,0.281,0.1,0.439,0.116l0.104,0.061
		c-0.006,0.002-0.006,0.002-0.047-0.003l-0.064-0.041l-0.15-0.016l0.106,0.061c-0.105,0.001-0.105,0.001-0.117,0
		c0.006,0.031,0.006,0.031,0.141,0.078c0.125,0.045,0.247,0.093,0.372,0.115V2.061l0.102,0.003c0.149,0.055,0.149,0.055,0.179,0.053
		c-0.019-0.056-0.019-0.056-0.166-0.125V1.99c0.157,0.032,0.166,0.032,0.513,0.205v0.006c-0.106-0.012-0.106-0.012-0.238-0.013
		c0.05,0.063,0.627,0.248,0.752,0.251c0.112,0,0.39,0.081,1.236,0.374l0,0c-0.012-0.04-1.124-0.476-1.229-0.547l0.043-0.015
		c-0.288-0.066-0.525-0.179-0.802-0.257l0.069,0.004c-0.074-0.044-0.081-0.053-0.988-0.31c0.029,0,0.154,0,0.187,0
		c1.228,0.365,1.228,0.365,2.173,0.677h0.046c-0.051-0.059-0.164-0.095-0.265-0.139c0.101,0.016,0.177,0.04,0.657,0.216l0.108,0.005
		c-0.025-0.011-0.025-0.011-0.364-0.134c0.025,0,0.113,0.001,0.182,0.016l-0.05-0.025l-0.14-0.054
		c-0.368-0.116-0.752-0.191-1.12-0.296c-0.038-0.004-0.114-0.009-0.176-0.01c-0.419-0.141-0.827-0.209-1.215-0.372
		c-0.032,0-0.627-0.118-0.81-0.136L190.761,1.486z"/>
	<path fill="#F2F2F2" d="M164.924,1.915c-0.125,0.035-0.2,0.075-0.32,0.108l0.246-0.03l0.233-0.044l0.281-0.051
		c0.137-0.022,0.251-0.096,0.375-0.133c-0.062,0.024-0.125,0.037-0.187,0.037c-0.051,0-0.125,0-0.188,0L164.924,1.915z"/>
	<path fill="#F2F2F2" d="M155.097,6.115c0.041-0.005,0.11-0.041,0.635-0.263l0.377-0.05l0.719-0.352l0.384-0.273l0.268-0.228
		l0.129-0.144c0.721-0.242,0.721-0.242,1.176-0.58l0.237-0.156l-0.237,0.045l-0.471,0.202h-0.087l0.062-0.073l-0.345,0.073
		l-0.407,0.207l-0.316,0.233c-0.818,0.384-0.818,0.384-0.886,0.376c0.021-0.045,0.029-0.07,0.262-0.202l-0.188,0.014l-0.47,0.232
		l-0.17,0.151l-0.15,0.16l0.063,0.074C155.031,6.004,155.031,6.004,155.097,6.115z"/>
	<path fill="#F2F2F2" d="M164.311,11.115c-0.056-0.013-0.15-0.013-0.244-0.028l0.227,0.05L164.311,11.115z"/>
	<polygon fill="#F2F2F2" points="189.978,1.275 190.097,1.306 190.097,1.306 	"/>
	<path fill="#F2F2F2" d="M206.232,6.322c-0.098-0.035-0.197-0.065-0.223-0.134l2.266,1.15c-0.007-0.008-0.094-0.023-0.109-0.023
		c-0.11-0.052-0.134-0.114-0.251-0.128c0.008,0.011,0.117,0.014,0.117,0.055l-0.117-0.043c-0.154-0.111-0.376-0.219-0.53-0.313
		c-0.13-0.074-0.362-0.158-0.568-0.25L206.232,6.322z"/>
	<path fill="#F2F2F2" d="M203.875,5.256c0.296,0.141,0.656,0.292,0.907,0.431l0.288,0.117l0.479,0.216
		c0.139,0.055,0.313,0.142,0.46,0.167l-0.498-0.228c0.022,0.039,0.03,0.048,0.044,0.056l-0.037-0.056l-0.103-0.008
		c-0.174-0.099-0.384-0.186-0.618-0.266l0.109,0.01c-0.125-0.069-0.251-0.072-0.339-0.128l-0.066-0.058
		c-0.134-0.033-0.222-0.086-0.347-0.125l0.133,0.043c-0.125-0.039-0.399-0.171-0.642-0.279C203.67,5.178,203.779,5.24,203.875,5.256
		z"/>
	<path fill="#F2F2F2" d="M206.624,6.514c0.038,0.045,0.063,0.05,0.134,0.058c0.154,0.065,0.364,0.18,0.53,0.293
		c-0.283-0.158-0.53-0.293-0.667-0.361l0.012,0.009c-0.4-0.192-0.738-0.336-1.077-0.498l0.677,0.306
		C206.333,6.392,206.482,6.454,206.624,6.514z"/>
	<path fill="#F2F2F2" d="M209.286,7.876c-0.126-0.047-0.134-0.064-0.214-0.117l-0.113-0.018l-0.317-0.226L209.286,7.876
		L209.286,7.876z"/>
	<path fill="#F2F2F2" d="M208.675,7.614c0.151,0.067,0.368,0.146,0.485,0.263c0.134,0.067,0.284,0.114,0.422,0.192V8.064
		c-0.085-0.047-0.155-0.086-0.255-0.136c-0.033-0.051-0.033-0.051-0.041-0.051l-0.645-0.361l-0.092-0.003l-0.016-0.014l-0.259-0.137
		V7.337c0,0.023,0,0.028,0.016,0.029L208.675,7.614z"/>
	<path fill="#F2F2F2" d="M207.443,6.947c-0.037-0.056-0.147-0.082-0.155-0.082c0,0,0.072,0,0.097,0.019
		C207.414,6.892,207.414,6.936,207.443,6.947z"/>
	<path fill="#F2F2F2" d="M161.053,3.603l0.617-0.25l0.125-0.148l0.323-0.164l-0.213,0.029l-0.548,0.141l-0.414,0.166l-0.354,0.231
		c0.07-0.004,0.137-0.004,0.194-0.004l-0.055,0.091L161.053,3.603z"/>
	<path fill="#F2F2F2" d="M207.827,7.122c0.065,0.01,0.088,0.055,0.088,0.064c-0.008-0.051-0.029-0.064-0.141-0.1L207.827,7.122z"/>
	<path fill="#F2F2F2" d="M207.886,7.125c0.037,0.067,0.154,0.129,0.28,0.189c0,0,0,0,0.008,0
		C208.04,7.254,207.923,7.197,207.886,7.125z"/>
	<path fill="#F2F2F2" d="M211.918,9.517l0.055,0.008c-0.072-0.075-0.188-0.091-0.306-0.164l0.008,0.003
		c-0.141-0.136-0.141-0.136-0.235-0.175c-0.236-0.135-0.421-0.266-0.634-0.378l-0.118-0.047c0.136,0.072,0.265,0.16,0.368,0.238
		C211.377,9.176,211.652,9.334,211.918,9.517z"/>
	<path fill="#F2F2F2" d="M165.17,3.239h0.005l0.439-0.276l-0.126-0.08l-0.203-0.07l-0.524,0.102l-0.658,0.125l-0.344,0.029
		l-0.183-0.063L163.24,3.04l0.31-0.227l0.51-0.229l0.427-0.219c-0.088,0-0.185,0.016-0.257,0.018
		c-0.187,0.053-0.483,0.071-1.548,0.657l-0.698,0.258l-0.31,0.192l-0.181,0.204l0.429-0.064c0.141-0.027,0.332-0.104,0.454-0.128
		c-0.069,0.078-0.12,0.13-0.182,0.208l0.003,0.031c0.038,0.006,0.088,0.014,0.376-0.031c0.163-0.006,0.342-0.008,0.476-0.01
		l0.36-0.083l0.321-0.126l-0.108,0.133c0.866-0.064,0.866-0.064,1.109-0.194C164.824,3.365,164.924,3.298,165.17,3.239z"/>
	<path fill="#F2F2F2" d="M158.741,8.884l-0.117,0.327l0.368,0.048l0.547-0.126l0.556-0.369l0.161-0.384
		c-0.717,0.056-0.717,0.056-0.776,0.06C159.468,8.439,159.223,8.575,158.741,8.884z"/>
	<path fill="#F2F2F2" d="M162.977,4.494l-0.295,0.269l0.626,0.011l0.552-0.203l0.588-0.119V4.165l-0.588-0.024
		c-0.166,0.006-0.3,0.008-0.444,0.008L162.977,4.494z"/>
	<path fill="#F2F2F2" d="M160.095,9.679l-0.117,0.077l-0.88,0.531l-0.125,0.507l-0.92,0.121l-0.327-0.096
		c-0.141,0.001-0.289,0.003-0.439,0.006l-0.922,0.426c-0.099,0.177-0.217,0.324-0.38,0.493l0.613,0.116l0.564-0.049l0.319-0.259
		l0.364-0.17l0.279,0.081l0.497,0.184l0.23,0.667l-0.122,0.363l0.122,0.457c0.188,0,0.392-0.007,0.626-0.008l0.263,0.619l0.98,0.011
		l0.471,0.302l0.244-0.408l-0.592-0.766l-0.248-0.32l0.062-0.378l0.449,0.32l0.806,0.582l0.447,0.345
		c0.091-0.177,0.178-0.377,0.251-0.56l0.626-0.503l-0.417-0.297l0.301-0.75l-0.584-0.246l-0.071-0.161
		C161.128,10.688,160.27,10.24,160.095,9.679z"/>
	<path fill="#F2F2F2" d="M203.035,19.395v0.114c0.021,0.061,0.07,0.102,0.117,0.195c0.008,0.177,0.218,0.247,0.126,0.438
		c-0.376,0.062-0.376,0.062-0.151,0.433c0.104,0,0.188,0,0.276,0c0.092-0.07,0.103-0.089,0.501,0.25c0.097,0,0.204,0,0.267,0
		c-0.054-0.19-0.054-0.19-0.054-0.32c0.005,0,0.572,0.555,0.539,0.8c-0.368,0.008-0.221,0.197,0,0.405
		c0.251,0.016,0.448,0.016,0.705,0.027v-0.152c0.431,0.236,0.549,0.813,1.017,1.041c0.066,0.313,0.066,0.313,0.143,0.364
		c0.167,0.237,0.233,0.32,0.134,0.408l-0.422-0.009c-0.113-0.055-0.223-0.122-0.369-0.122l-0.117-0.031h-0.087
		c-0.041,0.038-0.041,0.038-0.092,0.157l-0.012,0.171c-0.021-0.008-0.14-0.008-0.201-0.008l0.016,0.161
		c0.289,0.146,0.815,0,0.827,0.398c-0.06,0-0.075,0-0.162,0.018c-0.054,0.119-0.054,0.119-0.025,0.267
		c-0.1,0.03-0.115,0.036-0.233,0.03h-0.021h-0.009h-0.009l0,0h-0.041h-0.008h-0.008h-0.006c0.135,0.675,0.452,0.461,0.564,0.4
		c0.084-0.038,1.146,0.148,1.146,0.148c0.029,0.016,0.191,0.228,0.037,0.349c-0.163,0.126-0.431-0.012-0.635,0.109
		c-0.008,0.051,0,0.125-0.025,0.176c-0.115,0-0.115,0-0.397,0.054c0.131,0.336,0.131,0.336,0.134,0.53
		c-0.134,0.135-0.171,0.135-0.338,0.229c0.226,0.118,0.226,0.118,0.598,0.023l0.113-0.132L206.82,26.2
		c0.177,0,0.302,0.072,0.435,0.129c0.126,0,0.269,0,0.394,0c-0.117-0.352-0.109-0.364-0.094-0.446
		c1.104,0.218,1.104,0.043,1.097-0.148l0.008-0.071c0.259,0.033,0.421,0.271,0.656,0.333h0.096c0.205-0.082,0.384,0.055,0.53-0.019
		c0.104-0.051,0.104-0.156,0.104-0.281c0.071-0.055,0.242,0.054,0.368-0.06c-0.07-0.262-0.335-0.398-0.465-0.568l-0.014-0.125
		c-0.016-0.069-0.016-0.069,0-0.154c0.026-0.032,0.126-0.017,0.228-0.032c0,0-0.056-0.186-0.102-0.307
		c0.102,0.008,0.196,0.008,0.282,0.008c-0.056-0.133-0.095-0.209-0.173-0.345c-0.298-0.153-0.501-0.488-0.76-0.685l-0.117,0.071
		c0.021,0.063,0.021,0.063,0,0.361c-0.134,0.089-0.134,0.089-0.744-0.9c-0.062-0.006-0.237-0.011-0.384-0.017
		c-0.126-0.393-0.251-0.569-0.251-0.569c-0.141-0.202-0.439-0.299-0.627-0.438l-0.147-0.064c-0.073-0.228-0.383-0.273-0.479-0.501
		c-0.038-0.175-0.524-0.641-0.768-0.661c-0.479-0.006-0.862-0.111-0.611-0.498c-0.041-0.075-0.041-0.075-0.041-0.16
		c0.166,0,0.166,0,0.245-0.016c-0.071-0.043-0.071-0.086-0.079-0.156c-0.125-0.182,0.11-0.311,0.008-0.497
		c-0.107-0.203-0.217-0.363-0.346-0.575c-0.381-0.006-0.782-0.012-1.191-0.108c-0.008-0.122-0.008-0.122,0.041-0.132
		c0.01-0.169-0.141-0.235-0.141-0.377c0,0,0.141-0.25,0.141-0.295c-0.141-0.125-0.141-0.125-0.266-0.131h-0.126
		c-0.008,0-0.125,0-0.163,0c-0.087,0.007-0.125,0.033-0.589-0.006l-0.016,0.012c0.119,0.17,0.126,0.37,0.142,0.578
		c0.103,0.142,0.196,0.315,0.258,0.501c-0.258,0.018-0.425-0.163-0.663-0.178c-0.354-0.044,0.037,0.465,0.045,0.503
		C202.729,19.334,202.902,19.256,203.035,19.395z"/>
	<path fill="#F2F2F2" d="M201.664,18.623l0.157,0.061l0.107-0.061c0.004-0.044,0.004-0.044,0.032-0.129l0.01-0.056v-0.082
		l0.031-0.006c0.141,0.003,0.251,0.003,0.258-0.023l-0.014-0.091l-0.088-0.054l0.063-0.18V18c-0.063-0.077-0.071-0.181-0.079-0.229
		l-0.008-0.031l-0.214,0.063c-0.068,0.08-0.06,0.148-0.109,0.198l-0.13,0.011l-0.018,0.026l0.018,0.147
		c-0.018,0.061-0.074,0.148-0.074,0.242C201.607,18.476,201.648,18.563,201.664,18.623z"/>
	<path fill="#F2F2F2" d="M202.393,23.114c0.023,0.159,0.104,0.315,0.149,0.508c-0.126,0.004-0.259,0-0.32,0.011
		c-0.176,0.228,0.062,0.438,0.054,0.676c-0.133,0.017-0.188,0.089-0.054,0.328c0.054,0.121,0.376,0.238,0.376,0.238
		c0.138,0.059,0.179-0.117,0.338-0.117c0,0,0.17,0,0.343,0.124c0.125-0.006,0.25-0.178,0.25-0.194c0-0.04,0-0.04-0.008-0.194
		c0-0.066,0.08-0.066,0.126-0.167c0.376,0.064,0.768,0.072,1.261,0.092c-0.117-0.109-0.125-0.168-0.125-0.225
		c-0.093-0.141-0.226-0.213-0.235-0.388c0.109-0.091,0.109-0.091,0.109-0.185c0-0.122-0.109-0.438-0.368-0.989
		c-0.023-0.094-0.104-0.195-0.133-0.329c0.251,0.024,0.259-0.103,0.251-0.237c-0.038-0.211-0.251-0.247-0.384-0.457
		c-0.03-0.087-0.039-0.196-0.144-0.297c-0.008-0.008-0.1-0.041-0.217-0.116c-0.016-0.018-0.118,0.036-0.142-0.018
		c-0.021-0.033-0.117-0.053-0.15-0.112h-0.092c-0.093,0-0.251,0.102-0.259,0.112v0.158l-0.133,0.045
		c-0.157-0.079-0.289-0.236-0.486-0.307c-0.117-0.017-0.242,0.05-0.313,0.05c0.135,0.246,0.173,0.503,0.306,0.755h-0.102h-0.016
		l-0.109,0.073c-0.023,0.035-0.079-0.004-0.164,0l-0.069,0.044c-0.018,0.055-0.121,0.069-0.174,0.061
		c-0.157-0.109-0.157-0.109-0.265-0.099c0.113,0.361,0.242,0.749,0.367,1.119C202.121,23.114,202.121,23.114,202.393,23.114z"/>
	<path fill="#F2F2F2" d="M165.289,25.364c0.07-0.039,0.326-0.359,0.204-0.574c-0.065-0.075-0.065-0.075-0.097-0.142
		c-0.087,0-0.157-0.006-0.279-0.006c-0.01,0-0.348,0.062-0.451,0.16c-0.129,0.143-0.055,0.328-0.129,0.496
		c-0.163,0.344-0.163,0.344-0.356,0.507c-0.007,0.006-1.817,1.641-1.875,1.743c-0.05,0.06-0.176,0.218-0.234,0.469
		c-0.021,0.116,0.046,0.285,0.004,0.433c0.863,0,1.741-0.065,2.649-0.065c0.212,0.065,0.307,0.09,0.517,0.366
		c0.373,0.498,0.564,0.578,0.812,0.7c0.065-0.067,0.081-0.067,0.245-0.122c0.071-0.038,0.284-0.113,0.268-0.868
		c-0.006-0.459-0.006-0.459,0.359-0.89l0.067-0.116c-0.012-0.087-0.012-0.218-0.063-0.328c-0.416,0-0.416,0-0.51-0.086
		c0,0-0.492-0.278-0.617-0.481c-0.064-0.109-0.07-0.137-0.188-0.202c-0.219-0.055-0.444-0.022-0.678-0.055
		c-0.143-0.043-0.212-0.103-0.332-0.192C164.932,25.516,164.932,25.516,165.289,25.364z"/>
	<path fill="#F2F2F2" d="M134.421,17.103c0.438-0.425,0.882-0.814,1.384-1.228C135.286,16.306,134.881,16.648,134.421,17.103z"/>
	<path fill="#F2F2F2" d="M177.423,98.584c0.15-0.063,0.332-0.227,0.495-0.342c0.066-0.711,0.066-0.75,0.335-1.242
		c0.213-0.111,0.213-0.111,0.486-1.666c0-0.045,0-0.1,0.109-0.412c0.323-0.596,0.333-1.033,0.339-1.18c0-0.096,0-0.195-0.016-0.453
		c-0.034-0.08-0.034-0.18-0.071-0.297c0.017-0.143,0.028-0.258-0.026-0.57c0.003-0.4,0.005-0.783,0.245-1.18
		c0.185-0.096,0.185-0.096,1.367-1.555c0.394-0.041,0.506-0.135,0.77-0.445l1.417-1.922c0.338-0.695,0.338-0.695,0.351-1.086
		c0-0.01-0.076-2.057-1.109-2.525c-0.289,0-0.646,0-0.922,0c-1.592-0.459-1.592-0.459-1.704-1.383
		c-0.983-0.631-0.983-0.631-1.673-0.438c-0.445,0-0.84-0.008-1.367-0.008c-1.343-0.514-1.343-0.514-1.722-0.375
		c0,0.104,0,0.229,0,0.361c-0.276,0.18-0.41,0.25-1.106-0.096c0-0.076,0-0.188,0-0.313c0.132-0.07,0.336-0.217,0.473-0.32
		c-0.396-0.326-1.26-0.904-2.394-1.125c-0.075,0-0.137,0-0.451-0.125c-0.534-0.232-0.602-0.279-1.229-0.193
		c0.038,0.318,0.047,0.639,0.05,0.982c-0.272,0-0.575,0-0.839,0c0-0.164-0.049-0.303,0-0.553c0.1-0.119,0.244-0.322,0.333-0.453
		c0.12-0.088,0.213-0.125,0.269-0.227c-0.026-0.064-0.103-0.195-0.149-0.236c0,0-0.566-0.195-1.172-0.445h-0.232
		c-0.076,0-0.138,0-0.458,0.07c0.046,0.713,0.054,1.025-0.823,0.861c-0.003-0.133-0.004-0.273,0-0.486l-0.004-0.32
		c0.372,0,0.451,0,0.881-0.146c0.242-1.195,0.019-1.68-0.053-1.867c-0.175,0.014-0.439,0.014-0.595,0
		c-0.029-0.383-0.038-0.758-0.151-1.322c-0.087-0.365-0.333-0.678-0.458-1.053c-1.064-0.25-1.187-0.555-1.258-0.869
		c-1.558-0.584-1.558-0.584-1.665-0.625c-0.541-0.297-1.031,0.07-1.576,0.041c-0.11,0-0.213,0-0.365,0
		c-2.518-0.484-2.515-1.484-2.512-1.922c-0.997-0.508-0.997-0.508-1.298-0.744c0-0.055,0-0.156-0.282-0.242
		c-0.501-0.279-0.501-0.383-0.491-1.008c-0.059,0-0.134,0-0.343,0.078c-0.312,0.064-0.563,0.229-0.89,0.25
		c-0.257-0.203-0.257-0.203-0.296-0.828c0.084-0.006,0.216-0.092,0.309-0.107c0.008-0.072,0.029-0.195,0.033-0.311
		c-0.451-0.225-0.451-0.225-0.821-0.307l-0.444,0.406c-0.023,0-0.064,0-0.251-0.117c-0.129-0.031-0.382-0.064-0.562-0.07
		c-0.278,0.273-0.334,0.725-0.579,1.006c-0.104,0-0.232,0-0.355,0c-0.441-0.709-0.442-0.709-1.132-0.818c-0.313,0-0.669,0-1.116-0.1
		c-0.146-0.033-0.388-0.082-0.56-0.137c-0.016-0.207-0.023-0.432-0.276-0.627c-0.486-0.16-0.855-0.486-1.306-0.611
		c-0.085,0.049-0.193,0.125-0.25,0.188c-0.007,0.029-0.007,0.029-1.121,1.188c0.244,1.246,0.244,1.246,0.244,1.551
		c-0.081,0.117-0.147,0.164-0.213,0.236c-0.333-0.516-1.21-2.273,0.266-3.5l-0.115-0.211c-0.12,0-0.251,0-0.501,0.008
		c-0.527,0.203-0.527,0.219-0.445,0.938c-0.376,0-0.721,0.01-1.084,0.01c-1.223,0.832-1.223,0.832-1.878,0.844
		c0.024,0.436,0.042,0.85,0.027,1.326c-0.232,0.234-0.232,0.234-0.798,0.461c-0.015,0.82-1.223,1.297-0.778,2.367
		c0.075,0.008,0.208,0.008,0.279,0.008c0.077,0.889,1.165,1.834,0.18,2.631c-0.089,1.604-0.089,1.604-0.634,1.729
		c0.063,0.154,0.125,0.467,0.176,0.711c-0.113,0.086-0.32,0.232-0.43,0.328c-0.003,0.178-0.009,0.344-0.016,0.469
		c-0.602,0.203-0.608,0.514-0.501,1.258c-0.238,0-0.47,0.006-0.665,0.07c0.182,0.602,0.128,1.242,0.346,1.805
		c0.276,0.139,0.565-0.008,0.846,0.014c0.031,0.188,0.057,0.32,0.089,0.461c-0.053,0.109-0.103,0.182-0.157,0.307
		c-0.158,0.016-0.376,0.115-0.489,0.266c0.096,0.641-0.38,1.313,0.112,1.881c0.001,0.072,0.006,0.119,0.075,0.211
		c0.357,1.813,2.5,2.195,2.995,3.875c0.054,0.158,0.106,0.313,0.125,0.5c0.458,0.586,0.599,1.367,1.178,1.861
		c1.065,0.975,1.01,3.396,3.078,3.125c1.899-0.236,2.05,2.357,3.822,2.35c0.187,0.625,0.363,1.25,0.563,1.922
		c0,0.221,0.066,0.375,0.146,0.563l-0.008,0.117c0.045,0.041,0.051,0.063,0.114,0.313c0.057,0.086,0.116,0.188,0.169,0.25
		c0.001,0.018,0.001,0.104,0.001,0.344c0.01,0.174,0.081,0.406,0.149,0.539l-0.012,0.109c0.013,0.025,0.084,0.119,0.193,0.338
		c0.017,0.031,0.07,0.17,0.121,0.264l0.006,0.094c0.009,0.063,0.055,0.088,0.053,0.438c0.06,0.133,0.185,0.375,0.311,0.525
		c0.016,0.061,0.024,0.086,0.057,0.193c0.021,0.031,0.03,0.064,0.056,0.174c0.081,0.576-0.049,1.211,0.199,1.732
		c0.18,0.594,0.18,0.594,0.389,2.445c0.057,0.01,0.058,0.033,0.167,0.197c1.199,2.008,1.604,2.693,1.341,3.615
		c0.012,0.117,0.098,0.229,0.241,0.461c0.051,0.07,0.11,0.156,0.125,0.25c0.181,0.195,0.181,0.195,0.125,1.281
		c0.73,0.719,0.827,1.83,1.555,2.492c0.514,0.463,0.382,1.283,1.089,1.602c0.11,0,0.2,0,0.311,0l-0.712-1.107
		c0.136-0.008,0.259-0.008,0.389-0.008c0.075,0.146,0.169,0.258,0.26,0.414c-0.013,0.068-0.046,0.219-0.05,0.336
		c0.17,0.154,0.317,0.365,0.477,0.615c0.004,0.049,0.004,0.049,0.792,1.26c-0.183-0.117-0.407-0.221-0.551-0.354l-0.089-0.125
		c-0.08-0.021-0.149-0.133-0.224-0.164c0.012,0.008,0.021,0.018-0.088,0.031c0.088,0.111,0.194,0.219,0.348,0.352
		c0.517,0.299,0.517,0.299,0.877,0.768c-0.269-0.094-0.503-0.291-0.793-0.361c0.104,0.117,0.221,0.229,0.221,0.344
		c0,0.117,0.008,0.164,0.036,0.268c0.589,0.367,1.304,0.514,1.756,1.094c-0.166,0.014-0.383,0.139-0.483,0.24
		c0.031,0.023,0.041,0.041,0.263,0.219c0.129,0.104,0.317,0.219,0.463,0.336c0.004,0,0.042,0.008,0.221,0.275
		c0.322,0.193,0.631,0.475,0.945,0.686l-0.047,0.102l0.235,0.063c0.013,0,0.066,0,0.257,0.094c0.112,0.135,0.307,0.25,0.479,0.281
		l0.066,0.086l2.198,1.164c0.006,0.025,0.026,0.025,0.14,0.094c0.397,0.135,0.422,0.135,0.876,0.25c0.019,0,0.035,0,0.31,0.057
		c0.179,0,0.322,0,0.619-0.008c0.024-0.049,0.086-0.143,0.123-0.174c-0.35-0.148-0.4-0.193-0.87-0.25
		c-0.044-0.086-0.113-0.115-0.42-0.211c0,0-0.445-0.279-0.94-0.732c-0.02-0.039-0.024-0.057-0.223-0.182
		c-0.219-0.211-0.472-0.365-0.674-0.602c-0.029-0.014-0.034-0.031-0.187-0.203c-0.114-0.053-0.189-0.186-0.302-0.303
		c-0.019-0.025-0.112-0.143-0.169-0.211c0.161,0,0.282-0.018,0.357-0.057c-0.125-0.148-0.262-0.344-0.341-0.514
		c0.073-0.041,0.153-0.111,0.215-0.143c-0.063-0.201-0.142-0.459-0.215-0.617c0.047-0.07,0.084-0.195,0.153-0.295
		c-0.068-0.025-0.105-0.111-0.388-0.195c-0.057-0.01-0.176-0.041-0.263-0.055c-0.927-0.643-0.927-0.643-1.046-0.775
		c-0.004-0.039-0.048-0.1-0.102-0.289c0.079-0.117,0.157-0.186,0.221-0.25c0.181,0,0.376,0,0.564,0
		c-0.119-0.225-0.232-0.461-0.373-0.836c-0.035-0.289-0.167-0.617-0.117-0.875c0.082,0,0.232,0.008,0.305,0.008
		c0.009-0.039,0.019-0.172,0.042-0.258c-0.029-0.045-0.042-0.092-0.24-0.25l0,0h-0.025l0,0h-0.012h-0.006h-0.001h-0.006l-0.05,0.008
		c-0.078,0.078-0.179,0.104-0.253,0.15c-0.191-0.141-0.191-0.141-0.577-0.658c-0.053-0.133-0.125-0.25-0.191-0.406
		c0.065,0,0.124,0,0.25,0c0.175,0.094,0.388,0.174,0.571,0.281c0.244,0,0.453,0,0.694,0c-0.012-0.045-0.082-0.17-0.13-0.271
		c-0.022-0.018-0.051-0.07-0.111-0.273c0-0.352,0-0.352-0.332-0.83c-0.05-0.045-0.067-0.18-0.122-0.289c0.188,0,0.369,0,0.683-0.006
		c0.118-0.041,0.175-0.041,0.45-0.047c0.075-0.041,0.176-0.064,0.246-0.133c0.244,0,0.438,0,0.701,0.045
		c0.106,0,0.231,0.023,0.298,0.041c0.01-0.525,0.423-0.883,0.611-1.354l0.07-0.25c-0.058-0.107-0.121-0.258-0.138-0.414
		c-0.061,0-0.113,0-0.292-0.023c-0.012-0.102-0.066-0.227-0.129-0.438c-0.313-0.391-0.876-0.49-1.187-0.928
		c0.215-0.01,0.385-0.01,0.623-0.01c2.006,0.447,2.463,0.547,2.627-0.195c0.011-0.045,0.018-0.125,0.03-0.242
		c-0.852,0.211-1.763,0.336-2.707,0.336c-5.347,0-9.697-3.023-9.697-6.75c0-3.758,4.35-6.844,9.697-6.844
		c4.181,0,7.721,1.883,9.067,4.438c0.564,0,1.116,0,1.667-0.063c0.011-0.156,0.083-0.396,0.177-0.521
		C176.949,99.607,177.335,98.914,177.423,98.584z"/>
	<path fill="#F2F2F2" d="M168.302,0.942l0.559-0.129l0.07-0.023h-0.057c-0.176,0.029-0.32,0.083-0.507,0.101h0.071l-0.447,0.103
		L168.302,0.942z"/>
	<path fill="#F2F2F2" d="M232.871,95.881c-0.439,0.016-0.32,0.611-0.618,0.783c-0.423-0.133-0.423-0.133-1.551,1.555
		c-0.502,0.678-0.634,1.615-1.373,2.17l-0.021-0.014c-0.496,0.531-0.939,1.117-1.374,1.625c-0.076,0.107-0.084,0.131-0.108,0.172
		c-0.218,0.32-0.397,0.578-0.572,0.859c-0.037,0.086-0.163,0.211-0.28,0.35c-0.197,0.283-0.425,0.602-0.651,0.916l0.017,0.053
		c0.103,0.008,0.134,0,0.251,0.008c-0.155,0.25-0.155,0.25-0.155,0.281l0.013,0.008v0.117c1.119-0.295,5.623-6.758,5.634-6.867
		c0.095-0.1,0.156-0.178,0.232-0.303c0.074-0.135,0.128-0.25,0.229-0.375c0.017-0.072,0.034-0.102,0.056-0.213
		c0.154-0.139,0.33-0.342,0.476-0.578c0.011-0.031,0.111-0.094,0.111-0.186c1.275-2.258,1.275-2.393,1.247-2.695
		C234.233,93.867,234.233,93.867,232.871,95.881z"/>
	<path fill="#F2F2F2" d="M241.252,70.803c-0.104,0.057-0.28,0.078-0.405,0.119c0-0.023-0.018-0.041-0.438,0.063
		c-0.025-0.117-0.151-0.188-0.188-0.313c-0.012-1.258-0.012-1.258-0.121-1.588c0-2.721-1.755-5.082-1.596-7.881
		c0-0.128,0-0.281,0-0.555c0-0.022-0.362-2.951-1.371-6.273c0.084,0.26,0.093,0.541,0.181,0.813
		c0.781,4.837,0.383,8.945-1.049,9.171c-1.37,0.216-3.08-3.487-3.881-8.343c-0.614-3.649-0.501-6.881,0.181-8.334
		c-1.316-0.75-2.482-1.634-4.033-1.846c0.159,0.864,0.414,1.653,0.469,2.492c-0.063,0.008-0.208,0.06-0.313,0.06
		c-0.1,0-0.192,0-0.476,0c-0.36-0.331-0.522-0.815-1.059-1.004c-0.422,0-0.83-0.05-1.307-0.133c-0.134-0.227-0.15-0.547-0.275-0.735
		c-0.776-0.905-2.035-0.905-2.976-1.558c-1.002-0.716-0.283-2.167-1.144-2.935c0-0.086,0-0.261-0.008-0.389
		c0.133-0.087,0.367-0.314,0.462-0.501c-0.579-0.375-0.579-0.375-1.059-0.55c-0.797,0.175-0.797,0.175-2.216,0.281
		c-0.109,0.137-0.413,0.324-0.571,0.432c-0.844-0.752-0.844-0.752-2.373-0.443c-0.041,0.077-0.134,0.226-0.167,0.324
		c-0.556-0.035-1.079-0.043-1.691,0.213c0,0.229-0.029,0.474-0.147,0.696c-0.479,0.114-0.969-0.014-1.378,0.227
		c-0.047,0-0.118,0-0.384-0.055c-0.126-0.016-0.259-0.055-0.384-0.058c0-0.008,0-0.008-0.243,0
		c-0.877,0.003-1.095-0.177-1.412-0.466c-0.122-0.065-0.263-0.17-0.382-0.209c-0.337,0.561-0.063,1.202-0.211,1.804
		c-0.627,0.031-0.627,0.031-1.128-0.003c0.029,0.526,0.133,1.058,0.22,1.625c-0.463,0-0.931-0.028-1.34,0.179
		c0,0.919-0.093,1.809-0.041,2.738c0.025,0.239,0.041,0.469,0.07,0.711c-0.397-0.006-0.74-0.016-1.079,0.18
		c-0.094,1.218-1.003,1.555-1.561,1.64c-0.306,0.025-1.894,3.946-1.901,3.977c-0.118,0-0.251-0.008-0.368-0.019l-0.347,0.073
		c-0.084,0.047-0.21,0.148-0.317,0.203c0.116,2.158-0.149,2.25-0.974,2.555c-0.084,0.111-0.125,0.245-0.133,0.375
		c0,0.257,0,0.497,0.181,0.813c1.553,0.257,1.553,0.257,1.691,0.541c-0.448,0.813-0.448,0.813-0.448,3.534c0,0.122,0,0.301,0,0.448
		c0,0.306,0,0.306-0.789,1.12c0.016,0.537,0.258,1.009,0.351,1.501c0,0.163-0.021,0.31-0.021,0.808c0,0.006,1.543,2.658,2.954,3.408
		c-0.018,0.625-0.188,2.279,2.059,2.475c1.4-5.232,5.428-8.702,9.157-7.77c3.757,0.914,5.686,5.895,4.409,11.186
		c0.885,0.023,1.754,0.109,2.522,0.148c-0.047,0.414-0.117,0.865-0.218,1.311c-0.301,0.908-0.301,0.908-1.199,3.916
		c-0.221,0.109-0.479,0.242-0.501,0.414c0.022,0.195,0.288,0.383,0.501,0.467c0.251,0.611,0,1.275,0.531,1.744
		c-0.227,1.797,0.776,3.584-0.117,5.271c-0.109,0.156-0.125,0.338-0.259,0.742c-0.008,0.188,0.016,0.5,0.134,0.729l-2.686,4.396
		c-1.701,1.125-1.333,4.945-1.31,4.986c-0.532,1.084-0.55,1.6-0.65,1.756c-0.296,0.619-0.626,1.125-1.02,1.828
		c-0.008,0.047-1.973,5.016-2.223,5.766c-0.016,0.031-0.104,0.047-0.237,0.189c-0.622,0.318-0.622,0.318-0.766,0.795
		c0.102,0,0.125,0-0.008,0.283c-0.025,0.021-0.133,0.133-0.243,0.25c0.064,0.115,0.071,0.24,0.085,0.365
		c0.268,0,0.519,0.018,1.043-0.008c0.228-0.1,0.486-0.172,0.719-0.242c0.298,0,0.637,0.07,1.195-0.086
		c2.958-2.803,6.709-4.646,9.7-7.529l6.76-8.25c0.12-0.221,0.196-0.383,0.434-0.854c0.087-0.18,0.227-0.482,0.306-0.688
		c0.338-0.709,0.759-1.467,1.04-2.279c0.143-1.369,0.994-2.5,1.254-3.838c0.024-0.084,0.024-0.156,0.088-0.32
		c1.135-2.514,3.032-4.625,4.126-7.193c2.187-5.156,2.187-5.156,2.666-8.471c0.004-0.303,0.029-0.576-0.2-0.779
		C241.344,70.563,241.313,70.695,241.252,70.803z M225.837,99.232c-3.125,4.018-6.54,6.539-7.653,5.664
		c-1.143-0.857,0.456-4.797,3.547-8.803c3.175-4.041,6.596-6.58,7.718-5.697C230.576,91.264,228.962,95.234,225.837,99.232z"/>
	<path fill="#F2F2F2" d="M146.33,60.797c0.116,0,0.248-0.008,0.382-0.008c0.342,0.008,0.342,0.008,0.624-0.341
		c0.12-0.185,0.602-0.243,0.602-0.243c0.207,0,0.436,0.109,0.646,0.109c0.2,0,0.429-0.109,0.635-0.109
		c0.68,0.031,1.369-0.134,1.47-0.194c0.153-0.06,0.213-0.06,0.393,0c0.133,0.068,0.829,0.174,0.967,0.174c0.156,0,0.25,0,0.4-0.047
		c0.143-0.005,0.206-0.122,0.331-0.164l0.058-0.023c-0.111-0.121-0.309-0.065-0.38-0.222c-0.096-0.205,0.009-0.419,0.009-0.646
		c-0.731,0.215-0.77,0.227-1.181,0.227c-0.134,0-0.26,0-0.385,0c-0.207-0.067-0.377-0.19-0.571-0.227c-0.057,0-0.137,0-0.206,0
		c-0.177,0.065-0.227,0.292-0.414,0.336l-0.634,0.004c-0.303,0-0.375-0.291-0.608-0.34c-0.324-0.097-0.45-0.411-0.777-0.435
		l-1.362-0.022c-0.198,0-0.198,0-0.692,0.116c-0.019,0.438-0.022,0.868-0.022,1.317C145.951,60.517,146.208,60.765,146.33,60.797z"
		/>
	<path fill="#F2F2F2" d="M152.404,13.476c-0.081,0.022-0.176,0.025-0.551,0.231c-0.097,0.039-0.194,0.099-0.272,0.122
		c0.013,0.062,0,0.133,0.066,0.188c0.013,0.005,0.147-0.001,0.206-0.025c0.382-0.104,0.677-0.347,0.874-0.491l0.046-0.003
		l0.132-0.244c-0.08,0.019-0.188,0.112-0.31,0.168C152.531,13.436,152.531,13.436,152.404,13.476z"/>
	<path fill="#F2F2F2" d="M153.778,14.336c0.015-0.074,0.118-0.157,0.165-0.272c0.079-0.117,0.16-0.276,0.273-0.429l-0.423-0.056
		l-0.63,0.258l-0.278,0.665c0.204-0.003,0.351-0.004,0.543-0.007L153.778,14.336z"/>
	<path fill="#F2F2F2" d="M241.975,54.777v0.138c0.083,0.266,0.121,0.569,0.125,0.857v-0.038c-0.004-0.176-0.004-0.376-0.004-0.572
		l-0.092-0.042C241.975,55.017,241.975,54.882,241.975,54.777z"/>
	<path fill="#F2F2F2" d="M159.539,26.329c-0.188,0-0.196,0-0.296-0.016c-0.259-0.114-0.32-0.262-0.33-0.313
		c-0.063-0.128-0.123-0.178-0.197-0.178c-0.091,0-0.176,0.05-0.243,0c-0.108,0.061-0.268,0.144-0.396,0.186
		c0.094,0.048,0.226,0.078,0.327,0.186c0.067,0.065,0.063,0.164,0.124,0.256l0.035,0.073c0.088,0.053,0.167,0.155,0.232,0.228
		c0.061,0.053,0.119,0.147,0.185,0.214c0.06,0.048,0.102,0.086,0.185,0.113c0.076,0.048,0.251,0.055,0.796-0.572l0.019-0.008
		c-0.109-0.048-0.171-0.141-0.251-0.169C159.665,26.313,159.556,26.329,159.539,26.329z"/>
	<path fill="#F2F2F2" d="M213.616,10.516c0.056,0.037,0.071,0.056,0.182,0.101l0.337,0.255c0.108,0.064,0.193,0.136,0.305,0.203
		c0.486,0.322,0.987,0.664,1.488,1.003c0,0.001,0,0.004,0,0.008c0-0.008,0-0.014-0.033-0.017c-0.719-0.518-1.455-1.045-2.215-1.51
		c-0.008-0.006-0.063-0.039-0.104-0.065l0.096,0.059C213.672,10.539,213.672,10.521,213.616,10.516z M215.882,12.04
		c-0.455-0.296-0.849-0.579-1.309-0.867C215.033,11.462,215.427,11.762,215.882,12.04z"/>
	<path fill="#F2F2F2" d="M138,70.656l1.295,0.781l0.7,0.344l-0.115-0.844l0.3-0.557l1.197,0.078l0.137,0.547l0.417-0.021
		l0.135-0.775l-0.462-0.633c-0.416,0.008-0.848,0.055-1.236,0.055l-0.802-0.055l-1.165-0.053l-0.533-0.471l-0.774-1.047
		l-0.041-0.793c-0.01-0.375-0.047-0.713-0.051-1.08l0.214-1.395c-0.019-0.148-0.019-0.262-0.025-0.426
		c-1.269-0.131-2.469-0.624-3.528-1.375l-0.125,0.078l-0.501-0.453l0.059-0.108c-0.737-0.656-1.407-1.462-1.87-2.384l-0.37,0.063
		l-0.807,0.384l-0.813,0.194l-0.367-0.756l-0.633-0.531l-0.188-0.837l-0.392-1.154l-0.112-1.935l0.063-1.371l0.436-1.114
		l0.297-1.219l-0.147-1.246l0.777-1.239l0.455-0.059l0.625-0.633l0.613-0.781l0.689,0.102l0.438,0.251l0.454-0.251l0.056,0.048
		c1.422-1.673,3.382-2.728,5.557-2.728c0.835,0,1.65,0.174,2.406,0.473c0.063-0.086,0.107-0.18,0.135-0.281l0.644-1.122l0.754-0.352
		l0.968-0.875l0.89-0.67l0.852-0.365l0.251-0.668l0.683-0.406l-0.326-1.042l-0.248-0.516l0.278-0.551l-0.206-0.509l0.648-0.359
		l0.316,0.727l0.472-0.781l0.463-0.64l0.482-0.441l0.702-1.427c0.376,0,0.761,0,1.135,0l0.826-0.518l0.875-0.083l-0.078-0.535
		l0.25-1.191l0.796-0.832c0.226,0,0.456,0,0.707-0.021l0.309-0.529l0.882,0.077l0.934-0.532l0.69-0.675
		c1.503-0.045,1.503-0.045,2.029,0.244c-0.09,0.092-0.212,0.159-0.332,0.219c-0.381,0-0.761,0.008-1.237,0.103
		c-0.773,0.5-0.773,0.5-0.786,1.149l0.448,0.195l0.629-0.44l0.434-0.258l0.82-0.246l0.874-0.4l0.856-0.197l0.78-0.731l0.729-0.556
		l0.202-0.624l-0.875,0.231l-0.756,0.948l-1,0.022l-0.716-0.392l-0.635-0.633l-0.147-1.115l0.839-0.558l0.189-0.897l-0.98-0.102
		l-1.238,0.377l-1.429,0.732l-1.511,1.242l-1.146,0.701l0.533-0.643l0.79-0.72l0.45-0.352l-0.833-0.228
		c0.394-0.008,0.771-0.012,1.153-0.012l0.482-0.622l0.822-0.545l0.761-0.057l0.51-0.677l0.756-0.25c0.351,0,0.673,0,1.031-0.007
		l1.852-0.082l0.967,0.192l0.758-0.063l0.869-0.559l0.868-0.695l1.271-0.122l0.689-0.244l0.389-0.366l-0.322-0.305l0.338-0.329
		l0.215-0.657l-0.875-0.109l-0.067-0.408c-0.304,0-0.63,0-0.94,0l-0.868,0.408l-0.552,0.33l-0.381-0.133l0.309-0.502l0.924-0.273
		l1.06-0.228l0.55-0.396l-0.636-0.042l-0.563-0.289l-0.775-0.219l-0.375-0.45l-0.427-0.467l-0.109-0.384l0.36-0.082l0.23-0.311
		l-0.312-0.646l-0.341-0.763l-0.347-1.254l-0.042-0.609l-0.898,0.767c-0.119,0.214-0.233,0.446-0.314,0.657l-0.789,0.249
		l-0.583,0.47l-0.642-0.046l0.073-0.372l-0.259-0.333L157.456,17l0.525-0.711c0.175-0.343,0.327-0.65,0.493-0.984l0.238-0.482
		l-0.694-0.009l-0.331-0.371l-0.156-0.492l-0.495-0.526l-0.439,0.253l-0.705-0.031l-0.16-0.155
		c-0.263,0.003-0.501,0.006-0.764,0.008l-0.564,0.338l-0.063,0.529l-0.564,0.695l-0.227,0.461l-0.144,0.625
		c-0.171,0.002-0.313,0.002-0.435,0.002l-0.372,0.649l-0.47,0.334l0.194,0.304l0.325,0.444l-0.331,0.805
		c-0.17,0.337-0.351,0.641-0.502,0.945l-0.782,0.723l-0.859,0.521l-0.884,0.143l0.027,0.813c-0.17,0.372-0.358,0.749-0.534,1.109
		l-0.075,0.624l-0.335,0.517l-0.681,0.679l-0.873,0.124l-0.044-0.89l-0.188-0.808c0.111-0.23,0.242-0.44,0.329-0.676l0.359-0.908
		l0.519-0.775l-0.901-0.129l-0.649-0.007l-0.191-0.245l-0.711-0.247l-0.016-0.449l-0.371-0.431l-0.37-0.508l-1.078,0.324
		l0.123-0.449l0.447-1.053l-0.188-0.307l0.07-0.391l1.179-1.262l1.193-0.931l1.125-0.853l0.79-0.311l0.77-0.413l0.244-0.454
		l-0.425-0.141l-0.365-0.266l0.616,0.094l0.417,0.201l0.398-0.109l0.501-0.45l0.32,0.218l0.425-0.109l0.382-0.342l0.326-0.175
		l0.59-0.494l-0.359-0.021l-0.424-0.041l0.1-0.251l-0.231-0.264l0.354,0.008l0.353,0.189l0.232,0.157l0.564-0.214l0.727-0.398
		l0.026-0.327c0.144-0.032,0.299-0.032,0.42-0.032l-0.096,0.296l-0.513,0.334l-0.822,0.672c-0.244,0.235-0.494,0.519-0.745,0.778
		l-0.613,0.222l-0.201,0.339l0.434,0.033c-0.116,0.092-0.207,0.206,0.013,0.347c0.105-0.027,0.25-0.075,0.368-0.094l0.558-0.442
		l0.565,0.005l0.276,0.056l0.184,0.186c0.167-0.026,0.333-0.035,0.491-0.036l0.427-0.453l-0.383-0.108l0.256-0.556l-0.507-0.042
		l-0.044-0.415l-0.301-0.122c0.107-0.096,0.227-0.189,0.345-0.311l0.267,0.053l0.392-0.229l0.172-0.231
		c0.179,0,0.3-0.003,0.441-0.017l0.551-0.371l0.753-0.391l0.435-0.256l0.076-0.311l0.367-0.523l0.485-0.096l0.495-0.387l0.144-0.361
		l-0.16-0.183l-0.107-0.27c0.195-0.003,0.332-0.006,0.52-0.01l0.298-0.188l0.321,0.019l0.067,0.224l0.445-0.045l0.503-0.103
		l0.069-0.327l0.302-0.08l-0.075,0.393l0.369,0.016l-0.247,0.374l0.25,0.095l-0.128,0.278l0.204,0.125l-0.146,0.375
		c0.857-0.653,2.339-1.323,4.216-1.875l-0.232-0.145l-0.47,0.053l0.137-0.22l-0.354-0.008l-0.097-0.053l0.476-0.197l-0.263-0.136
		l-0.639,0.146l0.069-0.321l0.184-0.195l-0.286-0.008l0.283-0.236l-0.257-0.144c-0.179,0.003-0.37,0.004-0.577,0.008l-0.313,0.186
		l-0.376,0.054l-0.178-0.054l-0.379,0.228l-0.341,0.029l0.404-0.302l0.544-0.253l0.271-0.365l0.351-0.267
		c-0.15,0.006-0.293,0.006-0.452,0.007l-0.564,0.238l-0.338,0.008l-0.485,0.176l-0.56,0.311l-0.317,0.341l-0.486,0.237l-0.376,0.425
		l-0.283,0.07l0.255-0.383l0.674-0.5l0.458-0.313l0.773-0.366l0.72-0.246c-0.106,0.002-0.247,0.003-0.373,0.01l-0.54,0.064
		l-1.039,0.403l-1.175,0.563l-1.182,0.756l0.232,0.074l0.239,0.006l-0.297,0.289l-0.184-0.053l-0.539,0.115l-0.217,0.361
		c0.142-0.014,0.271-0.014,0.401-0.015l0.33-0.082l-0.042,0.195l0.284,0.195l-0.514,0.144l-0.43,0.338l-0.066,0.242l-1.183,0.692
		l-0.741,0.488l-0.729,0.411l-0.109-0.14l0.501-0.615l0.626-0.368l0.191-0.53l-0.903,0.444l0.474-0.749l-0.013-0.089l0.567-0.39
		l0.545-0.393l-0.122-0.045l0.469-0.341l0.291-0.356l-0.349-0.003l-0.412,0.2l-0.214,0.053l-0.765,0.372l-0.379,0.289l-0.389,0.217
		l-0.292,0.414l-0.068,0.25l-0.613,0.368l-0.213-0.093l-0.497,0.435l0.371-0.053l0.748-0.322c-0.225,0.167-0.411,0.314-0.623,0.472
		l-1.248,0.49l-0.814,0.705l0.068-0.361l0.745-0.5c-0.081,0.016-0.156,0.016-0.212,0.02l0.542-0.442
		c0.084-0.002,0.153-0.003,0.234-0.008l0.797-0.619l0.01-0.333l-0.744,0.44l-0.552,0.208l-0.226,0.477l-0.613,0.276l-0.594,0.371
		l-0.948,0.117l-0.008-0.274l-0.173-0.045l0.173-0.376l-0.655,0.309l-0.852,0.332l-0.553,0.467l-1.04,0.713l0.921-0.824l0.132-0.3
		l-0.589,0.179l-0.514-0.07l0.327-0.246l0.607-0.241l0.333-0.387l-0.245,0.053l0.189-0.389l0.451-0.293l-0.082-0.053l-0.143,0.053
		l-0.546,0.263l-0.239,0.117l1.031-0.62l-1.038,0.556l0.01-0.056l1.232-0.692l0.131-0.104l-0.89,0.482l-0.604,0.308l-0.197,0.122
		l-0.501,0.251l-0.564,0.306c-1.636,0.999-3.55,2.256-5.014,3.205c-2.711,1.945-2.711,1.945-7.591,6.382l-0.848,0.804l0.146-0.111
		l-0.279,0.295l-0.464,0.492l-0.125,0.185l-0.481,0.492l-0.217,0.289l-0.461,0.475l-0.087,0.164l0.012,0.049l-0.492,0.544
		l-0.438,0.572l-0.527,0.657l-0.476,0.626l0.088,0.07l-0.56,0.717l-0.458,0.716l-0.325,0.519l-0.14,0.389l-0.024,0.244l0.012,0.193
		l-0.27,0.417l-0.143,0.499l-0.152,0.45l-0.558,0.997c-0.163,0.304-0.358,0.563-0.539,0.864l0.235-0.538l0.254-0.642l0.244-0.438
		l0.117-0.399v-0.126l0.428-0.667l-0.124,0.007l0.125-0.329l0.068-0.126v-0.119l-0.182,0.119l-0.288,0.522l-0.128,0.3l-0.185,0.447
		l-0.25,0.749l-0.433,0.791l-0.514,1.015l-0.498,0.871l-0.68,1.151c-0.222,0.453-0.445,0.875-0.695,1.328l-0.271,0.328
		c-0.137,0.274-0.27,0.594-0.419,0.891l-0.307,0.884l-0.473,0.925l-0.289,0.693l-0.142,0.609l-0.424,0.93l-0.136,0.725l-0.05,0.603
		l-0.367,1.319l-0.003,0.5l-0.185,0.695l-0.066,0.797c0.11-0.05,0.188-0.061,0.26-0.065l0.076,0.544l0.165,0.417l0.057,0.675
		l-0.146,0.843l-0.075,0.852l-0.211,1.422l0.097,0.617l0.131,0.688l-0.012,0.5l-0.338,0.516l0.088,0.549l0.188,0.563l0.285,0.569
		l0.148,0.678l-0.125,0.578l0.013,0.484l0.301,0.297l0.228,0.633l0.188,0.501l-0.063,0.647l0.235-0.234l0.089-0.701l-0.033-0.782
		l-0.259-0.299l0.059-0.688l-0.282-0.547v-0.891l0.031-0.844l-0.193-0.636l0.075-0.809l-0.189-0.243l0.02-1.013l-0.085-0.862
		l0.24-1.125l0.229-0.063l0.274,0.297l0.04,0.633l-0.196,0.96l0.13,1.284l0.219,0.971l0.254,0.753l0.153,0.7l-0.037,0.856
		l0.35,0.476l0.219,0.788l0.157,0.836l0.434,1.125l0.124,1.055l0.245,0.447l-0.301,0.405l-0.125,0.637l0.564,0.981l0.498,0.772
		l0.661,0.376l0.664,0.696l0.831,0.654l0.978,0.771l0.798,0.359l0.516-0.114l0.162-0.448l0.582-0.106l0.698,0.5l0.777,0.898
		l0.421,0.774c0.229-0.02,0.456-0.02,0.633-0.043c0.11,0,0.173-0.012,0.279-0.012l0.341,0.222l0.439,0.802l0.849,0.344l0.006-0.534
		l0.454,0.308c1.5,2.594,1.5,2.594,1.387,3.131l0.3,0.408l0.364-0.221l0.461,0.307C137.542,70.701,137.542,70.701,138,70.656z
		 M127.002,37.702c-1.152-0.867,0.477-4.838,3.587-8.85c3.129-3.987,6.577-6.565,7.724-5.684c1.128,0.859-0.494,4.844-3.591,8.832
		C131.595,36.009,128.117,38.587,127.002,37.702z"/>
	<path fill="#F2F2F2" d="M242.1,56.184c-0.004-0.411-0.096-0.793-0.125-1.136c0-0.111-0.012-0.215-0.063-0.353
		c0.063,0.487,0.063,0.487,0.188,1.877l-0.042-0.107l-0.083-0.027c0-0.055,0-0.175-0.009-0.191l-0.079-0.063
		c0,0.206-0.008,0.422,0,0.636c-0.15-0.248-0.259-0.935-0.197-1.084v-0.116c0.047-0.06,0.047-0.06,0.047-0.06
		c0,0.051,0.05,0.145,0.113,0.185c0.021-0.134,0.029-0.169-0.063-0.438l-0.041-0.044l-0.015,0.044
		c-0.103-0.138-0.103-0.29-0.257-0.384c-0.019-0.041-0.043-0.048-0.075-0.048c-0.055-0.368-0.085-0.707-0.146-1.074
		c-0.36-1.278-0.995-2.528-1.011-3.919c0.104,0.049,0.288,0.094,0.73,1.953c0.342,1.172,0.618,1.728,0.681,1.938l0.071,0.039h0.013
		v-0.117c0-0.013,0-0.013,0-0.013c0.017,0.091,0.017,0.091,0.109,0.331l0.004,0.073c0.037,0.237,0.1,0.474,0.125,0.692l-0.063-0.528
		l0.153,0.914l0,0c0.03,0,0.03,0,0.03,0v0.005v-0.005l-0.184-0.922c-0.401-1.881-0.878-4.453-1.342-6.366
		c0.063,0.209,0.116,0.438,0.146,0.67l-0.188-0.67l-0.008-0.048c-0.051-0.225-0.139-0.496-0.176-0.762
		c0.037,0.222,0.125,0.422,0.17,0.633l0.021,0.051l0.024,0.038c0,0.04,0,0.072-0.032,0.087c0.004-0.016,0.032-0.041,0.032-0.048
		c0-0.008,0-0.021,0-0.04c0.009,0.04,0.009,0.072,0.009,0.087c0-0.041,0-0.056-0.009-0.125l-0.305-0.895
		c0,0.044,0.07,0.044,0.07,0.073l-0.111-0.375c-0.1-0.232-0.146-0.477-0.217-0.725l-0.424-1.478l0.006,0.096l-0.006-0.087
		c-0.078-0.132-0.119-0.273-0.195-0.423c-0.108-0.271-0.149-0.542-0.259-0.815c0.142,0.441,0.292,0.878,0.454,1.229
		c-0.643-1.92-0.934-2.683-1.607-4.297l0.63,1.571l0.109,0.383c-0.338-0.858-0.618-1.711-0.99-2.504
		c-0.647-1.802-1.03-2.484-1.987-4.385c-0.046-0.064-0.093-0.12-0.164-0.234c-0.789-1.501-1.608-2.997-2.482-4.403
		c-0.877-1.54-1.331-2.18-2.507-3.803l-0.212-0.228c-0.414-0.628-0.916-1.246-1.348-1.808c-1.322-1.567-3.139-3.7-4.525-5.183
		l-0.313-0.326c-4.748-4.507-4.748-4.507-7.482-6.492l-2.561-1.769c-0.434-0.261-0.823-0.543-1.215-0.795
		c0.259,0.15,0.502,0.299,0.696,0.439c-0.069-0.057-0.077-0.064-0.157-0.117l-0.076-0.042c-0.188-0.116-0.352-0.23-0.559-0.352
		c-0.037-0.011-0.047-0.028-0.113-0.069V9.934c-0.004-0.008-0.012-0.011-0.018-0.014c0,0,0-0.022-0.008-0.022l0,0l0,0
		c-0.259-0.152-0.548-0.344-0.785-0.516c0.246,0.178,0.26,0.18,0.534,0.383v0.001l0.265,0.171l0.074,0.061
		c0.427,0.402,1.149,0.577,1.525,1.175l0.029,0.019c-0.444-0.273-0.883-0.513-1.282-0.817l0.045-0.003
		c-0.171-0.131-0.313-0.246-0.531-0.359c-0.141-0.114-0.141-0.114-0.25-0.141c-0.149-0.106-0.306-0.192-0.518-0.309h-0.008
		c-0.205-0.113-0.205-0.113-0.288-0.174c-0.08,0-0.08-0.004-0.105-0.004c0.096,0.065,0.251,0.175,0.284,0.245
		c0.109,0.034,0.197,0.05,0.243,0.111c0.376,0.202,0.649,0.408,1.002,0.644c0.627,0.435,0.627,0.435,0.656,0.465
		c0.104,0.065,0.222,0.094,0.552,0.288c0.046,0.055,0.046,0.104,0.079,0.114c0.24,0.21,0.554,0.38,0.826,0.577
		c-0.1-0.019-0.141-0.063-0.233-0.089c-0.133-0.102-0.201-0.124-0.25-0.172c-0.088-0.043-0.11-0.085-0.214-0.12l-0.055,0.035
		c0.181,0.215,0.431,0.448,0.645,0.667v0.045c0.425,0.311,0.877,0.604,1.253,0.928c-0.125-0.012-0.158-0.039-0.327-0.102
		l-0.049-0.004c-0.217-0.077-0.54-0.227-1.049-0.625c0.297,0.431,0.383,0.476,0.759,0.662c0.14,0.116,0.14,0.116,0.244,0.204
		c0.054,0.041,0.091,0.041,0.125,0.041c0.172,0.023,0.305,0.145,0.597,0.379c-0.008,0.055-0.079,0.048-0.175,0.035l0.126,0.1
		c-0.502-0.098-1.475-0.872-1.839-1.178c-0.133-0.057-0.151-0.063-0.185-0.063l-0.522-0.397c-0.83-0.68-1.812-1.087-2.71-1.714
		c0.397,0.156,1.604,0.752,1.613,0.756c0.213,0.036,0.274,0.036,0.392,0.086c0.204,0.064,0.368,0.18,0.619,0.259
		c0.016,0.006,0.029,0.006,0.029,0.008l0.096,0.001c-0.039-0.07-0.084-0.143-0.088-0.205c-1.128-1.125-3.029-1.931-3.421-2.1
		c-0.214-0.125-0.214-0.125-0.368-0.202c-0.259-0.135-0.298-0.141-0.43-0.18c-0.057,0.047-0.072,0.047-0.072,0.045
		c-0.25-0.109-0.464-0.218-0.71-0.315l-0.146-0.035c0.259,0.132,0.259,0.132,0.464,0.249c-0.08,0-0.109-0.002-0.109-0.002
		c-0.133-0.063-0.133-0.063-0.509-0.314c-0.039-0.021-0.085-0.073-0.126-0.073c-0.242-0.114-0.242-0.114-0.626-0.336l-0.126-0.031
		l0.093,0.116c-0.047-0.002-0.047-0.002-0.64-0.229c-0.149-0.083-0.205-0.083-0.307-0.139l0.135,0.001
		c-0.117-0.063-0.184-0.138-0.283-0.183c-0.744-0.384-1.161-0.453-1.161-0.453c0.166,0.077,0.299,0.181,0.495,0.26
		c-0.242-0.045-0.329-0.116-0.454-0.179c-0.041-0.019-0.126-0.075-0.167-0.134c-0.117-0.07-0.176-0.094-0.217-0.124
		c-0.118-0.003-0.235-0.032-0.36-0.032c0.493,0.274,0.493,0.274,0.626,0.357c0.118,0.065,0.134,0.095,0.196,0.156l0.118,0.031
		l-0.056,0.017c-0.392-0.275-0.43-0.284-0.734-0.417c-0.033-0.036-0.129-0.036-0.158-0.036l-0.376-0.221l-0.118-0.045l0.008,0.045
		l0.11,0.07l-0.118,0.025c0.126,0.108,0.276,0.203,0.401,0.297l-0.033,0.055c0-0.038-0.154-0.058-0.376-0.227
		c-0.125-0.072-0.179-0.077-0.266-0.078l-0.031,0.078c0.134,0.189,0.423,0.343,0.799,0.43c0.133,0.075,0.25,0.157,0.368,0.239
		l-0.118-0.006c-0.125-0.1-0.376-0.102-0.501-0.164c-0.117-0.006-0.125-0.008-0.218-0.008c0.594,0.352,0.594,0.371,0.719,0.484
		c-0.476-0.184-0.906-0.445-1.378-0.661c0,0.09,0.087,0.139,0.217,0.19c0.041,0.056,0.676,0.425,0.785,0.643
		c-0.125,0.031-0.125,0.031-0.548-0.28l0.055,0.101l-0.055,0.064c0.047,0.067,0.149,0.116,0.18,0.17
		c0.126,0.091,0.368,0.147,0.494,0.228c0.109,0.069,0.125,0.108,0.141,0.148l0.109,0.083c-0.266-0.083-1.04-0.541-1.087-0.553
		c0.047,0.107,0.181,0.189,0.335,0.309c-0.096,0.002-0.163,0.002-0.258,0.002c0.008,0.048,0.008,0.048,0.291,0.265
		c-0.025,0.045-0.056,0.057-0.15,0.064c0.021,0.048,0.102,0.156,0.117,0.189l-0.096,0.031c0.096,0.059,0.111,0.148,0.222,0.208
		l-0.118-0.017l0.021,0.087c0.104,0.047,0.214,0.047,0.237,0.049c-0.016-0.049,0-0.155,0.01-0.18h0.1V9.086
		c0.033-0.023,0.126-0.084,0.126-0.152c0.322,0.028,0.409,0.067,0.585,0.242c-0.084-0.026-0.168-0.028-0.217-0.035l0.086,0.086
		l-0.132,0.019c0.095,0.203,0.633,0.697,0.688,0.76l-0.125,0.006c0.008,0,0.854,1.384,1.011,1.557l-0.1-0.094
		c-0.058,0.222-0.058,0.222-0.042,0.297c-0.047,0.039-0.104,0.095-0.158,0.158c0.059,0.028,0.117,0.111,0.158,0.188l0.126,0.032
		c0.125-0.023,0.158-0.022,0.25-0.022c0.197,0.199,0.197,0.199,0.218,0.25c-0.008,0.078-0.008,0.175-0.008,0.23l-0.131,0.02
		c0.031,0.122,0.031,0.183,0,0.239c1.417,0.393,3.297,1.314,5.264,2.584c-0.167-0.146-0.321-0.32-0.463-0.489
		c0-0.377-0.394-0.539-0.468-0.897l0.115-0.001c0.015-0.113,0.057-0.18-0.125-0.424c0.068-0.036,0.135-0.056,0.22-0.055
		c-0.133-0.215-0.133-0.215-0.243-0.387v-0.083l0.1-0.03c-0.07-0.653-0.748-0.661-1.061-1.068l0.045-0.086
		c-0.188-0.232-0.413-0.406-0.439-0.472c0.014-0.03,0.126-0.055,0.182-0.03c0.069,0.022,0.069,0.022,0.069,0.022l0,0h0.006
		l0.004,0.003l0,0l0,0h0.004c0.175,0.067,0.339,0.181,0.605,0.359l-0.062-0.116c0.146,0,0.153,0,0.688,0.343
		c0.221,0.202,0.343,0.3,0.486,0.45c-0.046,0-0.134-0.016-0.243-0.025c0.752,0.606,0.768,0.667,0.861,0.911
		c-0.109-0.009-0.15-0.047-0.242-0.057l-0.103,0.065c0.862,1.428,0.862,1.428,1.692,2.249c0.139,0.117,0.146,0.118,0.21,0.196
		c0.034,0.007,1.419,1.05,2.07,1.296l0.015,0.006c0-0.063,0-0.131,0-0.219c0.133-0.037,0.33,0.088,0.479,0.041
		c-0.009-0.069-0.018-0.131-0.034-0.182c0.182-0.078,0.33-0.07,0.565,0l-0.016-0.139c0.045-0.008,0.107-0.008,0.107-0.008
		c0.15,0.134,0.276,0.259,0.446,0.375c0.126,0,0.243,0.001,0.347,0.012l0.143,0.172l0.101,0.07
		c-0.101,0.003-0.101,0.003-0.314,0.002c0,0.19,0,0.19,0.307,0.745c-0.307-0.001-0.478-0.262-0.752-0.351l-0.088,0.09
		c-0.06-0.001-0.06-0.001-0.296-0.056l-0.094,0.082l0.014,0.114c-0.038-0.019-0.163-0.081-0.163-0.106l-0.125,0.049
		c0.125,0.266,0.25,0.413,0.25,0.413l0.008,0.091l-0.133-0.08l0,0l-0.015-0.006c-0.11-0.009-0.11-0.009-0.236-0.103l-0.102-0.136
		L216.54,18l-0.062,0.001L216.43,18l-0.03,0.001l-0.016,0.075l0.095,0.116l0.055,0.012l0.045,0.042
		c0.102,0.083,0.102,0.083,0.117,0.083h0.085l0,0l0,0l0,0h0.008l0,0l0.143,0.099c-0.125,0.006-0.272,0.048-0.353,0.144
		c0.228,0.364,0.478,0.413,0.758,0.45c0.081-0.094,0.081-0.231-0.006-0.348c0.564,0.06,1.31,0.938,1.31,0.95
		c-0.11,0.19-0.11,0.19,0.132,0.519c0.031,0.116-0.041,0.116-0.094,0.116c-0.048-0.045-0.048-0.045-0.707-0.554h-0.083
		c-0.056-0.093-0.168-0.212-0.205-0.32c-0.117,0-0.125-0.008-0.235-0.008c0.272,0.547,0.402,0.961,0.572,1.274
		c0.335,0.476,0.641,0.873,0.908,1.3c0.016,0.011,0.023,0.048,0.023,0.048l0.015,0.143c0.612,1.033,0.809,1.912,0.354,2.404
		c-0.689,0.978-3.155,0.405-6.141-1.236h-0.008h-0.125c-0.259-0.043-0.335-0.074-0.744-0.074c-0.008,0.068-0.008,0.14-0.008,0.179
		c-0.134,0.071-0.251,0.149-0.321,0.219c0.07,0.359,0.07,0.359-0.076,0.499l-0.222-0.122c-0.016,0-0.022,0-0.133,0l-0.11-0.005
		c-0.049,0.005-0.141,0.005-0.141,0.005c-0.088,0.076,0,0.19,0.033,0.3l0.343,0.185c0.095,0.154,0.133,0.359,0.251,0.511
		c-0.339-0.019-0.384,0.098-0.76,0.747c-0.038,0-0.118,0-0.14,0c-0.137,0-0.274,0-0.354-0.007c0.046,0.308,0.167,0.62,0.337,0.965
		c-0.345-0.017-0.454-0.017-0.743,0.086c0.038,0.195,0.123,0.346,0.164,0.53c-0.164,0-0.351-0.004-0.486-0.047
		c-0.141-0.042-0.141-0.042-0.524-0.084c-0.155-0.104-0.243-0.18-0.251-0.204c-0.039-0.092-0.209-0.186-0.353-0.195
		c-0.008,0.202,0.077,0.386,0.126,0.558l0.188,0.075c0.039,0.12,0.047,0.258,0.165,0.389l0.125,0.185
		c0,0.055,0.023,0.132,0.041,0.211c-0.936,0.054-1.412-0.396-1.412-0.396c-0.752,0.274-0.752,0.274-0.774,0.396
		c0.022,0.039,0.022,0.107,0.022,0.149c0.159,0.143,0.243,0.143,0.276,0.143c0.351,0.411,0.704,0.377,0.813,0.377
		c0.126,0,0.148,0,0.172,0.01c0.384,0.256,0.744,0.552,1.112,0.808c0.133,0.361,0.273,0.667,0.361,0.984
		c0.664,0.791,1.776,2.125,1.121,2.872c0,0.07,0.004,0.125,0.004,0.193c-0.343,0.24-0.343,0.24-0.568,0.29c-0.041,0-0.063,0-0.15,0
		c-0.488-0.234-1.019-0.279-1.512-0.609c-0.605-0.077-1.019-0.109-1.52-0.118c-0.649-0.1-0.649-0.1-0.774-0.179
		c-0.188-0.061-0.191-0.069-0.246-0.069l-0.146,0.133c0.038,0.011,0.054,0.107,0.075,0.156c-0.298,0.162-0.619,0.151-0.892,0.144
		l-0.008,0.176c0.486,0.569,0.272,1.446,0.824,2.023c0.095,0.413,0.153,0.765,0.24,1.14c0,0.043,0.01,0.103,0.01,0.185
		c-0.588,0.552-0.285,1.019,0,1.469l0.142,0.159c0.038,0.174,0.038,0.235,0.046,0.289c0.008,0.049,0.018,0.125,0.076,0.204
		c-0.125,0.238-0.168,0.293,0.008,0.914c0.158,0.079,0.368,0.079,0.512,0.091c0.495-0.137,0.9,0.245,1.401,0.128
		c0.125,0.117,0.125,0.117,0.744,0.411c0.205,0.239,0.3,0.526,0.534,0.714c0.009-0.069,0.101-0.128,0.101-0.21l-0.18-0.055
		c2.177-1.329,3.947-1.961,3.947-1.969c-0.016-0.227-0.104-0.429-0.134-0.656c-0.501-0.766-0.501-0.766-0.36-1.629
		c0.015-0.106,0.057-0.253,0.103-0.387c0.117,0,0.25-0.007,0.376-0.007c0.023-0.061,0.125-0.238,0.125-0.305
		c0.107-0.053,0.251-0.078,0.358-0.1l0.047-0.181c0.401-0.022,0.918-0.102,0.918-0.102c0.017-0.163,0-0.344-0.07-0.557l-0.039-0.18
		c-0.337-0.737-0.337-1.099-0.337-1.114c0.337-0.186,0.337-0.186,0.915-0.055h0.008h0.034l0,0h0.007h0.006h0.033v0.009l0,0
		c0.627,0.313,0.627,0.313,0.737,0.342c0.251,0.047,0.266,0.057,0.391,0.057c0-0.01,0.023-0.057,0.133-0.057
		c0.017-0.553,0.017-0.553,0.11-0.727c0.174-0.018,0.258-0.011,0.258,0c0.126,0,0.422,0.024,0.588-0.539
		c0.996,0.236,1.259,1.391,2.036,1.891c0.251,0.143,0.251,0.143,0.488,0.455c1.266,0.925,3.735,2.639,3.951,4.112
		c-0.53,0.109-0.53,0.109-0.561,0.401c-0.567,0.125-1.006-0.031-1.481-0.078c0,0.07,0.071,0.184,0.1,0.234
		c0.479,0.281,0.761,0.861,1.301,1.047c0.258,0.036,0.551,0.04,0.764,0.04c-0.051-0.226-0.159-0.472-0.188-0.707
		c0.185-0.167,0.28-0.411,0.514-0.536c-0.013-0.222-0.037-0.484-0.125-0.765c0.108-0.084,0.251-0.144,0.268-0.175
		c0.108-0.073,0.108-0.222,0-0.318c-0.017-0.201-0.017-0.299-0.017-0.327c-0.275,0.004-0.359,0-0.455-0.024
		c-0.163-0.086-0.172-0.188-0.185-0.266c-0.009-0.024-0.012-0.104-0.018-0.149c0.155-0.109,0.298-0.101,0.423-0.077
		c0.376,0.165,0.493,0.289,0.604,0.447c0.03-0.38-0.245-0.688-0.37-1.047c-0.831-0.255-1.51-1.196-1.517-1.196
		c-0.511-0.041-0.823-0.5-1.241-0.64c-0.196-0.599-0.735-0.861-1.015-1.31c-0.089,0-0.112-0.028-0.135-0.028
		c-0.371-0.656-0.371-0.656-0.854-0.649c-0.068-0.179-0.117-0.318-0.181-0.484l0.056-0.193c0.053-0.114,0.008-0.133,0.008-0.203
		c-0.276-0.563-0.276-0.563-0.272-0.606c0.627-0.114,2.937,2.294,2.966,2.313c0.284,0.3,0.293,0.3,0.66,0.379
		c0.021,0.046,0.109,0.147,0.125,0.171c0.397,0.551,1.141,0.671,1.525,1.234c0.627,0.874,0.769,1.934,1.286,2.813
		c0.15,0,0.264,0.017,0.394,0.087c0.209,0.307,0.278,0.553,0.372,0.811c-0.134-0.019-0.188-0.019-0.28-0.019
		c-0.029-0.043-0.038-0.11-0.047-0.185c-0.057-0.014-0.143-0.042-0.188-0.054c0,0.327,0.243,0.633,0.689,1.075
		c0.039-0.052,0.146-0.16,0.155-0.214c0.502,0.276,0.502,0.89,0.794,1.289c0.2,0.094,0.317,0.094,0.328,0.094
		c0.095,0,0.132,0,0.24,0c0.011-0.477,0.011-0.477,0.011-0.541c-0.007-0.094-0.011-0.155-0.11-0.214
		c-0.009-0.12-0.046-0.231-0.046-0.352l0.149-0.114c0.029,0.056,0.155,0.146,0.227,0.235c0.153,0.032,0.162,0.032,0.194,0.032
		c0.087-0.267,0.087-0.267-0.063-0.782c0.03,0,0.125,0,0.149,0.059l0.006-0.198c-0.25-0.415-0.267-0.431-0.492-0.471
		c0.134,0.33,0.134,0.33,0.205,0.555c-0.15-0.012-0.471-0.07-1.551-1.753c-0.042-0.148-0.048-0.219-0.051-0.273
		c0-0.067,0-0.168,0.003-0.219l0.126,0.12c0.289,0.258,0.289,0.258,0.47,0.321c0.069,0,0.149,0,0.162,0l0.096,0.016
		c0.024-0.227,0.024-0.227-0.212-0.456c0-0.07,0-0.13,0-0.2c0.483-0.266,0.737,0.25,1.119,0.352
		c0.251,0.414,0.251,0.414,0.283,0.453c0.109,0.072,0.193,0.242,0.228,0.32l-0.126,0.166c0.134,0.508,0.664,0.836,0.775,1.389
		c0.087,0.133,0.135,0.309,0.147,0.387c0.034,0.078,0.055,0.156,0.065,0.215c0.084,0.163,0.084,0.163,0.295,0.514l0.057,0.125
		l0.08,0.016l0.059,0.114l0.12,0.113l0.047,0.078c0.095,0.108,0.117,0.312,0.117,0.398v0.11l0.008,0.125
		c0.125,0.371,0.125,0.371,0.227,0.593l0.095,0.086l0.024,0.06c0.047-0.067,0.052-0.207,0.044-0.297l-0.044-0.246
		c-0.019-0.142-0.078-0.263-0.119-0.382c-0.025-0.078-0.038-0.119-0.068-0.208c0-0.102,0.037-0.102,0.068-0.102l0.058,0.028
		l0.062,0.074l0.094,0.128l0.031,0.08c0.114,0.101,0.173,0.198,0.251,0.323l0.101,0.104l0.076,0.13l0.055,0.021h0.019
		c0.107,0.039,0.251,0.058,0.273,0.125c0.108,0.03,0.142,0.03,0.15,0.03l0.037-0.045l0.041-0.052l-0.041-0.067l-0.037-0.137
		c-0.129-0.304-0.129-0.304-0.129-0.51v-0.106l0.016-0.083c0.118,0,0.292,0.06,0.339,0.149c0.078,0.059,0.109,0.18,0.229,0.257
		c0.03,0.102,0.131,0.221,0.209,0.293l0.064,0.137l0.096,0.059l0.007,0.026l0.114,0.033c0.143,0.031,0.313,0.045,0.543,0.1
		c-0.031-0.115-0.104-0.23-0.134-0.36l-0.017-0.104c-0.079-0.137-0.108-0.31-0.125-0.403l0.125,0.016l0.017-0.014h0.1
		c0.042,0.054,0.042,0.054,0.284,0.327c0.126,0.075,0.126,0.079,0.14,0.079l0.012-0.079l-0.009-0.069l0.009-0.06l0.084,0.019
		c0.016,0.096,0.079,0.189,0.148,0.25l0.025,0.086c0.118,0.382,0.118,0.382,0.185,0.65c0.033,0.616,0.184,0.998,0.276,1.104
		l0.062,0.082c0.088,0.299,0.088,0.299,0.135,0.611v0.044v0.096c0.016,0.112,0.054,0.248,0.062,0.357v0.119
		c-0.016,0.577-0.016,0.577-0.062,0.652v0.06l-0.047,0.125l0.047,0.068c1.619,0.297,2.827,0.5,3.681,0.727
		c-0.854-0.226-2.062-0.429-3.681-0.631c0,0.006,0.138,0.993,0.062,1.21l-0.016,0.106l-0.03,0.058h-0.016
		c-0.118,0-0.172,0.036-0.204,0.073l-0.089-0.01l-0.021,0.017l-0.016,0.05l-0.117,0.058l-0.041-0.093l-0.11-0.095
		c-0.066-0.084-0.075-0.084-0.116-0.084c0,0-0.075-0.024-0.162-0.064c0.579,0.797,1.165,2.114,1.657,3.672l0.025-0.007
		c0.092-0.18,0-0.3,0.024-0.488l0.117,0.188c1.212,2.903,1.212,2.903,1.245,3.286c0.008,0.125,0.008,0.147,0.008,0.199
		c0.021,1.172,0.758,2.145,1.049,3.27c0.163,0.631-0.087,1.261,0.196,1.875c0.251,0.569,0.452,1.053,0.486,1.428l0.092,0.181
		l0.639,4.288c-0.004,0.762-0.019,1.352-0.104,2.004c0,0.316,0.142,0.809,0.229,0.908c0.051,0.01,0.162,0.01,0.232,0
		c0.14-0.258,0.14-0.563,0.269-0.787c0.177-0.107,0.242-0.107,0.342-0.102l0.009,0.102l0.014,0.035
		c0.012-0.035,0.119-0.219,0.138-0.367c0.037-0.332,0.154-0.762,0.501-0.941c0-0.098,0.091-0.289,0.121-0.406
		c0.004-0.29,0.259-1.274,0.268-1.274l0.142,0.111c0.008-0.759,0.021-1.208,0.021-1.208l0.075,0.013c0-0.319,0-0.617,0-0.916
		c-0.01-2.045-0.16-3.982-0.369-5.875v0.102C242.226,56.82,242.129,56.492,242.1,56.184z M239.848,45.353l0.144,0.476l-0.11-0.272
		l-0.18-0.743C239.74,45,239.77,45.179,239.848,45.353z"/>
	<path fill="#F2F2F2" d="M242.488,59.309c-0.013-0.161-0.038-0.324-0.047-0.45c0.009,0.085,0.009,0.21,0.034,0.273v0.166
		L242.488,59.309z"/>
	<path fill="#F2F2F2" d="M242.505,59.543L242.505,59.543v0.138C242.505,59.64,242.505,59.585,242.505,59.543z"/>
	<polygon fill="#F2F2F2" points="242.401,58.512 242.396,58.453 242.401,58.512 	"/>
	<path fill="#F2F2F2" d="M213.383,10.356c0.068,0.035,0.164,0.101,0.193,0.137l-0.405-0.314v-0.001c0,0.001,0,0.001,0,0.001
		L213.383,10.356z"/>
	<path fill="#F2F2F2" d="M213.171,10.2c0-0.016,0-0.016,0-0.019v-0.002V10.2z"/>
	<path fill="#F2F2F2" d="M212.693,9.92c0.201,0.092,0.353,0.206,0.397,0.229l0.08,0.028c-0.155-0.099-0.339-0.173-0.493-0.283
		l0.008,0.003l0,0C212.693,9.898,212.693,9.898,212.693,9.92z"/>
	<polygon fill="#F2F2F2" points="164.173,1.912 164.487,1.803 164.257,1.82 163.821,1.959 163.923,1.961 	"/>
	<path fill="#F2F2F2" d="M162.845,2.204l0.639-0.214l0.276-0.107c-0.419,0.115-0.724,0.234-1.216,0.387L162.845,2.204z"/>
	<polygon fill="#F2F2F2" points="163.174,1.876 163.377,1.803 163.296,1.803 162.839,1.944 162.544,2.023 162.598,2.023 	"/>
	<polygon fill="#F2F2F2" points="162.756,1.992 161.967,2.225 161.945,2.25 162.196,2.194 162.38,2.134 162.798,2.053 
		163.133,1.944 163.24,1.915 163.694,1.803 163.621,1.803 163.479,1.819 163.226,1.883 	"/>
	<path fill="#F2F2F2" d="M158.346,3.203l0.36-0.082l0.374-0.147l0.108-0.023l0.602-0.193l0.441-0.132l-0.567,0.188l0.25-0.057
		l0.372-0.104l0.941-0.288l0.673-0.17l0.106-0.061l-0.573,0.136l-0.082,0.033c-0.068-0.031-1.884,0.51-1.938,0.525l-0.067,0.008
		l-0.431,0.125l-0.514,0.188l-0.246,0.111l0.508-0.188L158.346,3.203z"/>
	<path fill="#F2F2F2" d="M242.602,61.387L242.602,61.387c0,0.075,0,0.176,0,0.261c0-0.006,0-0.766-0.075-1.698l-0.021-0.268
		c0.008,0.076,0.016,0.143,0.021,0.185V59.9v0.038c0-0.053,0-0.071,0-0.071l-0.014-0.097l0,0c-0.008-0.042-0.008-0.13-0.008-0.208
		v-0.019l-0.029-0.246v-0.063c0-0.04,0-0.05,0-0.086c0-0.013,0-0.013,0-0.016l-0.074-0.445l0,0c0-0.062,0-0.165-0.006-0.234
		l-0.016-0.016c-0.109-1.144-0.154-2.065-0.154-2.065l-0.097-0.036c0.097,0.375,0.097,0.494,0.104,0.688
		c0.209,1.893,0.359,3.83,0.369,5.75v0.039v-0.425C242.602,62.063,242.602,61.742,242.602,61.387z"/>
	<polygon fill="#F2F2F2" points="164.937,1.611 164.703,1.688 164.956,1.639 165.009,1.642 165.098,1.648 164.611,1.82 
		164.604,1.879 164.991,1.756 165.495,1.572 165.739,1.516 166.179,1.397 166.348,1.336 166.561,1.259 166.42,1.275 166.667,1.208 
		166.93,1.125 166.761,1.176 166.326,1.239 165.893,1.336 166.035,1.328 165.868,1.353 165.364,1.504 165.25,1.506 164.799,1.641 	
		"/>
	<path fill="#F2F2F2" d="M160.663,2.579l0.063,0.005l0.452-0.139c-0.135,0.032-0.188,0.046-0.188,0.046l0.053-0.039L160.663,2.579z"
		/>
	<path fill="#F2F2F2" d="M166.824,1.517l0.313-0.023v0.028l0.36-0.078l0.065-0.002c0.056-0.004,0.094-0.008,0.423-0.107l0.391-0.127
		l-0.062,0.056c0.426-0.084,0.426-0.084,0.444-0.084v0.016c0.038-0.006,0.082-0.007,0.421-0.094
		c0.186-0.048,0.376-0.092,0.512-0.148c0.063-0.056,0.063-0.056,0.114-0.072l0.313-0.091c0.074-0.015,0.196-0.042,0.28-0.078
		l0.17-0.035c-0.112,0.018-0.22,0.03-0.325,0.047c0,0,0.551-0.162,1.002-0.228c0.189-0.05,0.439-0.058,0.661-0.13
		c-0.221,0.025-0.41,0.064-0.472,0.071h0.052c-0.349,0.056-0.373,0.056-0.428,0.056h-0.107c-0.248,0.022-0.52,0.069-0.77,0.144
		l-0.063-0.004l-0.108,0.012l-0.544,0.103l-0.312,0.056c-0.159,0.018-0.321,0.075-0.484,0.093h0.024
		c-0.144,0.047-0.331,0.097-0.514,0.112l-0.194,0.092l0.151-0.037l0.276-0.055h0.168c-0.382,0.116-0.382,0.116-0.644,0.167
		l-0.121,0.003l-0.332,0.06l-0.211,0.089l-0.472,0.129L166.824,1.517z"/>
	<path fill="#F2F2F2" d="M164.114,1.679c0.06,0,0.141,0,0.185-0.029l0.012-0.003c0.332-0.075,0.332-0.075,0.639-0.189L164.8,1.497
		l-0.263,0.066l-0.614,0.125h0.069L164.114,1.679z"/>
	<polygon fill="#F2F2F2" points="156.597,4.447 156.41,4.475 156.037,4.615 156.109,4.631 	"/>
	<polygon fill="#F2F2F2" points="145.649,8.806 145.763,8.742 145.783,8.715 	"/>
	<path fill="#F2F2F2" d="M148.498,8.028c0.085-0.004,0.146-0.011,0.21-0.012l-0.652,0.481l-0.182,0.185
		c0.119-0.016,0.207-0.016,0.311-0.018l0.335-0.076l0.564-0.263l0.42-0.124l0.66-0.273l0.351-0.168l-0.178,0.188l0.241-0.07
		L150.4,8.203l0.25,0.008l0.313-0.077l0.608-0.317l0.193-0.256l0.201-0.045l0.377-0.086l0.385-0.229l0.157-0.222l-0.041-0.226
		l0.479-0.361l0.698-0.383l0.254-0.241l0.893-0.477L155.676,5l0.124-0.166c-0.068,0-0.121,0-0.206,0
		c-0.244,0.115-0.458,0.228-0.688,0.343l-0.452,0.25l-0.564,0.338l-0.358,0.168l-0.067-0.008l0.194-0.167l0.495-0.253l0.356-0.196
		l0.521-0.314l-0.075-0.003l-0.446,0.198l-0.332,0.197c-0.069,0.006-0.093,0.006-0.161,0.008l-0.358,0.17l-0.231,0.06l0.425-0.2
		l0.536-0.249h-0.067l0.071-0.093l-0.182,0.056l-0.508,0.21l-0.029-0.032l0.348-0.141l0.595-0.279l0.076-0.064l-0.163,0.031
		l-0.524,0.197l-0.335,0.115l-0.282,0.089l-0.526,0.227l-0.583,0.278l-0.582,0.242l-0.357,0.174h0.075l-0.264,0.148l0.325-0.096
		l0.277-0.063l-0.313,0.158l-0.359,0.161l-0.357,0.08l-0.394,0.199l-0.206,0.186c0.069,0,0.149-0.001,0.206-0.008l0.313-0.088
		c0.072,0,0.119,0,0.194,0c-0.187,0.188-0.187,0.188-0.563,0.386l-0.323,0.006c-0.096,0.006-0.209,0.017-0.3,0.029l-0.621,0.273
		l-0.717,0.491L148.498,8.028z"/>
	<polygon fill="#F2F2F2" points="148.521,8.771 148.633,8.865 149.153,8.642 149.498,8.537 150.015,8.211 149.346,8.431 	"/>
	<polygon fill="#F2F2F2" points="158.54,3.172 157.913,3.375 157.891,3.431 158.854,3.069 	"/>
	<path fill="#F2F2F2" d="M146.962,8.069l0.345-0.18l0.461-0.242l0.056-0.031l-0.507,0.261l-0.659,0.334l-0.106,0.055l-0.037,0.008
		c-0.245,0.161-0.464,0.293-0.732,0.442l0.813-0.459L146.962,8.069z"/>
	<path fill="#F2F2F2" d="M150.57,6.494l0.519-0.244c0.876-0.433,2.238-0.994,2.242-0.994l0.902-0.311l0.484-0.172l0.564-0.249
		l0.518-0.271V4.226l-0.516,0.158l0.19-0.111l0.251-0.125l-0.045-0.011l-0.331,0.075c-0.144,0.061-0.319,0.117-0.444,0.172
		l-0.829,0.372l-1.306,0.553l-1.788,0.766l-0.264,0.191l-1.053,0.6l0.733-0.359L150.57,6.494z"/>
	<path fill="#F2F2F2" d="M157.424,3.891l0.652-0.238l0.254-0.046c0.073,0,0.142-0.004,0.209-0.004
		c0.076-0.017,0.167-0.017,0.231-0.018l0.534-0.209l0.97-0.335l0.268-0.125l-0.104,0.013l-0.397,0.136L160.12,3l0.452-0.188
		c0.157-0.062,0.305-0.116,0.472-0.166l0.464-0.169l-0.088,0.021l-0.376,0.086l-0.222,0.063l-0.344,0.112
		c-0.276,0.125-0.276,0.125-0.95,0.372l0.012,0.016c-0.351,0.112-0.355,0.112-0.501,0.154c-0.056,0.003-0.116,0.008-0.159,0.008
		l0.282-0.115l0.607-0.266l0.163-0.092l-0.071,0.025l0.235-0.102l0.008-0.008l-0.393,0.083l-0.729,0.234l-0.51,0.182l-0.581,0.193
		l-0.592,0.188h0.137L157.392,3.7l0.217-0.051l0.328-0.089l0.006,0.047l0.132-0.005c-0.183,0.047-0.289,0.091-0.414,0.102
		l-0.164,0.036l-0.337,0.086l-0.408,0.177l-0.156,0.073c0.068-0.004,0.151-0.011,0.213-0.022L157.424,3.891z"/>
</g>
<path fill="#F2F2F2" stroke="#00B1FF" stroke-width="0.5" stroke-miterlimit="10" d="M159.292,84.006
	c0,0-2.606-38.334,19.315-38.998v6.015c0,0-15.425-1.894-13.815,32.983H159.292z"/>
<path fill="#F2F2F2" stroke="#00B1FF" stroke-width="0.5" stroke-miterlimit="10" d="M160.244,55.882
	c0,0,2.721-17.085,25.935-16.722v-6.117c0,0-26.97-2.434-31.368,22.464L160.244,55.882z"/>
<path fill="#F2F2F2" stroke="#00B1FF" stroke-width="0.5" stroke-miterlimit="10" d="M169.726,28.328
	c0,3.186-2.332,5.762-5.215,5.762c-2.876,0-5.218-2.577-5.218-5.762c0-3.175,2.342-5.752,5.218-5.752
	C167.394,22.576,169.726,25.153,169.726,28.328z"/>
<path fill="#F2F2F2" stroke="#00B1FF" stroke-width="0.5" stroke-miterlimit="10" d="M140.18,47.622
	c1.029,1.151,4.985,0.27,6.316,0.248c0,0,0.232-0.159,1.66,1.163c1.424,1.351,4.845,5.488,4.845,5.488l1.595-1.278
	c0,0-4.366-5.323-4.785-5.867c-0.423-0.54-0.87-1.85-0.87-1.85c0.449-1.896,1.303-5.4,0.326-6.666l-5.046-5.734
	c-1.028-1.165-2.737-1.285-3.822-0.242l-5.195,4.993c-1.081,1.045-1.11,2.819-0.075,3.991L140.18,47.622z"/>
<radialGradient id="SVGID_2_" cx="-14.7437" cy="71.5664" r="19.9465" gradientTransform="matrix(0.7391 0 0 0.7383 57.0722 16.9421)" gradientUnits="userSpaceOnUse">
	<stop  offset="0" style="stop-color:#FCEE21"/>
	<stop  offset="0.2189" style="stop-color:#F9EB23"/>
	<stop  offset="0.3948" style="stop-color:#EFE22B"/>
	<stop  offset="0.5557" style="stop-color:#DED338"/>
	<stop  offset="0.7077" style="stop-color:#C6BE4A"/>
	<stop  offset="0.8534" style="stop-color:#A7A362"/>
	<stop  offset="0.9927" style="stop-color:#82827E"/>
	<stop  offset="1" style="stop-color:#808080"/>
</radialGradient>
<path fill="url(#SVGID_2_)" d="M46.174,55.059c-8.146,0-14.745,6.589-14.745,14.73c0,8.117,6.599,14.711,14.745,14.711
	c8.146,0,14.75-6.594,14.75-14.711C60.924,61.648,54.319,55.059,46.174,55.059z M49.955,61.453c0,0.898-1.005,1.617-2.248,1.617
	c-1.233,0-2.242-0.719-2.242-1.617c0-0.891,1.009-1.605,2.242-1.605C48.949,59.848,49.955,60.563,49.955,61.453z M44.144,56.376
	c1.271-0.197,2.343-0.064,2.402,0.261c0.047,0.347-0.944,0.781-2.21,0.982c-1.272,0.197-2.346,0.063-2.398-0.275
	C41.881,57.004,42.876,56.57,44.144,56.376z M33.562,73.719c-0.32,0.031-0.724-0.82-0.906-1.955
	c-0.18-1.092-0.074-2.029,0.242-2.076c0.313-0.039,0.714,0.818,0.894,1.912C33.979,72.719,33.872,73.648,33.562,73.719z
	 M34.33,63.812c-0.262-0.202,0.11-1.108,0.827-2.023c0.727-0.933,1.514-1.523,1.777-1.328c0.257,0.203-0.113,1.125-0.825,2.047
	C35.383,63.429,34.596,64.018,34.33,63.812z M34.997,67.738c0-1.207,0.817-2.185,1.823-2.185c1.007,0,1.828,0.978,1.828,2.185
	c0,1.221-0.821,2.213-1.828,2.213C35.814,69.951,34.997,68.959,34.997,67.738z M40.013,81.625c-0.227,0.303-1.194-0.025-2.144-0.758
	c-0.958-0.721-1.55-1.564-1.324-1.861c0.235-0.305,1.2,0.041,2.158,0.758C39.662,80.5,40.242,81.344,40.013,81.625z M43.228,80.313
	c-1.229,0-2.23-0.695-2.23-1.557c0-0.85,1.001-1.561,2.23-1.561c1.241,0,2.237,0.711,2.237,1.561
	C45.465,79.617,44.468,80.313,43.228,80.313z M43.315,69.951c0-1.209,0.956-2.166,2.149-2.166c1.19,0,2.137,0.957,2.137,2.166
	c0,1.188-0.947,2.166-2.137,2.166C44.271,72.117,43.315,71.139,43.315,69.951z M48.108,83.32c-1.27,0.172-2.342,0.061-2.392-0.281
	c-0.057-0.338,0.939-0.775,2.2-0.977c1.28-0.182,2.35-0.057,2.405,0.281C50.365,82.678,49.38,83.109,48.108,83.32z M52.091,58.145
	c0.242-0.285,1.207,0.05,2.159,0.784c0.959,0.719,1.546,1.563,1.31,1.861c-0.225,0.299-1.189-0.049-2.142-0.783
	C52.452,59.289,51.868,58.447,52.091,58.145z M53.579,74.422c-0.858-0.221-1.315-1.391-1.017-2.602
	c0.309-1.258,1.257-2.078,2.127-1.861c0.865,0.197,1.323,1.375,1.016,2.611C55.397,73.82,54.454,74.631,53.579,74.422z
	 M57.07,77.951c-0.727,0.938-1.516,1.518-1.783,1.322c-0.254-0.197,0.115-1.117,0.83-2.049c0.721-0.898,1.517-1.49,1.781-1.297
	C58.148,76.131,57.785,77.047,57.07,77.951z M59.467,69.951c-0.317,0.041-0.717-0.813-0.915-1.936
	c-0.172-1.094-0.072-2.04,0.244-2.09c0.316-0.056,0.717,0.799,0.899,1.908C59.876,68.951,59.776,69.889,59.467,69.951z"/>
<linearGradient id="SVGID_3_" gradientUnits="userSpaceOnUse" x1="-15.1064" y1="132.1914" x2="-15.1064" y2="92.3174" gradientTransform="matrix(0.7377 0 0 0.7383 57.3202 16.9421)">
	<stop  offset="0" style="stop-color:#FCEE21;stop-opacity:0"/>
	<stop  offset="0.2189" style="stop-color:#F9EB23;stop-opacity:0.2189"/>
	<stop  offset="0.3948" style="stop-color:#EFE22B;stop-opacity:0.3948"/>
	<stop  offset="0.5557" style="stop-color:#DED338;stop-opacity:0.5557"/>
	<stop  offset="0.7077" style="stop-color:#C6BE4A;stop-opacity:0.7077"/>
	<stop  offset="0.8534" style="stop-color:#A7A362;stop-opacity:0.8534"/>
	<stop  offset="0.9927" style="stop-color:#82827E;stop-opacity:0.9927"/>
	<stop  offset="1" style="stop-color:#808080"/>
</linearGradient>
<path opacity="0.3" fill="url(#SVGID_3_)" d="M46.174,85.1c-8.146,0-14.745,6.596-14.745,14.734c0,8.117,6.599,14.705,14.745,14.705
	c8.146,0,14.75-6.588,14.75-14.705C60.924,91.695,54.319,85.1,46.174,85.1z M49.955,91.5c0,0.889-1.005,1.609-2.248,1.609
	c-1.233,0-2.242-0.721-2.242-1.609c0-0.891,1.009-1.611,2.242-1.611C48.949,89.889,49.955,90.609,49.955,91.5z M44.144,86.422
	c1.271-0.197,2.343-0.072,2.402,0.256c0.047,0.344-0.944,0.781-2.21,0.986c-1.272,0.195-2.346,0.061-2.398-0.283
	C41.881,87.047,42.876,86.609,44.144,86.422z M33.562,103.756c-0.32,0.041-0.724-0.811-0.906-1.943
	c-0.18-1.094-0.074-2.041,0.242-2.08c0.313-0.045,0.714,0.814,0.894,1.906C33.979,102.756,33.872,103.695,33.562,103.756z
	 M34.33,93.85c-0.262-0.193,0.11-1.1,0.827-2.023c0.727-0.93,1.514-1.514,1.777-1.326c0.257,0.201-0.113,1.131-0.825,2.047
	C35.383,93.469,34.596,94.063,34.33,93.85z M34.997,97.781c0-1.205,0.817-2.188,1.823-2.188c1.007,0,1.828,0.982,1.828,2.188
	C38.648,99,37.827,100,36.82,100C35.814,100,34.997,99,34.997,97.781z M40.013,111.672c-0.227,0.297-1.194-0.033-2.144-0.766
	c-0.958-0.719-1.55-1.563-1.324-1.854c0.235-0.311,1.2,0.031,2.158,0.76C39.662,110.539,40.242,111.389,40.013,111.672z
	 M43.228,110.35c-1.229,0-2.23-0.693-2.23-1.553c0-0.852,1.001-1.555,2.23-1.555c1.241,0,2.237,0.703,2.237,1.555
	C45.465,109.656,44.468,110.35,43.228,110.35z M43.315,100c0-1.219,0.956-2.174,2.149-2.174c1.19,0,2.137,0.955,2.137,2.174
	c0,1.188-0.947,2.156-2.137,2.156C44.271,102.156,43.315,101.188,43.315,100z M48.108,113.357c-1.27,0.182-2.342,0.064-2.392-0.281
	c-0.057-0.334,0.939-0.773,2.2-0.969c1.28-0.18,2.35-0.055,2.405,0.273C50.365,112.719,49.38,113.146,48.108,113.357z
	 M52.091,88.188c0.242-0.281,1.207,0.055,2.159,0.787c0.959,0.721,1.546,1.564,1.31,1.859c-0.225,0.297-1.189-0.053-2.142-0.787
	C52.452,89.334,51.868,88.492,52.091,88.188z M53.579,104.459c-0.858-0.209-1.315-1.383-1.017-2.602
	c0.309-1.25,1.257-2.076,2.127-1.857c0.865,0.201,1.323,1.381,1.016,2.617C55.397,103.857,54.454,104.672,53.579,104.459z
	 M57.07,108c-0.727,0.938-1.516,1.514-1.783,1.32c-0.254-0.195,0.115-1.119,0.83-2.049c0.721-0.904,1.517-1.5,1.781-1.303
	C58.148,106.178,57.785,107.084,57.07,108z M59.467,100c-0.317,0.031-0.717-0.822-0.915-1.938c-0.172-1.104-0.072-2.049,0.244-2.094
	c0.316-0.055,0.717,0.795,0.899,1.906C59.876,99,59.776,99.928,59.467,100z"/>
<radialGradient id="SVGID_4_" cx="115.9082" cy="77.8379" r="19.7932" gradientTransform="matrix(0.5828 0 0 0.5824 77.8112 27.6372)" gradientUnits="userSpaceOnUse">
	<stop  offset="0" style="stop-color:#FCEE21"/>
	<stop  offset="0.2189" style="stop-color:#F9EB23"/>
	<stop  offset="0.3948" style="stop-color:#EFE22B"/>
	<stop  offset="0.5557" style="stop-color:#DED338"/>
	<stop  offset="0.7077" style="stop-color:#C6BE4A"/>
	<stop  offset="0.8534" style="stop-color:#A7A362"/>
	<stop  offset="0.9927" style="stop-color:#82827E"/>
	<stop  offset="1" style="stop-color:#808080"/>
</radialGradient>
<path fill="url(#SVGID_4_)" d="M145.356,61.447c-6.38,0-11.538,5.159-11.538,11.512c0,6.375,5.158,11.533,11.538,11.533
	c6.379,0,11.542-5.158,11.542-11.533C156.899,66.605,151.736,61.447,145.356,61.447z M148.314,66.453
	c0,0.68-0.781,1.248-1.759,1.248c-0.968,0-1.764-0.568-1.764-1.248c0-0.701,0.796-1.258,1.764-1.258
	C147.533,65.195,148.314,65.752,148.314,66.453z M143.764,62.484c0.997-0.156,1.836-0.07,1.88,0.198
	c0.039,0.271-0.73,0.601-1.729,0.755c-0.996,0.146-1.836,0.055-1.88-0.209C142,62.962,142.771,62.613,143.764,62.484z
	 M135.486,76.047c-0.251,0.029-0.564-0.625-0.711-1.5c-0.135-0.875-0.054-1.619,0.179-1.658c0.25-0.045,0.57,0.625,0.708,1.51
	C135.813,75.273,135.733,75.992,135.486,76.047z M136.081,68.303c-0.195-0.154,0.092-0.885,0.659-1.594
	c0.551-0.733,1.178-1.193,1.381-1.037s-0.078,0.875-0.651,1.598C136.906,67.994,136.288,68.459,136.081,68.303z M136.611,71.381
	c0-0.959,0.635-1.725,1.432-1.725c0.79,0,1.432,0.766,1.432,1.725c0,0.939-0.642,1.719-1.432,1.719
	C137.246,73.1,136.611,72.32,136.611,71.381z M140.537,82.242c-0.182,0.25-0.939-0.023-1.681-0.604
	c-0.757-0.576-1.218-1.217-1.036-1.461c0.184-0.227,0.93,0.047,1.688,0.611C140.261,81.359,140.725,82.021,140.537,82.242z
	 M143.05,81.209c-0.966,0-1.737-0.521-1.737-1.203c0-0.672,0.771-1.232,1.737-1.232c0.97,0,1.741,0.561,1.741,1.232
	C144.792,80.688,144.02,81.209,143.05,81.209z M143.119,73.1c0-0.936,0.752-1.701,1.673-1.701c0.937,0,1.677,0.766,1.677,1.701
	c0,0.924-0.74,1.689-1.677,1.689C143.871,74.789,143.119,74.023,143.119,73.1z M146.866,83.553
	c-0.987,0.156-1.831,0.057-1.874-0.219c-0.043-0.24,0.736-0.592,1.729-0.74c0.996-0.156,1.835-0.055,1.88,0.219
	C148.639,83.076,147.868,83.406,146.866,83.553z M149.985,63.853c0.189-0.221,0.947,0.053,1.694,0.616
	c0.744,0.573,1.206,1.234,1.021,1.457c-0.171,0.23-0.93-0.036-1.687-0.612C150.275,64.747,149.814,64.101,149.985,63.853z
	 M151.159,76.584c-0.677-0.156-1.035-1.061-0.804-2.031c0.239-0.982,0.985-1.615,1.662-1.453c0.68,0.164,1.028,1.078,0.796,2.057
	C152.574,76.117,151.834,76.781,151.159,76.584z M153.877,79.381c-0.559,0.719-1.181,1.189-1.391,1.033
	c-0.204-0.158,0.087-0.875,0.651-1.602c0.557-0.729,1.185-1.195,1.388-1.031C154.73,77.928,154.442,78.656,153.877,79.381z
	 M155.758,73.094c-0.249,0.045-0.565-0.625-0.709-1.5c-0.144-0.885-0.063-1.619,0.182-1.656c0.256-0.023,0.561,0.639,0.703,1.508
	C156.084,72.32,156.001,73.053,155.758,73.094z"/>
<g>
	<path fill="#F2F2F2" stroke="#00B1FF" stroke-width="0.5" stroke-miterlimit="10" d="M31.891,54.536l-7.895,29.511h-4.279
		l-3.61-15.209l-3.854,15.209H7.837L0.288,54.536h7.839L6.984,56.75l3.461,16.234l4.684-18.449h3.396l4.076,18.449l4.089-16.234
		l-1.147-2.214H31.891z"/>
	<path display="none" fill="#F2F2F2" stroke="#00B1FF" stroke-width="0.5" stroke-miterlimit="10" d="M42.676,54.054
		c7.401,0,11.107,5.156,11.107,15.469c0,10.172-3.644,15.266-10.905,15.266c-7.599,0-11.396-5.205-11.396-15.594
		C31.481,59.106,35.213,54.054,42.676,54.054z M37.525,69.125c0,6.242,1.767,9.367,5.294,9.367c3.279,0,4.921-2.986,4.921-8.969
		c0-6.117-1.725-9.179-5.163-9.179C39.21,60.344,37.525,63.275,37.525,69.125z"/>
	<path fill="#F2F2F2" stroke="#00B1FF" stroke-width="0.5" stroke-miterlimit="10" d="M60.881,54.536h12.301
		c5,0,7.494,3,7.494,9.003c0,4.915-1.486,7.92-4.453,9.008l5.339,11.75h-8.723l1.213-2.234l-3.708-8.398h-2.569v8.398l1.215,2.234
		h-8.108l1.152-2.025v-25.72L60.881,54.536z M67.774,60.679v7.36h3.979c2.018,0,3.039-1.25,3.048-3.787
		c0-2.377-1.042-3.573-3.112-3.573H67.774z"/>
	<path fill="#F2F2F2" stroke="#00B1FF" stroke-width="0.5" stroke-miterlimit="10" d="M82.999,54.536h8.104l-1.14,2.239v21.374
		h9.255l1.697-1.828v7.977H82.999l1.224-2.234V56.775L82.999,54.536z"/>
	<path fill="#F2F2F2" stroke="#00B1FF" stroke-width="0.5" stroke-miterlimit="10" d="M102.827,84.264l1.219-2.225V56.775
		l-1.219-2.239h10.511c7.279,0,10.919,4.989,10.919,14.988c0,9.82-3.597,14.74-10.783,14.74H102.827z M109.919,78.117h2.79
		c3.634,0,5.445-2.875,5.445-8.625c0-5.852-1.852-8.773-5.577-8.773h-2.658V78.117z"/>
</g>
<g>
	<path fill="#F2F2F2" stroke="#00B1FF" stroke-width="0.5" stroke-miterlimit="10" d="M185.648,54.231h12.303
		c4.992,0,7.494,3.52,7.494,10.542c0,6.836-2.543,10.233-7.61,10.233h-5.285v6.75L193.753,84h-8.104l1.153-2.244V56.672
		L185.648,54.231z M192.55,60.382v8.999h3.969c2.03,0,3.033-1.498,3.041-4.499c0-3-1.028-4.5-3.103-4.5H192.55z"/>
	<path fill="#F2F2F2" stroke="#00B1FF" stroke-width="0.5" stroke-miterlimit="10" d="M207.351,54.231h8.243l-1.154,2.136V81.85
		l1.154,2.135h-8.243l1.217-2.25V56.476L207.351,54.231z"/>
	<path fill="#F2F2F2" stroke="#00B1FF" stroke-width="0.5" stroke-miterlimit="10" d="M237.333,81.906
		c-2.206,1.725-4.751,2.6-7.611,2.6c-7.862,0-11.796-5.203-11.796-15.576c0-9.998,3.893-14.985,11.648-14.985
		c1.98,0,4.087,0.575,6.373,1.727l1.386-1.89v9.765c-2.511-2.167-5.089-3.246-7.729-3.246c-3.727,0-5.569,3.003-5.569,8.996
		c0,5.912,1.839,8.859,5.554,8.859c3.532,0,6.115-0.672,7.744-2.047V81.906z"/>
	<path fill="#F2F2F2" stroke="#00B1FF" stroke-width="0.5" stroke-miterlimit="10" d="M246.493,72.764l-1.82,2.432v6.654
		l1.169,2.135h-8.247l1.222-2.25V56.476l-1.222-2.245h8.247l-1.169,2.136v9.872l7.185-9.762l-1.235-2.245h9.883l-10.13,13.4
		L260.294,84h-9.801l1.208-2.244L246.493,72.764z"/>
	<path fill="#F2F2F2" stroke="#00B1FF" stroke-width="0.5" stroke-miterlimit="10" d="M262.904,54.231h8.111l-1.137,2.245V77.85
		h9.237l1.705-1.826V84h-17.917l1.22-2.244v-25.28L262.904,54.231z"/>
	<path fill="#F2F2F2" stroke="#00B1FF" stroke-width="0.5" stroke-miterlimit="10" d="M282.838,54.231h18.492v7.973l-1.547-1.848
		H289.8v5.847h6.341l1.479-1.852v9.524l-1.479-1.869H289.8v5.844h9.983l1.547-1.844v7.979h-18.492l1.217-2.25V56.476L282.838,54.231
		z"/>
	<path fill="#F2F2F2" stroke="#00B1FF" stroke-width="0.5" stroke-miterlimit="10" d="M315.591,54.231
		c5.008,0,7.495,2.763,7.495,8.285c0,3.719-1.071,5.922-3.195,6.602c2.124,0.695,3.195,3.047,3.195,7.117
		c0,5.18-2.487,7.766-7.495,7.766h-12.295l1.153-2.244V56.882l-1.153-2.651H315.591z M314.162,66.709
		c2.035,0,3.053-0.882,3.053-2.65c0-2.177-1.039-3.271-3.121-3.271h-3.904v5.92H314.162z M310.189,71.734v5.922h4.055
		c1.978,0,2.971-0.932,2.971-2.807c0-2.086-0.977-3.115-2.907-3.115H310.189z"/>
	<path fill="#F2F2F2" stroke="#00B1FF" stroke-width="0.5" stroke-miterlimit="10" d="M329.548,54.204h6.63L345.787,84h-8.188
		l1.148-2.266l-0.878-3.057h-9.395l-1.021,3.057L328.604,84h-7.103l8.716-27.553L329.548,54.204z M329.823,73.256h6.566
		l-3.249-10.662L329.823,73.256z"/>
	<path fill="#F2F2F2" stroke="#00B1FF" stroke-width="0.5" stroke-miterlimit="10" d="M346.797,54.231h8.116l-1.144,2.245V77.85
		h9.235l1.709-1.826V84h-17.917l1.231-2.244v-25.28L346.797,54.231z"/>
	<path fill="#F2F2F2" stroke="#00B1FF" stroke-width="0.5" stroke-miterlimit="10" d="M367.087,54.231h8.113l-1.141,2.245V77.85
		h9.24l1.7-1.826V84h-17.913l1.229-2.244v-25.28L367.087,54.231z"/>
</g>
<g opacity="0.2">
	<linearGradient id="SVGID_5_" gradientUnits="userSpaceOnUse" x1="15.7983" y1="115.6719" x2="15.7983" y2="86.1641">
		<stop  offset="0" style="stop-color:#FFFFFF;stop-opacity:0"/>
		<stop  offset="1" style="stop-color:#FFFFFF"/>
	</linearGradient>
	<path fill="url(#SVGID_5_)" d="M25.253,115.672l1.149-2.221l-4.09-16.227l-4.074,18.447h-3.396l-4.686-18.447l-3.459,16.227
		l1.141,2.221H0l7.547-29.508h4.418l3.853,15.203l3.611-15.203h4.28l7.888,29.508H25.253z"/>
	<linearGradient id="SVGID_6_" gradientUnits="userSpaceOnUse" x1="42.3413" y1="116.1465" x2="42.3413" y2="85.4209">
		<stop  offset="0" style="stop-color:#FFFFFF;stop-opacity:0"/>
		<stop  offset="1" style="stop-color:#FFFFFF"/>
	</linearGradient>
	<path display="none" fill="url(#SVGID_6_)" d="M31.19,101.006c0-10.389,3.798-15.584,11.398-15.584
		c7.264,0,10.904,5.084,10.904,15.266c0,10.305-3.704,15.459-11.108,15.459C34.925,116.146,31.19,111.1,31.19,101.006z
		 M42.288,109.857c3.435,0,5.165-3.061,5.165-9.17c0-5.992-1.64-8.979-4.921-8.979c-3.526,0-5.295,3.125-5.295,9.375
		C37.236,106.928,38.919,109.857,42.288,109.857z"/>
	<linearGradient id="SVGID_7_" gradientUnits="userSpaceOnUse" x1="70.9326" y1="115.6719" x2="70.9326" y2="85.9063">
		<stop  offset="0" style="stop-color:#FFFFFF;stop-opacity:0"/>
		<stop  offset="1" style="stop-color:#FFFFFF"/>
	</linearGradient>
	<path fill="url(#SVGID_7_)" d="M61.745,113.656V87.938l-1.153-2.031h8.107l-1.214,2.24v8.393h2.569l3.709-8.393l-1.21-2.24h8.721
		l-5.342,11.758c2.969,1.086,4.455,4.086,4.455,9c0,6.008-2.494,9.008-7.494,9.008H60.592L61.745,113.656z M71.398,109.521
		c2.071,0,3.112-1.195,3.112-3.57c-0.007-2.537-1.025-3.787-3.046-3.787h-3.979v7.357H71.398z"/>
	<linearGradient id="SVGID_8_" gradientUnits="userSpaceOnUse" x1="91.6655" y1="115.6719" x2="91.6655" y2="85.9063">
		<stop  offset="0" style="stop-color:#FFFFFF;stop-opacity:0"/>
		<stop  offset="1" style="stop-color:#FFFFFF"/>
	</linearGradient>
	<path fill="url(#SVGID_8_)" d="M83.933,113.428V88.146l-1.227-2.24h17.919v7.975l-1.697-1.828h-9.255v21.375l1.141,2.244h-8.108
		L83.933,113.428z"/>
	<linearGradient id="SVGID_9_" gradientUnits="userSpaceOnUse" x1="113.2534" y1="115.6719" x2="113.2534" y2="85.9453">
		<stop  offset="0" style="stop-color:#FFFFFF;stop-opacity:0"/>
		<stop  offset="1" style="stop-color:#FFFFFF"/>
	</linearGradient>
	<path fill="url(#SVGID_9_)" d="M113.19,85.945c7.182,0,10.778,4.914,10.778,14.742c0,9.99-3.641,14.984-10.92,14.984h-10.509
		l1.218-2.244V88.164l-1.218-2.219H113.19z M109.63,109.492h2.658c3.724,0,5.577-2.922,5.577-8.773c0-5.75-1.811-8.625-5.445-8.625
		h-2.79V109.492z"/>
</g>
<g opacity="0.2">
	<linearGradient id="SVGID_10_" gradientUnits="userSpaceOnUse" x1="195.2588" y1="115.9746" x2="195.2588" y2="86.2012">
		<stop  offset="0" style="stop-color:#FFFFFF;stop-opacity:0"/>
		<stop  offset="1" style="stop-color:#FFFFFF"/>
	</linearGradient>
	<path fill="url(#SVGID_10_)" d="M186.512,113.531v-25.08l-1.153-2.25h8.108l-1.209,2.25v6.744h5.283
		c5.071,0,7.616,3.398,7.616,10.232c0,7.023-2.507,10.547-7.498,10.547h-12.301L186.512,113.531z M196.168,109.826
		c2.081,0,3.1-1.5,3.1-4.5c0-3.006-1.011-4.506-3.037-4.506h-3.972v9.006H196.168z"/>
	<linearGradient id="SVGID_11_" gradientUnits="userSpaceOnUse" x1="211.1807" y1="115.9746" x2="211.1807" y2="86.2246">
		<stop  offset="0" style="stop-color:#FFFFFF;stop-opacity:0"/>
		<stop  offset="1" style="stop-color:#FFFFFF"/>
	</linearGradient>
	<path fill="url(#SVGID_11_)" d="M208.275,113.725V88.469l-1.216-2.244h8.242l-1.153,2.135v25.475l1.153,2.141h-8.242
		L208.275,113.725z"/>
	<linearGradient id="SVGID_12_" gradientUnits="userSpaceOnUse" x1="227.3408" y1="116.4219" x2="227.3408" y2="85.7012">
		<stop  offset="0" style="stop-color:#FFFFFF;stop-opacity:0"/>
		<stop  offset="1" style="stop-color:#FFFFFF"/>
	</linearGradient>
	<path fill="url(#SVGID_12_)" d="M237.045,94.094c-1.63-1.369-4.216-2.047-7.746-2.047c-3.713,0-5.556,2.945-5.556,8.867
		c0,5.982,1.843,8.992,5.569,8.992c2.64,0,5.219-1.08,7.732-3.242v9.758l-1.386-1.883c-2.287,1.148-4.396,1.725-6.377,1.725
		c-7.754,0-11.646-4.992-11.646-14.992c0-10.375,3.938-15.57,11.793-15.57c2.86,0,5.405,0.869,7.615,2.602V94.094z"/>
	<linearGradient id="SVGID_13_" gradientUnits="userSpaceOnUse" x1="248.7598" y1="115.9746" x2="248.7598" y2="86.2012">
		<stop  offset="0" style="stop-color:#FFFFFF;stop-opacity:0"/>
		<stop  offset="1" style="stop-color:#FFFFFF"/>
	</linearGradient>
	<path fill="url(#SVGID_13_)" d="M251.411,88.451l-1.207-2.25h9.8l-9.918,16.375l10.131,13.398h-9.88l1.229-2.25l-7.181-9.756v9.865
		l1.165,2.141h-8.247l1.222-2.25V88.469l-1.222-2.244h8.247l-1.165,2.135v6.646l1.816,2.432L251.411,88.451z"/>
	<linearGradient id="SVGID_14_" gradientUnits="userSpaceOnUse" x1="271.5762" y1="115.9746" x2="271.5762" y2="86.2012">
		<stop  offset="0" style="stop-color:#FFFFFF;stop-opacity:0"/>
		<stop  offset="1" style="stop-color:#FFFFFF"/>
	</linearGradient>
	<path fill="url(#SVGID_14_)" d="M263.832,113.725V88.451l-1.212-2.25h17.912v7.977l-1.705-1.828h-9.239v21.375l1.137,2.25h-8.104
		L263.832,113.725z"/>
	<linearGradient id="SVGID_15_" gradientUnits="userSpaceOnUse" x1="291.7949" y1="115.9746" x2="291.7949" y2="86.2246">
		<stop  offset="0" style="stop-color:#FFFFFF;stop-opacity:0"/>
		<stop  offset="1" style="stop-color:#FFFFFF"/>
	</linearGradient>
	<path fill="url(#SVGID_15_)" d="M283.766,113.725V88.469l-1.216-2.244h18.49v7.977l-1.546-1.852h-9.983v5.846h6.341l1.479-1.869
		v9.523l-1.479-1.85h-6.341v5.85h9.983l1.546-1.85v7.975h-18.49L283.766,113.725z"/>
	<linearGradient id="SVGID_16_" gradientUnits="userSpaceOnUse" x1="312.9023" y1="115.9746" x2="312.9023" y2="86.2012">
		<stop  offset="0" style="stop-color:#FFFFFF;stop-opacity:0"/>
		<stop  offset="1" style="stop-color:#FFFFFF"/>
	</linearGradient>
	<path fill="url(#SVGID_16_)" d="M303.008,115.975l1.154-2.648V88.451l-1.154-2.25h12.29c5.013,0,7.498,2.596,7.498,7.768
		c0,4.07-1.069,6.428-3.194,7.125c2.125,0.67,3.194,2.881,3.194,6.594c0,5.521-2.485,8.287-7.498,8.287H303.008z M309.901,103.5
		v5.922h3.904c2.082,0,3.122-1.096,3.122-3.275c0-1.766-1.019-2.646-3.059-2.646H309.901z M314.016,98.469
		c1.935,0,2.912-1.023,2.912-3.109c0-1.875-0.998-2.807-2.974-2.807h-4.053v5.916H314.016z"/>
	<linearGradient id="SVGID_17_" gradientUnits="userSpaceOnUse" x1="333.3535" y1="116" x2="333.3535" y2="86.2012">
		<stop  offset="0" style="stop-color:#FFFFFF;stop-opacity:0"/>
		<stop  offset="1" style="stop-color:#FFFFFF"/>
	</linearGradient>
	<path fill="url(#SVGID_17_)" d="M329.928,113.756l-8.719-27.555h7.106l-1.153,2.268l1.023,3.053h9.395l0.882-3.053l-1.156-2.268
		h8.192L335.889,116h-6.631L329.928,113.756z M332.849,107.607l3.253-10.656h-6.567L332.849,107.607z"/>
	<linearGradient id="SVGID_18_" gradientUnits="userSpaceOnUse" x1="355.4668" y1="115.9746" x2="355.4668" y2="86.2012">
		<stop  offset="0" style="stop-color:#FFFFFF;stop-opacity:0"/>
		<stop  offset="1" style="stop-color:#FFFFFF"/>
	</linearGradient>
	<path fill="url(#SVGID_18_)" d="M347.741,113.725V88.451l-1.233-2.25h17.917v7.977l-1.707-1.828h-9.237v21.375l1.141,2.25h-8.113
		L347.741,113.725z"/>
	<linearGradient id="SVGID_19_" gradientUnits="userSpaceOnUse" x1="375.7549" y1="115.9746" x2="375.7549" y2="86.2012">
		<stop  offset="0" style="stop-color:#FFFFFF;stop-opacity:0"/>
		<stop  offset="1" style="stop-color:#FFFFFF"/>
	</linearGradient>
	<path fill="url(#SVGID_19_)" d="M368.027,113.725V88.451l-1.229-2.25h17.912v7.977l-1.699-1.828h-9.244v21.375l1.145,2.25h-8.113
		L368.027,113.725z"/>
</g>
</svg>
