<?xml version="1.0" encoding="utf-8"?>
<!-- Generator: Adobe Illustrator 15.1.0, SVG Export Plug-In . SVG Version: 6.00 Build 0)  -->
<!DOCTYPE svg PUBLIC "-//W3C//DTD SVG 1.1//EN" "http://www.w3.org/Graphics/SVG/1.1/DTD/svg11.dtd">
<svg version="1.1" id="Layer_1" xmlns="http://www.w3.org/2000/svg" xmlns:xlink="http://www.w3.org/1999/xlink" x="0px" y="0px"
	 width="325px" height="52px" viewBox="0 0 325 52" enable-background="new 0 0 325 52" xml:space="preserve">
<g>
	<radialGradient id="SVGID_1_" cx="11.4521" cy="32.5928" r="12.5636" gradientUnits="userSpaceOnUse">
		<stop  offset="0" style="stop-color:#416691"/>
		<stop  offset="1" style="stop-color:#112F58"/>
	</radialGradient>
	<path fill="url(#SVGID_1_)" stroke="#FBB03B" stroke-width="0.1" stroke-miterlimit="10" d="M0.003,20.947
		c0-0.53,0.188-0.986,0.563-1.369c0.375-0.381,0.824-0.573,1.345-0.573s0.97,0.191,1.345,0.573c0.375,0.382,0.563,0.838,0.563,1.369
		v18.44c0,0.802,0.28,1.487,0.84,2.058c0.56,0.567,1.234,0.854,2.022,0.854s1.463-0.286,2.023-0.854
		c0.56-0.57,0.839-1.256,0.839-2.058v-18.44c0-0.53,0.188-0.986,0.563-1.369c0.375-0.381,0.824-0.573,1.345-0.573
		c0.521,0,0.969,0.191,1.345,0.573c0.375,0.382,0.563,0.838,0.563,1.369v18.44c0,0.802,0.28,1.487,0.84,2.058
		c0.56,0.567,1.234,0.854,2.022,0.854s1.463-0.286,2.023-0.854c0.56-0.57,0.839-1.256,0.839-2.058v-18.44
		c0-0.53,0.188-0.986,0.563-1.369c0.375-0.381,0.823-0.573,1.345-0.573s0.97,0.191,1.345,0.573c0.375,0.382,0.563,0.838,0.563,1.369
		v18.44c0,1.876-0.652,3.478-1.956,4.803c-1.304,1.327-2.878,1.99-4.723,1.99s-3.416-0.667-4.713-1.999
		c-0.025-0.014-0.044-0.026-0.057-0.04c-0.013,0.014-0.025,0.026-0.038,0.04c-1.311,1.332-2.888,1.999-4.732,1.999
		s-3.419-0.663-4.723-1.99c-1.304-1.325-1.956-2.927-1.956-4.803V20.947z"/>
	<radialGradient id="SVGID_2_" cx="38.167" cy="32.5928" r="13.4727" gradientUnits="userSpaceOnUse">
		<stop  offset="0" style="stop-color:#416691"/>
		<stop  offset="1" style="stop-color:#112F58"/>
	</radialGradient>
	<path display="none" fill="url(#SVGID_2_)" stroke="#FBB03B" stroke-width="0.1" stroke-miterlimit="10" d="M47.612,22.985
		c2.608,2.653,3.912,5.855,3.912,9.608s-1.304,6.955-3.912,9.607c-2.608,2.654-5.756,3.979-9.446,3.979
		c-3.688,0-6.837-1.325-9.445-3.979c-2.608-2.652-3.912-5.854-3.912-9.607s1.304-6.955,3.912-9.608s5.756-3.979,9.445-3.979
		C41.856,19.005,45.004,20.332,47.612,22.985z M38.167,22.888c-2.633,0-4.881,0.947-6.745,2.844
		c-1.864,1.895-2.795,4.182-2.795,6.861s0.932,4.966,2.795,6.861c1.864,1.896,4.112,2.844,6.745,2.844s4.882-0.947,6.746-2.844
		c1.863-1.896,2.795-4.183,2.795-6.861s-0.932-4.966-2.795-6.861C43.048,23.835,40.8,22.888,38.167,22.888z"/>
	<radialGradient id="SVGID_3_" cx="66.79" cy="35.5039" r="15.0099" gradientUnits="userSpaceOnUse">
		<stop  offset="0" style="stop-color:#416691"/>
		<stop  offset="1" style="stop-color:#112F58"/>
	</radialGradient>
	<path fill="url(#SVGID_3_)" stroke="#FBB03B" stroke-width="0.1" stroke-miterlimit="10" d="M55.341,19.005h5.724
		c2.112,0,3.912,0.757,5.4,2.271c1.489,1.514,2.233,3.345,2.233,5.493c0,2.148-0.744,3.979-2.233,5.493
		c-0.534,0.544-1.106,0.99-1.717,1.34l14.827,15.082h0.02c0.369,0.389,0.553,0.847,0.553,1.377c0,0.531-0.188,0.986-0.563,1.368
		c-0.375,0.382-0.823,0.572-1.345,0.572c-0.534,0-0.986-0.187-1.355-0.563L59.71,33.971c-0.369-0.389-0.553-0.848-0.553-1.378
		s0.187-0.987,0.563-1.369c0.375-0.381,0.823-0.572,1.345-0.572c1.056,0,1.956-0.378,2.7-1.136c0.744-0.756,1.116-1.672,1.116-2.746
		c0-1.074-0.373-1.99-1.116-2.747c-0.745-0.757-1.645-1.135-2.7-1.135h-3.816v21.35c0,0.531-0.188,0.988-0.563,1.369
		c-0.375,0.382-0.823,0.572-1.345,0.572c-0.522,0-0.97-0.19-1.345-0.572c-0.376-0.381-0.563-0.838-0.563-1.369V20.947
		c0-0.53,0.187-0.986,0.563-1.369C54.371,19.197,54.819,19.005,55.341,19.005z"/>
	<radialGradient id="SVGID_4_" cx="82.3428" cy="32.5928" r="10.4253" gradientUnits="userSpaceOnUse">
		<stop  offset="0" style="stop-color:#416691"/>
		<stop  offset="1" style="stop-color:#112F58"/>
	</radialGradient>
	<path fill="url(#SVGID_4_)" stroke="#FBB03B" stroke-width="0.1" stroke-miterlimit="10" d="M86.159,42.298
		c0.521,0,0.97,0.191,1.345,0.572c0.375,0.383,0.563,0.839,0.563,1.368c0,0.531-0.188,0.988-0.563,1.369
		c-0.375,0.382-0.824,0.572-1.345,0.572h-7.632c-0.521,0-0.97-0.19-1.345-0.572c-0.375-0.381-0.563-0.838-0.563-1.369V20.947
		c0-0.53,0.188-0.986,0.563-1.369c0.375-0.381,0.824-0.573,1.345-0.573s0.97,0.191,1.345,0.573c0.375,0.382,0.563,0.838,0.563,1.369
		v21.351H86.159z"/>
	<radialGradient id="SVGID_5_" cx="97.6084" cy="32.5928" r="11.0195" gradientUnits="userSpaceOnUse">
		<stop  offset="0" style="stop-color:#416691"/>
		<stop  offset="1" style="stop-color:#112F58"/>
	</radialGradient>
	<path fill="url(#SVGID_5_)" stroke="#FBB03B" stroke-width="0.1" stroke-miterlimit="10" d="M91.884,46.18
		c-0.521,0-0.97-0.19-1.345-0.572c-0.375-0.381-0.563-0.838-0.563-1.369c0-0.529,0.188-0.985,0.563-1.368
		c0.375-0.381,0.824-0.572,1.345-0.572c2.633,0,4.882-0.947,6.746-2.844c1.864-1.896,2.795-4.183,2.795-6.861
		s-0.929-4.969-2.786-6.871c-1.399-1.411-3.015-2.297-4.847-2.659v15.353c0,0.531-0.188,0.988-0.563,1.369
		c-0.376,0.382-0.824,0.572-1.346,0.572s-0.97-0.19-1.345-0.572c-0.375-0.381-0.563-0.838-0.563-1.369V20.947
		c0-0.53,0.188-0.986,0.563-1.369c0.375-0.381,0.824-0.573,1.345-0.573c3.689,0,6.837,1.327,9.445,3.979s3.912,5.855,3.912,9.608
		s-1.304,6.955-3.912,9.607C98.721,44.854,95.573,46.18,91.884,46.18z"/>
	<radialGradient id="SVGID_6_" cx="133.8818" cy="32.5928" r="13.4724" gradientUnits="userSpaceOnUse">
		<stop  offset="0" style="stop-color:#416691"/>
		<stop  offset="1" style="stop-color:#112F58"/>
	</radialGradient>
	<path display="none" fill="url(#SVGID_6_)" stroke="#FBB03B" stroke-width="0.1" stroke-miterlimit="10" d="M143.326,22.985
		c2.608,2.653,3.913,5.855,3.913,9.608s-1.305,6.955-3.913,9.607c-2.608,2.654-5.756,3.979-9.445,3.979
		c-3.689,0-6.838-1.325-9.445-3.979c-2.609-2.652-3.912-5.854-3.912-9.607s1.303-6.955,3.912-9.608
		c2.607-2.653,5.755-3.979,9.445-3.979C137.57,19.005,140.718,20.332,143.326,22.985z M133.881,22.888
		c-2.633,0-4.882,0.947-6.745,2.844c-1.864,1.895-2.795,4.182-2.795,6.861s0.932,4.966,2.795,6.861
		c1.863,1.896,4.112,2.844,6.745,2.844s4.882-0.947,6.745-2.844c1.864-1.896,2.796-4.183,2.796-6.861s-0.932-4.966-2.796-6.861
		C138.763,23.835,136.515,22.888,133.881,22.888z"/>
	<radialGradient id="SVGID_7_" cx="154.8711" cy="32.5928" r="10.4252" gradientUnits="userSpaceOnUse">
		<stop  offset="0" style="stop-color:#416691"/>
		<stop  offset="1" style="stop-color:#112F58"/>
	</radialGradient>
	<path display="none" fill="url(#SVGID_7_)" stroke="#FBB03B" stroke-width="0.1" stroke-miterlimit="10" d="M152.963,44.238
		c0,0.531-0.188,0.988-0.563,1.369c-0.376,0.382-0.824,0.572-1.346,0.572s-0.969-0.19-1.345-0.572
		c-0.375-0.381-0.563-0.838-0.563-1.369V20.947c0-0.53,0.188-0.986,0.563-1.369c0.376-0.381,0.824-0.573,1.345-0.573h7.632
		c0.522,0,0.971,0.191,1.347,0.573c0.374,0.382,0.562,0.838,0.562,1.369c0,0.531-0.188,0.987-0.562,1.369
		c-0.376,0.381-0.824,0.572-1.347,0.572h-5.724v7.763h5.724c0.522,0,0.971,0.191,1.347,0.572c0.374,0.382,0.562,0.839,0.562,1.369
		s-0.188,0.987-0.562,1.368c-0.376,0.381-0.824,0.572-1.347,0.572h-5.724V44.238z"/>
	<radialGradient id="SVGID_8_" cx="189.5234" cy="32.5928" r="11.0193" gradientUnits="userSpaceOnUse">
		<stop  offset="0" style="stop-color:#416691"/>
		<stop  offset="1" style="stop-color:#112F58"/>
	</radialGradient>
	<path fill="url(#SVGID_8_)" stroke="#FBB03B" stroke-width="0.1" stroke-miterlimit="10" d="M183.799,19.005h5.724
		c2.112,0,3.913,0.757,5.4,2.271c1.489,1.514,2.232,3.345,2.232,5.493c0,2.148-0.743,3.979-2.232,5.493
		c-1.487,1.515-3.288,2.271-5.4,2.271c-0.521,0-0.969-0.191-1.345-0.572c-0.375-0.381-0.563-0.838-0.563-1.368
		s0.188-0.987,0.563-1.369c0.376-0.381,0.824-0.572,1.345-0.572c1.057,0,1.957-0.378,2.701-1.136
		c0.744-0.756,1.115-1.672,1.115-2.746c0-1.074-0.371-1.99-1.115-2.747c-0.744-0.757-1.645-1.135-2.701-1.135h-3.815v21.35
		c0,0.531-0.188,0.988-0.562,1.369c-0.376,0.382-0.824,0.572-1.347,0.572c-0.521,0-0.969-0.19-1.345-0.572
		c-0.375-0.381-0.563-0.838-0.563-1.369V20.947c0-0.53,0.188-0.986,0.563-1.369C182.83,19.197,183.278,19.005,183.799,19.005z"/>
	<radialGradient id="SVGID_9_" cx="200.9717" cy="32.5928" r="9.7017" gradientUnits="userSpaceOnUse">
		<stop  offset="0" style="stop-color:#416691"/>
		<stop  offset="1" style="stop-color:#112F58"/>
	</radialGradient>
	<path fill="url(#SVGID_9_)" stroke="#FBB03B" stroke-width="0.1" stroke-miterlimit="10" d="M202.88,44.238
		c0,0.531-0.188,0.988-0.562,1.369c-0.376,0.382-0.824,0.572-1.347,0.572c-0.521,0-0.969-0.19-1.344-0.572
		c-0.376-0.381-0.564-0.838-0.564-1.369V20.947c0-0.53,0.188-0.986,0.564-1.369c0.375-0.381,0.823-0.573,1.344-0.573
		c0.522,0,0.971,0.191,1.347,0.573c0.374,0.382,0.562,0.838,0.562,1.369V44.238z"/>
	<radialGradient id="SVGID_10_" cx="212.4209" cy="32.5928" r="11.0196" gradientUnits="userSpaceOnUse">
		<stop  offset="0" style="stop-color:#416691"/>
		<stop  offset="1" style="stop-color:#112F58"/>
	</radialGradient>
	<path fill="url(#SVGID_10_)" stroke="#FBB03B" stroke-width="0.1" stroke-miterlimit="10" d="M218.146,19.005
		c0.523,0,0.971,0.191,1.347,0.573c0.374,0.382,0.562,0.838,0.562,1.369c0,0.531-0.188,0.987-0.562,1.369
		c-0.376,0.381-0.823,0.572-1.347,0.572c-2.632,0-4.881,0.947-6.744,2.844c-1.865,1.895-2.797,4.182-2.797,6.861
		s0.932,4.966,2.797,6.861c1.863,1.896,4.112,2.844,6.744,2.844c0.523,0,0.971,0.191,1.347,0.572
		c0.374,0.383,0.562,0.839,0.562,1.368c0,0.531-0.188,0.988-0.562,1.369c-0.376,0.382-0.823,0.572-1.347,0.572
		c-3.688,0-6.838-1.325-9.444-3.979c-2.609-2.652-3.913-5.854-3.913-9.607s1.304-6.955,3.913-9.608
		C211.308,20.332,214.457,19.005,218.146,19.005z"/>
	<radialGradient id="SVGID_11_" cx="233.4111" cy="35.5039" r="14.1998" gradientUnits="userSpaceOnUse">
		<stop  offset="0" style="stop-color:#416691"/>
		<stop  offset="1" style="stop-color:#112F58"/>
	</radialGradient>
	<path fill="url(#SVGID_11_)" stroke="#FBB03B" stroke-width="0.1" stroke-miterlimit="10" d="M221.962,20.947
		c0-0.53,0.188-0.986,0.564-1.369c0.375-0.381,0.823-0.573,1.344-0.573c0.523,0,0.972,0.191,1.347,0.573
		c0.374,0.382,0.562,0.838,0.562,1.369v8.889l10.095-10.267c0.367-0.375,0.819-0.563,1.354-0.563c0.522,0,0.971,0.191,1.346,0.573
		c0.374,0.382,0.563,0.838,0.563,1.369c0,0.531-0.185,0.984-0.555,1.359l-0.018,0.02l-10.074,10.268l15.799,16.092h0.018
		c0.37,0.389,0.555,0.847,0.555,1.377c0,0.531-0.188,0.986-0.563,1.368c-0.375,0.382-0.823,0.572-1.346,0.572
		c-0.535,0-0.987-0.187-1.354-0.563l-15.819-16.09v8.889c0,0.531-0.188,0.988-0.562,1.369c-0.375,0.382-0.823,0.572-1.347,0.572
		c-0.521,0-0.969-0.19-1.344-0.572c-0.376-0.381-0.564-0.838-0.564-1.369V20.947z"/>
	<radialGradient id="SVGID_12_" cx="246.7686" cy="32.5928" r="10.4253" gradientUnits="userSpaceOnUse">
		<stop  offset="0" style="stop-color:#416691"/>
		<stop  offset="1" style="stop-color:#112F58"/>
	</radialGradient>
	<path fill="url(#SVGID_12_)" stroke="#FBB03B" stroke-width="0.1" stroke-miterlimit="10" d="M250.585,42.298
		c0.522,0,0.971,0.191,1.346,0.572c0.374,0.383,0.563,0.839,0.563,1.368c0,0.531-0.188,0.988-0.563,1.369
		c-0.375,0.382-0.823,0.572-1.346,0.572h-7.633c-0.521,0-0.969-0.19-1.345-0.572c-0.376-0.381-0.563-0.838-0.563-1.369V20.947
		c0-0.53,0.188-0.986,0.563-1.369c0.376-0.381,0.823-0.573,1.345-0.573c0.522,0,0.971,0.191,1.346,0.573
		c0.374,0.382,0.563,0.838,0.563,1.369v21.351H250.585z"/>
	<radialGradient id="SVGID_13_" cx="260.126" cy="32.5928" r="10.4253" gradientUnits="userSpaceOnUse">
		<stop  offset="0" style="stop-color:#416691"/>
		<stop  offset="1" style="stop-color:#112F58"/>
	</radialGradient>
	<path fill="url(#SVGID_13_)" stroke="#FBB03B" stroke-width="0.1" stroke-miterlimit="10" d="M263.942,42.298
		c0.522,0,0.971,0.191,1.347,0.572c0.373,0.383,0.562,0.839,0.562,1.368c0,0.531-0.188,0.988-0.562,1.369
		c-0.376,0.382-0.824,0.572-1.347,0.572h-7.633c-0.521,0-0.969-0.19-1.345-0.572c-0.376-0.381-0.563-0.838-0.563-1.369V20.947
		c0-0.53,0.188-0.986,0.563-1.369c0.376-0.381,0.824-0.573,1.345-0.573h7.633c0.522,0,0.971,0.191,1.347,0.573
		c0.373,0.382,0.562,0.838,0.562,1.369c0,0.531-0.188,0.987-0.562,1.369c-0.376,0.381-0.824,0.572-1.347,0.572h-5.725v7.763h5.725
		c0.522,0,0.971,0.191,1.347,0.572c0.373,0.382,0.562,0.839,0.562,1.369s-0.188,0.987-0.562,1.368
		c-0.376,0.381-0.824,0.572-1.347,0.572h-5.725v7.765H263.942z"/>
	<radialGradient id="SVGID_14_" cx="275.3906" cy="32.5928" r="11.0196" gradientUnits="userSpaceOnUse">
		<stop  offset="0" style="stop-color:#416691"/>
		<stop  offset="1" style="stop-color:#112F58"/>
	</radialGradient>
	<path fill="url(#SVGID_14_)" stroke="#FBB03B" stroke-width="0.1" stroke-miterlimit="10" d="M269.667,19.005h5.725
		c2.111,0,3.911,0.757,5.398,2.271c1.489,1.514,2.233,3.345,2.233,5.493c0,2.148-0.744,3.979-2.233,5.493
		c-0.113,0.117-0.229,0.228-0.343,0.33c0.114,0.104,0.229,0.214,0.343,0.331c1.489,1.513,2.233,3.344,2.233,5.491
		c0,2.148-0.744,3.98-2.233,5.493c-1.487,1.515-3.287,2.271-5.398,2.271c-0.521,0-0.969-0.19-1.345-0.572
		c-0.376-0.381-0.563-0.838-0.563-1.369c0-0.529,0.188-0.985,0.563-1.368c0.376-0.381,0.824-0.572,1.345-0.572
		c1.057,0,1.957-0.38,2.7-1.136c0.744-0.757,1.115-1.672,1.115-2.747c0-1.073-0.371-1.988-1.115-2.745
		c-0.743-0.758-1.644-1.137-2.7-1.137c-0.521,0-0.969-0.191-1.345-0.572s-0.563-0.838-0.563-1.368s0.188-0.987,0.563-1.369
		c0.376-0.381,0.824-0.572,1.345-0.572c1.057,0,1.957-0.378,2.7-1.136c0.744-0.756,1.115-1.672,1.115-2.746
		c0-1.074-0.371-1.99-1.115-2.747c-0.743-0.757-1.644-1.135-2.7-1.135h-3.816v21.35c0,0.531-0.188,0.988-0.562,1.369
		c-0.376,0.382-0.824,0.572-1.347,0.572c-0.521,0-0.969-0.19-1.345-0.572c-0.376-0.381-0.563-0.838-0.563-1.369V20.947
		c0-0.53,0.188-0.986,0.563-1.369C268.698,19.197,269.146,19.005,269.667,19.005z"/>
	<radialGradient id="SVGID_15_" cx="291.6104" cy="32.5928" r="10.7054" gradientUnits="userSpaceOnUse">
		<stop  offset="0" style="stop-color:#416691"/>
		<stop  offset="1" style="stop-color:#112F58"/>
	</radialGradient>
	<path fill="url(#SVGID_15_)" stroke="#FBB03B" stroke-width="0.1" stroke-miterlimit="10" d="M288.748,44.238
		c0,0.531-0.188,0.988-0.562,1.369c-0.376,0.382-0.824,0.572-1.347,0.572c-0.521,0-0.969-0.19-1.345-0.572
		c-0.376-0.381-0.563-0.838-0.563-1.369V25.8c0-1.877,0.651-3.478,1.957-4.804c1.304-1.326,2.877-1.99,4.723-1.99
		c1.844,0,3.419,0.664,4.723,1.99c1.304,1.327,1.955,2.927,1.955,4.804v18.438c0,0.531-0.188,0.988-0.562,1.369
		c-0.376,0.382-0.824,0.572-1.347,0.572c-0.521,0-0.969-0.19-1.345-0.572c-0.376-0.381-0.563-0.838-0.563-1.369V25.8
		c0-0.803-0.28-1.489-0.84-2.059c-0.56-0.569-1.233-0.853-2.021-0.853c-0.789,0-1.464,0.284-2.023,0.853
		c-0.561,0.569-0.84,1.255-0.84,2.059V44.238z M292.956,33.166c0.375,0.381,0.563,0.837,0.563,1.367
		c0,0.531-0.188,0.988-0.563,1.369c-0.376,0.381-0.824,0.572-1.345,0.572c-0.522,0-0.971-0.191-1.347-0.572
		c-0.374-0.381-0.562-0.838-0.562-1.369c0-0.53,0.188-0.986,0.562-1.367c0.376-0.382,0.824-0.573,1.347-0.573
		C292.132,32.593,292.58,32.784,292.956,33.166z"/>
	<radialGradient id="SVGID_16_" cx="305.9219" cy="32.5928" r="10.4253" gradientUnits="userSpaceOnUse">
		<stop  offset="0" style="stop-color:#416691"/>
		<stop  offset="1" style="stop-color:#112F58"/>
	</radialGradient>
	<path fill="url(#SVGID_16_)" stroke="#FBB03B" stroke-width="0.1" stroke-miterlimit="10" d="M309.738,42.298
		c0.522,0,0.971,0.191,1.347,0.572c0.374,0.383,0.562,0.839,0.562,1.368c0,0.531-0.188,0.988-0.562,1.369
		c-0.376,0.382-0.824,0.572-1.347,0.572h-7.633c-0.521,0-0.969-0.19-1.345-0.572c-0.376-0.381-0.563-0.838-0.563-1.369V20.947
		c0-0.53,0.188-0.986,0.563-1.369c0.376-0.381,0.824-0.573,1.345-0.573c0.522,0,0.971,0.191,1.347,0.573
		c0.373,0.382,0.562,0.838,0.562,1.369v21.351H309.738z"/>
	<radialGradient id="SVGID_17_" cx="319.2793" cy="32.5928" r="10.4253" gradientUnits="userSpaceOnUse">
		<stop  offset="0" style="stop-color:#416691"/>
		<stop  offset="1" style="stop-color:#112F58"/>
	</radialGradient>
	<path fill="url(#SVGID_17_)" stroke="#FBB03B" stroke-width="0.1" stroke-miterlimit="10" d="M323.096,42.298
		c0.522,0,0.971,0.191,1.346,0.572c0.375,0.383,0.563,0.839,0.563,1.368c0,0.531-0.188,0.988-0.563,1.369
		c-0.375,0.382-0.823,0.572-1.346,0.572h-7.633c-0.521,0-0.969-0.19-1.345-0.572c-0.376-0.381-0.563-0.838-0.563-1.369V20.947
		c0-0.53,0.188-0.986,0.563-1.369c0.376-0.381,0.824-0.573,1.345-0.573c0.522,0,0.971,0.191,1.347,0.573
		c0.374,0.382,0.562,0.838,0.562,1.369v21.351H323.096z"/>
</g>
<radialGradient id="SVGID_18_" cx="158.3789" cy="30.0313" r="11.2695" gradientUnits="userSpaceOnUse">
	<stop  offset="0" style="stop-color:#416691"/>
	<stop  offset="1" style="stop-color:#112F58"/>
</radialGradient>
<path fill="url(#SVGID_18_)" stroke="#FBB03B" stroke-width="0.1" stroke-miterlimit="10" d="M150.779,43.998
	c0,0-2.069-27.458,15.277-27.933v4.311c0,0-12.204-1.362-10.931,23.623H150.779z"/>
<radialGradient id="SVGID_19_" cx="159.6299" cy="15.6543" r="10.5145" gradientUnits="userSpaceOnUse">
	<stop  offset="0" style="stop-color:#416691"/>
	<stop  offset="1" style="stop-color:#112F58"/>
</radialGradient>
<path fill="url(#SVGID_19_)" stroke="#FBB03B" stroke-width="0.1" stroke-miterlimit="10" d="M151.522,23.854
	c0,0,2.158-12.236,20.512-11.98V7.502c0,0-21.332-1.75-24.809,16.075L151.522,23.854z"/>
<radialGradient id="SVGID_20_" cx="154.9033" cy="4.127" r="4.1243" gradientUnits="userSpaceOnUse">
	<stop  offset="0" style="stop-color:#416691"/>
	<stop  offset="1" style="stop-color:#112F58"/>
</radialGradient>
<circle fill="url(#SVGID_20_)" stroke="#FBB03B" stroke-width="0.1" stroke-miterlimit="10" cx="154.903" cy="4.127" r="4.124"/>
<radialGradient id="SVGID_21_" cx="139.0645" cy="14.876" r="7.9995" gradientUnits="userSpaceOnUse">
	<stop  offset="0" style="stop-color:#416691"/>
	<stop  offset="1" style="stop-color:#112F58"/>
</radialGradient>
<path fill="url(#SVGID_21_)" stroke="#FBB03B" stroke-width="0.1" stroke-miterlimit="10" d="M135.655,17.931
	c0.817,0.837,3.943,0.21,4.997,0.188c0,0,0.183-0.114,1.311,0.842c1.133,0.956,3.839,3.915,3.839,3.915l1.263-0.909
	c0,0-3.455-3.815-3.793-4.202c-0.331-0.386-0.686-1.325-0.686-1.325c0.358-1.356,1.034-3.87,0.257-4.775l-3.991-4.105
	c-0.818-0.837-2.165-0.917-3.017-0.172l-4.113,3.573c-0.849,0.744-0.88,2.023-0.062,2.859L135.655,17.931z"/>
<radialGradient id="SVGID_22_" cx="38.7852" cy="32.5928" r="13.2075" gradientUnits="userSpaceOnUse">
	<stop  offset="0" style="stop-color:#FCEE21"/>
	<stop  offset="0.2189" style="stop-color:#F9EB23"/>
	<stop  offset="0.3948" style="stop-color:#EFE22B"/>
	<stop  offset="0.5557" style="stop-color:#DED338"/>
	<stop  offset="0.7077" style="stop-color:#C6BE4A"/>
	<stop  offset="0.8534" style="stop-color:#A7A362"/>
	<stop  offset="0.9927" style="stop-color:#82827E"/>
	<stop  offset="1" style="stop-color:#808080"/>
</radialGradient>
<path fill="url(#SVGID_22_)" d="M38.785,19.392c-7.3,0-13.214,5.911-13.214,13.199c0,7.292,5.914,13.203,13.214,13.203
	c7.296,0,13.214-5.911,13.214-13.203C51.999,25.303,46.081,19.392,38.785,19.392z M42.171,25.127c0,0.797-0.901,1.447-2.017,1.447
	c-1.109,0-2.013-0.65-2.013-1.447c0-0.799,0.904-1.445,2.013-1.445C41.27,23.682,42.171,24.328,42.171,25.127z M36.963,20.57
	c1.141-0.174,2.101-0.065,2.151,0.24c0.043,0.307-0.842,0.695-1.983,0.869c-1.137,0.174-2.1,0.064-2.147-0.241
	C34.937,21.133,35.822,20.744,36.963,20.57z M27.479,36.116c-0.279,0.042-0.642-0.729-0.806-1.726
	c-0.164-0.996-0.068-1.84,0.21-1.889c0.283-0.043,0.642,0.728,0.806,1.724C27.856,35.223,27.761,36.065,27.479,36.116z M28.17,27.24
	c-0.231-0.179,0.098-0.996,0.741-1.822c0.644-0.83,1.357-1.357,1.589-1.175c0.236,0.179-0.098,0.997-0.741,1.823
	C29.116,26.896,28.406,27.424,28.17,27.24z M28.767,30.771c0-1.09,0.735-1.973,1.638-1.973s1.638,0.883,1.638,1.973
	c0,1.089-0.735,1.971-1.638,1.971S28.767,31.86,28.767,30.771z M33.263,43.224c-0.208,0.267-1.073-0.038-1.929-0.695
	c-0.856-0.65-1.385-1.396-1.177-1.662c0.208-0.275,1.068,0.038,1.929,0.688C32.943,42.203,33.471,42.957,33.263,43.224z
	 M36.145,42.041c-1.104,0-1.996-0.622-1.996-1.394c0-0.771,0.892-1.4,1.996-1.4s1.996,0.63,1.996,1.4
	C38.141,41.419,37.25,42.041,36.145,42.041z M36.222,32.742c0-1.074,0.858-1.944,1.919-1.944c1.065,0,1.92,0.87,1.92,1.944
	c0,1.071-0.855,1.941-1.92,1.941C37.08,34.684,36.222,33.813,36.222,32.742z M40.513,44.728c-1.137,0.171-2.1,0.065-2.147-0.244
	c-0.047-0.303,0.842-0.69,1.979-0.869c1.145-0.17,2.101-0.064,2.151,0.245C42.539,44.162,41.657,44.55,40.513,44.728z
	 M44.086,22.164c0.213-0.266,1.077,0.043,1.93,0.696c0.86,0.649,1.386,1.399,1.181,1.666c-0.203,0.271-1.068-0.038-1.929-0.692
	C44.407,23.186,43.883,22.436,44.086,22.164z M45.423,36.758c-0.775-0.189-1.187-1.242-0.918-2.345
	c0.276-1.11,1.123-1.853,1.907-1.662c0.775,0.189,1.178,1.242,0.909,2.345C47.045,36.207,46.198,36.948,45.423,36.758z
	 M48.542,39.937c-0.644,0.822-1.354,1.354-1.593,1.17c-0.232-0.175,0.098-0.996,0.74-1.826c0.644-0.822,1.361-1.354,1.594-1.171
	C49.514,38.284,49.185,39.106,48.542,39.937z M50.69,32.741c-0.283,0.042-0.642-0.728-0.813-1.725
	c-0.163-0.997-0.068-1.84,0.214-1.886c0.283-0.047,0.643,0.725,0.807,1.721C51.061,31.848,50.966,32.691,50.69,32.741z"/>
<radialGradient id="SVGID_23_" cx="135.4453" cy="35.207" r="11.0063" gradientTransform="matrix(0.9081 0 0 0.909 12.2907 2.8823)" gradientUnits="userSpaceOnUse">
	<stop  offset="0" style="stop-color:#FCEE21"/>
	<stop  offset="0.2189" style="stop-color:#F9EB23"/>
	<stop  offset="0.3948" style="stop-color:#EFE22B"/>
	<stop  offset="0.5557" style="stop-color:#DED338"/>
	<stop  offset="0.7077" style="stop-color:#C6BE4A"/>
	<stop  offset="0.8534" style="stop-color:#A7A362"/>
	<stop  offset="0.9927" style="stop-color:#82827E"/>
	<stop  offset="1" style="stop-color:#808080"/>
</radialGradient>
<path fill="url(#SVGID_23_)" d="M135.288,24.886c-5.525,0-10,4.478-10,9.998c0,5.523,4.475,10.002,10,10.002
	c5.521,0,10-4.479,10-10.002C145.289,29.363,140.81,24.886,135.288,24.886z M137.85,29.23c0,0.604-0.682,1.095-1.525,1.095
	c-0.839,0-1.524-0.491-1.524-1.095c0-0.605,0.685-1.096,1.524-1.096C137.168,28.135,137.85,28.625,137.85,29.23z M133.909,25.779
	c0.864-0.132,1.59-0.049,1.628,0.182c0.033,0.231-0.637,0.526-1.501,0.658c-0.86,0.131-1.589,0.049-1.624-0.184
	C132.376,26.205,133.047,25.91,133.909,25.779z M126.732,37.553c-0.211,0.035-0.485-0.548-0.609-1.307
	c-0.125-0.753-0.052-1.391,0.158-1.429c0.214-0.034,0.485,0.549,0.611,1.307C127.019,36.878,126.946,37.515,126.732,37.553z
	 M127.255,30.833c-0.175-0.137,0.075-0.757,0.562-1.382c0.487-0.629,1.028-1.028,1.203-0.89c0.177,0.136-0.075,0.754-0.562,1.38
	C127.972,30.571,127.434,30.97,127.255,30.833z M127.707,33.508c0-0.827,0.556-1.497,1.24-1.497c0.684,0,1.239,0.67,1.239,1.497
	c0,0.821-0.556,1.49-1.239,1.49C128.263,34.998,127.707,34.329,127.707,33.508z M131.109,42.94
	c-0.157,0.198-0.811-0.031-1.459-0.526c-0.649-0.494-1.049-1.058-0.892-1.262c0.157-0.207,0.809,0.031,1.461,0.521
	C130.867,42.164,131.266,42.736,131.109,42.94z M133.291,42.044c-0.836,0-1.51-0.471-1.51-1.055c0-0.586,0.674-1.063,1.51-1.063
	c0.835,0,1.51,0.477,1.51,1.063C134.801,41.573,134.126,42.044,133.291,42.044z M133.349,34.998c0-0.813,0.648-1.47,1.452-1.47
	c0.806,0,1.453,0.657,1.453,1.47c0,0.814-0.647,1.472-1.453,1.472C133.997,36.47,133.349,35.813,133.349,34.998z M136.596,44.076
	c-0.86,0.133-1.588,0.052-1.624-0.183c-0.037-0.229,0.636-0.521,1.497-0.658c0.866-0.13,1.589-0.05,1.627,0.185
	C138.13,43.648,137.462,43.942,136.596,44.076z M139.3,26.986c0.16-0.201,0.814,0.033,1.459,0.527
	c0.65,0.492,1.05,1.059,0.895,1.262c-0.155,0.205-0.81-0.027-1.46-0.525C139.543,27.76,139.147,27.191,139.3,26.986z M140.312,38.04
	c-0.587-0.142-0.898-0.938-0.695-1.777c0.21-0.84,0.85-1.402,1.443-1.257c0.587,0.144,0.892,0.942,0.689,1.776
	C141.539,37.624,140.899,38.185,140.312,38.04z M142.672,40.448c-0.487,0.622-1.024,1.027-1.205,0.888
	c-0.176-0.132,0.073-0.757,0.559-1.383c0.487-0.624,1.032-1.027,1.208-0.889C143.408,39.195,143.158,39.818,142.672,40.448z
	 M144.298,34.997c-0.215,0.035-0.486-0.551-0.615-1.306c-0.125-0.754-0.052-1.394,0.161-1.43c0.214-0.034,0.486,0.55,0.61,1.306
	C144.579,34.322,144.506,34.96,144.298,34.997z"/>
</svg>
