<?xml version="1.0" encoding="utf-8"?>
<!-- Generator: Adobe Illustrator 15.1.0, SVG Export Plug-In . SVG Version: 6.00 Build 0)  -->
<!DOCTYPE svg PUBLIC "-//W3C//DTD SVG 1.1//EN" "http://www.w3.org/Graphics/SVG/1.1/DTD/svg11.dtd">
<svg version="1.1" id="Layer_1" xmlns="http://www.w3.org/2000/svg" xmlns:xlink="http://www.w3.org/1999/xlink" x="0px" y="0px"
	 width="100px" height="100px" viewBox="0 0 100 100" enable-background="new 0 0 100 100" xml:space="preserve">
<rect fill="#24274A" width="100" height="100"/>
<radialGradient id="SVGID_1_" cx="33.4824" cy="69.4521" r="11.1072" gradientTransform="matrix(0.9003 0 0 0.9003 -17.5261 -10.8152)" gradientUnits="userSpaceOnUse">
	<stop  offset="0" style="stop-color:#FCEE21"/>
	<stop  offset="0.2189" style="stop-color:#F9EB23"/>
	<stop  offset="0.3948" style="stop-color:#EFE22B"/>
	<stop  offset="0.5557" style="stop-color:#DED338"/>
	<stop  offset="0.7077" style="stop-color:#C6BE4A"/>
	<stop  offset="0.8534" style="stop-color:#A7A362"/>
	<stop  offset="0.9927" style="stop-color:#82827E"/>
	<stop  offset="1" style="stop-color:#808080"/>
</radialGradient>
<path fill="url(#SVGID_1_)" d="M12.623,41.713c-5.533,0-10.005,4.474-10.005,10.002c0,5.523,4.472,9.998,10.005,9.998
	c5.518,0,9.995-4.475,9.995-9.998C22.618,46.187,18.14,41.713,12.623,41.713z M15.172,46.057c0,0.605-0.675,1.099-1.524,1.099
	c-0.832,0-1.521-0.493-1.521-1.099c0-0.612,0.689-1.096,1.521-1.096C14.498,44.961,15.172,45.444,15.172,46.057z M11.238,42.606
	c0.867-0.133,1.589-0.051,1.632,0.179c0.025,0.233-0.639,0.527-1.508,0.664c-0.851,0.124-1.589,0.043-1.615-0.188
	C9.707,43.033,10.372,42.733,11.238,42.606z M4.062,54.383c-0.213,0.032-0.491-0.545-0.609-1.307
	c-0.127-0.754-0.055-1.393,0.156-1.428c0.215-0.036,0.488,0.546,0.609,1.3C4.349,53.706,4.272,54.345,4.062,54.383z M4.59,47.664
	c-0.177-0.141,0.073-0.76,0.558-1.386c0.481-0.63,1.026-1.03,1.199-0.894c0.177,0.138-0.077,0.76-0.56,1.382
	C5.296,47.399,4.763,47.789,4.59,47.664z M5.036,50.336c0-0.825,0.556-1.497,1.239-1.497c0.683,0,1.247,0.672,1.247,1.497
	c0,0.82-0.563,1.494-1.247,1.494C5.591,51.83,5.036,51.156,5.036,50.336z M8.435,59.77c-0.153,0.203-0.799-0.028-1.457-0.527
	c-0.648-0.49-1.046-1.055-0.889-1.259c0.156-0.209,0.806,0.028,1.457,0.517C8.197,58.997,8.594,59.57,8.435,59.77z M10.626,58.874
	c-0.846,0-1.519-0.472-1.519-1.056s0.673-1.059,1.519-1.059c0.825,0,1.501,0.475,1.501,1.059S11.451,58.874,10.626,58.874z
	 M10.686,51.83c0-0.816,0.644-1.475,1.442-1.475c0.806,0,1.455,0.658,1.455,1.475c0,0.811-0.649,1.47-1.455,1.47
	C11.329,53.3,10.686,52.641,10.686,51.83z M13.926,60.909c-0.863,0.13-1.585,0.046-1.627-0.186c-0.03-0.231,0.634-0.52,1.494-0.661
	c0.878-0.126,1.599-0.049,1.64,0.188C15.458,60.485,14.789,60.774,13.926,60.909z M16.627,43.816
	c0.166-0.205,0.816,0.028,1.462,0.528c0.649,0.489,1.052,1.057,0.892,1.255c-0.147,0.205-0.814-0.025-1.462-0.521
	C16.871,44.59,16.481,44.018,16.627,43.816z M17.636,54.867c-0.585-0.14-0.892-0.939-0.684-1.771
	c0.203-0.851,0.846-1.408,1.433-1.256c0.594,0.137,0.889,0.938,0.693,1.771C18.865,54.452,18.223,55.015,17.636,54.867z
	 M20.006,57.279c-0.496,0.621-1.028,1.025-1.212,0.889c-0.176-0.137,0.071-0.762,0.566-1.387c0.485-0.625,1.022-1.021,1.201-0.885
	C20.737,56.029,20.488,56.65,20.006,57.279z M21.624,51.828c-0.21,0.031-0.483-0.555-0.612-1.316
	c-0.126-0.749-0.052-1.387,0.167-1.423c0.205-0.038,0.484,0.546,0.607,1.31C21.909,51.15,21.838,51.787,21.624,51.828z"/>
<linearGradient id="SVGID_2_" gradientUnits="userSpaceOnUse" x1="70.4375" y1="44.6167" x2="98.7051" y2="44.6167">
	<stop  offset="0" style="stop-color:#D8D8D8"/>
	<stop  offset="0.0238" style="stop-color:#DADADA"/>
	<stop  offset="0.3557" style="stop-color:#EEEEEE"/>
	<stop  offset="0.6835" style="stop-color:#FBFBFB"/>
	<stop  offset="1" style="stop-color:#FFFFFF"/>
</linearGradient>
<path fill="url(#SVGID_2_)" d="M77.927,44.808l-0.345-0.325l-0.756-0.035l-0.197-0.206c0,0-0.653,0.016-0.313-0.507
	c0,0,0.065-0.095-0.047-0.163l-0.424-0.209c0,0-0.561-0.161-1.348,0.249c0,0-1.114,0.366-1.451,0.205l-2.124-1.494
	c0,0-0.658-0.571-0.44-1.377l1.166-2.622c0,0,0.407-1.032,1.312-0.553l2.007,1.391c0,0,0.504,0.39,0.791,2.003
	c0,0,0.25,1.113,0.463,1.348l0.623,0.557c0,0,0.491-0.586,1.012-0.44c0,0,0.206,0.004,0.284-0.073c0,0,0.295-0.747,1.11-0.981
	c0,0,0.443-1.211,1.938-1.934c0,0,0.41-0.347,0.813-1.251l-0.081-0.097c0,0,0.745-1.801,1.964-2.49c0,0,0.439-0.278,0.645-0.4
	c0,0,0.213-0.083,0.059-0.201c0,0-0.117-0.183-0.029-0.323l-0.034-0.246c0,0-0.259,0.024-0.142-0.281l-0.117-0.043l0.03-0.36
	l-0.411,0.065c0,0-0.088-0.248,0.146-0.554c0,0,0.146-0.321,0.117-0.519c0,0-0.216-0.583,0.059-1.516c0,0,0.126-0.545-0.133-0.121
	c0,0-0.102-0.704,0.514-0.763c0,0,0.154-0.043,0.154-0.263l0.373-0.323c0,0,2.168-1.393,2.842,1.452c0,0,0.442,1.553-0.586,2.681
	c0,0-0.2,0.221,0.088,0.307c0,0,2.168,0.075,3.316,1.048c0,0,1.43,1.552,1.903,2.117l0.049,0.161c0,0,0.887,1.29,1.148,1.858
	c0,0,0.18,0.724,0.498,1.208c0,0,0.573,0.847,1.056,2.724c0,0,0.114,0.907,1.082,1.881c0,0,0.91,1.113,1.155,1.758
	c0,0,0.106,0.117-0.18,0.217l-0.124-0.191c0,0,0.029,0.654-0.088,0.654c0,0-0.315,0-0.352-0.445c0,0-0.08-1.045-0.352-1.045
	c0,0-0.061,0.381,0.029,0.693c0,0-0.146,0.143-0.199,0.143c-0.041,0-0.119,0.385-0.211,0.033c0,0,0-0.498-0.176-0.674
	c0,0-0.548-0.234-0.674-0.703c0,0-0.139-0.205-0.146-0.703c0,0-0.645-1.253-1.396-2.399c0,0-0.597-1.154-0.715-1.494
	c0,0,0.01-0.481-0.468-0.971c0,0-0.762-0.565-0.908-0.808l-0.117,0.064l-0.586-0.568c0,0-0.293,0.341,0.263,1.816
	c0,0,0.235,1.152,0.632,1.833c0,0,1.303,3.376-1.041,4.9c0,0,0.438,1.641,0.255,3.135c0,0,0.037,0.498,0.683,0.498
	c0,0,1.403-0.352,3.748,2.139c0,0,0.267,0.264,0.521,0.088c0,0,0.256-0.469,0.947-0.732c0,0,0.088,0.029,0.137-0.088
	c0,0,0.254-0.498,0.508-0.029c0,0,1.113,3.488,1.048,5.393c0,0-0.396,0.738-1.048-0.527c0,0-0.176-0.41-0.355-0.555l-1.577-1.229
	c0,0-0.147-0.15-0.147-0.318c0,0-0.967-1.107-2.674-1.5c0,0-1.194-0.209-1.634-0.473c0,0-0.82-0.176-1.231-0.176
	c0,0-0.371,0.004-0.498-0.264l-1.773-3.625c0,0-0.688,0.637-0.789,0.285c0,0-0.25-0.41-0.367-0.82c0,0-0.634-0.314-1.289,0.352
	c0,0,0.504,2.449-1.167,5.012c0,0-1.044,2.344-0.826,2.756c0,0,0.267,0.836,0.117,1.82c0,0,0.257,0-0.059,0.314
	c0,0-0.313,0.473-1.025,0.268l-0.527,0.391c0,0-3.368,0.078-2.578-1.039c0,0,1.289-0.918,1.436-1.041c0,0,0.322-0.322,0.381-0.422
	c0,0,0.117-0.479,0.498-0.645c0,0,1.377-1.172,1.875-8.783c0,0-0.11-0.799,2.257-2.074c0,0-0.205-0.688,0.557-0.713
	c0,0,0.176-0.964,0.527-1.082c0,0-0.762-3.355-2.461-4.556c0,0-0.234-0.205-0.469,0.059l-0.866,0.984l-0.102-0.223
	c0,0-0.645,0.732-0.762,0.732c0,0-0.762,1.304-1.809,1.917c0,0-0.19,0.018-0.389,0.324c0,0-0.988,0.777-1.212,0.646
	c0,0-0.252,0.337-0.368,0.381l0.086,0.242C78.433,44.323,78.17,45.03,77.927,44.808z"/>
<g>
	
		<linearGradient id="SVGID_3_" gradientUnits="userSpaceOnUse" x1="-80.9102" y1="301.585" x2="-31.9414" y2="301.585" gradientTransform="matrix(0.9867 -0.1627 0.1627 0.9867 56.2795 -259.6727)">
		<stop  offset="0" style="stop-color:#FCEE00"/>
		<stop  offset="0.0933" style="stop-color:#E0D403"/>
		<stop  offset="0.3412" style="stop-color:#9A920B"/>
		<stop  offset="0.5647" style="stop-color:#635F12"/>
		<stop  offset="0.7559" style="stop-color:#3B3916"/>
		<stop  offset="0.9072" style="stop-color:#232219"/>
		<stop  offset="1" style="stop-color:#1A1A1A"/>
	</linearGradient>
	<path fill="url(#SVGID_3_)" d="M26.557,57.043c0,0,15.397-17.251,43.055-2.002c0,0-0.646-8.373,3.915-13.869
		c0,0-5.875,5.279-4.544,12.61c0,0-25.813-20.972-45.171-13.12C23.813,40.662,26.601,46.847,26.557,57.043z"/>
	<path fill="#FFFFFF" d="M68.544,52.903c0,0-0.787-7.177,4.983-11.731c0,0-5.247,4.856-4.345,12.959c0,0-28.782-17.35-44.9,0.537
		c0,0,2.843-11.293-7.993-14.594C16.29,40.074,41.028,26.957,68.544,52.903z"/>
</g>
</svg>
