<?xml version="1.0" encoding="utf-8"?>
<!-- Generator: Adobe Illustrator 15.1.0, SVG Export Plug-In . SVG Version: 6.00 Build 0)  -->
<!DOCTYPE svg PUBLIC "-//W3C//DTD SVG 1.1//EN" "http://www.w3.org/Graphics/SVG/1.1/DTD/svg11.dtd">
<svg version="1.1" id="Layer_1" xmlns="http://www.w3.org/2000/svg" xmlns:xlink="http://www.w3.org/1999/xlink" x="0px" y="0px"
	 width="150px" height="65px" viewBox="0 0 150 65" enable-background="new 0 0 150 65" xml:space="preserve">
<rect y="0.005" fill="#CEEC06" width="150" height="64.999"/>
<g>
	<path d="M49.806,42.5l-1.553-5.098h-7.808L38.893,42.5H34l7.559-21.504h5.552L54.698,42.5H49.806z M47.169,33.594
		c-1.436-4.619-2.244-7.231-2.424-7.837s-0.31-1.084-0.388-1.436c-0.322,1.25-1.245,4.341-2.769,9.272H47.169z"/>
	<path d="M75.162,31.587c0,3.525-1.003,6.226-3.01,8.101S67.247,42.5,63.458,42.5h-6.064V21.084h6.724
		c3.496,0,6.211,0.923,8.145,2.769S75.162,28.276,75.162,31.587z M70.445,31.704c0-4.6-2.031-6.899-6.094-6.899h-2.417V38.75h1.948
		C68.258,38.75,70.445,36.401,70.445,31.704z"/>
	<path d="M97.369,31.587c0,3.525-1.004,6.226-3.01,8.101c-2.008,1.875-4.905,2.813-8.694,2.813h-6.064V21.084h6.724
		c3.496,0,6.211,0.923,8.145,2.769S97.369,28.276,97.369,31.587z M92.652,31.704c0-4.6-2.031-6.899-6.094-6.899h-2.417V38.75h1.948
		C90.465,38.75,92.652,36.401,92.652,31.704z"/>
	<path d="M114.449,36.553c0,1.934-0.695,3.457-2.088,4.57c-1.391,1.113-3.327,1.67-5.808,1.67c-2.285,0-4.307-0.43-6.064-1.289
		v-4.219c1.445,0.645,2.668,1.099,3.669,1.362s1.917,0.396,2.747,0.396c0.996,0,1.76-0.19,2.292-0.571s0.799-0.947,0.799-1.699
		c0-0.42-0.117-0.794-0.352-1.12c-0.234-0.328-0.578-0.643-1.033-0.945c-0.453-0.303-1.379-0.786-2.775-1.45
		c-1.309-0.615-2.29-1.206-2.944-1.772s-1.177-1.226-1.567-1.978s-0.586-1.631-0.586-2.637c0-1.895,0.642-3.384,1.926-4.468
		s3.06-1.626,5.325-1.626c1.113,0,2.175,0.132,3.187,0.396c1.01,0.264,2.067,0.635,3.171,1.113l-1.465,3.53
		c-1.143-0.469-2.087-0.796-2.835-0.981c-0.746-0.186-1.481-0.278-2.204-0.278c-0.859,0-1.519,0.2-1.978,0.601
		s-0.688,0.923-0.688,1.567c0,0.4,0.093,0.75,0.278,1.047s0.48,0.586,0.887,0.864c0.404,0.278,1.364,0.779,2.878,1.501
		c2.002,0.957,3.374,1.917,4.116,2.879C114.078,33.977,114.449,35.156,114.449,36.553z"/>
</g>
</svg>
