<?xml version="1.0" encoding="utf-8"?>
<!-- Generator: Adobe Illustrator 15.1.0, SVG Export Plug-In . SVG Version: 6.00 Build 0)  -->
<!DOCTYPE svg PUBLIC "-//W3C//DTD SVG 1.1//EN" "http://www.w3.org/Graphics/SVG/1.1/DTD/svg11.dtd">
<svg version="1.1" id="Layer_1" xmlns="http://www.w3.org/2000/svg" xmlns:xlink="http://www.w3.org/1999/xlink" x="0px" y="0px"
	 width="690px" height="85px" viewBox="0 0 690 85" enable-background="new 0 0 690 85" xml:space="preserve">
<polygon fill="#24274A" points="66.923,0 43.38,0 0.921,0 0.921,85 43.421,85 66.923,85 689.923,85 689.923,0 "/>
<radialGradient id="SVGID_1_" cx="209.0469" cy="59.5176" r="31.1006" gradientTransform="matrix(0.9003 0 0 0.9003 11.8854 -11.6128)" gradientUnits="userSpaceOnUse">
	<stop  offset="0" style="stop-color:#FCEE21"/>
	<stop  offset="0.2189" style="stop-color:#F9EB23"/>
	<stop  offset="0.3948" style="stop-color:#EFE22B"/>
	<stop  offset="0.5557" style="stop-color:#DED338"/>
	<stop  offset="0.7077" style="stop-color:#C6BE4A"/>
	<stop  offset="0.8534" style="stop-color:#A7A362"/>
	<stop  offset="0.9927" style="stop-color:#82827E"/>
	<stop  offset="1" style="stop-color:#808080"/>
</radialGradient>
<path fill="url(#SVGID_1_)" d="M200.095,13.971c-15.483,0-28.005,12.525-28.005,28.001c0,15.473,12.522,27.999,28.005,27.999
	c15.464,0,27.995-12.525,27.995-27.999C228.09,26.496,215.559,13.971,200.095,13.971z M207.25,26.132
	c0,1.694-1.905,3.089-4.266,3.089c-2.343,0-4.263-1.395-4.263-3.089c0-1.715,1.92-3.064,4.263-3.064
	C205.345,23.068,207.25,24.417,207.25,26.132z M196.231,16.48c2.414-0.377,4.437-0.155,4.568,0.497
	c0.061,0.655-1.799,1.477-4.232,1.859c-2.38,0.351-4.437,0.113-4.516-0.523C191.94,17.664,193.801,16.835,196.231,16.48z
	 M176.136,49.457c-0.6,0.067-1.37-1.529-1.716-3.662c-0.355-2.125-0.144-3.91,0.453-3.995c0.603-0.106,1.353,1.531,1.701,3.621
	C176.933,47.55,176.715,49.349,176.136,49.457z M177.613,30.644c-0.494-0.408,0.196-2.13,1.56-3.882
	c1.342-1.772,2.872-2.894,3.361-2.51c0.494,0.384-0.217,2.13-1.563,3.877C179.585,29.888,178.103,30.981,177.613,30.644z
	 M178.867,38.112c0-2.316,1.54-4.184,3.455-4.184c1.913,0,3.496,1.868,3.496,4.184c0,2.299-1.583,4.187-3.496,4.187
	C180.407,42.299,178.867,40.411,178.867,38.112z M188.383,64.512c-0.435,0.59-2.24-0.063-4.078-1.443
	c-1.824-1.402-2.942-2.986-2.502-3.542c0.453-0.596,2.263,0.064,4.092,1.432C187.706,62.368,188.824,63.961,188.383,64.512z
	 M194.512,62.034c-2.375,0-4.244-1.349-4.244-2.954c0-1.639,1.869-2.992,4.244-2.992c2.319,0,4.208,1.354,4.208,2.992
	C198.721,60.686,196.831,62.034,194.512,62.034z M194.677,42.299c0-2.292,1.804-4.125,4.043-4.125c2.247,0,4.074,1.832,4.074,4.125
	c0,2.259-1.827,4.106-4.074,4.106C196.481,46.405,194.677,44.558,194.677,42.299z M203.753,67.726
	c-2.41,0.342-4.433,0.116-4.563-0.537c-0.083-0.62,1.777-1.434,4.184-1.824c2.46-0.369,4.481-0.151,4.593,0.507
	C208.045,66.528,206.164,67.345,203.753,67.726z M211.324,19.854c0.463-0.574,2.275,0.081,4.081,1.494
	c1.827,1.369,2.951,2.956,2.509,3.506c-0.413,0.578-2.291-0.061-4.099-1.457C211.991,22.029,210.915,20.424,211.324,19.854z
	 M214.143,50.817c-1.64-0.418-2.492-2.659-1.915-4.968c0.572-2.397,2.357-3.94,4.016-3.529c1.649,0.384,2.489,2.616,1.942,4.958
	C217.587,49.632,215.785,51.214,214.143,50.817z M220.785,57.557c-1.392,1.746-2.891,2.854-3.392,2.472
	c-0.494-0.35,0.194-2.132,1.568-3.852c1.364-1.75,2.868-2.882,3.363-2.499C222.817,54.057,222.128,55.803,220.785,57.557z
	 M225.303,42.297c-0.58,0.084-1.344-1.56-1.703-3.687c-0.354-2.105-0.156-3.889,0.467-3.975c0.574-0.108,1.346,1.531,1.697,3.665
	C226.098,40.389,225.904,42.186,225.303,42.297z"/>
<linearGradient id="SVGID_2_" gradientUnits="userSpaceOnUse" x1="457.416" y1="42.2041" x2="528.0625" y2="42.2041">
	<stop  offset="0" style="stop-color:#D8D8D8"/>
	<stop  offset="0.0238" style="stop-color:#DADADA"/>
	<stop  offset="0.3557" style="stop-color:#EEEEEE"/>
	<stop  offset="0.6835" style="stop-color:#FBFBFB"/>
	<stop  offset="1" style="stop-color:#FFFFFF"/>
</linearGradient>
<path fill="url(#SVGID_2_)" d="M476.124,42.674l-0.855-0.804l-1.876-0.098l-0.503-0.506c0,0-1.634,0.05-0.78-1.265
	c0,0,0.158-0.249-0.114-0.404l-1.067-0.525c0,0-1.404-0.408-3.362,0.625c0,0-2.789,0.911-3.641,0.51l-5.308-3.735
	c0,0-1.632-1.433-1.092-3.45l2.912-6.539c0,0,1.022-2.591,3.28-1.387l5.005,3.479c0,0,1.271,0.961,1.985,5
	c0,0,0.635,2.795,1.157,3.373l1.56,1.393c0,0,1.225-1.467,2.536-1.112c0,0,0.514,0.026,0.707-0.173c0,0,0.746-1.867,2.762-2.449
	c0,0,1.123-3.027,4.855-4.838c0,0,1.02-0.863,2.018-3.13l-0.17-0.25c0,0,1.845-4.491,4.878-6.208c0,0,1.101-0.699,1.632-1.012
	c0,0,0.531-0.2,0.129-0.502c0,0-0.287-0.453-0.086-0.807l-0.081-0.604c0,0-0.618,0.046-0.324-0.705l-0.294-0.105l0.082-0.906
	l-1.058,0.156c0,0-0.211-0.614,0.368-1.371c0,0,0.375-0.804,0.296-1.309c0,0-0.541-1.461,0.157-3.779c0,0,0.317-1.363-0.337-0.302
	c0,0-0.245-1.765,1.276-1.915c0,0,0.402-0.104,0.402-0.654l0.915-0.811c0,0,5.448-3.48,7.123,3.634c0,0,1.112,3.88-1.478,6.704
	c0,0-0.484,0.553,0.209,0.757c0,0,5.411,0.2,8.316,2.626c0,0,3.539,3.881,4.76,5.293l0.093,0.404c0,0,2.249,3.229,2.898,4.635
	c0,0,0.451,1.822,1.235,3.031c0,0,1.426,2.116,2.623,6.811c0,0,0.278,2.263,2.699,4.689c0,0,2.294,2.781,2.91,4.396
	c0,0,0.242,0.297-0.443,0.548l-0.335-0.498c0,0,0.078,1.665-0.208,1.665c0,0-0.775,0-0.89-1.114c0,0-0.178-2.616-0.873-2.616
	c0,0-0.161,0.951,0.076,1.707c0,0-0.355,0.358-0.481,0.358c-0.129,0-0.295,0.998-0.536,0.102c0,0,0-1.261-0.451-1.677
	c0,0-1.354-0.602-1.682-1.766c0,0-0.332-0.504-0.36-1.758c0,0-1.601-3.129-3.485-6.005c0,0-1.479-2.876-1.81-3.735
	c0,0,0.05-1.206-1.157-2.421c0,0-1.915-1.408-2.275-2.017l-0.294,0.152l-1.47-1.412c0,0-0.7,0.855,0.651,4.538
	c0,0,0.607,2.878,1.599,4.591c0,0,3.277,8.431-2.595,12.262c0,0,1.072,4.079,0.622,7.816c0,0,0.082,1.252,1.724,1.252
	c0,0,3.482-0.906,9.343,5.351c0,0,0.694,0.647,1.312,0.207c0,0,0.651-1.17,2.381-1.829c0,0,0.203,0.057,0.329-0.235
	c0,0,0.649-1.228,1.262-0.061c0,0,2.808,8.726,2.623,13.478c0,0-0.968,1.861-2.623-1.318c0,0-0.437-1.021-0.89-1.368l-3.906-3.072
	c0,0-0.4-0.397-0.367-0.802c0,0-2.449-2.778-6.717-3.741c0,0-2.983-0.549-4.058-1.201c0,0-2.082-0.453-3.081-0.453
	c0,0-0.932,0.044-1.269-0.663l-4.42-9.032c0,0-1.723,1.571-1.976,0.707c0,0-0.607-1.013-0.936-2.056c0,0-1.56-0.773-3.203,0.895
	c0,0,1.272,6.104-2.903,12.512c0,0-2.626,5.86-2.095,6.907c0,0,0.7,2.069,0.288,4.548c0,0,0.651,0-0.116,0.758
	c0,0-0.783,1.199-2.584,0.703l-1.312,0.961c0,0-8.402,0.195-6.44-2.621c0,0,3.239-2.279,3.604-2.578c0,0,0.787-0.808,0.946-1.062
	c0,0,0.287-1.203,1.229-1.61c0,0,3.439-2.93,4.673-21.943c0,0-0.243-2.008,5.66-5.196c0,0-0.491-1.714,1.385-1.767
	c0,0,0.458-2.418,1.316-2.717c0,0-1.883-8.379-6.149-11.398c0,0-0.564-0.51-1.144,0.15l-2.184,2.471l-0.234-0.555
	c0,0-1.646,1.814-1.934,1.814c0,0-1.88,3.272-4.503,4.792c0,0-0.498,0.053-0.982,0.808c0,0-2.46,1.963-3.035,1.613
	c0,0-0.61,0.855-0.897,0.957l0.206,0.609C477.404,41.469,476.745,43.229,476.124,42.674z"/>
<linearGradient id="SVGID_3_" gradientUnits="userSpaceOnUse" x1="243.4185" y1="45.9277" x2="455.582" y2="45.9277">
	<stop  offset="0" style="stop-color:#FCEE00"/>
	<stop  offset="0.0933" style="stop-color:#E0D403"/>
	<stop  offset="0.3412" style="stop-color:#9A920B"/>
	<stop  offset="0.5647" style="stop-color:#635F12"/>
	<stop  offset="0.7559" style="stop-color:#3B3916"/>
	<stop  offset="0.9072" style="stop-color:#232219"/>
	<stop  offset="1" style="stop-color:#1A1A1A"/>
</linearGradient>
<path fill="url(#SVGID_3_)" d="M243.418,63.07c0,0,78.192-40.527,185.438,13.43c0,0,3.231-23.227,26.726-36.252
	c0,0-28.937,11.85-28.497,32.515c0,0-95.25-68.786-183.667-55.768C243.418,16.995,250.946,35.103,243.418,63.07z"/>
<path fill="#FFFFFF" d="M425.858,70.182c0,0,1.788-20.002,29.724-29.934c0,0-25.916,11.006-27.885,33.571
	c0,0-110.571-60.157-192.318-18.27c0,0,8.04-43.5-23.67-43.512C211.709,12.037,326.874-13.012,425.858,70.182z"/>
</svg>
