<?xml version="1.0" encoding="utf-8"?>
<!-- Generator: Adobe Illustrator 15.1.0, SVG Export Plug-In . SVG Version: 6.00 Build 0)  -->
<!DOCTYPE svg PUBLIC "-//W3C//DTD SVG 1.1//EN" "http://www.w3.org/Graphics/SVG/1.1/DTD/svg11.dtd">
<svg version="1.1" id="Layer_1" xmlns="http://www.w3.org/2000/svg" xmlns:xlink="http://www.w3.org/1999/xlink" x="0px" y="0px"
	 width="300px" height="100px" viewBox="0 0 300 100" enable-background="new 0 0 300 100" xml:space="preserve">
<radialGradient id="SVGID_1_" cx="140.1182" cy="49.8467" r="43.7429" gradientTransform="matrix(1.1307 0 0 1.1558 -19.1039 -7.8745)" gradientUnits="userSpaceOnUse">
	<stop  offset="0" style="stop-color:#FFFFFF"/>
	<stop  offset="0.0115" style="stop-color:#F9FCFD"/>
	<stop  offset="0.1296" style="stop-color:#BFDCEE"/>
	<stop  offset="0.2509" style="stop-color:#8CBFE1"/>
	<stop  offset="0.3726" style="stop-color:#61A7D6"/>
	<stop  offset="0.4949" style="stop-color:#3E94CC"/>
	<stop  offset="0.6181" style="stop-color:#2384C5"/>
	<stop  offset="0.7425" style="stop-color:#0F7AC0"/>
	<stop  offset="0.8688" style="stop-color:#0473BD"/>
	<stop  offset="1" style="stop-color:#0071BC"/>
</radialGradient>
<path fill="url(#SVGID_1_)" d="M139.334-0.262c-27.623,0-50.006,22.414-50.006,50.006c0,27.625,22.384,49.994,50.006,49.994
	c27.601,0,49.994-22.369,49.994-49.994C189.328,22.152,166.936-0.262,139.334-0.262z M152.125,21.47
	c0,3.021-3.401,5.475-7.626,5.475c-4.188,0-7.605-2.454-7.605-5.475c0-3.013,3.417-5.467,7.605-5.467
	C148.724,16.003,152.125,18.457,152.125,21.47z M132.438,4.211c4.326-0.662,7.943-0.256,8.135,0.905
	c0.161,1.164-3.178,2.623-7.498,3.294c-4.291,0.647-7.949,0.252-8.128-0.911C124.767,6.331,128.113,4.867,132.438,4.211z
	 M96.556,63.104c-1.06,0.125-2.435-2.783-3.046-6.563c-0.624-3.766-0.255-6.95,0.792-7.133c1.079-0.168,2.42,2.737,3.049,6.516
	C97.983,59.695,97.623,62.886,96.556,63.104z M99.174,29.462c-0.883-0.674,0.36-3.776,2.808-6.9
	c2.427-3.141,5.132-5.138,6.001-4.447c0.895,0.7-0.361,3.78-2.806,6.914C102.763,28.165,100.069,30.157,99.174,29.462z
	 M101.445,42.839c0-4.126,2.761-7.463,6.183-7.463c3.418,0,6.2,3.337,6.2,7.463c0,4.124-2.782,7.476-6.2,7.476
	C104.207,50.315,101.445,46.963,101.445,42.839z M118.437,90.002c-0.783,1.009-4.063-0.142-7.298-2.63
	c-3.243-2.457-5.228-5.282-4.448-6.299c0.79-1.05,4.039,0.146,7.292,2.624C117.224,86.158,119.214,88.994,118.437,90.002z
	 M129.333,85.517c-4.172,0-7.55-2.353-7.55-5.273c0-2.94,3.378-5.31,7.55-5.31c4.206,0,7.561,2.369,7.561,5.31
	C136.894,83.164,133.539,85.517,129.333,85.517z M129.624,50.315c0-4.064,3.252-7.368,7.27-7.368c4.021,0,7.285,3.304,7.285,7.368
	c0,4.048-3.263,7.354-7.285,7.354C132.876,57.669,129.624,54.363,129.624,50.315z M145.864,95.709
	c-4.306,0.64-7.928,0.223-8.12-0.939c-0.169-1.144,3.172-2.626,7.477-3.263c4.351-0.674,7.962-0.261,8.161,0.897
	C153.52,93.559,150.194,95.03,145.864,95.709z M159.384,10.247c0.804-1.018,4.077,0.151,7.294,2.634
	c3.26,2.464,5.249,5.312,4.479,6.302c-0.773,1.047-4.04-0.136-7.291-2.608C160.595,14.105,158.624,11.268,159.384,10.247z
	 M164.451,65.513c-2.956-0.723-4.497-4.694-3.479-8.875c1.047-4.204,4.244-7.01,7.204-6.304c2.948,0.735,4.475,4.71,3.451,8.896
	C170.591,63.416,167.379,66.232,164.451,65.513z M176.262,77.556c-2.455,3.129-5.131,5.11-6.048,4.424
	c-0.89-0.666,0.381-3.75,2.803-6.906c2.454-3.104,5.155-5.116,6.036-4.444C179.912,71.303,178.676,74.419,176.262,77.556z
	 M184.369,50.307c-1.075,0.162-2.409-2.756-3.072-6.521c-0.625-3.795-0.269-6.979,0.807-7.167c1.079-0.164,2.425,2.769,3.033,6.532
	C185.783,46.934,185.41,50.119,184.369,50.307z"/>
<g opacity="0.7">
	<path fill="#F2F2F2" d="M122.282,3.307l0.136-0.094l-0.06-0.051c-0.107,0.044-0.242,0.084-0.365,0.135l-0.227,0.156
		c0,0.01-0.086,0.06-0.348,0.221l0.348-0.13L122.282,3.307z"/>
	<path fill="#F2F2F2" d="M124.576,2.726l0.226-0.105l-0.346,0.105C124.496,2.726,124.532,2.726,124.576,2.726z"/>
	<polygon fill="#F2F2F2" points="129.794,0.809 129.49,0.908 128.952,1.071 128.978,1.102 129.148,1.069 129.344,1.036 
		129.611,0.967 129.886,0.862 129.796,0.858 130.075,0.754 	"/>
	<path fill="#F2F2F2" d="M127.792,1.476l-0.403,0.158l-0.177,0.097l-0.117,0.102l0.117,0.002l0.431-0.137l0.244-0.112l0.202-0.107
		c-0.021,0-0.077,0.01-0.14,0.01l0.075-0.041L127.792,1.476z"/>
	<path fill="#F2F2F2" d="M124.752,2.481l0.244-0.061l0.182-0.044l0.16-0.002l0.351-0.156c0.149-0.08,0.329-0.134,0.493-0.2
		c0.122-0.063,0.241-0.081,0.352-0.122c0.074-0.013,0.405-0.145,0.424-0.201c-0.021,0.002-0.089,0.006-0.328,0.085l0.243-0.132
		l-0.098,0.002c-0.784,0.353-0.797,0.353-0.836,0.353l-0.006-0.005l0.003-0.005l0.484-0.214l-0.129,0.001l-0.401,0.156l-0.354,0.144
		l0.203-0.144l0.593-0.227l0.144-0.073l-0.59,0.194c-0.239,0.105-0.464,0.195-0.697,0.307l-0.059,0.095l0.208-0.054l0.137-0.043
		l-0.193,0.109L124.752,2.481z"/>
	<path fill="#F2F2F2" d="M123.224,3.783l0.406-0.217l0.135,0.039l0.371-0.137l0.534-0.247c0.585-0.242,0.585-0.242,0.585-0.317
		h-0.025c-0.051,0-0.129,0-0.19,0.01l-0.018-0.079c-0.316,0.034-0.316,0.034-0.361,0.069c-0.524,0.254-0.524,0.254-0.737,0.307
		c-0.232,0.125-0.48,0.247-0.726,0.385c-0.23,0.118-0.446,0.258-0.676,0.405l0.299-0.053L123.224,3.783z"/>
	<path fill="#F2F2F2" d="M124.417,2.371l-0.309,0.121c0.154-0.017,0.154-0.017,0.419-0.116c0.142-0.061,0.137-0.09,0.137-0.097
		h-0.002C124.576,2.285,124.509,2.358,124.417,2.371z"/>
	<path fill="#F2F2F2" d="M133.591,0.133h0.045l-0.037,0.045l0.382-0.08l0.235-0.021l0.138-0.024l-0.299,0.036l-0.377,0.089
		l-0.329,0.06c0.193,0,0.193,0,0.679-0.099l0.052,0.037c0.041-0.003,0.098-0.033,0.14-0.033l0.337-0.055l0.29-0.036
		c0.154-0.025,0.307-0.054,0.494-0.058l0.048,0.004h-0.092c-0.212,0.029-0.423,0.076-0.625,0.09l0.156,0l0.007,0h0.016l-0.218,0.044
		c-0.038,0.002-0.088,0.004-0.146,0.004l-0.117,0.002l-0.158,0.039c-0.134,0-0.231,0.015-0.378,0.049l-0.06,0l-0.111,0.011
		c-0.103,0.009-0.177,0.03-0.278,0.05l0.033,0.008l-0.11,0.049l-0.212,0.074l0.097,0.013l-0.139,0.007l-0.097,0
		c0.329-0.123,0.329-0.123,0.352-0.157l-0.025-0.004l-0.09-0.01l-0.353,0.061l-0.177,0.052l-0.225,0.093l-0.263,0.11l-0.053,0.034
		l0.105,0.042c-0.11,0.021-0.248,0.026-0.351,0.067c-0.092,0.047-0.212,0.068-0.324,0.105l0.25-0.135l-0.018-0.021l-0.232,0.021
		l-0.19,0.024l-0.299,0.063c-0.101,0.026-0.2,0.074-0.303,0.091l-0.202,0.087l0.01,0.005c0.083,0,0.14,0,0.191,0l0.197-0.008
		l-0.393,0.09l-0.244,0.097c0.136,0,0.136,0,0.793-0.18l-0.382,0.143l-0.412,0.109l-0.195,0.016l0.01-0.088l0.078-0.09
		c-0.078,0.014-0.136,0.015-0.186,0.021c-0.679,0.265-0.679,0.265-0.955,0.321l-0.359,0.098l-0.297,0.163l-0.03,0.09
		c0.125-0.042,0.278-0.058,0.417-0.104c0,0.002,0,0.002,0.499-0.012l0.037,0.025c0.076,0.026,0.152-0.016,0.249-0.023
		c0.065-0.001,0.108-0.002,0.123,0.01c-0.22,0.103-0.22,0.103-0.221,0.11c0.052,0.019,0.098,0.021,0.206-0.006
		c0.038-0.001,0.091-0.001,0.134-0.001c0.681-0.185,0.681-0.185,0.88-0.271l0.205-0.12l-0.322,0.093l0.313-0.158l0.212-0.036
		l0.381-0.145l0.235-0.145h0.118c0.284,0.034,0.517-0.142,0.782-0.208c0.044,0,0.086,0,0.179,0c0.014,0,0.144,0,0.284-0.142
		l-0.019-0.028h-0.054l-0.262,0.028l-0.229,0.067l0.228-0.067c0.196-0.048,0.413-0.09,0.612-0.139l0.118,0l-0.118,0.049
		c0.087,0.034,0.087,0.034,0.56-0.06l0.147-0.096l0.172-0.015l-0.139,0.07l0.157-0.002l0.249-0.053l0.219-0.09l0.022-0.036
		c0.052,0,0.102-0.001,0.143-0.001l0.128-0.003l0.218-0.063l0.194,0c0.307-0.061,0.603-0.103,0.912-0.179h0.117l0.161-0.012
		l0.097-0.05c-0.078,0.008-0.078,0.008-0.473,0.017l0.195-0.02l0.17-0.017h0.108c0.036,0,0.083,0,0.131-0.014
		c0.126-0.01,0.247-0.014,0.359-0.022c0.181-0.024,0.181-0.024,0.367-0.054c0.032,0,0.099-0.008,0.125-0.021l-0.116,0.014
		l-0.021-0.011l0.119-0.012l0.102-0.021l-0.11,0.004h-0.089l-0.184,0.019l0.174-0.023l-0.112,0.004l0.122-0.021v-0.004l-0.097,0.004
		c-0.068,0.016-0.153,0.021-0.217,0.021l0.13-0.005l-0.112,0.004c-0.067,0-0.147,0.002-0.193,0.002l0.045-0.002l-0.246,0.018
		c-0.047,0.001-0.094,0.004-0.142,0.007l-0.029,0.001l0.1-0.007c-0.182,0.008-0.387,0.027-0.559,0.027l-0.259,0.024l0.045-0.013
		c-0.134,0.039-0.313,0.089-0.492,0.079c0.08-0.014,0.132-0.02,0.179-0.03l-0.047-0.004c0.109-0.006,0.226-0.028,0.33-0.055
		l-0.104,0.023l0.088-0.023l-0.162,0.023c-0.166,0.025-0.323,0.034-0.466,0.047h-0.055l0.06-0.009h-0.003
		c-0.139,0.009-0.293,0.038-0.432,0.045h-0.003h-0.067l-0.245,0.02l-0.048-0.002l-0.292,0.047h-0.01l-0.023,0.02l-0.377,0.058
		C133.806,0.125,133.688,0.122,133.591,0.133z"/>
	<path fill="#F2F2F2" d="M147.405,0.563l0.005,0.001c0.087,0.004,0.131,0.025,0.187,0.025l-0.055-0.024
		c0.063,0.004,0.228,0.052,0.354,0.073c-0.047-0.021-0.07-0.021-0.143-0.021c0.096,0.047,0.215,0.06,0.305,0.088
		c0.088,0.015,0.184,0.048,0.291,0.069h0.116c0.15,0.007,0.275,0.1,0.39,0.079c-0.03-0.045-0.127-0.058-0.225-0.078
		c0.096,0.005,0.127,0.02,0.215,0.02c-0.186-0.062-0.392-0.075-0.598-0.129h0.006l-0.063-0.049c-0.101,0-0.397-0.059-0.437-0.057
		l0.087,0.008l-0.047,0c-0.433-0.09-0.629-0.13-0.629-0.13c0.132,0.044,0.289,0.048,0.427,0.089l-0.132,0l-0.28-0.057l-0.062-0.032
		c-0.06,0-0.098-0.007-0.122-0.012c0.024,0.012,0.062,0.012,0.119,0.012h-0.004l-0.091-0.002l-0.032-0.002
		c0.012,0.002,0.012,0.002,0.012,0.004c-0.085-0.004-0.117-0.007-0.202-0.006C146.809,0.438,147.139,0.517,147.405,0.563z
		 M147.699,0.589c-0.095-0.021-0.16-0.033-0.289-0.062C147.545,0.557,147.633,0.569,147.699,0.589z"/>
	<path fill="#F2F2F2" d="M147.36,8.145l0.367,0.233c0.042,0.06,0.029,0.15,0.098,0.212c-0.221-0.021-0.559-0.111-0.967-0.014
		c0.049,0.069,0.135,0.192,0.16,0.262c0.098-0.022,0.098-0.022,0.146-0.022c0.132,0.001,0.247,0.002,0.382,0.004l0.059,0.055
		c0.049,0.108,0.124,0.242,0.149,0.372l0.146,0.177c0.094,0,0.16,0,0.227,0c0.205-0.004,0.359-0.024,0.583-0.017
		c0.042,0,0.117,0,0.198,0c0.26-0.019,0.422,0.235,0.63,0.306c0,0.003,0.767,0.154,0.738-0.217
		c-0.004-0.143-0.004-0.143,0.113-0.268c0.044-0.083,0.182,0.061,0.244-0.053c0.104-0.192,0.104-0.192,0.174-0.215
		c0.159-0.083,0.159-0.083,0.864-0.034c-0.051-0.118-0.116-0.246-0.184-0.361c-0.092-0.07-0.109-0.154-0.198-0.187
		c-0.165-0.09-0.165-0.09-0.4-0.112c-0.183-0.366-0.183-0.366-0.316-0.575c-0.144-0.003-0.257-0.024-0.4-0.026
		c-0.143,0.021-0.143,0.021-0.458,0.344c-0.25-0.017-0.397-0.101-0.597-0.101c-0.36-0.005-0.434,0.082-0.501,0.134
		c-0.059,0.045-0.131,0.046-0.181,0.061c-0.104-0.005-0.217-0.015-0.345-0.016c-0.031-0.042-0.064-0.097-0.095-0.179
		c-0.014-0.051-0.027-0.103-0.074-0.17c-0.062-0.073-0.155-0.089-0.219-0.179l-0.16,0.054c0.049,0.051,0.063,0.125,0.063,0.181
		c-0.146-0.055-0.146-0.055-0.691-0.064c-0.024,0-0.507,0.099-0.121,0.477C146.998,8.203,147.116,8.084,147.36,8.145z"/>
	<path fill="#F2F2F2" d="M128.756,1.345l0.135,0.047c0.167,0,0.526-0.182,0.649-0.245l-0.295,0.059L128.756,1.345z"/>
	<path fill="#F2F2F2" d="M137.741-0.146h-0.076h-0.024l-0.022,0.001l-0.023,0.022h-0.019l-0.032,0.004l0.001,0.001l0.031,0.001l0,0
		h0.006h0.001h0.002l0,0v0.006l-0.011,0.004l-0.043,0.006l-0.018,0.004l-0.014,0.024v0.004h0.018l0,0l0,0h0.002l0,0h0.012l0,0v0.001
		l-0.014,0.007v0.004l-0.006,0.009l-0.012,0.034h-0.066v-0.032h-0.002l-0.019-0.006l0.015-0.005l0.004-0.004l0.002-0.002
		l-0.021-0.005v-0.001h-0.012v-0.014v-0.019l0.012-0.006l0.019-0.003l0.018-0.006v-0.001c0,0,0,0-0.048,0.001l-0.053,0.004
		l-0.011,0.002l-0.026,0.003h-0.028l-0.077,0.01c-0.059,0.014-0.098,0.028-0.147,0.035l-0.008,0.004l-0.035,0.003l-0.005,0.006
		c-0.098,0.041-0.169,0.047-0.245,0.09l-0.072-0.014l0.003-0.006l0.021-0.003l-0.123-0.02l-0.136,0.043
		c-0.103,0.008-0.183,0.033-0.279,0.042c-0.043,0.005-0.081,0.015-0.136,0.038l-0.025,0.003h-0.082l-0.006,0.001h-0.043
		l-0.033,0.007l-0.041,0.005l-0.056,0.004l-0.006,0.001l-0.061,0.035h-0.037h-0.002h-0.017c-0.07,0-0.139,0.017-0.177,0.049
		l-0.025,0.008c-0.042,0.005-0.099,0.023-0.155,0.032l0.065,0.014l-0.007,0.006l-0.035,0.008h0.041c0.048,0,0.099-0.005,0.136-0.008
		h0.015l0.074-0.002c-0.069,0.01-0.107,0.041-0.138,0.068l-0.036,0.002l-0.003,0.016l-0.047,0.006
		c-0.043,0.042-0.089,0.052-0.194,0.096c-0.053,0.01-0.1,0.039-0.151,0.043l-0.036,0.011l-0.112,0h-0.008
		c-0.067,0-0.102,0-0.173,0.037l-0.074,0.019c-0.038,0-0.051,0-0.17-0.018c-0.035-0.002-0.076,0-0.151,0.024l-0.073,0.028
		c-0.02,0-0.023,0-0.084,0l-0.061,0.049l-0.061,0.001c-0.009,0-0.058,0.004-0.098,0.004l-0.077,0.012
		c-0.09,0.022-0.179,0.014-0.274,0.022l-0.048,0.013l-0.013,0.001l-0.052,0.007l-0.051,0.027l-0.04,0.021l-0.04,0.007l-0.051,0.014
		h-0.041l-0.091,0.011c-0.276,0.092-0.276,0.104-0.306,0.161l0.057,0.055l-0.054,0.035c0.062,0,0.119,0,0.201,0v0.044l0.01,0.004
		l-0.01,0.041h0.083c0.015,0,0.022,0,0.077,0l0.114-0.035l0.029-0.005c0.057,0,0.08,0,0.177-0.007l0.073-0.006
		c0,0,0.016,0,0.07,0.004h0.002c-0.024,0.013-0.097,0.049-0.145,0.067l-0.075,0.045l-0.041,0.005
		c-0.062,0.006-0.129,0.041-0.183,0.05h-0.002l-0.048,0.002l-0.003-0.007h-0.023V1.235h-0.008h-0.05h-0.007l0,0l0,0h-0.007h-0.023
		c0,0,0,0-0.051,0.021c-0.043,0.005-0.092,0.009-0.133,0.014h-0.025l-0.102-0.014l-0.049,0l-0.133,0.047
		c-0.013,0-0.062,0.013-0.11,0.013c-0.098,0.025-0.098,0.025-0.192,0.089l-0.003,0.039c0.067,0.009,0.098,0.011,0.186,0.094v0.007
		l-0.085,0.013l-0.047,0.027h-0.053v0.048l0.039,0.009l-0.039,0.013v0.036l-0.013,0.011l0.002,0.006l0.011,0.023V1.75l0.047,0.03
		l0.001,0.005v0.021l0.061,0.032h0.031l0.041-0.003l0.031-0.024l0.032-0.024l0.108-0.09c0,0,0,0,0.043,0s0.093,0.006,0.141,0.013
		l0,0.022l0.008,0.002l0.008,0.018l0.059-0.001l0.047-0.053h0.12l0.01,0.008c0.01,0.017,0.083,0.026,0.116,0.017l0.066-0.021
		l0.034-0.006l0.055-0.009l0.015-0.024l0,0h0.001h0.007h0.001h0.001l0,0h0.004l0,0h0.004l0.057-0.005l0.023-0.013l0.1-0.044
		l0.063,0.052l0.008,0.007h0.07l0.077,0.002h0.024l0.069,0.048v0.04l0.01,0.007h0.019c0.073,0,0.147,0,0.187,0h0.03l0.042,0.05
		l0.005,0.029h0.079h0.036h0.035v0.06l0.045,0.041c0.008,0,0.01,0,0.074,0l0.004,0.062c-0.026,0.054-0.096,0.117-0.154,0.232v0.013
		l0.002,0.035l0.033,0.001h0.036l0.014,0.007l0.043,0.03l0.01,0.013l-0.01,0.092v0.017l0.003,0.078l0.007,0.026l-0.006,0.029
		l0.006,0.047l-0.007,0.109l-0.003,0.138l0.01,0.008l0.041,0.094l-0.041,0.027c-0.065,0.069-0.072,0.071-0.062,0.213
		c-0.023,0.047-0.045,0.097-0.097,0.137c-0.117,0.089-0.117,0.089-0.145,0.171h0.166c-0.034,0.033-0.043,0.085-0.131,0.126
		c-0.031,0.004-0.104,0.013-0.104,0.032c-0.049,0.02-0.051,0.033-0.058,0.058c3.574-0.33,6.372,0.106,6.52,1.122
		c0.154,1.091-2.804,2.446-6.755,3.146c-0.229,0.619-0.229,0.619-0.174,0.709c0.292,0,0.467-0.31,0.769-0.269
		c-0.031,0.145-0.064,0.269-0.111,0.437c-0.12,0.092-0.29,0.092-0.413,0.182c-0.075,0.067,0.516,1.464,0.52,1.472
		c0.435,0.65,0.814,0.981,1.112,0.968c0.044,0,0.067,0,0.17-0.023c0.092-0.049,0.092-0.049,0.249-0.055l0.07,0.001
		c0.06,0.005,0.153,0.005,0.228,0.033c0.003,0.431,0.495,0.361,0.705,0.592c0.084,0.142,0.929,0.149,0.897-0.239
		c0-0.024,0.001-0.056,0.005-0.16c0.061-0.48,0.851-0.95,0.346-1.38c-0.001-0.021-0.319-0.314,0.191-0.35
		c0.039,0,0.055,0,0.159-0.007c0.091-0.009,0.091-0.009,0.246-0.009c0.158-0.304,0.158-0.304,0.439-0.501c0-0.17,0-0.33,0.075-0.521
		l0.036-0.053c-0.002-0.25-0.098-0.305-0.195-0.412l0.028-0.072c0.162-0.102,0.357-0.01,0.5-0.143
		c0.109-0.094,0.035-0.201,0.087-0.291c0.186,0,0.389,0.002,0.576,0.002c-0.022-0.197-0.022-0.217-0.002-0.317
		c0.127,0,0.23,0,0.343,0.023c-0.008,0.242-0.008,0.243,0.031,0.336c0.328-0.042,0.539-0.26,0.823-0.392h0.105
		c0.14,0.032,0.14,0.032,0.38-0.059l-0.009-0.082c0.04-0.166,0.247-0.254,0.393-0.407c0.102-0.063,0.102-0.063,0.16-0.275
		c0.074-0.007,0.144-0.027,0.185-0.057c0-0.038-0.005-0.053,0.006-0.113c0.2-0.181,0.2-0.181,0.16-0.394V6.152h0.004l0.089,0.02
		l0.011,0.016l0.017,0.007l0.068,0.001l0.025,0.037l0.018,0.008l0.068,0.042c0.085,0.047,0.123,0.047,0.231,0.045
		c0.195-0.019,0.391,0.138,0.634,0.138c0.272,0,0.28-0.4,0.565-0.398c0.217,0,0.363-0.168,0.558-0.121
		c0.339,0.032,0.222-0.407,0.444-0.482c0.119,0.001,0.273,0.023,0.417,0.023c0.107-0.045,0.107-0.045,0.204-0.233l-0.037-0.066
		l-0.084-0.027L145.91,5.26l-0.015,0.097h-0.098c-0.004,0-0.017,0-0.09-0.001c-0.131-0.045-0.229-0.232-0.4-0.23
		c-0.013,0-0.047,0-0.115-0.002c-0.518-0.022-0.615-0.171-0.654-0.252c-0.031-0.046-0.059-0.104-0.064-0.14
		c0.57-0.096,0.57-0.096,0.689-0.179c0.257,0.083,0.266,0.442,0.578,0.461l0.058-0.04l0.006-0.14c0.14-0.067,0.32,0.029,0.433-0.049
		c-0.195-0.264-0.456-0.354-0.713-0.562c-0.197-0.179-0.501-0.221-0.607-0.515l0.052-0.014c0.333,0.179,0.333,0.179,0.344,0.179
		c0.015,0,0.021,0,0.117-0.021l0.091,0.021c-0.084-0.116-0.084-0.116-0.113-0.268c-0.074-0.002-0.08-0.014-0.094-0.109
		c-0.004-0.083-0.247-0.32-0.493-0.092c-0.093-0.002-0.122-0.002-0.219-0.06l0.124-0.097c-0.027-0.033-0.027-0.033-0.293-0.134
		l0.023-0.036c0.084,0,0.175,0,0.27,0c0.01,0.075,0.08,0.099,0.098,0.171c0.098,0.002,0.174,0.006,0.323-0.022l0.049-0.061h0.091
		c0.012,0,0.022,0,0.121,0c0.118,0.082,0.118,0.082,0.214,0.044c0.069-0.395-0.526-0.23-0.75-0.395l0.041-0.06
		c0.29,0.06,0.391,0.023,0.416,0.002l0.006-0.084l0.096,0.026l0.099,0.01c0.062,0.014,0.108-0.013,0.162-0.033
		c-0.254-0.202-0.577-0.235-0.77-0.488c0.015-0.013,0.015-0.013,0.175-0.046c-0.03-0.029-0.077-0.091-0.178-0.189
		c-0.183-0.06-0.183-0.06-0.215-0.108c0,0,0-0.004-0.073-0.057c-0.198-0.092-0.442-0.056-0.638-0.212l-0.019-0.036
		c0.047-0.049,0.047-0.049,0.214-0.08c0,0,0.036,0,0.083,0.001c0.064,0,0.101,0,0.269,0.101c0.021,0.013,0.026,0.022,0.062,0.073
		c0.064,0.068,0.074,0.085,0.308,0.244l0.011-0.034c-0.116-0.125-0.246-0.259-0.416-0.383l-0.024-0.056l-0.025-0.015
		c-0.126-0.087-0.126-0.087-0.365-0.092c-0.01,0-0.024,0-0.098-0.002l-0.054-0.002c-0.072-0.039-0.097-0.083-0.119-0.148
		l0.045,0.021l0.074,0.004l0.054-0.025c-0.111-0.045-0.422-0.18-0.546-0.09l0.036,0.061c-0.088-0.012-0.146-0.041-0.271-0.159V0.877
		c-0.13-0.095-0.13-0.095-0.226-0.171h0.11l-0.081-0.038V0.599c0.001,0,0.027,0-0.006-0.041c-0.139-0.088-0.139-0.12-0.224-0.202
		l0.087-0.002l-0.084-0.049l-0.004-0.065l-0.064-0.043c-0.095-0.002-0.155-0.004-0.233-0.005l-0.086-0.054
		c0.079,0.005,0.118,0.04,0.154,0.04l0.057-0.036l-0.115-0.06l0.026-0.036c-0.022-0.018-0.103-0.027-0.137-0.047
		c-0.12-0.045-0.292-0.013-0.473-0.054c-0.016-0.006-0.044-0.006-0.118-0.006l0,0l0,0h-0.001l0.001,0.009
		c0.074,0.039,0.102,0.051,0.118,0.074c-0.04,0-0.098,0-0.216-0.023l-0.027,0.049l0,0l0,0h-0.022l0,0l0,0h-0.001
		c0,0,0,0-0.039,0.041l0.039,0.089c-0.145-0.13-0.145-0.13-0.194-0.156c-0.007-0.023-0.048-0.023-0.136-0.079
		c-0.107-0.025-0.107-0.04-0.182-0.05c-0.022,0-0.033,0-0.073,0l-0.052,0.024l0.052,0.035c-0.041,0-0.111,0-0.146,0.034
		l-0.049-0.055h0.035l0.047-0.014c-0.131-0.028-0.131-0.028-0.249-0.019c-0.031,0-0.102,0-0.166-0.006
		c-0.06,0-0.099,0.01-0.118,0.034l0,0l0,0h-0.051h-0.005l-0.025,0.004h-0.004l0,0h-0.002l0,0l0,0l-0.002,0.003l-0.092,0.002
		l0.026-0.06c0.095,0,0.204,0,0.313-0.023c0.098,0,0.188,0.001,0.318-0.027h0.047l-0.121-0.019h-0.049c0,0,0,0-0.056,0
		c-0.061-0.005-0.178-0.025-0.273-0.028l0.004,0c-0.023,0-0.027,0-0.115,0l-0.094-0.004h-0.066h-0.015l-0.069-0.016l-0.025,0.016
		h-0.121l-0.003-0.02l0.031-0.007c0.093,0.002,0.232,0.004,0.329,0.004c-0.062-0.004-0.113-0.014-0.15-0.014h-0.06
		c-0.033,0-0.072,0-0.12,0h-0.031c-0.078,0-0.152,0-0.241,0h-0.03h-0.021c0,0-0.006,0-0.078,0.021l-0.088-0.007
		c-0.018,0-0.027,0-0.096-0.014c-0.029,0-0.111,0-0.136,0.01c-0.004,0-0.012,0-0.076,0h-0.075h-0.004h-0.006l-0.081,0.011v0.016l0,0
		l0.035,0.004v0v0.002l-0.047,0.025l0,0v-0.005V-0.2h-0.002h-0.01l-0.008-0.001h-0.006h-0.001v-0.002h-0.001v-0.014h-0.054v0.014
		l-0.044,0.002l-0.01,0.009l0,0l0.012,0.019h0.006h0.036l0,0h0.026h0.028h0.001l0.006,0.011l0.002,0.039v0.004v0.002l-0.006,0.006
		l-0.03,0.014l-0.026-0.004l0,0l-0.049-0.009l-0.005-0.002h-0.004l-0.036-0.005l-0.06-0.027l-0.007-0.001l-0.004-0.004v-0.012v-0.01
		v-0.001l0,0h-0.004h-0.026l0,0h-0.002h-0.042c-0.059-0.008-0.103-0.019-0.167,0h-0.028h0.012l0.008,0.001l-0.02,0.027v0.01v0.013
		l-0.012,0.012l-0.003,0.008l-0.042,0.033l-0.011,0.004h-0.022l-0.007-0.002l-0.005-0.001l0.002,0l-0.006-0.013l0.006-0.014
		l-0.006-0.004v-0.001v-0.008v-0.012v-0.001l0,0v-0.025V-0.15l-0.061-0.022l0,0l0.05-0.001h0.01h-0.01h-0.052h-0.017
		c-0.015,0-0.021,0-0.088,0.024l-0.077,0.032l-0.003,0.006l-0.037,0.004l-0.012,0.006l-0.119,0.04l-0.016,0.004l-0.058-0.006
		c0.01-0.002,0.012-0.002,0.058-0.02l0.094-0.028l0.03-0.006l0.018-0.002l0.041-0.004h0.001v-0.023l0.003-0.016l0.031-0.01
		l0.045-0.001l0,0l0,0h0.008l-0.008-0.019l-0.045,0.019h-0.076h-0.019h-0.029h-0.023h-0.004h-0.018h-0.033l-0.055,0.001h-0.002
		h-0.056h-0.026l-0.012,0.01l-0.039,0.016H137.741z"/>
	<path fill="#F2F2F2" d="M148.757,0.899c0,0-0.029-0.024-0.2-0.042c-0.122-0.047-0.223-0.072-0.317-0.097
		c-0.376-0.032-0.698-0.143-1.026-0.199l-0.036-0.002c0.123,0.039,0.231,0.059,0.364,0.08c0.055,0.026,0.063,0.03,0.11,0.037
		c0.537,0.121,0.537,0.121,0.59,0.158c-0.002-0.002-0.002-0.002-0.387-0.098c-0.019-0.007-0.085-0.016-0.11-0.029
		c-0.046-0.008-0.1-0.022-0.141-0.029c-0.016-0.009-0.063-0.013-0.104-0.021c-0.233-0.058-0.233-0.058-0.322-0.069
		c0.113,0.03,0.221,0.069,0.329,0.091h-0.072c-0.052-0.012-0.139-0.041-0.19-0.061c-0.128-0.004-0.225-0.052-0.324-0.08
		c0.078,0.028,0.134,0.052,0.196,0.078c-0.02,0-0.097,0-0.118-0.002v0.004c0.543,0.16,1.094,0.252,1.617,0.439
		c-0.255-0.056-0.426-0.154-0.669-0.18c0.293,0.09,0.61,0.221,0.899,0.27c0-0.033,0-0.033-0.33-0.125
		c0.217,0.002,0.416,0.125,0.601,0.138h0.037l0.063,0.002c0,0-0.367-0.109-0.472-0.147c-0.062-0.048-0.133-0.048-0.187-0.056
		l0.012,0c0.175,0.008,0.175,0.008,0.481,0.139l0.106,0.004l-0.124-0.052l0.085,0.02c0.122,0.037,0.22,0.078,0.341,0.089
		l0.082,0.047c-0.005,0.001-0.005,0.001-0.038-0.002l-0.05-0.032l-0.116-0.011l0.082,0.046c-0.08,0.002-0.08,0.002-0.091,0
		c0.005,0.024,0.005,0.024,0.11,0.06c0.098,0.035,0.193,0.074,0.291,0.09v-0.01l0.078,0.002c0.116,0.044,0.118,0.044,0.14,0.041
		c-0.015-0.043-0.015-0.043-0.128-0.096V1.293c0.123,0.024,0.128,0.024,0.397,0.161l0.002,0.004
		c-0.083-0.009-0.083-0.009-0.187-0.01c0.038,0.049,0.488,0.193,0.587,0.196c0.087,0,0.303,0.063,0.965,0.292l0,0
		c-0.01-0.03-0.878-0.371-0.959-0.427l0.034-0.012c-0.227-0.052-0.412-0.139-0.627-0.2l0.054,0.003
		c-0.057-0.034-0.062-0.041-0.769-0.243c0.022,0,0.12,0,0.144,0c0.958,0.285,0.958,0.285,1.696,0.529h0.036
		c-0.039-0.045-0.129-0.075-0.208-0.107c0.079,0.012,0.14,0.03,0.513,0.167l0.087,0.004c-0.021-0.008-0.021-0.008-0.285-0.104
		c0.019,0,0.09,0,0.142,0.013l-0.038-0.021l-0.11-0.042c-0.287-0.09-0.586-0.15-0.873-0.231c-0.03-0.004-0.089-0.007-0.136-0.009
		c-0.328-0.109-0.645-0.163-0.949-0.289c-0.026,0-0.488-0.092-0.63-0.107L148.757,0.899z"/>
	<path fill="#F2F2F2" d="M128.609,1.235c-0.097,0.026-0.154,0.058-0.249,0.083l0.192-0.021l0.183-0.036l0.217-0.041
		c0.106-0.017,0.197-0.074,0.293-0.103c-0.048,0.019-0.098,0.029-0.146,0.029c-0.041,0-0.098,0-0.147,0L128.609,1.235z"/>
	<path fill="#F2F2F2" d="M120.946,4.516c0.032-0.004,0.087-0.032,0.495-0.205l0.296-0.039l0.559-0.275l0.301-0.214l0.208-0.179
		l0.102-0.111c0.562-0.188,0.562-0.188,0.917-0.453l0.185-0.122l-0.185,0.035l-0.368,0.157l-0.067,0.001l0.047-0.057l-0.27,0.057
		l-0.316,0.161l-0.245,0.181c-0.641,0.301-0.641,0.301-0.691,0.296c0.016-0.035,0.022-0.056,0.204-0.158l-0.146,0.011l-0.367,0.181
		l-0.133,0.119l-0.117,0.124l0.049,0.058C120.896,4.429,120.896,4.429,120.946,4.516z"/>
	<path fill="#F2F2F2" d="M128.13,8.421c-0.043-0.009-0.118-0.009-0.189-0.02l0.177,0.037L128.13,8.421z"/>
	<polygon fill="#F2F2F2" points="148.146,0.735 148.239,0.76 148.239,0.76 	"/>
	<path fill="#F2F2F2" d="M160.822,4.678c-0.077-0.028-0.156-0.052-0.176-0.105l1.768,0.898c-0.005-0.006-0.076-0.019-0.085-0.019
		c-0.089-0.041-0.104-0.089-0.199-0.1c0.01,0.009,0.096,0.011,0.096,0.043l-0.091-0.034c-0.123-0.087-0.292-0.17-0.416-0.243
		c-0.102-0.059-0.284-0.124-0.443-0.195L160.822,4.678z"/>
	<path fill="#F2F2F2" d="M158.983,3.844c0.231,0.11,0.51,0.229,0.706,0.338l0.227,0.091l0.372,0.167
		c0.107,0.043,0.245,0.112,0.358,0.132l-0.388-0.179c0.019,0.031,0.021,0.038,0.033,0.044l-0.029-0.044l-0.08-0.006
		c-0.133-0.075-0.298-0.145-0.482-0.208l0.084,0.009c-0.098-0.055-0.193-0.058-0.262-0.102l-0.05-0.043
		c-0.105-0.027-0.174-0.067-0.271-0.098l0.104,0.033c-0.101-0.031-0.313-0.134-0.503-0.218
		C158.825,3.783,158.908,3.832,158.983,3.844z"/>
	<path fill="#F2F2F2" d="M161.127,4.827c0.03,0.035,0.05,0.041,0.104,0.047c0.118,0.049,0.283,0.14,0.412,0.228
		c-0.221-0.123-0.411-0.228-0.521-0.282l0.01,0.008c-0.31-0.149-0.576-0.263-0.84-0.389l0.53,0.24
		C160.899,4.732,161.013,4.781,161.127,4.827z"/>
	<path fill="#F2F2F2" d="M163.199,5.892c-0.093-0.036-0.1-0.05-0.164-0.091l-0.087-0.015l-0.249-0.176l0.504,0.282H163.199z"/>
	<path fill="#F2F2F2" d="M162.729,5.687c0.116,0.053,0.281,0.115,0.378,0.205c0.1,0.053,0.218,0.089,0.325,0.15V6.039
		c-0.065-0.036-0.12-0.067-0.198-0.107c-0.028-0.039-0.028-0.039-0.03-0.039l-0.504-0.282l-0.069-0.003l-0.013-0.011l-0.202-0.107
		l-0.001-0.018c0,0.018,0.001,0.021,0.011,0.022L162.729,5.687z"/>
	<path fill="#F2F2F2" d="M161.765,5.166c-0.03-0.044-0.113-0.065-0.122-0.065c0,0,0.056,0,0.076,0.017
		C161.739,5.124,161.739,5.157,161.765,5.166z"/>
	<path fill="#F2F2F2" d="M125.592,2.554l0.479-0.196l0.098-0.116l0.254-0.128l-0.169,0.021l-0.427,0.11l-0.323,0.13l-0.274,0.179
		c0.055-0.001,0.105-0.001,0.15-0.001l-0.042,0.069L125.592,2.554z"/>
	<path fill="#F2F2F2" d="M162.063,5.301c0.054,0.007,0.066,0.043,0.066,0.051c-0.001-0.039-0.021-0.051-0.106-0.079L162.063,5.301z"
		/>
	<path fill="#F2F2F2" d="M162.11,5.305c0.029,0.052,0.121,0.101,0.219,0.147c0,0,0.001,0,0.005,0
		C162.233,5.405,162.14,5.361,162.11,5.305z"/>
	<path fill="#F2F2F2" d="M165.255,7.174l0.042,0.006c-0.056-0.061-0.144-0.073-0.236-0.129l0.006,0.002
		c-0.114-0.105-0.114-0.105-0.183-0.136c-0.188-0.105-0.33-0.207-0.495-0.296l-0.094-0.036c0.106,0.057,0.207,0.125,0.288,0.186
		C164.83,6.907,165.047,7.031,165.255,7.174z"/>
	<path fill="#F2F2F2" d="M128.803,2.268h0.003l0.343-0.214l-0.1-0.063l-0.157-0.055l-0.41,0.081l-0.512,0.098l-0.267,0.021
		l-0.145-0.049l-0.26,0.028l0.241-0.179l0.397-0.179l0.332-0.17c-0.069,0-0.144,0.012-0.2,0.013
		c-0.146,0.041-0.378,0.057-1.209,0.515l-0.544,0.201l-0.242,0.149l-0.14,0.158l0.333-0.05c0.11-0.019,0.259-0.08,0.356-0.098
		c-0.056,0.061-0.095,0.1-0.143,0.161l0.002,0.025c0.028,0.005,0.068,0.01,0.293-0.025c0.125-0.004,0.269-0.006,0.371-0.007
		l0.282-0.064l0.25-0.099l-0.086,0.104c0.675-0.051,0.675-0.051,0.864-0.151C128.531,2.368,128.609,2.315,128.803,2.268z"/>
	<path fill="#F2F2F2" d="M123.79,6.68l-0.094,0.255l0.289,0.038l0.426-0.099l0.434-0.289l0.123-0.301
		c-0.557,0.045-0.557,0.045-0.604,0.047C124.355,6.331,124.163,6.437,123.79,6.68z"/>
	<path fill="#F2F2F2" d="M127.09,3.25l-0.231,0.208l0.491,0.01l0.43-0.159l0.458-0.093V2.993l-0.458-0.02
		c-0.13,0.005-0.234,0.006-0.346,0.006L127.09,3.25z"/>
	<path fill="#F2F2F2" d="M124.845,7.3l-0.092,0.06l-0.687,0.416l-0.097,0.395l-0.717,0.097l-0.257-0.077
		c-0.11,0.002-0.225,0.003-0.341,0.004l-0.719,0.334c-0.077,0.137-0.169,0.252-0.296,0.384l0.477,0.091l0.44-0.038l0.249-0.204
		l0.284-0.132l0.218,0.064l0.387,0.143l0.181,0.521l-0.094,0.283l0.094,0.357c0.147-0.001,0.303-0.005,0.488-0.006l0.205,0.483
		l0.763,0.007l0.369,0.237l0.189-0.318l-0.462-0.6l-0.193-0.25l0.047-0.295l0.351,0.25l0.631,0.455l0.346,0.271
		c0.073-0.14,0.139-0.296,0.195-0.439l0.49-0.392l-0.325-0.231l0.236-0.586l-0.458-0.193l-0.054-0.124
		C125.649,8.088,124.98,7.739,124.845,7.3z"/>
	<path fill="#F2F2F2" d="M158.326,14.891v0.09c0.017,0.046,0.054,0.08,0.093,0.152c0.006,0.137,0.171,0.192,0.099,0.342
		c-0.294,0.047-0.294,0.047-0.118,0.337c0.079,0,0.146,0,0.215,0c0.072-0.055,0.082-0.069,0.39,0.195c0.075,0,0.162,0,0.207,0
		c-0.039-0.147-0.039-0.147-0.039-0.25c0.003,0,0.445,0.434,0.417,0.626c-0.281,0.005-0.17,0.153,0.002,0.315
		c0.195,0.012,0.349,0.012,0.549,0.021v-0.118c0.337,0.184,0.428,0.635,0.794,0.813c0.054,0.245,0.054,0.245,0.109,0.284
		c0.134,0.187,0.184,0.25,0.108,0.319l-0.329-0.008c-0.091-0.042-0.176-0.094-0.289-0.094l-0.09-0.025h-0.071
		c-0.031,0.03-0.031,0.03-0.071,0.124l-0.009,0.133c-0.015-0.005-0.109-0.005-0.156-0.005l0.014,0.125
		c0.223,0.114,0.635,0,0.645,0.311c-0.045,0-0.059,0-0.128,0.014c-0.04,0.093-0.04,0.093-0.02,0.209
		c-0.079,0.023-0.087,0.028-0.183,0.023h-0.016h-0.005h-0.007h-0.001h-0.032h-0.007h-0.006h-0.004
		c0.104,0.528,0.351,0.36,0.439,0.313c0.065-0.029,0.893,0.115,0.894,0.115c0.02,0.013,0.148,0.18,0.026,0.272
		c-0.125,0.1-0.334-0.008-0.495,0.086c-0.001,0.039,0,0.098-0.016,0.137c-0.092,0-0.092,0-0.312,0.042
		c0.102,0.264,0.102,0.264,0.105,0.415c-0.105,0.107-0.134,0.107-0.265,0.178c0.177,0.094,0.177,0.094,0.467,0.019l0.088-0.103
		l-0.04-0.089c0.137,0,0.234,0.055,0.338,0.102c0.099,0,0.208,0,0.307,0c-0.089-0.274-0.086-0.286-0.072-0.351
		c0.864,0.171,0.863,0.035,0.855-0.116l0.009-0.055c0.196,0.026,0.325,0.211,0.509,0.26h0.077c0.158-0.063,0.294,0.043,0.412-0.013
		c0.081-0.042,0.081-0.122,0.081-0.221c0.057-0.042,0.191,0.042,0.285-0.046c-0.056-0.206-0.26-0.312-0.36-0.444l-0.01-0.098
		c-0.014-0.053-0.014-0.053,0-0.119c0.019-0.026,0.099-0.013,0.178-0.026c0,0-0.043-0.145-0.079-0.239
		c0.08,0.006,0.152,0.006,0.216,0.006c-0.038-0.104-0.071-0.163-0.133-0.27c-0.233-0.12-0.389-0.38-0.59-0.533l-0.097,0.055
		c0.02,0.048,0.02,0.048,0,0.282c-0.101,0.068-0.101,0.068-0.575-0.704c-0.051-0.004-0.187-0.009-0.3-0.013
		c-0.102-0.307-0.195-0.444-0.195-0.444c-0.111-0.158-0.342-0.234-0.489-0.342l-0.116-0.05c-0.059-0.179-0.298-0.214-0.376-0.392
		c-0.026-0.136-0.406-0.501-0.594-0.517c-0.377-0.004-0.673-0.086-0.479-0.388c-0.03-0.061-0.03-0.061-0.03-0.125
		c0.127,0,0.127,0,0.189-0.013c-0.053-0.033-0.057-0.067-0.063-0.122c-0.097-0.142,0.086-0.243,0.006-0.387
		c-0.081-0.159-0.168-0.284-0.267-0.451c-0.299-0.004-0.61-0.008-0.929-0.084c-0.008-0.094-0.008-0.094,0.033-0.103
		c0.005-0.131-0.112-0.183-0.112-0.294c0,0,0.109-0.196,0.112-0.231c-0.112-0.097-0.114-0.097-0.211-0.102h-0.097
		c-0.007,0-0.099,0-0.127,0c-0.066,0.006-0.099,0.026-0.459-0.004l-0.016,0.009c0.095,0.132,0.098,0.29,0.112,0.451
		c0.08,0.111,0.152,0.248,0.201,0.393c-0.201,0.014-0.33-0.127-0.519-0.14c-0.273-0.034,0.033,0.363,0.035,0.392
		C158.087,14.843,158.224,14.782,158.326,14.891z"/>
	<path fill="#F2F2F2" d="M157.256,14.288l0.123,0.047l0.087-0.047c0.001-0.034,0.001-0.034,0.025-0.101l0.007-0.043v-0.064
		l0.024-0.005c0.106,0.004,0.196,0.004,0.2-0.018l-0.012-0.071l-0.066-0.042l0.051-0.141l-0.003-0.001
		c-0.048-0.06-0.055-0.142-0.06-0.178l-0.007-0.025l-0.167,0.048c-0.051,0.063-0.047,0.117-0.085,0.156l-0.101,0.008l-0.014,0.021
		l0.014,0.115c-0.017,0.046-0.06,0.116-0.06,0.189C157.214,14.174,157.247,14.241,157.256,14.288z"/>
	<path fill="#F2F2F2" d="M157.828,17.795c0.018,0.125,0.078,0.248,0.113,0.397c-0.096,0.004-0.202,0-0.249,0.008
		c-0.135,0.179,0.047,0.342,0.044,0.529c-0.104,0.013-0.146,0.07-0.041,0.256c0.041,0.094,0.293,0.187,0.293,0.187
		c0.106,0.045,0.139-0.093,0.261-0.093c0,0,0.131,0,0.269,0.097c0.097-0.004,0.195-0.139,0.195-0.152c0-0.03,0-0.03-0.007-0.15
		c0-0.052,0.063-0.052,0.096-0.132c0.297,0.051,0.603,0.057,0.982,0.072c-0.09-0.085-0.095-0.131-0.095-0.175
		c-0.071-0.11-0.175-0.167-0.186-0.302c0.087-0.072,0.087-0.072,0.087-0.146c-0.002-0.094-0.087-0.341-0.285-0.773
		c-0.017-0.072-0.081-0.152-0.105-0.255c0.197,0.018,0.204-0.082,0.197-0.187c-0.03-0.165-0.197-0.192-0.299-0.356
		c-0.025-0.068-0.033-0.153-0.111-0.233c-0.008-0.005-0.079-0.032-0.171-0.089c-0.014-0.015-0.092,0.028-0.11-0.015
		c-0.018-0.025-0.092-0.041-0.116-0.088h-0.072c-0.071,0-0.197,0.08-0.205,0.088v0.125l-0.099,0.034
		c-0.123-0.06-0.226-0.184-0.381-0.239c-0.094-0.013-0.188,0.04-0.243,0.04c0.103,0.192,0.133,0.392,0.238,0.59h-0.08h-0.012
		l-0.089,0.057c-0.019,0.026-0.062-0.004-0.125,0l-0.056,0.035c-0.012,0.042-0.092,0.052-0.133,0.047
		c-0.124-0.086-0.124-0.086-0.207-0.077c0.087,0.283,0.189,0.585,0.285,0.874C157.614,17.795,157.614,17.795,157.828,17.795z"/>
	<path fill="#F2F2F2" d="M128.893,19.554c0.057-0.031,0.255-0.282,0.161-0.448c-0.053-0.06-0.053-0.06-0.076-0.111
		c-0.068,0-0.124-0.004-0.218-0.004c-0.008,0-0.271,0.047-0.352,0.124c-0.099,0.111-0.042,0.255-0.101,0.387
		c-0.125,0.271-0.125,0.271-0.277,0.397c-0.005,0.005-1.417,1.282-1.465,1.36c-0.038,0.047-0.135,0.172-0.182,0.369
		c-0.015,0.09,0.038,0.221,0.005,0.337c0.673,0,1.357-0.05,2.067-0.05c0.165,0.05,0.237,0.07,0.401,0.285
		c0.292,0.389,0.441,0.452,0.634,0.547c0.051-0.052,0.063-0.052,0.193-0.095c0.053-0.03,0.218-0.089,0.207-0.679
		c-0.005-0.358-0.005-0.358,0.28-0.694l0.051-0.09c-0.007-0.069-0.01-0.171-0.048-0.257c-0.325,0-0.325,0-0.398-0.067
		c0,0-0.383-0.219-0.48-0.377c-0.05-0.085-0.056-0.107-0.146-0.157c-0.171-0.043-0.347-0.017-0.531-0.043
		c-0.107-0.033-0.163-0.08-0.256-0.149C128.616,19.673,128.616,19.673,128.893,19.554z"/>
	<path fill="#F2F2F2" d="M104.823,13.101c0.34-0.333,0.687-0.637,1.078-0.96C105.496,12.478,105.182,12.745,104.823,13.101z"/>
	<path fill="#F2F2F2" d="M138.356,76.755c0.117-0.049,0.258-0.175,0.386-0.267c0.052-0.556,0.052-0.586,0.261-0.971
		c0.166-0.088,0.166-0.088,0.378-1.301c0-0.036,0-0.081,0.086-0.325c0.251-0.461,0.26-0.804,0.266-0.919
		c0-0.072,0-0.151-0.014-0.353c-0.025-0.062-0.025-0.145-0.055-0.234c0.012-0.107,0.021-0.201-0.021-0.445
		c0.002-0.309,0.004-0.607,0.191-0.921c0.144-0.071,0.144-0.071,1.066-1.214c0.307-0.028,0.393-0.102,0.6-0.348l1.104-1.503
		c0.264-0.541,0.264-0.541,0.275-0.845c0-0.008-0.061-1.609-0.866-1.972c-0.226,0-0.503,0-0.72,0
		c-1.241-0.361-1.241-0.361-1.327-1.084c-0.766-0.495-0.766-0.495-1.305-0.344c-0.347,0-0.654-0.004-1.067-0.004
		c-1.047-0.402-1.047-0.402-1.342-0.291c0,0.075,0,0.179,0,0.282c-0.217,0.138-0.321,0.191-0.863-0.073c0-0.065,0-0.151,0-0.244
		c0.102-0.058,0.262-0.171,0.37-0.255c-0.31-0.253-0.986-0.706-1.867-0.874c-0.058,0-0.106,0-0.351-0.104
		c-0.417-0.183-0.47-0.214-0.96-0.15c0.03,0.254,0.038,0.504,0.04,0.771c-0.211,0-0.447,0-0.654,0c0-0.129-0.037-0.24,0-0.438
		c0.079-0.087,0.188-0.25,0.26-0.353c0.094-0.067,0.165-0.098,0.21-0.179c-0.021-0.045-0.082-0.15-0.116-0.182
		c0,0-0.443-0.153-0.916-0.346h-0.181c-0.059,0-0.108,0-0.359,0.055c0.039,0.554,0.044,0.798-0.642,0.67
		c-0.001-0.102-0.003-0.213,0-0.379l-0.003-0.251c0.291,0.005,0.351,0.005,0.689-0.114c0.19-0.934,0.014-1.311-0.042-1.456
		c-0.137,0.008-0.343,0.008-0.463,0c-0.023-0.302-0.029-0.597-0.119-1.035c-0.068-0.284-0.26-0.531-0.357-0.825
		c-0.83-0.193-0.926-0.429-0.979-0.674c-1.216-0.461-1.216-0.461-1.3-0.489c-0.42-0.234-0.803,0.056-1.227,0.028
		c-0.089,0-0.169,0-0.287,0c-1.961-0.375-1.96-1.158-1.959-1.502c-0.775-0.393-0.775-0.393-1.012-0.577c0-0.042,0-0.12-0.218-0.187
		c-0.391-0.22-0.391-0.302-0.383-0.79c-0.044,0-0.104,0-0.268,0.062c-0.243,0.05-0.438,0.177-0.695,0.197
		c-0.199-0.16-0.199-0.16-0.231-0.65c0.067-0.006,0.17-0.07,0.242-0.083c0.007-0.057,0.022-0.151,0.026-0.243
		c-0.353-0.175-0.353-0.175-0.641-0.241l-0.347,0.319c-0.018,0-0.049,0-0.195-0.091c-0.101-0.023-0.297-0.051-0.438-0.059
		c-0.216,0.214-0.261,0.569-0.451,0.789c-0.081,0-0.183,0-0.277,0c-0.343-0.555-0.347-0.555-0.885-0.642
		c-0.244,0.002-0.52,0.002-0.869-0.076c-0.114-0.023-0.303-0.063-0.438-0.104c-0.012-0.165-0.018-0.339-0.215-0.491
		c-0.378-0.124-0.666-0.383-1.018-0.479c-0.065,0.04-0.15,0.097-0.196,0.146c-0.004,0.025-0.004,0.025-0.872,0.929
		c0.189,0.977,0.189,0.977,0.19,1.214c-0.062,0.091-0.115,0.125-0.166,0.183c-0.261-0.401-0.944-1.776,0.206-2.732l-0.088-0.165
		c-0.095,0-0.195,0-0.391,0.004c-0.414,0.157-0.414,0.172-0.349,0.733c-0.293,0-0.563,0.005-0.847,0.005
		c-0.953,0.654-0.953,0.654-1.463,0.661c0.018,0.337,0.032,0.664,0.02,1.037c-0.18,0.179-0.18,0.179-0.622,0.356
		c-0.011,0.64-0.952,1.012-0.605,1.849c0.058,0.006,0.161,0.006,0.217,0.006c0.06,0.699,0.908,1.436,0.141,2.061
		c-0.071,1.25-0.071,1.25-0.495,1.346c0.048,0.122,0.098,0.371,0.138,0.56c-0.089,0.063-0.249,0.179-0.335,0.254
		c-0.002,0.138-0.007,0.268-0.011,0.367c-0.471,0.156-0.475,0.399-0.393,0.98c-0.184,0-0.366,0.009-0.518,0.054
		c0.141,0.473,0.101,0.975,0.269,1.415c0.217,0.107,0.442-0.006,0.66,0.013c0.024,0.145,0.044,0.245,0.07,0.358
		c-0.043,0.083-0.081,0.137-0.122,0.235c-0.126,0.014-0.294,0.095-0.382,0.209c0.075,0.501-0.296,1.022,0.087,1.47
		c0.001,0.054,0.004,0.092,0.058,0.168c0.28,1.411,1.948,1.714,2.336,3.022c0.041,0.125,0.081,0.244,0.098,0.392
		c0.356,0.459,0.467,1.071,0.918,1.456c0.831,0.764,0.787,2.651,2.4,2.439c1.482-0.184,1.599,1.844,2.979,1.84
		c0.146,0.485,0.284,0.977,0.438,1.499c0.001,0.169,0.054,0.291,0.117,0.438l-0.008,0.091c0.037,0.032,0.039,0.051,0.09,0.247
		c0.044,0.065,0.087,0.148,0.128,0.196c0.003,0.014,0.004,0.077,0.004,0.267c0.006,0.135,0.063,0.317,0.115,0.421l-0.008,0.085
		c0.009,0.018,0.063,0.095,0.147,0.264c0.014,0.022,0.057,0.133,0.098,0.206l0.004,0.078c0.007,0.045,0.042,0.066,0.04,0.338
		c0.048,0.104,0.146,0.293,0.243,0.408c0.011,0.05,0.018,0.068,0.045,0.152c0.015,0.025,0.023,0.052,0.043,0.139
		c0.062,0.45-0.039,0.946,0.153,1.352c0.141,0.468,0.141,0.468,0.305,1.909c0.043,0.006,0.045,0.026,0.129,0.156
		c0.935,1.566,1.25,2.102,1.046,2.825c0.009,0.093,0.076,0.177,0.188,0.356c0.041,0.058,0.085,0.125,0.098,0.196
		c0.14,0.152,0.14,0.152,0.098,1.005c0.569,0.561,0.645,1.426,1.213,1.944c0.401,0.362,0.298,1.003,0.85,1.25
		c0.085,0,0.155,0,0.242,0l-0.557-0.865c0.107-0.008,0.203-0.008,0.305-0.008c0.06,0.118,0.132,0.204,0.203,0.328
		c-0.01,0.05-0.035,0.166-0.04,0.259c0.133,0.121,0.247,0.286,0.372,0.482c0.003,0.039,0.003,0.039,0.616,0.985
		c-0.141-0.091-0.314-0.173-0.428-0.276l-0.07-0.095c-0.062-0.019-0.116-0.109-0.173-0.132c0.009,0.009,0.015,0.014-0.071,0.022
		c0.071,0.091,0.151,0.173,0.273,0.275c0.403,0.236,0.403,0.236,0.682,0.603c-0.209-0.076-0.391-0.227-0.619-0.281
		c0.082,0.089,0.174,0.174,0.174,0.268c0,0.09,0.005,0.128,0.026,0.207c0.458,0.288,1.016,0.404,1.37,0.856
		c-0.13,0.008-0.299,0.11-0.376,0.186c0.023,0.02,0.03,0.034,0.204,0.171c0.1,0.078,0.247,0.173,0.36,0.266
		c0.004,0,0.032,0.006,0.176,0.212c0.249,0.155,0.49,0.369,0.735,0.534l-0.036,0.082l0.182,0.05c0.011,0,0.051,0,0.2,0.074
		c0.087,0.104,0.24,0.191,0.375,0.217l0.051,0.067l1.713,0.912c0.005,0.014,0.021,0.019,0.11,0.07
		c0.308,0.105,0.328,0.105,0.682,0.194c0.016,0,0.028,0,0.242,0.047c0.14,0,0.25,0,0.484-0.009c0.016-0.038,0.065-0.111,0.094-0.135
		c-0.273-0.114-0.311-0.154-0.678-0.197c-0.034-0.063-0.087-0.09-0.328-0.162c0,0-0.35-0.22-0.733-0.571
		c-0.016-0.031-0.017-0.045-0.174-0.145c-0.17-0.164-0.367-0.284-0.526-0.469c-0.022-0.013-0.026-0.026-0.146-0.159
		c-0.089-0.04-0.147-0.144-0.236-0.234c-0.014-0.022-0.086-0.113-0.132-0.167c0.126,0,0.221-0.012,0.279-0.042
		c-0.098-0.118-0.204-0.271-0.265-0.401c0.057-0.034,0.118-0.089,0.167-0.114c-0.049-0.157-0.109-0.355-0.167-0.481
		c0.037-0.053,0.066-0.153,0.118-0.231c-0.052-0.02-0.081-0.085-0.302-0.152c-0.044-0.006-0.137-0.032-0.205-0.043
		c-0.723-0.499-0.723-0.499-0.815-0.602c-0.003-0.035-0.039-0.081-0.08-0.226c0.062-0.095,0.122-0.149,0.172-0.198
		c0.14,0,0.293,0,0.439,0c-0.092-0.175-0.181-0.358-0.292-0.654c-0.027-0.225-0.129-0.479-0.092-0.683
		c0.065,0.002,0.184,0.008,0.24,0.008c0.006-0.033,0.014-0.138,0.033-0.201c-0.023-0.04-0.033-0.072-0.188-0.196l0,0h-0.02l0,0
		h-0.008h-0.004h-0.002h-0.004l-0.04,0.005c-0.059,0.063-0.139,0.081-0.196,0.119c-0.149-0.111-0.149-0.111-0.452-0.514
		c-0.039-0.105-0.098-0.199-0.147-0.318c0.049,0,0.096,0,0.194,0c0.136,0.075,0.303,0.137,0.446,0.222
		c0.19-0.004,0.353-0.004,0.539-0.004c-0.007-0.032-0.063-0.131-0.099-0.209c-0.019-0.013-0.039-0.057-0.087-0.216
		c0-0.274,0-0.274-0.257-0.646c-0.04-0.04-0.053-0.144-0.095-0.228c0.146,0,0.288,0,0.531-0.006c0.092-0.03,0.136-0.03,0.352-0.039
		c0.058-0.03,0.137-0.049,0.192-0.103c0.189,0,0.34,0,0.546,0.039c0.082,0,0.179,0.019,0.232,0.028
		c0.008-0.405,0.329-0.688,0.475-1.053l0.057-0.196c-0.047-0.087-0.097-0.2-0.109-0.326c-0.047,0-0.087,0-0.227-0.014
		c-0.011-0.081-0.053-0.179-0.102-0.342c-0.246-0.307-0.684-0.389-0.925-0.729c0.167-0.005,0.299-0.005,0.485-0.005
		c1.565,0.346,1.921,0.428,2.051-0.15c0.006-0.039,0.013-0.102,0.021-0.19c-0.662,0.162-1.374,0.26-2.111,0.26
		c-4.169,0-7.561-2.363-7.561-5.274c0-2.935,3.392-5.344,7.561-5.344c3.262,0,6.021,1.472,7.071,3.467c0.44,0,0.87,0,1.3-0.05
		c0.009-0.119,0.064-0.311,0.138-0.408C137.985,77.556,138.288,77.013,138.356,76.755z"/>
	<path fill="#F2F2F2" d="M131.243,0.473l0.435-0.101l0.057-0.017h-0.046c-0.14,0.021-0.25,0.065-0.394,0.078h0.055l-0.348,0.081
		L131.243,0.473z"/>
	<path fill="#F2F2F2" d="M181.596,74.645c-0.345,0.014-0.254,0.477-0.484,0.61c-0.328-0.102-0.328-0.102-1.208,1.217
		c-0.391,0.531-0.497,1.263-1.073,1.697l-0.016-0.013c-0.388,0.413-0.733,0.87-1.07,1.268c-0.062,0.084-0.063,0.105-0.086,0.132
		c-0.169,0.251-0.31,0.456-0.444,0.674c-0.032,0.067-0.13,0.165-0.217,0.276c-0.155,0.219-0.336,0.467-0.511,0.713l0.01,0.042
		c0.084,0.005,0.108,0,0.198,0.005c-0.119,0.2-0.119,0.2-0.119,0.219l0.009,0.008v0.09c0.872-0.227,4.385-5.279,4.395-5.362
		c0.069-0.081,0.123-0.141,0.18-0.235c0.057-0.104,0.101-0.195,0.176-0.293c0.014-0.057,0.03-0.081,0.043-0.17
		c0.124-0.107,0.259-0.267,0.374-0.448c0.009-0.027,0.087-0.072,0.087-0.146c0.995-1.766,0.995-1.867,0.973-2.11
		C182.656,73.072,182.656,73.072,181.596,74.645z"/>
	<path fill="#F2F2F2" d="M188.132,55.055c-0.084,0.04-0.221,0.059-0.317,0.089c0-0.019-0.018-0.028-0.345,0.05
		c-0.021-0.094-0.115-0.149-0.145-0.246c-0.009-0.979-0.009-0.979-0.097-1.235c0-2.128-1.368-3.973-1.24-6.161
		c-0.001-0.099-0.001-0.218-0.005-0.432c0-0.017-0.282-2.305-1.068-4.903c0.066,0.206,0.074,0.425,0.141,0.637
		c0.61,3.78,0.3,6.989-0.815,7.164c-1.07,0.17-2.402-2.724-3.027-6.516c-0.479-2.851-0.392-5.376,0.142-6.511
		c-1.026-0.586-1.938-1.276-3.143-1.442c0.122,0.674,0.321,1.291,0.363,1.945c-0.05,0.006-0.165,0.048-0.245,0.048s-0.148,0-0.37,0
		c-0.279-0.258-0.409-0.636-0.824-0.787c-0.329,0-0.649-0.038-1.022-0.101c-0.1-0.178-0.114-0.428-0.214-0.576
		c-0.606-0.706-1.584-0.706-2.322-1.216c-0.778-0.56-0.216-1.691-0.893-2.292c0-0.069,0-0.205-0.003-0.303
		c0.103-0.07,0.289-0.247,0.36-0.393c-0.45-0.294-0.45-0.294-0.827-0.431c-0.619,0.137-0.619,0.137-1.724,0.22
		c-0.086,0.108-0.325,0.254-0.45,0.337c-0.656-0.587-0.656-0.587-1.848-0.345c-0.034,0.061-0.107,0.175-0.132,0.252
		c-0.435-0.026-0.838-0.034-1.317,0.167c0,0.179-0.023,0.371-0.113,0.542c-0.378,0.09-0.758-0.008-1.075,0.179
		c-0.038,0-0.092,0-0.301-0.043c-0.097-0.013-0.202-0.043-0.303-0.046c0-0.005,0-0.005-0.185,0
		c-0.688,0.003-0.855-0.137-1.104-0.365c-0.095-0.05-0.204-0.131-0.298-0.162c-0.26,0.437-0.046,0.938-0.163,1.408
		c-0.487,0.025-0.487,0.025-0.88-0.003c0.022,0.413,0.105,0.828,0.173,1.27c-0.366,0-0.728-0.021-1.049,0.141
		c0,0.718-0.068,1.413-0.031,2.139c0.019,0.187,0.031,0.364,0.055,0.555c-0.307-0.004-0.575-0.012-0.843,0.14
		c-0.068,0.95-0.78,1.215-1.216,1.282c-0.237,0.02-1.473,3.081-1.48,3.105c-0.092,0-0.195-0.005-0.287-0.013l-0.271,0.056
		c-0.064,0.038-0.164,0.116-0.247,0.159c0.089,1.688-0.121,1.758-0.758,1.997c-0.067,0.088-0.097,0.192-0.106,0.294
		c0.002,0.2,0.002,0.387,0.141,0.634c1.211,0.201,1.211,0.201,1.319,0.423c-0.348,0.635-0.348,0.635-0.348,2.761
		c0,0.096,0,0.236,0,0.351c0,0.239,0,0.239-0.615,0.874c0.012,0.417,0.202,0.788,0.271,1.172c0,0.128-0.019,0.243-0.019,0.632
		c0,0.005,1.206,2.074,2.308,2.664c-0.014,0.482-0.147,1.781,1.604,1.93c1.093-4.085,4.234-6.798,7.142-6.068
		c2.93,0.715,4.434,4.607,3.439,8.735c0.687,0.019,1.367,0.089,1.965,0.116c-0.036,0.327-0.09,0.678-0.17,1.028
		c-0.232,0.706-0.232,0.706-0.935,3.059c-0.174,0.084-0.371,0.19-0.39,0.324c0.019,0.147,0.227,0.297,0.39,0.363
		c0.195,0.477,0,0.994,0.415,1.36c-0.178,1.405,0.604,2.802-0.096,4.119c-0.082,0.123-0.096,0.262-0.199,0.583
		c-0.004,0.148,0.016,0.393,0.104,0.566l-2.091,3.438c-1.326,0.878-1.043,3.86-1.022,3.892c-0.413,0.851-0.43,1.253-0.506,1.373
		c-0.235,0.482-0.491,0.879-0.797,1.429c-0.006,0.038-1.538,3.917-1.731,4.505c-0.015,0.021-0.085,0.038-0.188,0.147
		c-0.484,0.246-0.484,0.246-0.597,0.62c0.082,0,0.097,0-0.004,0.219c-0.021,0.022-0.106,0.106-0.188,0.197
		c0.045,0.089,0.054,0.19,0.063,0.285c0.211,0,0.405,0.013,0.816-0.005c0.174-0.081,0.378-0.134,0.559-0.191
		c0.232,0.004,0.494,0.058,0.931-0.063c2.308-2.19,5.234-3.633,7.564-5.886l5.271-6.446c0.095-0.171,0.152-0.297,0.341-0.665
		c0.065-0.139,0.177-0.38,0.235-0.536c0.264-0.556,0.593-1.15,0.814-1.782c0.111-1.066,0.773-1.954,0.973-2.998
		c0.019-0.066,0.019-0.123,0.071-0.25c0.886-1.963,2.363-3.615,3.22-5.621c1.7-4.025,1.7-4.025,2.077-6.614
		c0.003-0.24,0.021-0.454-0.158-0.61C188.201,54.863,188.179,54.965,188.132,55.055z M176.111,77.262
		c-2.438,3.138-5.102,5.109-5.974,4.428c-0.886-0.671,0.357-3.749,2.768-6.88c2.475-3.157,5.144-5.142,6.021-4.449
		C179.807,71.037,178.543,74.136,176.111,77.262z"/>
	<path fill="#F2F2F2" d="M114.109,47.236c0.09,0,0.194-0.005,0.298-0.005c0.268,0.005,0.268,0.005,0.485-0.268
		c0.095-0.145,0.469-0.189,0.469-0.189c0.163,0,0.34,0.085,0.504,0.085c0.157,0,0.335-0.085,0.496-0.085
		c0.529,0.024,1.066-0.105,1.147-0.153c0.119-0.047,0.165-0.047,0.304,0c0.105,0.051,0.647,0.136,0.757,0.136
		c0.121,0,0.193,0,0.311-0.037c0.109-0.005,0.158-0.094,0.256-0.127l0.048-0.019c-0.087-0.093-0.243-0.05-0.299-0.172
		c-0.073-0.16,0.006-0.329,0.006-0.506c-0.567,0.169-0.599,0.177-0.918,0.177c-0.106,0-0.203,0-0.302,0
		c-0.161-0.054-0.294-0.147-0.444-0.177c-0.045,0-0.108,0-0.162,0c-0.136,0.053-0.176,0.229-0.32,0.264l-0.497,0.004
		c-0.234,0-0.292-0.229-0.473-0.268c-0.252-0.074-0.351-0.32-0.607-0.34l-1.061-0.014c-0.154,0-0.154,0-0.538,0.089
		c-0.017,0.342-0.02,0.678-0.02,1.028C113.815,47.018,114.015,47.209,114.109,47.236z"/>
	<path fill="#F2F2F2" d="M118.845,10.266c-0.062,0.018-0.136,0.021-0.427,0.181c-0.077,0.03-0.153,0.078-0.213,0.096
		c0.011,0.047,0,0.104,0.053,0.147c0.009,0.003,0.112-0.002,0.16-0.02c0.297-0.083,0.529-0.272,0.681-0.383l0.035-0.003l0.103-0.191
		c-0.06,0.015-0.148,0.089-0.24,0.131C118.946,10.234,118.946,10.234,118.845,10.266z"/>
	<path fill="#F2F2F2" d="M119.919,10.938c0.011-0.058,0.092-0.122,0.128-0.211c0.061-0.091,0.125-0.217,0.213-0.335l-0.332-0.044
		l-0.492,0.201l-0.216,0.52c0.161-0.002,0.274-0.004,0.425-0.006L119.919,10.938z"/>
	<path fill="#F2F2F2" d="M188.692,42.533v0.109c0.068,0.207,0.094,0.443,0.099,0.667v-0.027c-0.005-0.139-0.005-0.294-0.005-0.448
		l-0.068-0.033C188.692,42.72,188.692,42.614,188.692,42.533z"/>
	<path fill="#F2F2F2" d="M124.411,20.309c-0.147,0-0.154,0-0.231-0.013c-0.202-0.089-0.25-0.205-0.257-0.245
		c-0.049-0.101-0.097-0.139-0.154-0.139c-0.072,0-0.139,0.038-0.189,0c-0.086,0.046-0.209,0.111-0.31,0.144
		c0.074,0.04,0.175,0.061,0.255,0.146c0.051,0.052,0.049,0.128,0.095,0.2l0.029,0.057c0.068,0.042,0.131,0.121,0.181,0.178
		c0.047,0.042,0.094,0.115,0.145,0.167c0.047,0.039,0.08,0.068,0.145,0.089c0.058,0.038,0.195,0.042,0.62-0.447l0.015-0.006
		c-0.083-0.038-0.132-0.11-0.195-0.131C124.509,20.296,124.424,20.309,124.411,20.309z"/>
	<path fill="#F2F2F2" d="M166.579,7.954c0.043,0.029,0.056,0.044,0.141,0.079l0.262,0.198c0.09,0.051,0.153,0.106,0.238,0.158
		c0.38,0.252,0.77,0.519,1.16,0.785c0,0.001,0,0.002,0.002,0.005c-0.002-0.005-0.002-0.01-0.025-0.014
		c-0.563-0.404-1.137-0.816-1.729-1.18c-0.006-0.004-0.049-0.031-0.079-0.049l0.073,0.045
		C166.622,7.971,166.622,7.958,166.579,7.954z M168.348,9.146c-0.358-0.233-0.663-0.454-1.023-0.679
		C167.685,8.694,167.989,8.927,168.348,9.146z"/>
	<path fill="#F2F2F2" d="M107.614,54.935l1.006,0.614l0.547,0.265l-0.089-0.655l0.234-0.435l0.933,0.063l0.106,0.427l0.325-0.02
		l0.106-0.604l-0.361-0.495c-0.325,0.006-0.661,0.04-0.965,0.04l-0.624-0.04l-0.908-0.044l-0.417-0.362l-0.603-0.821l-0.033-0.619
		c-0.007-0.294-0.036-0.559-0.041-0.843l0.168-1.09c-0.016-0.116-0.016-0.205-0.02-0.332c-0.99-0.103-1.926-0.487-2.751-1.075
		l-0.097,0.06l-0.392-0.354l0.046-0.083c-0.576-0.512-1.097-1.143-1.457-1.863l-0.289,0.046l-0.629,0.303l-0.634,0.149l-0.285-0.589
		l-0.496-0.415l-0.146-0.656l-0.305-0.9l-0.088-1.512l0.049-1.07l0.338-0.871l0.232-0.952l-0.114-0.972l0.606-0.969l0.353-0.046
		l0.487-0.496l0.479-0.609l0.539,0.081l0.339,0.196l0.354-0.196l0.045,0.038c1.107-1.31,2.635-2.133,4.331-2.133
		c0.653,0,1.288,0.137,1.875,0.371c0.05-0.067,0.084-0.141,0.108-0.22l0.502-0.876l0.588-0.273l0.753-0.683l0.694-0.524l0.665-0.285
		l0.194-0.521l0.535-0.319l-0.255-0.814l-0.193-0.402l0.215-0.432l-0.158-0.397l0.504-0.281l0.247,0.568l0.369-0.61l0.36-0.5
		l0.377-0.344l0.547-1.115c0.293,0,0.594,0,0.885,0l0.645-0.404l0.681-0.066l-0.059-0.417l0.193-0.93l0.623-0.65
		c0.177,0,0.353,0,0.548-0.016l0.244-0.414l0.686,0.059l0.73-0.414l0.539-0.529c1.171-0.034,1.171-0.034,1.581,0.192
		c-0.07,0.072-0.166,0.124-0.259,0.17c-0.295,0-0.591,0.006-0.964,0.081c-0.603,0.389-0.603,0.389-0.613,0.898l0.349,0.152
		l0.49-0.345l0.339-0.201l0.638-0.191l0.684-0.313l0.667-0.153l0.607-0.571l0.567-0.435l0.158-0.486l-0.682,0.179l-0.591,0.742
		l-0.779,0.016l-0.561-0.306l-0.494-0.495l-0.115-0.871l0.654-0.436l0.148-0.701l-0.766-0.079l-0.964,0.294l-1.115,0.571
		l-1.18,0.971l-0.894,0.548l0.417-0.503l0.615-0.563l0.35-0.275l-0.648-0.178c0.306-0.005,0.601-0.009,0.899-0.009l0.376-0.486
		l0.642-0.426l0.593-0.044l0.396-0.529l0.59-0.195c0.275,0,0.524,0,0.804-0.005l1.444-0.064l0.753,0.15l0.592-0.048l0.677-0.439
		l0.677-0.542l0.99-0.094l0.538-0.191l0.305-0.285l-0.252-0.239l0.263-0.257l0.168-0.513l-0.682-0.085l-0.052-0.32
		c-0.237,0-0.493,0-0.734,0l-0.675,0.32l-0.431,0.257l-0.297-0.103l0.24-0.392l0.722-0.214l0.827-0.178l0.428-0.309l-0.496-0.033
		l-0.44-0.227l-0.604-0.171l-0.292-0.351l-0.333-0.364l-0.087-0.3l0.282-0.064l0.179-0.242l-0.244-0.504l-0.265-0.597l-0.268-0.979
		l-0.034-0.476l-0.701,0.599c-0.093,0.167-0.183,0.349-0.245,0.513l-0.614,0.193l-0.456,0.368l-0.501-0.036l0.057-0.292l-0.202-0.26
		l-0.537,0.116l0.41-0.556c0.136-0.269,0.255-0.507,0.385-0.769l0.184-0.375l-0.541-0.008l-0.257-0.29l-0.123-0.385l-0.385-0.41
		l-0.343,0.197l-0.549-0.025l-0.125-0.12c-0.205,0.002-0.39,0.004-0.595,0.006l-0.439,0.263l-0.051,0.414l-0.438,0.543l-0.177,0.359
		l-0.114,0.488c-0.131,0.001-0.242,0.003-0.336,0.003l-0.291,0.506l-0.366,0.26l0.15,0.238l0.252,0.347l-0.257,0.628
		c-0.131,0.265-0.272,0.5-0.393,0.739l-0.608,0.567l-0.671,0.406l-0.689,0.11l0.021,0.637c-0.133,0.29-0.28,0.585-0.417,0.866
		l-0.059,0.487l-0.261,0.404l-0.532,0.529l-0.681,0.097l-0.033-0.694l-0.147-0.631c0.087-0.179,0.189-0.344,0.255-0.529l0.282-0.708
		l0.403-0.606l-0.701-0.101l-0.506-0.004l-0.15-0.192l-0.553-0.192l-0.011-0.351l-0.292-0.336l-0.289-0.397l-0.84,0.253l0.097-0.351
		l0.348-0.822l-0.146-0.24l0.054-0.306l0.921-0.985l0.93-0.728l0.878-0.666l0.615-0.243l0.6-0.323l0.19-0.355l-0.332-0.11
		l-0.284-0.207l0.479,0.073l0.326,0.157l0.31-0.085l0.391-0.351l0.251,0.17l0.332-0.087l0.295-0.267l0.257-0.137l0.458-0.386
		l-0.279-0.016l-0.331-0.032l0.076-0.197l-0.178-0.206l0.274,0.007l0.276,0.147l0.179,0.125l0.44-0.168l0.567-0.312l0.023-0.256
		c0.112-0.025,0.232-0.025,0.329-0.025l-0.077,0.232l-0.402,0.26l-0.639,0.525c-0.191,0.184-0.387,0.406-0.582,0.61l-0.477,0.171
		l-0.159,0.266l0.341,0.025c-0.091,0.072-0.162,0.161,0.009,0.27c0.081-0.02,0.194-0.058,0.286-0.073l0.436-0.344l0.442,0.002
		l0.215,0.044l0.142,0.146c0.132-0.02,0.262-0.026,0.385-0.027l0.333-0.354l-0.299-0.084l0.199-0.436l-0.395-0.032l-0.035-0.325
		l-0.234-0.094c0.085-0.075,0.178-0.148,0.27-0.243l0.207,0.042l0.306-0.179l0.135-0.179c0.14,0,0.234-0.004,0.342-0.014l0.431-0.29
		l0.588-0.306l0.339-0.199l0.057-0.242l0.288-0.409l0.377-0.075l0.386-0.303l0.113-0.282l-0.126-0.144l-0.082-0.21
		c0.151-0.003,0.257-0.005,0.404-0.007l0.232-0.147l0.25,0.017l0.053,0.173l0.347-0.035l0.392-0.081l0.054-0.254l0.237-0.063
		l-0.058,0.307l0.285,0.013l-0.193,0.29l0.196,0.075l-0.099,0.218l0.157,0.098l-0.113,0.292c0.667-0.509,1.824-1.032,3.287-1.465
		l-0.182-0.112l-0.367,0.041l0.107-0.173l-0.275-0.005l-0.077-0.042l0.373-0.154l-0.204-0.105l-0.499,0.113l0.055-0.25l0.143-0.152
		l-0.223-0.005l0.221-0.185l-0.2-0.112c-0.141,0.001-0.288,0.004-0.45,0.006l-0.246,0.145l-0.292,0.042l-0.14-0.042l-0.296,0.179
		l-0.265,0.021l0.315-0.234l0.423-0.199l0.211-0.285l0.273-0.209c-0.116,0.004-0.228,0.004-0.352,0.006l-0.44,0.186l-0.264,0.006
		l-0.378,0.136l-0.436,0.243l-0.248,0.268l-0.379,0.184l-0.292,0.333l-0.222,0.054l0.199-0.298l0.525-0.391l0.359-0.244l0.602-0.285
		l0.562-0.192c-0.083,0.001-0.194,0.002-0.291,0.007l-0.421,0.051l-0.811,0.313l-0.916,0.439l-0.922,0.591l0.181,0.058l0.188,0.005
		l-0.232,0.226l-0.143-0.041l-0.421,0.089l-0.169,0.283c0.111-0.011,0.21-0.011,0.313-0.014l0.256-0.064l-0.032,0.153l0.223,0.152
		l-0.401,0.114l-0.336,0.263l-0.052,0.19l-0.92,0.54l-0.581,0.381l-0.568,0.32l-0.084-0.11l0.391-0.479l0.488-0.29l0.148-0.413
		l-0.704,0.347l0.371-0.585l-0.011-0.07l0.441-0.306l0.425-0.307l-0.094-0.035l0.365-0.265l0.228-0.28l-0.273-0.001l-0.319,0.155
		l-0.168,0.042L121,4.727l-0.294,0.225l-0.303,0.17l-0.229,0.323l-0.052,0.196l-0.479,0.286l-0.166-0.072l-0.391,0.339l0.293-0.042
		l0.582-0.251c-0.176,0.131-0.32,0.246-0.484,0.369l-0.973,0.384l-0.635,0.55l0.052-0.282l0.58-0.391
		c-0.062,0.012-0.12,0.013-0.163,0.015l0.42-0.345c0.067,0,0.122-0.002,0.183-0.005l0.624-0.484l0.007-0.26l-0.58,0.344
		l-0.429,0.163l-0.178,0.372l-0.477,0.215l-0.463,0.29l-0.741,0.091l-0.006-0.213l-0.136-0.035l0.136-0.294l-0.51,0.24l-0.665,0.26
		l-0.432,0.365l-0.812,0.556L115,7.164l0.102-0.234l-0.459,0.139l-0.4-0.055l0.257-0.192l0.471-0.188l0.261-0.303l-0.192,0.042
		l0.148-0.304l0.352-0.231l-0.064-0.041l-0.11,0.041l-0.427,0.207l-0.186,0.092l0.803-0.485l-0.809,0.435l0.008-0.045l0.96-0.54
		l0.102-0.083l-0.693,0.377l-0.473,0.242l-0.154,0.094l-0.39,0.197l-0.439,0.238c-1.277,0.781-2.771,1.763-3.913,2.505
		c-2.114,1.52-2.114,1.52-5.919,4.986l-0.661,0.626l0.115-0.086l-0.218,0.23l-0.363,0.384l-0.097,0.145l-0.375,0.384l-0.169,0.227
		l-0.359,0.371l-0.07,0.127l0.011,0.039l-0.383,0.423l-0.343,0.448l-0.41,0.512l-0.371,0.49l0.069,0.056l-0.437,0.559l-0.358,0.559
		l-0.254,0.405l-0.11,0.304l-0.016,0.191l0.007,0.15l-0.211,0.327l-0.11,0.389l-0.117,0.351l-0.436,0.781
		c-0.127,0.237-0.278,0.439-0.42,0.674l0.183-0.419l0.199-0.503l0.188-0.341l0.092-0.312v-0.099l0.334-0.52l-0.095,0.005
		l0.098-0.256l0.051-0.1v-0.093l-0.141,0.093l-0.226,0.408l-0.099,0.235l-0.146,0.35l-0.195,0.584l-0.336,0.618l-0.403,0.793
		l-0.387,0.679l-0.528,0.9c-0.175,0.355-0.349,0.684-0.543,1.036l-0.21,0.257c-0.109,0.215-0.212,0.464-0.327,0.696l-0.241,0.692
		l-0.369,0.721l-0.224,0.542l-0.11,0.477l-0.333,0.726l-0.105,0.564l-0.039,0.473l-0.285,1.028l-0.004,0.393l-0.143,0.542
		l-0.052,0.622c0.085-0.038,0.146-0.046,0.202-0.05l0.061,0.426l0.128,0.324l0.044,0.529l-0.114,0.657l-0.058,0.667l-0.165,1.11
		l0.076,0.481l0.102,0.537l-0.009,0.39l-0.263,0.403l0.068,0.432l0.146,0.439l0.222,0.445l0.118,0.529l-0.099,0.452l0.01,0.378
		l0.235,0.231l0.176,0.495l0.146,0.393l-0.048,0.503l0.183-0.182l0.07-0.547l-0.025-0.61l-0.202-0.235l0.046-0.537l-0.222-0.428
		v-0.695l0.026-0.66l-0.15-0.495l0.059-0.632l-0.148-0.19l0.014-0.79l-0.067-0.673l0.188-0.88l0.178-0.048l0.214,0.23l0.031,0.496
		l-0.153,0.75l0.103,1.004l0.169,0.758l0.2,0.588l0.12,0.547l-0.027,0.669l0.272,0.372l0.168,0.614l0.125,0.654l0.337,0.878
		l0.095,0.824l0.193,0.35l-0.235,0.316l-0.098,0.498l0.439,0.767l0.388,0.603l0.517,0.295l0.517,0.543l0.648,0.509l0.762,0.604
		l0.623,0.28l0.401-0.088l0.128-0.351l0.451-0.085l0.546,0.393l0.605,0.701l0.329,0.604c0.179-0.014,0.355-0.014,0.493-0.033
		c0.085,0,0.135-0.01,0.218-0.01l0.266,0.173l0.342,0.627l0.663,0.269l0.004-0.419l0.354,0.24c1.168,2.028,1.168,2.028,1.081,2.447
		l0.234,0.32l0.284-0.174l0.361,0.235C107.255,54.974,107.255,54.974,107.614,54.935z M99.038,29.192
		c-0.9-0.677,0.371-3.78,2.796-6.913c2.438-3.116,5.129-5.129,6.024-4.442c0.878,0.671-0.387,3.785-2.802,6.9
		C102.617,27.871,99.907,29.885,99.038,29.192z"/>
	<path fill="#F2F2F2" d="M188.791,43.632c-0.005-0.323-0.073-0.62-0.099-0.887c-0.001-0.089-0.008-0.17-0.048-0.277
		c0.047,0.38,0.047,0.38,0.146,1.467l-0.03-0.084l-0.068-0.021c0-0.044,0-0.137-0.005-0.15l-0.061-0.048c0,0.159-0.007,0.33,0,0.496
		c-0.118-0.192-0.206-0.729-0.157-0.846l0.002-0.091c0.033-0.048,0.033-0.048,0.037-0.048c0,0.042,0.039,0.114,0.086,0.146
		c0.018-0.104,0.021-0.132-0.047-0.342l-0.035-0.035l-0.01,0.035c-0.082-0.108-0.084-0.227-0.201-0.299
		c-0.014-0.034-0.034-0.039-0.059-0.039c-0.042-0.288-0.064-0.551-0.117-0.839c-0.275-1-0.771-1.976-0.787-3.061
		c0.085,0.039,0.226,0.071,0.572,1.524c0.268,0.916,0.482,1.352,0.53,1.516l0.056,0.029h0.008l0.004-0.09c0-0.01,0-0.01,0-0.01
		c0.011,0.071,0.011,0.071,0.084,0.258l0.003,0.056c0.026,0.187,0.077,0.371,0.097,0.542l-0.048-0.414l0.12,0.715l0,0
		c0.021,0,0.021,0,0.021,0v0.004v-0.004l-0.142-0.721c-0.312-1.468-0.687-3.477-1.045-4.971c0.047,0.163,0.092,0.342,0.112,0.521
		l-0.147-0.521l-0.005-0.039c-0.039-0.175-0.11-0.388-0.136-0.596c0.025,0.173,0.097,0.331,0.132,0.495l0.016,0.042l0.021,0.028
		c0,0.031,0,0.056-0.028,0.069c0.003-0.013,0.028-0.033,0.028-0.039c0-0.008,0-0.017,0-0.031c0.003,0.031,0.003,0.056,0.007,0.069
		c-0.004-0.033-0.004-0.047-0.007-0.098l-0.238-0.7c0,0.035,0.054,0.035,0.054,0.056l-0.088-0.291
		c-0.074-0.182-0.115-0.375-0.168-0.566l-0.333-1.157l0.008,0.077l-0.008-0.068c-0.061-0.103-0.09-0.212-0.148-0.333
		c-0.086-0.209-0.115-0.422-0.202-0.636c0.108,0.346,0.227,0.688,0.351,0.96c-0.496-1.499-0.725-2.095-1.251-3.354l0.492,1.227
		l0.084,0.298c-0.266-0.669-0.481-1.336-0.771-1.956c-0.505-1.408-0.806-1.94-1.55-3.424c-0.036-0.052-0.072-0.095-0.127-0.184
		c-0.618-1.174-1.255-2.342-1.938-3.44c-0.685-1.203-1.038-1.703-1.953-2.972l-0.168-0.178c-0.321-0.49-0.712-0.972-1.052-1.412
		c-1.028-1.226-2.447-2.892-3.529-4.049l-0.242-0.256c-3.702-3.519-3.702-3.519-5.838-5.071l-1.996-1.383
		c-0.337-0.204-0.638-0.425-0.945-0.621c0.201,0.117,0.391,0.232,0.543,0.343c-0.054-0.045-0.058-0.05-0.123-0.092l-0.059-0.033
		c-0.148-0.09-0.274-0.179-0.436-0.275c-0.029-0.007-0.038-0.022-0.089-0.053V7.5c-0.004-0.006-0.01-0.009-0.012-0.011
		c-0.004,0-0.004-0.018-0.008-0.018c-0.002,0-0.002,0-0.002,0l0,0c-0.202-0.118-0.426-0.268-0.61-0.402
		c0.19,0.14,0.202,0.141,0.419,0.3V7.37l0.203,0.133l0.057,0.046c0.333,0.315,0.897,0.45,1.191,0.919l0.022,0.014
		c-0.349-0.214-0.688-0.4-0.999-0.638l0.033-0.003c-0.132-0.103-0.244-0.191-0.413-0.282c-0.109-0.089-0.109-0.089-0.197-0.109
		c-0.115-0.083-0.236-0.15-0.399-0.241h-0.01c-0.158-0.089-0.158-0.089-0.225-0.136c-0.06,0-0.06-0.003-0.081-0.003
		c0.076,0.049,0.196,0.135,0.224,0.19c0.082,0.027,0.15,0.039,0.188,0.087c0.29,0.156,0.506,0.318,0.781,0.504
		c0.489,0.338,0.489,0.338,0.513,0.362c0.082,0.053,0.172,0.073,0.429,0.225c0.035,0.043,0.035,0.083,0.062,0.089
		c0.187,0.163,0.435,0.296,0.645,0.451c-0.08-0.016-0.11-0.049-0.182-0.07c-0.105-0.079-0.158-0.096-0.195-0.135
		c-0.07-0.032-0.087-0.066-0.168-0.092l-0.042,0.026c0.14,0.169,0.335,0.35,0.501,0.521v0.036c0.335,0.243,0.688,0.473,0.978,0.725
		c-0.097-0.009-0.122-0.031-0.253-0.081l-0.036-0.002c-0.172-0.061-0.425-0.178-0.818-0.489c0.229,0.338,0.299,0.374,0.588,0.518
		c0.111,0.089,0.111,0.089,0.189,0.158c0.045,0.032,0.073,0.032,0.098,0.032c0.136,0.02,0.243,0.114,0.469,0.297
		c-0.006,0.042-0.063,0.038-0.138,0.027l0.097,0.079c-0.391-0.076-1.147-0.682-1.431-0.921c-0.106-0.043-0.12-0.049-0.144-0.049
		l-0.411-0.31c-0.646-0.531-1.411-0.851-2.11-1.34c0.308,0.122,1.251,0.587,1.258,0.59c0.164,0.029,0.213,0.029,0.302,0.067
		c0.163,0.051,0.291,0.142,0.486,0.204c0.012,0.004,0.021,0.004,0.023,0.006l0.073,0.001c-0.032-0.054-0.064-0.111-0.068-0.16
		c-0.88-0.879-2.364-1.51-2.669-1.641c-0.164-0.098-0.164-0.098-0.285-0.157c-0.201-0.105-0.233-0.109-0.335-0.14
		c-0.045,0.037-0.056,0.037-0.06,0.035c-0.194-0.085-0.357-0.17-0.551-0.248l-0.114-0.026c0.202,0.102,0.202,0.102,0.364,0.194
		c-0.064,0-0.09-0.002-0.09-0.002c-0.1-0.049-0.1-0.049-0.394-0.246c-0.028-0.015-0.064-0.057-0.099-0.057
		c-0.188-0.089-0.188-0.089-0.49-0.262l-0.099-0.024l0.073,0.09c-0.035-0.002-0.035-0.002-0.496-0.179
		c-0.119-0.063-0.16-0.064-0.239-0.107l0.105,0.001c-0.093-0.049-0.146-0.109-0.221-0.145c-0.584-0.3-0.908-0.354-0.908-0.354
		c0.129,0.06,0.233,0.141,0.385,0.202c-0.185-0.034-0.256-0.089-0.35-0.138c-0.035-0.016-0.097-0.06-0.133-0.105
		c-0.09-0.055-0.135-0.073-0.17-0.096c-0.089-0.004-0.182-0.024-0.281-0.025c0.386,0.214,0.386,0.214,0.488,0.277
		c0.095,0.053,0.105,0.075,0.155,0.123l0.094,0.025l-0.045,0.014c-0.307-0.215-0.335-0.223-0.575-0.327
		c-0.025-0.028-0.1-0.028-0.122-0.028l-0.294-0.172l-0.088-0.034l0.006,0.034l0.082,0.056l-0.088,0.021
		c0.093,0.083,0.212,0.158,0.31,0.232l-0.026,0.042c-0.002-0.028-0.118-0.045-0.292-0.177c-0.099-0.056-0.141-0.059-0.209-0.061
		l-0.024,0.061c0.106,0.149,0.33,0.269,0.624,0.337c0.104,0.057,0.195,0.122,0.286,0.185l-0.091-0.004
		c-0.099-0.078-0.294-0.079-0.392-0.128c-0.091-0.004-0.098-0.006-0.169-0.006c0.462,0.274,0.463,0.291,0.561,0.379
		c-0.37-0.144-0.705-0.348-1.075-0.516c0,0.07,0.068,0.108,0.17,0.147c0.033,0.044,0.524,0.333,0.611,0.502
		c-0.097,0.025-0.097,0.025-0.425-0.218l0.039,0.079l-0.041,0.051c0.036,0.052,0.119,0.091,0.144,0.133
		c0.095,0.07,0.281,0.115,0.382,0.178c0.088,0.054,0.097,0.084,0.109,0.116l0.086,0.063c-0.21-0.063-0.812-0.422-0.847-0.432
		c0.035,0.084,0.142,0.149,0.261,0.242c-0.074,0.001-0.127,0.001-0.2,0.001c0.005,0.038,0.005,0.038,0.226,0.207
		c-0.017,0.035-0.041,0.045-0.119,0.051c0.02,0.038,0.084,0.122,0.094,0.147l-0.074,0.025c0.074,0.045,0.087,0.115,0.171,0.161
		l-0.088-0.013l0.014,0.068c0.081,0.036,0.164,0.036,0.183,0.038c-0.01-0.038,0-0.12,0.011-0.141h0.076V6.836
		c0.027-0.019,0.099-0.066,0.099-0.119c0.25,0.024,0.321,0.054,0.456,0.19c-0.065-0.02-0.131-0.021-0.17-0.026l0.069,0.066
		l-0.105,0.015c0.075,0.158,0.496,0.544,0.537,0.593l-0.098,0.004c0.008,0,0.669,1.083,0.788,1.216l-0.076-0.073
		c-0.043,0.175-0.043,0.175-0.035,0.231c-0.036,0.032-0.08,0.076-0.122,0.124c0.046,0.021,0.092,0.088,0.123,0.146l0.1,0.024
		c0.095-0.018,0.123-0.016,0.192-0.016c0.157,0.153,0.157,0.153,0.172,0.194c-0.007,0.062-0.007,0.136-0.007,0.18l-0.102,0.016
		c0.022,0.094,0.022,0.142,0,0.186c1.108,0.307,2.574,1.026,4.105,2.019c-0.131-0.113-0.253-0.25-0.36-0.382
		c0-0.294-0.308-0.421-0.365-0.7l0.092-0.001c0.007-0.089,0.04-0.141-0.099-0.332c0.053-0.026,0.103-0.044,0.167-0.042
		c-0.099-0.167-0.099-0.167-0.185-0.302V9.983l0.075-0.023c-0.055-0.509-0.581-0.515-0.826-0.834l0.032-0.068
		c-0.145-0.18-0.32-0.316-0.339-0.369c0.01-0.022,0.097-0.042,0.142-0.022c0.053,0.017,0.053,0.017,0.053,0.017h0.001h0.003
		l0.004,0.002l0,0l0,0h0.004c0.133,0.052,0.266,0.143,0.473,0.282l-0.05-0.09c0.112,0,0.12,0,0.537,0.269
		c0.171,0.156,0.267,0.232,0.379,0.35c-0.038,0-0.102-0.012-0.188-0.02c0.583,0.475,0.599,0.522,0.672,0.712
		c-0.086-0.007-0.118-0.037-0.189-0.045l-0.081,0.052c0.672,1.115,0.672,1.115,1.317,1.756c0.11,0.091,0.117,0.092,0.167,0.154
		c0.025,0.005,1.104,0.819,1.614,1.011l0.009,0.004c0-0.048,0-0.102,0-0.171c0.107-0.028,0.257,0.069,0.377,0.032
		c-0.008-0.053-0.016-0.102-0.029-0.143c0.146-0.06,0.26-0.055,0.44,0l-0.009-0.108c0.034-0.005,0.081-0.005,0.081-0.005
		c0.116,0.106,0.215,0.203,0.351,0.293c0.096,0,0.188,0.001,0.269,0.009l0.111,0.134l0.075,0.055
		c-0.075,0.003-0.075,0.003-0.239,0.001c0,0.15,0,0.15,0.234,0.583c-0.234-0.001-0.371-0.207-0.586-0.274l-0.067,0.07
		c-0.044-0.002-0.044-0.002-0.229-0.044l-0.072,0.065l0.007,0.088c-0.029-0.015-0.128-0.063-0.128-0.083l-0.093,0.039
		c0.093,0.207,0.191,0.322,0.191,0.322l0.009,0.071l-0.107-0.063l0,0l-0.008-0.004c-0.085-0.008-0.085-0.008-0.184-0.082
		l-0.082-0.105l-0.027-0.001l-0.051,0.001l-0.038-0.001l-0.023,0.001l-0.01,0.058l0.073,0.09l0.04,0.01l0.036,0.032
		c0.082,0.066,0.082,0.066,0.09,0.066h0.068l0,0l0,0l0,0h0.008l0,0l0.107,0.077c-0.097,0.004-0.209,0.039-0.273,0.113
		c0.181,0.283,0.372,0.321,0.591,0.351c0.064-0.073,0.064-0.18-0.003-0.272c0.437,0.047,1.022,0.733,1.022,0.742
		c-0.087,0.149-0.087,0.149,0.101,0.406c0.024,0.09-0.03,0.09-0.07,0.09c-0.037-0.034-0.037-0.034-0.555-0.432h-0.067
		c-0.041-0.073-0.128-0.167-0.159-0.25c-0.09,0-0.098-0.007-0.179-0.007c0.21,0.427,0.31,0.751,0.444,0.996
		c0.26,0.371,0.499,0.681,0.709,1.014c0.013,0.009,0.016,0.039,0.02,0.039l0.01,0.111c0.478,0.807,0.628,1.494,0.277,1.878
		c-0.537,0.764-2.462,0.316-4.791-0.966h-0.004h-0.1c-0.201-0.033-0.261-0.059-0.578-0.059c-0.007,0.054-0.007,0.111-0.01,0.14
		c-0.103,0.055-0.192,0.116-0.247,0.171c0.055,0.282,0.055,0.282-0.062,0.39l-0.171-0.095c-0.016,0-0.02,0-0.108,0l-0.082-0.005
		c-0.038,0.005-0.108,0.005-0.111,0.005c-0.069,0.06,0.003,0.148,0.027,0.234l0.267,0.146c0.076,0.12,0.103,0.281,0.196,0.397
		c-0.265-0.013-0.303,0.079-0.595,0.584c-0.027,0-0.088,0-0.106,0c-0.108,0-0.215,0-0.275-0.005c0.035,0.24,0.127,0.484,0.262,0.753
		c-0.268-0.013-0.355-0.013-0.579,0.068c0.027,0.152,0.096,0.269,0.125,0.414c-0.125,0-0.271-0.004-0.376-0.038
		c-0.11-0.032-0.11-0.032-0.408-0.065c-0.123-0.082-0.19-0.14-0.195-0.159c-0.035-0.072-0.165-0.144-0.275-0.152
		c-0.006,0.157,0.057,0.302,0.095,0.437l0.146,0.058c0.033,0.092,0.04,0.201,0.128,0.304l0.103,0.145
		c0,0.042,0.019,0.103,0.031,0.166c-0.729,0.04-1.104-0.31-1.104-0.31c-0.583,0.213-0.583,0.213-0.6,0.31
		c0.014,0.03,0.014,0.082,0.017,0.115c0.123,0.112,0.189,0.112,0.215,0.112c0.27,0.322,0.549,0.294,0.636,0.294
		c0.096,0,0.116,0,0.133,0.008c0.299,0.2,0.576,0.431,0.867,0.631c0.104,0.282,0.214,0.521,0.282,0.769
		c0.52,0.618,1.387,1.66,0.873,2.245c0,0.056,0.004,0.098,0.004,0.149c-0.271,0.188-0.271,0.188-0.443,0.227
		c-0.03,0-0.049,0-0.117,0c-0.381-0.184-0.793-0.217-1.177-0.476c-0.475-0.059-0.797-0.086-1.187-0.093
		c-0.507-0.076-0.507-0.076-0.604-0.139c-0.147-0.047-0.151-0.053-0.193-0.053l-0.111,0.104c0.027,0.008,0.039,0.083,0.056,0.123
		c-0.231,0.125-0.482,0.117-0.695,0.111l-0.006,0.137c0.383,0.445,0.214,1.132,0.646,1.58c0.073,0.323,0.119,0.598,0.187,0.892
		c0,0.034,0.004,0.082,0.004,0.145c-0.453,0.432-0.219,0.797,0,1.147l0.114,0.124c0.029,0.136,0.03,0.183,0.037,0.226
		c0.004,0.039,0.013,0.098,0.057,0.159c-0.099,0.186-0.13,0.23,0.006,0.715c0.127,0.061,0.287,0.061,0.402,0.069
		c0.383-0.106,0.701,0.192,1.088,0.1c0.102,0.092,0.102,0.092,0.585,0.322c0.158,0.188,0.23,0.412,0.414,0.559
		c0.006-0.054,0.079-0.102,0.079-0.165l-0.141-0.043c1.699-1.038,3.076-1.532,3.078-1.538c-0.012-0.179-0.081-0.337-0.102-0.515
		c-0.394-0.598-0.394-0.598-0.283-1.271c0.009-0.082,0.045-0.197,0.079-0.303c0.091,0,0.195-0.005,0.294-0.005
		c0.016-0.047,0.097-0.186,0.099-0.238c0.083-0.04,0.193-0.062,0.277-0.077l0.038-0.143c0.313-0.016,0.719-0.08,0.719-0.08
		c0.012-0.128,0-0.27-0.061-0.436l-0.029-0.139c-0.262-0.576-0.262-0.858-0.262-0.871c0.262-0.144,0.262-0.144,0.713-0.042h0.006
		h0.024h0.004h0.002h0.007h0.028v0.007l0,0c0.485,0.244,0.485,0.244,0.574,0.266c0.194,0.037,0.208,0.045,0.301,0.045
		c0-0.008,0.022-0.045,0.108-0.045c0.008-0.431,0.008-0.431,0.085-0.568c0.136-0.014,0.197-0.008,0.2,0
		c0.097,0,0.327,0.021,0.459-0.418c0.776,0.184,0.981,1.084,1.586,1.477c0.199,0.111,0.199,0.111,0.38,0.355
		c0.991,0.722,2.912,2.061,3.083,3.213c-0.412,0.084-0.412,0.084-0.436,0.312c-0.445,0.098-0.787-0.022-1.157-0.062
		c0,0.057,0.057,0.146,0.078,0.184c0.376,0.222,0.592,0.674,1.015,0.818c0.199,0.028,0.428,0.031,0.595,0.031
		c-0.038-0.175-0.126-0.368-0.146-0.551c0.142-0.13,0.216-0.322,0.399-0.42c-0.012-0.172-0.031-0.377-0.099-0.599
		c0.085-0.064,0.195-0.11,0.208-0.136c0.086-0.056,0.086-0.172,0.005-0.248c-0.016-0.155-0.016-0.234-0.018-0.255
		c-0.215,0.003-0.28,0-0.354-0.019c-0.127-0.068-0.133-0.145-0.142-0.208c-0.008-0.018-0.011-0.082-0.017-0.116
		c0.123-0.086,0.232-0.081,0.334-0.06c0.289,0.129,0.38,0.224,0.469,0.35c0.021-0.298-0.188-0.537-0.288-0.819
		c-0.649-0.2-1.178-0.934-1.182-0.934c-0.4-0.032-0.644-0.39-0.967-0.5c-0.154-0.468-0.577-0.673-0.795-1.023
		c-0.07,0-0.085-0.021-0.104-0.021c-0.289-0.514-0.289-0.514-0.663-0.509c-0.057-0.139-0.093-0.247-0.146-0.378l0.047-0.149
		c0.04-0.091,0.006-0.104,0.006-0.159c-0.217-0.439-0.217-0.439-0.216-0.474c0.489-0.089,2.293,1.793,2.313,1.807
		c0.225,0.234,0.23,0.234,0.518,0.298c0.018,0.034,0.082,0.114,0.099,0.133c0.31,0.429,0.888,0.523,1.188,0.964
		c0.489,0.682,0.597,1.51,1.003,2.197c0.117,0,0.205,0.014,0.308,0.069c0.162,0.239,0.218,0.432,0.288,0.632
		c-0.102-0.013-0.145-0.013-0.216-0.013c-0.022-0.034-0.03-0.086-0.037-0.145c-0.045-0.009-0.11-0.033-0.146-0.042
		c0,0.256,0.188,0.495,0.538,0.84c0.029-0.042,0.111-0.124,0.117-0.167c0.392,0.215,0.392,0.695,0.619,1.007
		c0.159,0.073,0.249,0.073,0.26,0.073c0.069,0,0.099,0,0.184,0c0.012-0.372,0.012-0.372,0.012-0.423
		c-0.007-0.073-0.012-0.12-0.09-0.167c-0.007-0.092-0.036-0.182-0.036-0.275l0.119-0.087c0.025,0.044,0.12,0.112,0.177,0.18
		c0.12,0.029,0.124,0.029,0.153,0.029c0.067-0.209,0.067-0.209-0.051-0.612c0.021,0,0.099,0,0.118,0.045l0.002-0.153
		c-0.196-0.324-0.207-0.337-0.386-0.37c0.107,0.259,0.107,0.259,0.16,0.434c-0.115-0.009-0.362-0.057-1.208-1.37
		c-0.032-0.116-0.035-0.171-0.039-0.213c0-0.052,0-0.132,0.004-0.171l0.099,0.093c0.223,0.202,0.223,0.202,0.366,0.25
		c0.055,0,0.114,0.002,0.124,0.002l0.074,0.013c0.022-0.179,0.022-0.179-0.165-0.357c0.002-0.056,0.002-0.103,0.002-0.158
		c0.377-0.206,0.576,0.196,0.87,0.276c0.195,0.322,0.195,0.322,0.225,0.354c0.082,0.056,0.148,0.188,0.175,0.248l-0.097,0.131
		c0.105,0.397,0.517,0.654,0.603,1.084c0.071,0.103,0.105,0.242,0.115,0.303c0.026,0.061,0.043,0.123,0.053,0.17
		c0.064,0.125,0.064,0.125,0.228,0.401l0.048,0.097l0.059,0.011l0.046,0.089l0.096,0.088l0.033,0.062
		c0.077,0.083,0.091,0.242,0.093,0.311l0.001,0.085l0.006,0.097c0.099,0.291,0.099,0.291,0.18,0.463l0.072,0.066l0.02,0.048
		c0.037-0.053,0.038-0.16,0.033-0.231l-0.033-0.192c-0.017-0.11-0.061-0.205-0.092-0.298c-0.022-0.061-0.033-0.094-0.055-0.164
		c0-0.08,0.03-0.08,0.055-0.08l0.043,0.024l0.049,0.056l0.071,0.098l0.025,0.065c0.089,0.079,0.135,0.153,0.195,0.25l0.077,0.081
		l0.061,0.103l0.044,0.016h0.014c0.084,0.03,0.195,0.044,0.21,0.099c0.086,0.021,0.111,0.021,0.119,0.021l0.032-0.034l0.03-0.042
		l-0.034-0.052l-0.028-0.106c-0.099-0.238-0.099-0.238-0.099-0.397v-0.084l0.012-0.065c0.092,0,0.227,0.047,0.261,0.116
		c0.064,0.047,0.086,0.141,0.182,0.2c0.021,0.082,0.104,0.174,0.164,0.23l0.052,0.106l0.073,0.047l0.006,0.02l0.086,0.027
		c0.115,0.024,0.245,0.034,0.424,0.076c-0.023-0.089-0.082-0.179-0.101-0.282l-0.015-0.081c-0.063-0.106-0.088-0.242-0.1-0.316
		l0.098,0.014l0.014-0.009h0.078c0.029,0.042,0.029,0.042,0.223,0.253c0.094,0.059,0.094,0.063,0.107,0.063l0.008-0.063
		l-0.005-0.053l0.005-0.046l0.065,0.013c0.016,0.076,0.061,0.149,0.118,0.197l0.018,0.067c0.095,0.297,0.095,0.297,0.146,0.508
		c0.028,0.482,0.145,0.779,0.218,0.861l0.049,0.065c0.066,0.233,0.066,0.233,0.103,0.477l-0.001,0.034L183.788,35
		c0.012,0.086,0.04,0.192,0.048,0.278v0.093c-0.012,0.45-0.012,0.45-0.048,0.508l-0.001,0.048l-0.035,0.098l0.035,0.052
		c1.267,0.233,2.204,0.393,2.872,0.57c-0.668-0.177-1.605-0.336-2.871-0.494c0,0.004,0.105,0.776,0.048,0.943l-0.012,0.085
		l-0.024,0.043h-0.013c-0.09,0-0.134,0.029-0.157,0.059l-0.072-0.008l-0.017,0.013l-0.011,0.039l-0.092,0.046l-0.033-0.072
		l-0.083-0.077c-0.054-0.063-0.061-0.063-0.093-0.063c0,0-0.061-0.019-0.126-0.052c0.452,0.623,0.91,1.652,1.292,2.867l0.021-0.004
		c0.069-0.14,0-0.235,0.017-0.381l0.09,0.146c0.947,2.27,0.947,2.27,0.972,2.569c0.007,0.097,0.009,0.112,0.009,0.154
		c0.016,0.916,0.591,1.676,0.819,2.555c0.124,0.492-0.071,0.984,0.149,1.466c0.198,0.443,0.354,0.822,0.382,1.113l0.07,0.145
		l0.499,3.35c-0.004,0.594-0.016,1.057-0.085,1.565c0.003,0.246,0.11,0.632,0.182,0.711c0.039,0.004,0.126,0.004,0.182,0
		c0.106-0.201,0.106-0.439,0.209-0.617c0.137-0.086,0.188-0.086,0.268-0.079l0.007,0.079l0.008,0.027
		c0.012-0.027,0.092-0.17,0.106-0.286c0.029-0.26,0.121-0.594,0.393-0.736c0.001-0.076,0.07-0.224,0.094-0.316
		c0.005-0.229,0.203-0.996,0.211-0.996l0.106,0.086c0.008-0.594,0.02-0.944,0.02-0.944l0.059,0.012c0-0.251,0-0.482,0-0.716
		c-0.007-1.598-0.125-3.111-0.288-4.592l0.001,0.081C188.888,44.128,188.812,43.873,188.791,43.632z M187.035,35.171l0.107,0.373
		l-0.085-0.214l-0.136-0.58C186.951,34.895,186.972,35.034,187.035,35.171z"/>
	<path fill="#F2F2F2" d="M189.096,46.073c-0.013-0.125-0.031-0.251-0.039-0.35c0.008,0.065,0.008,0.163,0.026,0.211v0.131
		L189.096,46.073z"/>
	<path fill="#F2F2F2" d="M189.104,46.257L189.104,46.257l0.004,0.108C189.107,46.331,189.104,46.29,189.104,46.257z"/>
	<polygon fill="#F2F2F2" points="189.024,45.451 189.021,45.405 189.024,45.451 	"/>
	<path fill="#F2F2F2" d="M166.397,7.829c0.053,0.029,0.128,0.078,0.151,0.108l-0.317-0.246V7.689c0,0.002,0,0.002,0,0.002
		L166.397,7.829z"/>
	<path fill="#F2F2F2" d="M166.231,7.706c0-0.012,0-0.012,0-0.014V7.691V7.706z"/>
	<path fill="#F2F2F2" d="M165.861,7.489c0.153,0.071,0.273,0.161,0.307,0.18l0.063,0.021c-0.122-0.076-0.266-0.136-0.384-0.221
		l0.004,0.002c0,0,0,0,0.002,0C165.857,7.471,165.857,7.471,165.861,7.489z"/>
	<polygon fill="#F2F2F2" points="128.024,1.232 128.268,1.147 128.089,1.16 127.749,1.268 127.829,1.27 	"/>
	<path fill="#F2F2F2" d="M126.989,1.461l0.498-0.168l0.215-0.083c-0.327,0.09-0.565,0.182-0.949,0.301L126.989,1.461z"/>
	<polygon fill="#F2F2F2" points="127.243,1.204 127.404,1.147 127.34,1.147 126.984,1.256 126.753,1.318 126.795,1.318 	"/>
	<polygon fill="#F2F2F2" points="126.918,1.295 126.304,1.476 126.286,1.497 126.482,1.451 126.625,1.406 126.95,1.342 
		127.212,1.257 127.297,1.235 127.649,1.147 127.593,1.147 127.484,1.159 127.284,1.21 	"/>
	<path fill="#F2F2F2" d="M123.479,2.24l0.281-0.064l0.292-0.115l0.083-0.018l0.471-0.151l0.343-0.104l-0.441,0.147l0.195-0.045
		l0.288-0.08l0.735-0.225l0.525-0.132l0.082-0.047l-0.446,0.105l-0.064,0.026c-0.052-0.024-1.468,0.399-1.51,0.411l-0.053,0.006
		l-0.335,0.098l-0.401,0.145l-0.193,0.088l0.396-0.146L123.479,2.24z"/>
	<path fill="#F2F2F2" d="M189.182,47.697L189.182,47.697c0,0.06,0,0.139,0,0.205c0-0.004,0-0.598-0.059-1.328l-0.016-0.209
		c0.004,0.058,0.013,0.111,0.016,0.145v0.027v0.028c0-0.041,0-0.055,0-0.055l-0.012-0.076l0,0c-0.004-0.032-0.008-0.103-0.008-0.164
		v-0.013l-0.021-0.192v-0.05c0-0.031,0-0.04,0-0.067c0-0.01,0-0.01,0-0.014l-0.059-0.347l0,0c0-0.046,0-0.13-0.003-0.183
		l-0.014-0.014c-0.087-0.892-0.12-1.612-0.12-1.612l-0.076-0.03c0.076,0.295,0.078,0.388,0.082,0.537
		c0.163,1.481,0.281,2.995,0.288,4.494v0.03v-0.332C189.182,48.226,189.182,47.973,189.182,47.697z"/>
	<polygon fill="#F2F2F2" points="128.62,0.997 128.437,1.057 128.634,1.018 128.676,1.022 128.745,1.026 128.365,1.16 128.36,1.206 
		128.66,1.11 129.055,0.967 129.245,0.922 129.588,0.829 129.72,0.782 129.886,0.723 129.775,0.735 129.97,0.681 130.173,0.618 
		130.041,0.657 129.702,0.706 129.364,0.782 129.476,0.776 129.344,0.796 128.952,0.913 128.862,0.915 128.512,1.021 	"/>
	<path fill="#F2F2F2" d="M125.287,1.754l0.048,0.002l0.355-0.108c-0.107,0.027-0.147,0.038-0.147,0.038l0.041-0.031L125.287,1.754z"
		/>
	<path fill="#F2F2F2" d="M130.09,0.924l0.245-0.019v0.021l0.279-0.061l0.052-0.001c0.042-0.002,0.071-0.006,0.33-0.084l0.305-0.099
		l-0.047,0.045c0.334-0.066,0.334-0.066,0.348-0.066v0.012c0.028-0.004,0.062-0.005,0.328-0.073
		c0.143-0.038,0.293-0.072,0.397-0.116c0.049-0.045,0.049-0.045,0.09-0.057l0.245-0.07c0.057-0.011,0.151-0.033,0.218-0.061
		l0.132-0.028c-0.086,0.014-0.173,0.022-0.252,0.037c0,0,0.43-0.127,0.781-0.179c0.147-0.038,0.342-0.044,0.514-0.101
		c-0.171,0.02-0.318,0.05-0.367,0.055h0.041c-0.273,0.044-0.292,0.044-0.333,0.044l-0.083,0c-0.194,0.017-0.405,0.054-0.6,0.111
		l-0.049-0.002l-0.087,0.009l-0.422,0.081l-0.243,0.044c-0.125,0.014-0.251,0.058-0.378,0.071l0.019,0
		c-0.111,0.037-0.256,0.076-0.402,0.089l-0.151,0.072l0.119-0.03l0.215-0.042h0.13c-0.296,0.09-0.296,0.09-0.5,0.129l-0.097,0.003
		l-0.258,0.046l-0.164,0.07l-0.369,0.101L130.09,0.924z"/>
	<path fill="#F2F2F2" d="M127.977,1.051c0.048-0.001,0.11-0.001,0.146-0.023l0.008-0.004c0.259-0.058,0.259-0.058,0.498-0.147
		l-0.115,0.03l-0.204,0.052l-0.479,0.098h0.054L127.977,1.051z"/>
	<polygon fill="#F2F2F2" points="122.116,3.213 121.971,3.234 121.679,3.344 121.737,3.356 	"/>
	<polygon fill="#F2F2F2" points="113.579,6.619 113.669,6.567 113.683,6.546 	"/>
	<path fill="#F2F2F2" d="M115.8,6.009c0.065-0.003,0.112-0.007,0.163-0.009l-0.507,0.375l-0.142,0.145
		c0.091-0.012,0.16-0.012,0.241-0.013l0.262-0.059l0.441-0.207l0.328-0.096l0.512-0.215l0.274-0.13l-0.14,0.146l0.189-0.056
		l-0.14,0.255l0.196,0.005l0.243-0.058l0.475-0.25l0.15-0.199l0.156-0.035l0.294-0.068l0.302-0.179l0.122-0.172l-0.032-0.178
		l0.374-0.282l0.544-0.299l0.2-0.188L121,3.872l0.397-0.228l0.096-0.129c-0.053,0-0.095,0-0.16,0
		c-0.19,0.089-0.358,0.178-0.537,0.268l-0.353,0.195l-0.439,0.264l-0.282,0.131l-0.049-0.007l0.152-0.129l0.384-0.199l0.278-0.151
		l0.406-0.246l-0.058-0.002l-0.348,0.154l-0.259,0.155c-0.054,0.004-0.072,0.004-0.124,0.006l-0.279,0.132l-0.181,0.047l0.33-0.157
		l0.417-0.194h-0.051l0.056-0.074l-0.142,0.045l-0.395,0.165l-0.025-0.026l0.273-0.11l0.464-0.217l0.059-0.051l-0.127,0.024
		l-0.409,0.154l-0.261,0.09l-0.222,0.071l-0.409,0.177l-0.457,0.215l-0.452,0.19l-0.278,0.136h0.058l-0.208,0.116l0.256-0.075
		l0.217-0.049l-0.247,0.124l-0.28,0.125l-0.277,0.063l-0.306,0.156l-0.163,0.145c0.054,0,0.117-0.002,0.162-0.007l0.244-0.069
		c0.057,0,0.093,0,0.15,0c-0.143,0.147-0.143,0.147-0.439,0.303l-0.251,0.005c-0.073,0.004-0.162,0.013-0.234,0.022l-0.483,0.214
		l-0.559,0.382L115.8,6.009z"/>
	<polygon fill="#F2F2F2" points="115.817,6.591 115.905,6.665 116.31,6.491 116.58,6.408 116.982,6.152 116.461,6.325 	"/>
	<polygon fill="#F2F2F2" points="123.63,2.217 123.142,2.375 123.125,2.42 123.876,2.136 	"/>
	<path fill="#F2F2F2" d="M114.603,6.041l0.268-0.14l0.359-0.189l0.044-0.024l-0.395,0.204l-0.515,0.261l-0.084,0.044l-0.026,0.006
		c-0.192,0.124-0.364,0.229-0.572,0.344l0.634-0.359L114.603,6.041z"/>
	<path fill="#F2F2F2" d="M117.417,4.812l0.404-0.19c0.682-0.339,1.746-0.777,1.748-0.777l0.704-0.242l0.378-0.134l0.44-0.193
		l0.403-0.212V3.04l-0.402,0.125l0.149-0.088l0.196-0.098l-0.036-0.009l-0.257,0.061c-0.111,0.046-0.249,0.091-0.347,0.134
		l-0.648,0.289l-1.018,0.432l-1.393,0.599l-0.206,0.149l-0.822,0.468l0.571-0.28L117.417,4.812z"/>
	<path fill="#F2F2F2" d="M122.761,2.778l0.509-0.186l0.198-0.037c0.057,0,0.112-0.001,0.163-0.001
		c0.062-0.014,0.13-0.014,0.181-0.016l0.415-0.162l0.758-0.261l0.209-0.098l-0.082,0.009l-0.309,0.106l0.062-0.05l0.352-0.146
		c0.123-0.048,0.236-0.09,0.367-0.129l0.361-0.131l-0.067,0.015l-0.293,0.067l-0.173,0.05l-0.267,0.088
		c-0.218,0.097-0.218,0.097-0.743,0.29l0.011,0.012c-0.275,0.089-0.278,0.089-0.391,0.121c-0.045,0.002-0.091,0.005-0.124,0.006
		l0.219-0.091l0.472-0.207l0.127-0.071l-0.055,0.019l0.185-0.078l0.005-0.007l-0.306,0.064l-0.569,0.184l-0.396,0.142l-0.454,0.151
		l-0.461,0.146h0.105l-0.034,0.054l0.17-0.04l0.254-0.07l0.004,0.036l0.104-0.002c-0.142,0.036-0.225,0.069-0.322,0.079
		l-0.127,0.028l-0.263,0.066l-0.319,0.14l-0.121,0.056c0.053-0.003,0.118-0.007,0.166-0.017L122.761,2.778z"/>
</g>
<path stroke="#0071BC" stroke-miterlimit="10" d="M124.218,65.367c0,0-2.032-29.948,15.061-30.467v4.698
	c0,0-12.03-1.479-10.773,25.769H124.218z"/>
<path stroke="#0071BC" stroke-miterlimit="10" d="M124.961,43.396c0,0,2.122-13.347,20.224-13.063v-4.78
	c0,0-21.032-1.901-24.461,17.551L124.961,43.396z"/>
<path stroke="#0071BC" stroke-miterlimit="10" d="M132.355,21.87c0,2.488-1.819,4.501-4.069,4.501c-2.242,0-4.068-2.013-4.068-4.501
	c0-2.482,1.826-4.494,4.068-4.494C130.536,17.376,132.355,19.388,132.355,21.87z"/>
<path stroke="#0071BC" stroke-miterlimit="10" d="M109.313,36.942c0.802,0.899,3.889,0.213,4.927,0.195c0,0,0.18-0.125,1.293,0.907
	c1.112,1.054,3.78,4.287,3.78,4.287l1.243-0.997c0,0-3.405-4.16-3.731-4.585c-0.331-0.423-0.678-1.444-0.678-1.444
	c0.349-1.482,1.017-4.22,0.254-5.208l-3.938-4.481c-0.802-0.909-2.132-1.004-2.978-0.188l-4.051,3.901
	c-0.843,0.816-0.868,2.201-0.06,3.118L109.313,36.942z"/>
<radialGradient id="SVGID_2_" cx="-13.957" cy="55.499" r="15.5828" gradientTransform="matrix(0.7377 0 0 0.7383 46.3036 13.2783)" gradientUnits="userSpaceOnUse">
	<stop  offset="0" style="stop-color:#FCEE21"/>
	<stop  offset="0.2189" style="stop-color:#F9EB23"/>
	<stop  offset="0.3948" style="stop-color:#EFE22B"/>
	<stop  offset="0.5557" style="stop-color:#DED338"/>
	<stop  offset="0.7077" style="stop-color:#C6BE4A"/>
	<stop  offset="0.8534" style="stop-color:#A7A362"/>
	<stop  offset="0.9927" style="stop-color:#82827E"/>
	<stop  offset="1" style="stop-color:#808080"/>
</radialGradient>
<path fill="url(#SVGID_2_)" d="M36.007,42.753c-6.353,0-11.499,5.148-11.499,11.509c0,6.34,5.146,11.491,11.499,11.491
	s11.501-5.151,11.501-11.491C47.508,47.901,42.36,42.753,36.007,42.753z M38.955,47.749c0,0.7-0.784,1.262-1.753,1.262
	c-0.963,0-1.747-0.562-1.747-1.262c0-0.695,0.784-1.255,1.747-1.255C38.171,46.494,38.955,47.053,38.955,47.749z M34.423,43.783
	c0.991-0.154,1.827-0.053,1.874,0.203c0.037,0.271-0.738,0.61-1.725,0.767c-0.992,0.154-1.829,0.049-1.869-0.217
	C32.659,44.273,33.434,43.932,34.423,43.783z M26.171,57.329c-0.249,0.027-0.563-0.638-0.707-1.523
	c-0.14-0.854-0.056-1.592,0.188-1.623c0.245-0.034,0.559,0.638,0.698,1.49C26.496,56.546,26.413,57.275,26.171,57.329z
	 M26.77,49.591c-0.203-0.156,0.085-0.864,0.646-1.581c0.563-0.729,1.178-1.189,1.384-1.038c0.201,0.159-0.088,0.88-0.644,1.6
	C27.593,49.291,26.977,49.752,26.77,49.591z M27.291,52.658c0-0.94,0.636-1.707,1.422-1.707s1.426,0.767,1.426,1.707
	c0,0.953-0.64,1.732-1.426,1.732S27.291,53.611,27.291,52.658z M31.203,63.509c-0.179,0.235-0.931-0.021-1.674-0.596
	c-0.745-0.562-1.207-1.219-1.032-1.449c0.186-0.24,0.936,0.027,1.682,0.591C30.929,62.626,31.381,63.288,31.203,63.509z
	 M33.708,62.481c-0.958,0-1.739-0.544-1.739-1.217c0-0.665,0.781-1.217,1.739-1.217c0.967,0,1.746,0.552,1.746,1.217
	C35.455,61.938,34.676,62.481,33.708,62.481z M33.777,54.391c0-0.948,0.746-1.695,1.677-1.695c0.926,0,1.665,0.747,1.665,1.695
	c0,0.926-0.739,1.686-1.665,1.686C34.523,56.076,33.777,55.316,33.777,54.391z M37.515,64.831c-0.99,0.136-1.828,0.046-1.866-0.22
	c-0.044-0.266,0.732-0.604,1.717-0.761c0.996-0.142,1.83-0.044,1.875,0.215C39.276,64.328,38.507,64.667,37.515,64.831z
	 M40.622,45.164c0.188-0.222,0.94,0.04,1.683,0.614c0.749,0.561,1.205,1.22,1.02,1.453c-0.173,0.234-0.926-0.04-1.669-0.614
	C40.903,46.058,40.446,45.4,40.622,45.164z M41.781,57.879c-0.669-0.169-1.025-1.086-0.793-2.032c0.241-0.98,0.982-1.624,1.66-1.453
	c0.673,0.154,1.029,1.075,0.792,2.04C43.2,57.406,42.463,58.043,41.781,57.879z M44.503,60.641c-0.565,0.73-1.182,1.184-1.39,1.031
	c-0.199-0.154,0.088-0.873,0.646-1.6c0.563-0.707,1.183-1.17,1.389-1.017C45.345,59.218,45.063,59.927,44.503,60.641z M46.373,54.39
	c-0.247,0.029-0.56-0.639-0.714-1.513c-0.134-0.857-0.056-1.596,0.191-1.635c0.245-0.044,0.557,0.625,0.701,1.491
	C46.691,53.608,46.613,54.337,46.373,54.39z"/>
<linearGradient id="SVGID_3_" gradientUnits="userSpaceOnUse" x1="-13.9565" y1="102.8643" x2="-13.9565" y2="71.7119" gradientTransform="matrix(0.7377 0 0 0.7383 46.3036 13.2783)">
	<stop  offset="0" style="stop-color:#FCEE21;stop-opacity:0"/>
	<stop  offset="0.2189" style="stop-color:#F9EB23;stop-opacity:0.2189"/>
	<stop  offset="0.3948" style="stop-color:#EFE22B;stop-opacity:0.3948"/>
	<stop  offset="0.5557" style="stop-color:#DED338;stop-opacity:0.5557"/>
	<stop  offset="0.7077" style="stop-color:#C6BE4A;stop-opacity:0.7077"/>
	<stop  offset="0.8534" style="stop-color:#A7A362;stop-opacity:0.8534"/>
	<stop  offset="0.9927" style="stop-color:#82827E;stop-opacity:0.9927"/>
	<stop  offset="1" style="stop-color:#808080"/>
</linearGradient>
<path opacity="0.2" fill="url(#SVGID_3_)" d="M36.007,66.223c-6.353,0-11.499,5.148-11.499,11.51c0,6.34,5.146,11.49,11.499,11.49
	s11.501-5.15,11.501-11.49C47.508,71.371,42.36,66.223,36.007,66.223z M38.955,71.219c0,0.7-0.784,1.262-1.753,1.262
	c-0.963,0-1.747-0.562-1.747-1.262c0-0.695,0.784-1.255,1.747-1.255C38.171,69.964,38.955,70.523,38.955,71.219z M34.423,67.254
	c0.991-0.154,1.827-0.053,1.874,0.203c0.037,0.27-0.738,0.609-1.725,0.766c-0.992,0.154-1.829,0.049-1.869-0.217
	C32.659,67.743,33.434,67.402,34.423,67.254z M26.171,80.799c-0.249,0.027-0.563-0.637-0.707-1.523
	c-0.14-0.854-0.056-1.592,0.188-1.623c0.245-0.033,0.559,0.639,0.698,1.49C26.496,80.016,26.413,80.746,26.171,80.799z
	 M26.77,73.061c-0.203-0.156,0.085-0.863,0.646-1.58c0.563-0.729,1.178-1.189,1.384-1.039c0.201,0.16-0.088,0.881-0.644,1.601
	C27.593,72.762,26.977,73.223,26.77,73.061z M27.291,76.129c0-0.941,0.636-1.707,1.422-1.707s1.426,0.766,1.426,1.707
	c0,0.953-0.64,1.732-1.426,1.732S27.291,77.082,27.291,76.129z M31.203,86.979c-0.179,0.236-0.931-0.021-1.674-0.596
	c-0.745-0.561-1.207-1.219-1.032-1.449c0.186-0.24,0.936,0.027,1.682,0.592C30.929,86.096,31.381,86.758,31.203,86.979z
	 M33.708,85.951c-0.958,0-1.739-0.543-1.739-1.217c0-0.664,0.781-1.217,1.739-1.217c0.967,0,1.746,0.553,1.746,1.217
	C35.455,85.408,34.676,85.951,33.708,85.951z M33.777,77.861c0-0.949,0.746-1.695,1.677-1.695c0.926,0,1.665,0.746,1.665,1.695
	c0,0.926-0.739,1.686-1.665,1.686C34.523,79.547,33.777,78.787,33.777,77.861z M37.515,88.301c-0.99,0.137-1.828,0.047-1.866-0.219
	c-0.044-0.266,0.732-0.605,1.717-0.762c0.996-0.141,1.83-0.043,1.875,0.215C39.276,87.799,38.507,88.137,37.515,88.301z
	 M40.622,68.635c0.188-0.223,0.94,0.039,1.683,0.613c0.749,0.561,1.205,1.22,1.02,1.453c-0.173,0.234-0.926-0.04-1.669-0.613
	C40.903,69.528,40.446,68.871,40.622,68.635z M41.781,81.35c-0.669-0.17-1.025-1.086-0.793-2.033c0.241-0.98,0.982-1.623,1.66-1.453
	c0.673,0.154,1.029,1.076,0.792,2.041C43.2,80.877,42.463,81.514,41.781,81.35z M44.503,84.111c-0.565,0.73-1.182,1.184-1.39,1.031
	c-0.199-0.154,0.088-0.873,0.646-1.6c0.563-0.707,1.183-1.17,1.389-1.018C45.345,82.688,45.063,83.396,44.503,84.111z
	 M46.373,77.859c-0.247,0.029-0.56-0.639-0.714-1.512c-0.134-0.857-0.056-1.596,0.191-1.635c0.245-0.045,0.557,0.625,0.701,1.49
	C46.691,77.078,46.613,77.807,46.373,77.859z"/>
<radialGradient id="SVGID_4_" cx="90.9409" cy="60.0156" r="15.4624" gradientTransform="matrix(0.5817 0 0 0.5824 60.4524 21.7908)" gradientUnits="userSpaceOnUse">
	<stop  offset="0" style="stop-color:#FCEE21"/>
	<stop  offset="0.2189" style="stop-color:#F9EB23"/>
	<stop  offset="0.3948" style="stop-color:#EFE22B"/>
	<stop  offset="0.5557" style="stop-color:#DED338"/>
	<stop  offset="0.7077" style="stop-color:#C6BE4A"/>
	<stop  offset="0.8534" style="stop-color:#A7A362"/>
	<stop  offset="0.9927" style="stop-color:#82827E"/>
	<stop  offset="1" style="stop-color:#808080"/>
</radialGradient>
<path fill="url(#SVGID_4_)" d="M113.351,47.744c-4.977,0-8.999,4.03-8.999,8.993c0,4.983,4.022,9.007,8.999,9.007
	c4.974,0,9.001-4.023,9.001-9.007C122.353,51.774,118.325,47.744,113.351,47.744z M115.658,51.656c0,0.529-0.611,0.975-1.374,0.975
	c-0.754,0-1.376-0.445-1.376-0.975c0-0.549,0.622-0.986,1.376-0.986C115.047,50.67,115.658,51.107,115.658,51.656z M112.108,48.552
	c0.777-0.121,1.431-0.054,1.465,0.156c0.033,0.211-0.568,0.471-1.35,0.589c-0.775,0.115-1.431,0.044-1.465-0.161
	C110.732,48.928,111.333,48.654,112.108,48.552z M105.652,59.151c-0.196,0.02-0.439-0.488-0.554-1.176
	c-0.104-0.686-0.044-1.262,0.142-1.291c0.193-0.038,0.442,0.488,0.551,1.174C105.906,58.545,105.845,59.106,105.652,59.151z
	 M106.117,53.098c-0.153-0.12,0.071-0.688,0.514-1.243c0.431-0.574,0.919-0.932,1.076-0.811c0.16,0.122-0.061,0.685-0.506,1.248
	C106.759,52.857,106.28,53.223,106.117,53.098z M106.53,55.507c0-0.752,0.494-1.353,1.117-1.353c0.615,0,1.116,0.601,1.116,1.353
	c0,0.731-0.501,1.338-1.116,1.338C107.024,56.845,106.53,56.238,106.53,55.507z M109.591,63.99
	c-0.142,0.193-0.731-0.022-1.312-0.475c-0.588-0.447-0.947-0.949-0.806-1.137c0.143-0.178,0.726,0.037,1.316,0.472
	C109.375,63.296,109.737,63.818,109.591,63.99z M111.551,63.181c-0.753,0-1.355-0.406-1.355-0.939c0-0.521,0.602-0.962,1.355-0.962
	c0.755,0,1.357,0.441,1.357,0.962C112.908,62.774,112.306,63.181,111.551,63.181z M111.606,56.845c0-0.73,0.585-1.325,1.302-1.325
	c0.732,0,1.309,0.595,1.309,1.325c0,0.724-0.577,1.32-1.309,1.32C112.191,58.165,111.606,57.568,111.606,56.845z M114.526,65.014
	c-0.769,0.12-1.427,0.043-1.461-0.169c-0.034-0.19,0.575-0.464,1.35-0.584c0.777-0.121,1.429-0.042,1.466,0.171
	C115.91,64.641,115.307,64.899,114.526,65.014z M116.959,49.625c0.148-0.175,0.739,0.039,1.322,0.48
	c0.579,0.447,0.938,0.964,0.796,1.139c-0.136,0.178-0.727-0.029-1.316-0.481C117.185,50.321,116.827,49.816,116.959,49.625z
	 M117.875,59.572c-0.527-0.125-0.809-0.831-0.627-1.59c0.186-0.767,0.769-1.261,1.297-1.137c0.529,0.127,0.8,0.845,0.62,1.609
	C118.977,59.203,118.401,59.722,117.875,59.572z M119.994,61.753c-0.436,0.564-0.92,0.931-1.083,0.808
	c-0.159-0.12,0.067-0.687,0.508-1.252c0.433-0.568,0.923-0.932,1.083-0.808C120.659,60.618,120.437,61.187,119.994,61.753z
	 M121.463,56.844c-0.194,0.031-0.442-0.488-0.554-1.175c-0.113-0.688-0.049-1.263,0.143-1.295c0.198-0.018,0.436,0.502,0.548,1.177
	C121.717,56.235,121.649,56.813,121.463,56.844z"/>
<g>
	<path stroke="#0071BC" stroke-miterlimit="10" d="M24.867,42.343l-6.153,23.053h-3.337l-2.816-11.878L9.557,65.396H6.112
		L0.226,42.343h6.112l-0.889,1.73l2.698,12.682L11.8,42.343h2.647l3.179,14.413l3.188-12.682l-0.895-1.73H24.867z"/>
	<path display="none" stroke="#0071BC" stroke-miterlimit="10" d="M33.278,41.968c5.772,0,8.662,4.029,8.662,12.084
		c0,7.949-2.839,11.926-8.503,11.926c-5.927,0-8.887-4.063-8.887-12.18C24.55,45.915,27.459,41.968,33.278,41.968z M29.261,53.74
		c0,4.879,1.38,7.319,4.129,7.319c2.559,0,3.839-2.331,3.839-7.008c0-4.778-1.347-7.169-4.028-7.169
		C30.575,46.882,29.261,49.172,29.261,53.74z"/>
	<path stroke="#0071BC" stroke-miterlimit="10" d="M47.476,42.343h9.592c3.899,0,5.846,2.345,5.846,7.034
		c0,3.841-1.159,6.186-3.475,7.035l4.166,9.183h-6.802l0.946-1.748l-2.893-6.558h-2.003v6.558l0.946,1.748h-6.321l0.899-1.582
		V43.918L47.476,42.343z M52.851,47.145v5.751h3.102c1.575,0,2.37-0.979,2.376-2.96c0-1.857-0.812-2.791-2.428-2.791H52.851z"/>
	<path stroke="#0071BC" stroke-miterlimit="10" d="M64.722,42.343h6.321l-0.889,1.75v16.697h7.216l1.324-1.427v6.23H64.722
		l0.956-1.748V44.094L64.722,42.343z"/>
	<path stroke="#0071BC" stroke-miterlimit="10" d="M80.186,65.568l0.95-1.736V44.094l-0.95-1.75h8.197
		c5.677,0,8.513,3.899,8.513,11.708c0,7.673-2.802,11.517-8.406,11.517H80.186z M85.715,60.765h2.176
		c2.834,0,4.247-2.245,4.247-6.739c0-4.569-1.445-6.853-4.348-6.853h-2.074V60.765z"/>
</g>
<g>
	<path stroke="#0071BC" stroke-miterlimit="10" d="M144.771,42.106h9.592c3.894,0,5.846,2.75,5.846,8.237
		c0,5.34-1.983,7.996-5.938,7.996h-4.118v5.271l0.939,1.753h-6.321l0.899-1.753V44.013L144.771,42.106z M150.152,46.91v7.034h3.096
		c1.581,0,2.364-1.171,2.37-3.517c0-2.344-0.8-3.517-2.421-3.517H150.152z"/>
	<path stroke="#0071BC" stroke-miterlimit="10" d="M161.69,42.106h6.429l-0.899,1.668v19.909l0.899,1.664h-6.429l0.95-1.754V43.86
		L161.69,42.106z"/>
	<path stroke="#0071BC" stroke-miterlimit="10" d="M185.074,63.725c-1.723,1.353-3.706,2.032-5.938,2.032
		c-6.128,0-9.199-4.061-9.199-12.165c0-7.813,3.037-11.71,9.086-11.71c1.541,0,3.188,0.45,4.968,1.348l1.083-1.476v7.628
		c-1.959-1.692-3.97-2.535-6.03-2.535c-2.903,0-4.343,2.346-4.343,7.025c0,4.625,1.436,6.926,4.333,6.926
		c2.754,0,4.768-0.53,6.04-1.6V63.725z"/>
	<path stroke="#0071BC" stroke-miterlimit="10" d="M192.218,56.586l-1.421,1.898v5.199l0.911,1.664h-6.429l0.949-1.754V43.86
		l-0.949-1.754h6.429l-0.911,1.668v7.712l5.602-7.626l-0.961-1.754h7.707l-7.9,10.469l7.735,12.788h-7.645l0.94-1.753
		L192.218,56.586z"/>
	<path stroke="#0071BC" stroke-miterlimit="10" d="M205.015,42.106h6.326l-0.889,1.754V60.56h7.204l1.329-1.428v6.231h-13.971
		l0.949-1.753V43.86L205.015,42.106z"/>
	<path stroke="#0071BC" stroke-miterlimit="10" d="M220.559,42.106h14.421v6.23l-1.206-1.446h-7.786v4.57h4.945l1.154-1.449v7.44
		l-1.154-1.458h-4.945v4.565h7.786l1.206-1.442v6.23h-14.421l0.95-1.754V43.86L220.559,42.106z"/>
	<path stroke="#0071BC" stroke-miterlimit="10" d="M246.099,42.106c3.906,0,5.847,2.159,5.847,6.472
		c0,2.904-0.836,4.625-2.493,5.154c1.657,0.543,2.493,2.384,2.493,5.565c0,4.042-1.94,6.065-5.847,6.065h-9.586l0.9-1.753V44.177
		l-0.9-2.07H246.099z M244.984,51.854c1.589,0,2.384-0.689,2.384-2.071c0-1.7-0.812-2.556-2.435-2.556h-3.045v4.626H244.984z
		 M241.889,55.781v4.622h3.159c1.543,0,2.32-0.725,2.32-2.188c0-1.633-0.761-2.434-2.27-2.434H241.889z"/>
	<path stroke="#0071BC" stroke-miterlimit="10" d="M256.983,42.086h5.172l7.492,23.277h-6.388l0.899-1.77l-0.685-2.387h-7.327
		l-0.798,2.387l0.898,1.77h-5.54l6.797-21.525L256.983,42.086z M257.198,56.969h5.122l-2.536-8.329L257.198,56.969z"/>
	<path stroke="#0071BC" stroke-miterlimit="10" d="M270.434,42.106h6.327l-0.89,1.754V60.56h7.204l1.33-1.428v6.231h-13.972
		l0.962-1.753V43.86L270.434,42.106z"/>
	<path stroke="#0071BC" stroke-miterlimit="10" d="M286.255,42.106h6.326l-0.889,1.754V60.56h7.205l1.328-1.428v6.231h-13.971
		l0.961-1.753V43.86L286.255,42.106z"/>
</g>
<g opacity="0.2">
	<linearGradient id="SVGID_5_" gradientUnits="userSpaceOnUse" x1="12.3208" y1="90.1055" x2="12.3208" y2="67.0518">
		<stop  offset="0" style="stop-color:#FFFFFF;stop-opacity:0"/>
		<stop  offset="1" style="stop-color:#000000"/>
	</linearGradient>
	<path fill="url(#SVGID_5_)" d="M19.694,90.105l0.895-1.73L17.4,75.692l-3.179,14.413h-2.647L7.921,75.692L5.223,88.375l0.889,1.73
		H0l5.886-23.054h3.444l3.004,11.878l2.816-11.878h3.337l6.153,23.054H19.694z"/>
	<linearGradient id="SVGID_6_" gradientUnits="userSpaceOnUse" x1="33.0195" y1="90.4805" x2="33.0195" y2="66.4707">
		<stop  offset="0" style="stop-color:#FFFFFF;stop-opacity:0"/>
		<stop  offset="1" style="stop-color:#000000"/>
	</linearGradient>
	<path display="none" fill="url(#SVGID_6_)" d="M24.324,78.65c0-8.117,2.96-12.18,8.887-12.18c5.665,0,8.503,3.977,8.503,11.926
		c0,8.055-2.89,12.084-8.662,12.084C27.233,90.48,24.324,86.533,24.324,78.65z M32.976,85.566c2.681,0,4.028-2.392,4.028-7.17
		c0-4.677-1.28-7.008-3.839-7.008c-2.749,0-4.129,2.44-4.129,7.319C29.036,83.276,30.349,85.566,32.976,85.566z"/>
	<linearGradient id="SVGID_7_" gradientUnits="userSpaceOnUse" x1="55.314" y1="90.1055" x2="55.314" y2="66.8535">
		<stop  offset="0" style="stop-color:#FFFFFF;stop-opacity:0"/>
		<stop  offset="1" style="stop-color:#000000"/>
	</linearGradient>
	<path fill="url(#SVGID_7_)" d="M48.149,88.53V68.436l-0.899-1.582h6.321l-0.946,1.748v6.558h2.003l2.893-6.558l-0.946-1.748h6.802
		l-4.166,9.183c2.316,0.849,3.475,3.193,3.475,7.034c0,4.689-1.946,7.035-5.846,7.035H47.25L48.149,88.53z M55.676,85.304
		c1.616,0,2.428-0.933,2.428-2.79c-0.007-1.982-0.802-2.961-2.376-2.961h-3.102v5.751H55.676z"/>
	<linearGradient id="SVGID_8_" gradientUnits="userSpaceOnUse" x1="71.4824" y1="90.1055" x2="71.4824" y2="66.8535">
		<stop  offset="0" style="stop-color:#FFFFFF;stop-opacity:0"/>
		<stop  offset="1" style="stop-color:#000000"/>
	</linearGradient>
	<path fill="url(#SVGID_8_)" d="M65.453,88.354V68.602l-0.956-1.748h13.972v6.23l-1.324-1.427h-7.216v16.697l0.889,1.751h-6.321
		L65.453,88.354z"/>
	<linearGradient id="SVGID_9_" gradientUnits="userSpaceOnUse" x1="88.3149" y1="90.1055" x2="88.3149" y2="66.8799">
		<stop  offset="0" style="stop-color:#FFFFFF;stop-opacity:0"/>
		<stop  offset="1" style="stop-color:#000000"/>
	</linearGradient>
	<path fill="url(#SVGID_9_)" d="M88.264,66.88c5.604,0,8.406,3.844,8.406,11.517c0,7.81-2.836,11.709-8.513,11.709H79.96l0.95-1.751
		V68.616l-0.95-1.736H88.264z M85.49,85.275h2.074c2.903,0,4.348-2.283,4.348-6.853c0-4.494-1.412-6.739-4.247-6.739H85.49V85.275z"
		/>
</g>
<g opacity="0.2">
	<linearGradient id="SVGID_10_" gradientUnits="userSpaceOnUse" x1="152.2637" y1="90.3418" x2="152.2637" y2="67.085">
		<stop  offset="0" style="stop-color:#FFFFFF;stop-opacity:0"/>
		<stop  offset="1" style="stop-color:#000000"/>
	</linearGradient>
	<path fill="url(#SVGID_10_)" d="M145.444,88.436V68.838l-0.899-1.753h6.321l-0.939,1.753v5.271h4.118
		c3.954,0,5.938,2.655,5.938,7.996c0,5.486-1.952,8.236-5.846,8.236h-9.592L145.444,88.436z M152.972,85.538
		c1.621,0,2.421-1.173,2.421-3.517c-0.006-2.347-0.789-3.518-2.37-3.518h-3.096v7.034H152.972z"/>
	<linearGradient id="SVGID_11_" gradientUnits="userSpaceOnUse" x1="164.6797" y1="90.3418" x2="164.6797" y2="67.1006">
		<stop  offset="0" style="stop-color:#FFFFFF;stop-opacity:0"/>
		<stop  offset="1" style="stop-color:#000000"/>
	</linearGradient>
	<path fill="url(#SVGID_11_)" d="M162.415,88.588V68.854l-0.95-1.754h6.429l-0.899,1.664v19.909l0.899,1.668h-6.429L162.415,88.588z
		"/>
	<linearGradient id="SVGID_12_" gradientUnits="userSpaceOnUse" x1="177.2803" y1="90.6943" x2="177.2803" y2="66.6914">
		<stop  offset="0" style="stop-color:#FFFFFF;stop-opacity:0"/>
		<stop  offset="1" style="stop-color:#000000"/>
	</linearGradient>
	<path fill="url(#SVGID_12_)" d="M184.849,73.249c-1.272-1.069-3.286-1.6-6.04-1.6c-2.897,0-4.333,2.301-4.333,6.926
		c0,4.679,1.439,7.025,4.343,7.025c2.061,0,4.071-0.843,6.03-2.534v7.628l-1.083-1.476c-1.779,0.897-3.427,1.348-4.968,1.348
		c-6.049,0-9.086-3.897-9.086-11.71c0-8.104,3.071-12.165,9.199-12.165c2.231,0,4.215,0.68,5.938,2.032V73.249z"/>
	<linearGradient id="SVGID_13_" gradientUnits="userSpaceOnUse" x1="193.9863" y1="90.3418" x2="193.9863" y2="67.085">
		<stop  offset="0" style="stop-color:#FFFFFF;stop-opacity:0"/>
		<stop  offset="1" style="stop-color:#000000"/>
	</linearGradient>
	<path fill="url(#SVGID_13_)" d="M196.05,68.838l-0.94-1.753h7.645l-7.735,12.788l7.9,10.469h-7.707l0.961-1.754l-5.602-7.626v7.712
		l0.911,1.668h-6.429l0.949-1.754V68.854l-0.949-1.754h6.429l-0.911,1.664v5.199l1.421,1.898L196.05,68.838z"/>
	<linearGradient id="SVGID_14_" gradientUnits="userSpaceOnUse" x1="211.7744" y1="90.3418" x2="211.7744" y2="67.085">
		<stop  offset="0" style="stop-color:#FFFFFF;stop-opacity:0"/>
		<stop  offset="1" style="stop-color:#000000"/>
	</linearGradient>
	<path fill="url(#SVGID_14_)" d="M205.738,88.588v-19.75l-0.949-1.753h13.971v6.231l-1.329-1.428h-7.204v16.699l0.889,1.754h-6.326
		L205.738,88.588z"/>
	<linearGradient id="SVGID_15_" gradientUnits="userSpaceOnUse" x1="227.543" y1="90.3418" x2="227.543" y2="67.1006">
		<stop  offset="0" style="stop-color:#FFFFFF;stop-opacity:0"/>
		<stop  offset="1" style="stop-color:#000000"/>
	</linearGradient>
	<path fill="url(#SVGID_15_)" d="M221.283,88.588V68.854l-0.95-1.754h14.421v6.23l-1.206-1.442h-7.786v4.565h4.945l1.154-1.458
		v7.439l-1.154-1.448h-4.945v4.57h7.786l1.206-1.446v6.23h-14.421L221.283,88.588z"/>
	<linearGradient id="SVGID_16_" gradientUnits="userSpaceOnUse" x1="244.0039" y1="90.3418" x2="244.0039" y2="67.085">
		<stop  offset="0" style="stop-color:#FFFFFF;stop-opacity:0"/>
		<stop  offset="1" style="stop-color:#000000"/>
	</linearGradient>
	<path fill="url(#SVGID_16_)" d="M236.287,90.342l0.9-2.07V68.838l-0.9-1.753h9.586c3.906,0,5.847,2.023,5.847,6.065
		c0,3.182-0.836,5.022-2.493,5.565c1.657,0.528,2.493,2.25,2.493,5.153c0,4.314-1.94,6.473-5.847,6.473H236.287z M241.663,80.594
		v4.627h3.045c1.623,0,2.435-0.855,2.435-2.557c0-1.381-0.795-2.07-2.384-2.07H241.663z M244.873,76.667
		c1.509,0,2.27-0.801,2.27-2.434c0-1.464-0.777-2.188-2.32-2.188h-3.159v4.622H244.873z"/>
	<linearGradient id="SVGID_17_" gradientUnits="userSpaceOnUse" x1="259.9521" y1="90.3623" x2="259.9521" y2="67.085">
		<stop  offset="0" style="stop-color:#FFFFFF;stop-opacity:0"/>
		<stop  offset="1" style="stop-color:#000000"/>
	</linearGradient>
	<path fill="url(#SVGID_17_)" d="M257.279,88.61l-6.797-21.525h5.54l-0.898,1.77l0.798,2.387h7.327l0.685-2.387l-0.899-1.77h6.388
		l-7.492,23.277h-5.172L257.279,88.61z M259.559,83.809l2.536-8.329h-5.122L259.559,83.809z"/>
	<linearGradient id="SVGID_18_" gradientUnits="userSpaceOnUse" x1="277.1934" y1="90.3418" x2="277.1934" y2="67.085">
		<stop  offset="0" style="stop-color:#FFFFFF;stop-opacity:0"/>
		<stop  offset="1" style="stop-color:#000000"/>
	</linearGradient>
	<path fill="url(#SVGID_18_)" d="M271.17,88.588v-19.75l-0.962-1.753h13.972v6.231l-1.33-1.428h-7.204v16.699l0.89,1.754h-6.327
		L271.17,88.588z"/>
	<linearGradient id="SVGID_19_" gradientUnits="userSpaceOnUse" x1="293.0146" y1="90.3418" x2="293.0146" y2="67.085">
		<stop  offset="0" style="stop-color:#FFFFFF;stop-opacity:0"/>
		<stop  offset="1" style="stop-color:#000000"/>
	</linearGradient>
	<path fill="url(#SVGID_19_)" d="M286.99,88.588v-19.75l-0.961-1.753H300v6.231l-1.328-1.428h-7.205v16.699l0.889,1.754h-6.326
		L286.99,88.588z"/>
</g>
</svg>
