<?xml version="1.0" encoding="utf-8"?>
<!-- Generator: Adobe Illustrator 15.1.0, SVG Export Plug-In . SVG Version: 6.00 Build 0)  -->
<!DOCTYPE svg PUBLIC "-//W3C//DTD SVG 1.1//EN" "http://www.w3.org/Graphics/SVG/1.1/DTD/svg11.dtd">
<svg version="1.1" id="Layer_1" xmlns="http://www.w3.org/2000/svg" xmlns:xlink="http://www.w3.org/1999/xlink" x="0px" y="0px"
	 width="260px" height="50px" viewBox="0 0 260 50" enable-background="new 0 0 260 50" xml:space="preserve">
<g>
	<g>
		
			<radialGradient id="SVGID_1_" cx="35.4009" cy="21.9248" r="24.233" gradientTransform="matrix(1 0 0 1 -0.7588 0.2837)" gradientUnits="userSpaceOnUse">
			<stop  offset="0" style="stop-color:#FFFFFF"/>
			<stop  offset="0.0202" style="stop-color:#EEEEF4"/>
			<stop  offset="0.0796" style="stop-color:#C2C1D6"/>
			<stop  offset="0.1447" style="stop-color:#9A97BB"/>
			<stop  offset="0.2142" style="stop-color:#7874A3"/>
			<stop  offset="0.2892" style="stop-color:#5B568F"/>
			<stop  offset="0.3716" style="stop-color:#433E7F"/>
			<stop  offset="0.4642" style="stop-color:#312B73"/>
			<stop  offset="0.5732" style="stop-color:#251E6A"/>
			<stop  offset="0.7139" style="stop-color:#1D1665"/>
			<stop  offset="1" style="stop-color:#1B1464"/>
		</radialGradient>
		<path fill="url(#SVGID_1_)" d="M60.692,14.723c-0.035-1.07-0.099-2.141-0.243-3.202c-0.089-0.626-0.18-1.316-0.502-1.877
			c-0.446-0.78-1.706-1.065-2.507-1.278c-1.587-0.42-3.236-0.631-4.864-0.822c-2.019-0.237-4.045-0.376-6.07-0.54
			c-0.543-1.191-0.113-2.79,0.021-3.996c0.101-0.909-0.019-1.79-0.823-2.359C44.975,0.13,44.038,0.029,43.163,0
			c-2.5-0.083-5.083,0.188-7.432,1.061c-2.297,0.854-4.171,2.263-5.647,4.181C29.894,5.489,29.714,5.743,29.543,6
			c-0.77-0.112-1.56-0.125-2.335-0.166c-0.584-0.03-1.168-0.057-1.754-0.082c-0.008-0.041-0.021-0.081-0.042-0.118
			c0.307-1.007,0.571-2.2-0.664-2.687C23.96,2.636,23,2.658,22.165,2.669c-1.006,0.015-2.107,0.086-3.047,0.473
			c-0.363,0.149-0.724,0.356-0.914,0.708c-0.284,0.522-0.02,1.179,0.042,1.744c-0.817-0.001-1.704-0.027-2.487,0.18
			c-2.021,0.536-3.764,2.047-5.013,3.637c-0.78,0.992-1.426,2.162-1.584,3.418c-0.261,2.087-0.333,4.207-0.43,6.306
			c-0.133,2.911-0.216,5.828-0.165,8.742c0.019,1.147,0.058,2.297,0.181,3.438c0.065,0.604,0.088,1.585,0.536,2.07
			c0.605,0.659,1.513,1.105,2.426,1.121c0.029,0.001,0.055-0.001,0.082-0.005c0.174,0.686,0.383,1.357,0.614,2.003
			c0.933,2.604,2.508,5.066,4.948,6.542c2.962,1.79,6.977,1.72,10.145,0.504c1.331-0.509,2.526-1.27,3.541-2.224
			c2.583-2.604,3.263-6.277,3.263-6.277s-0.842,2.096-3.064,4.86c-2.168,2.57-5.42,3.667-8.757,3.659
			c-3.154-0.007-5.879-1.522-7.631-4.063c-1.422-2.061-2.196-4.53-2.56-6.977c-0.233-1.557-0.156-3.107,0.111-4.657
			c0.393-2.276,1.181-4.592,2.686-6.402c0.839-1.008,1.894-1.8,3.109-2.321c1.478-0.636,3.145-0.755,4.736-0.634
			c3.168,0.241,6.617,1.267,8.578,3.879c1.896,2.856,2.777,5.497,2.777,5.497s-0.21-1.26-0.335-1.882
			c-0.191-0.945-0.489-1.864-0.912-2.732c-1.239-2.526-3.646-4.125-6.329-4.922c-2.719-0.81-5.865-1.08-8.564-0.073
			c0.325-0.842,0.476-1.729,0.51-2.648c0.026-0.686,0.012-1.374-0.189-2.036c-0.184-0.599-0.306-1.195-0.737-1.729
			c0.253,1.423,0.089,2.972,0.08,3.628c-0.017,1.173-0.259,2.297-0.856,3.322c-0.003,0.005-0.005,0.01-0.007,0.015
			c-0.093,0.051-0.186,0.105-0.277,0.16c-2.222,1.347-3.614,3.628-4.423,6.006c-0.608,1.787-0.928,3.706-0.961,5.588
			c-0.018,1.017,0.102,2.059,0.313,3.083c-0.611-0.042-1.202-0.355-1.625-0.772c-0.032-0.033-0.053-0.066-0.072-0.103
			c0.012,0.021-0.04-0.102-0.049-0.127c-0.051-0.149-0.086-0.303-0.119-0.458c-0.189-0.899-0.229-1.867-0.273-2.811
			c-0.125-2.837-0.053-5.685,0.049-8.52c0.087-2.423,0.2-4.852,0.42-7.266c0.016-0.169,0.033-0.339,0.051-0.508
			c0.006-0.07,0.015-0.142,0.024-0.211c0.002-0.022,0.014-0.105,0.019-0.146c0.062-0.414,0.213-0.808,0.386-1.188
			c0.891-1.947,2.595-3.612,4.526-4.575c1.026-0.512,1.824-0.525,2.96-0.549c1.42-0.03,2.844,0,4.264,0.036
			c2.292,0.06,4.612,0.093,6.897,0.309c-1.133,1.954-2.863,6.131-2.863,6.131S28.748,8.758,30.1,6.68
			c1.099-1.689,2.493-3.126,4.286-4.106c2.237-1.222,4.797-1.656,7.33-1.734c0.966-0.031,1.992-0.079,2.925,0.204
			c0.208,0.063,0.399,0.155,0.563,0.28c-1.688,0.441-3.01,1.955-3.539,3.547c-0.606,1.818,0.359,3.475,1.557,4.799
			c0.618,0.684,1.296,1.313,1.903,2.009c0.585,0.674,0.972,1.417,1.24,2.26c0.535,1.672,1.602,6.5,1.602,6.5
			s0.004-6.611-2.102-9.185c-1.113-1.363-2.759-2.476-3.362-4.18c-0.665-1.873,0.707-3.93,2.394-4.766
			c0.249-0.125,0.527-0.206,0.808-0.249c0.063,0.346-0.01,0.762-0.042,1.066c-0.115,1.016-0.317,1.962-0.216,2.992
			c0.079,0.819,0.355,1.569,0.944,2.168c0.774,0.784,1.941,1.191,2.93,1.631c1.305,0.577,4.059,1.329,4.059,1.329
			s-4.296-1.636-6.165-3.354c2.745,0.215,5.494,0.413,8.209,0.893c1.192,0.21,2.606,0.416,3.625,1.108
			c0.149,0.103,0.199,0.212,0.255,0.361c0.11,0.294,0.176,0.606,0.234,0.914c0.402,2.172,0.359,4.522,0.334,6.748
			c-0.035,3.001-0.21,6.004-0.521,8.99c-0.255,2.481-0.564,5.015-1.292,7.411c-0.113,0.381-0.267,0.809-0.412,1.121
			c-0.067,0.146-0.143,0.288-0.224,0.427c-0.037,0.061-0.075,0.119-0.116,0.177c-0.079,0.113-0.008,0.021-0.116,0.137
			c-0.568,0.621-1.543,0.928-2.378,1.158c-0.129,0.036-0.26,0.07-0.39,0.104c0.132-0.753,0.139-1.548,0.166-2.297
			c0.056-1.49,0.044-2.983,0.006-4.475c-0.04-1.558-0.116-3.113-0.247-4.668c-0.099-1.135-0.711-4.042-0.711-4.042
			s0.92,7.493-0.078,15.454c-0.013,0.079-0.03,0.158-0.047,0.237c-2.31,0.476-4.725,0.582-7.06,0.66
			c-2.432,0.082-4.863,0.065-7.29-0.022c-0.021,0-0.041-0.002-0.06-0.002c1.762-1.528,3.428-3.198,5.006-4.894
			c0.804-0.86,1.733-1.788,2.241-2.857c0.268-0.554,0.356-1.208,0.441-1.812c0.104-0.789,0.119-1.581,0.056-2.374
			c-0.166-2.068-0.889-4.049-1.855-5.883c-1.018-1.931-2.34-3.643-4.113-4.963c-1.322-0.983-2.804-1.718-4.36-2.273
			c-0.537-0.192-1.084-0.357-1.633-0.514c-0.38-0.109-0.747-0.235-1.147-0.255c-0.727-0.037-1.477,0.106-2.188,0.232
			c-1.018,0.178-2.029,0.414-3.031,0.662c-2.086,0.515-6.81,2.073-6.81,2.073s2.843,0.096,5.78,0.709
			c2.118,0.443,4.251,1.235,5.563,2.08c1.607,1.034,2.907,2.467,3.976,4.021c1.074,1.566,1.667,3.335,1.962,5.191
			c0.373,2.325,0.261,4.752-0.131,7.067c-0.147,0.888-0.346,1.771-0.613,2.631c-0.085,0.27-1.615,1.997-1.615,1.997
			s10.18,0.179,14.475-0.293c1.323-0.144,2.652-0.341,3.938-0.691c0.929-0.253,1.909-0.601,2.633-1.251
			c0.552-0.5,0.834-1.254,1.068-1.935c0.352-1.01,0.574-2.063,0.771-3.11c0.53-2.822,0.806-5.696,0.995-8.558
			C60.696,20.438,60.789,17.576,60.692,14.723 M19.099,5.594c-0.02-0.271-0.066-0.54-0.115-0.81c-0.03-0.157-0.04-0.311-0.046-0.471
			c-0.002-0.022,0.004-0.046,0.004-0.048c0.079-0.167,0.319-0.29,0.526-0.37c0.789-0.304,1.683-0.361,2.52-0.388
			c0.731-0.024,1.508-0.026,2.227,0.14c1.031,0.24,0.531,1.349,0.286,2.068c-0.531-0.021-1.061-0.039-1.59-0.055
			C21.64,5.621,20.371,5.594,19.099,5.594 M39.668,26.434c-0.379-1.874-1.148-3.577-2.276-5.133c-1.63-2.25-3.765-4.033-6.397-5.052
			c-1.86-0.721-3.86-1.018-5.864-1.119c0.897-0.258,1.797-0.504,2.7-0.74c1.643-0.427,3.317-0.864,5.009-1.051
			c0.451-0.05,0.899-0.089,1.281,0.027c0.434,0.133,0.875,0.25,1.311,0.384c1.445,0.446,2.833,1.046,4.106,1.848
			c1.804,1.133,3.191,2.673,4.262,4.478c1.105,1.858,1.943,3.919,2.176,6.068c0.086,0.8,0.079,1.608-0.018,2.406
			c-0.06,0.524-0.18,1.245-0.381,1.647c-0.543,1.08-1.505,2.009-2.33,2.883c-1.308,1.387-2.674,2.762-4.104,4.048
			c0.052-0.204,0.101-0.402,0.151-0.588c0.39-1.506,0.608-3.06,0.709-4.607C40.122,30.095,40.033,28.242,39.668,26.434"/>
		
			<radialGradient id="SVGID_2_" cx="25.7373" cy="30.7354" r="8.169" gradientTransform="matrix(1.0213 0 0 1 -3.5006 0.2837)" gradientUnits="userSpaceOnUse">
			<stop  offset="0" style="stop-color:#FFFFFF"/>
			<stop  offset="0.0202" style="stop-color:#EEEEF4"/>
			<stop  offset="0.0796" style="stop-color:#C2C1D6"/>
			<stop  offset="0.1447" style="stop-color:#9A97BB"/>
			<stop  offset="0.2142" style="stop-color:#7874A3"/>
			<stop  offset="0.2892" style="stop-color:#5B568F"/>
			<stop  offset="0.3716" style="stop-color:#433E7F"/>
			<stop  offset="0.4642" style="stop-color:#312B73"/>
			<stop  offset="0.5732" style="stop-color:#251E6A"/>
			<stop  offset="0.7139" style="stop-color:#1D1665"/>
			<stop  offset="1" style="stop-color:#1B1464"/>
		</radialGradient>
		<path fill="url(#SVGID_2_)" d="M26.857,37.928c-1.107,0.891-2.566,1.147-3.961,1.075c-1.648-0.089-3.439-0.522-4.745-1.558
			c-2.311-2.289-2.958-4.354-2.958-4.354s0.111,2.669,2.357,4.942c1.368,1.115,3.132,1.568,4.867,1.761
			c1.584,0.174,3.226-0.065,4.573-0.938c2.103-1.364,3-3.881,3.318-6.223c0.257-1.903-0.068-3.838-0.782-5.62
			c-0.516-1.285-1.275-2.498-2.366-3.39c-1.286-1.054-2.892-1.472-4.549-1.432c-1.744,0.043-3.422,0.566-4.798,1.621
			c-2.575,2.157-2.635,4.592-2.635,4.592s1.254-3.354,4.717-4.843c1.624-0.654,3.602-0.763,5.254-0.157
			c1.342,0.491,2.351,1.57,3.039,2.767c0.982,1.707,1.494,3.827,1.343,5.787C29.361,34.132,28.633,36.498,26.857,37.928"/>
	</g>
	<g>
		<defs>
			<path id="SVGID_3_" d="M0.019,47.456c0,1.397,15.501,2.529,34.624,2.529c19.121,0,34.623-1.132,34.623-2.529
				c0-1.396-15.501-2.526-34.623-2.526C15.52,44.93,0.019,46.061,0.019,47.456"/>
		</defs>
		<clipPath id="SVGID_4_">
			<use xlink:href="#SVGID_3_"  overflow="visible"/>
		</clipPath>
		<defs>
			<filter id="Adobe_OpacityMaskFilter" filterUnits="userSpaceOnUse" x="0.019" y="44.93" width="69.247" height="5.056">
				<feColorMatrix  type="matrix" values="1 0 0 0 0  0 1 0 0 0  0 0 1 0 0  0 0 0 1 0"/>
			</filter>
		</defs>
		<mask maskUnits="userSpaceOnUse" x="0.019" y="44.93" width="69.247" height="5.056" id="SVGID_5_">
			<g filter="url(#Adobe_OpacityMaskFilter)">
				
					<radialGradient id="SVGID_6_" cx="-269.3633" cy="437.0508" r="0.1143" gradientTransform="matrix(264.8933 0 0 -15.8314 71386.9766 6966.5688)" gradientUnits="userSpaceOnUse">
					<stop  offset="0" style="stop-color:#FFFFFF"/>
					<stop  offset="1" style="stop-color:#000000"/>
				</radialGradient>
				<rect x="0.019" y="44.93" clip-path="url(#SVGID_4_)" fill="url(#SVGID_6_)" width="69.247" height="5.056"/>
			</g>
		</mask>
		
			<radialGradient id="SVGID_7_" cx="-269.3623" cy="437.0508" r="0.1148" gradientTransform="matrix(264.8933 0 0 -15.8314 71386.7266 6966.5845)" gradientUnits="userSpaceOnUse">
			<stop  offset="0" style="stop-color:#9A9A99"/>
			<stop  offset="1" style="stop-color:#FFFFFF"/>
		</radialGradient>
		
			<rect x="0.019" y="44.93" clip-path="url(#SVGID_4_)" mask="url(#SVGID_5_)" fill="url(#SVGID_7_)" width="69.247" height="5.056"/>
	</g>
</g>
<g>
	<path fill="#44447F" d="M87.908,7.208h1.94v17.946c0,1.115-0.281,2.161-0.843,3.137c-0.568,0.978-1.329,1.747-2.295,2.323
		c-0.967,0.567-2.002,0.85-3.105,0.85c-1.104,0-2.139-0.282-3.105-0.85c-0.967-0.576-1.729-1.346-2.297-2.323
		c-0.563-0.977-0.843-2.022-0.843-3.137V7.208h1.94v17.946c0,1.115,0.407,2.124,1.216,3.017c0.809,0.889,1.84,1.334,3.089,1.334
		c1.13,0,2.131-0.402,3.001-1.214c0.871-0.809,1.302-1.855,1.302-3.137V7.208z"/>
	<path fill="#44447F" d="M99.587,31.895c-2.255,0-4.146-0.852-5.682-2.569v11.848h-1.939V16.874l2.117,2.002
		c1.529-1.594,3.366-2.391,5.504-2.391c2.118,0,3.921,0.75,5.402,2.246c1.479,1.497,2.227,3.318,2.227,5.459
		c0,2.093-0.747,3.901-2.227,5.426C103.508,31.133,101.705,31.895,99.587,31.895z M99.587,29.935c1.604,0,2.953-0.551,4.042-1.66
		c1.096-1.108,1.64-2.47,1.64-4.084c0-1.615-0.544-2.982-1.64-4.085c-1.089-1.108-2.438-1.659-4.042-1.659
		c-1.576,0-2.913,0.561-4.023,1.677c-1.103,1.117-1.659,2.474-1.659,4.067s0.556,2.951,1.659,4.067
		C96.674,29.373,98.011,29.935,99.587,29.935z"/>
	<path fill="#44447F" d="M108.799,31.464V7.208h1.939v24.256H108.799z"/>
	<path fill="#44447F" d="M119.951,16.485c2.118,0,3.92,0.75,5.401,2.246c1.481,1.497,2.227,3.318,2.227,5.459
		c0,2.093-0.745,3.901-2.227,5.426c-1.48,1.517-3.283,2.278-5.401,2.278c-2.069,0-3.858-0.762-5.359-2.278
		c-1.509-1.524-2.263-3.333-2.263-5.426c0-2.141,0.754-3.962,2.263-5.459C116.092,17.234,117.881,16.485,119.951,16.485z
		 M119.951,18.446c-1.597,0-2.943,0.551-4.04,1.659c-1.091,1.103-1.642,2.47-1.642,4.085c0,1.614,0.551,2.976,1.642,4.084
		c1.097,1.109,2.443,1.66,4.04,1.66c1.577,0,2.92-0.562,4.024-1.677c1.11-1.116,1.659-2.474,1.659-4.067s-0.549-2.951-1.659-4.067
		C122.871,19.007,121.528,18.446,119.951,18.446z"/>
	<path fill="#44447F" d="M141.76,29.505c-1.528,1.594-3.358,2.39-5.504,2.39c-2.07,0-3.859-0.762-5.36-2.278
		c-1.507-1.524-2.261-3.333-2.261-5.426c0-2.141,0.754-3.962,2.261-5.459c1.5-1.497,3.29-2.246,5.36-2.246
		c2.146,0,3.976,0.797,5.504,2.391l2.118-2.002v14.59L141.76,29.505z M136.256,18.446c-1.597,0-2.943,0.551-4.04,1.659
		c-1.096,1.103-1.641,2.47-1.641,4.085c0,1.614,0.545,2.976,1.641,4.084c1.097,1.109,2.443,1.66,4.04,1.66
		c1.576,0,2.921-0.562,4.023-1.677c1.104-1.116,1.658-2.474,1.658-4.067s-0.555-2.951-1.658-4.067
		C139.177,19.007,137.832,18.446,136.256,18.446z"/>
	<path fill="#44447F" d="M153.089,16.485c2.264,0,4.155,0.854,5.684,2.564V7.208h1.939v24.256l-2.117-1.959
		c-1.528,1.594-3.359,2.39-5.506,2.39c-2.068,0-3.857-0.762-5.359-2.278c-1.509-1.524-2.262-3.333-2.262-5.426
		c0-2.141,0.753-3.962,2.262-5.459C149.231,17.234,151.021,16.485,153.089,16.485z M153.089,18.446
		c-1.596,0-2.942,0.551-4.038,1.659c-1.091,1.103-1.644,2.47-1.644,4.085c0,1.614,0.553,2.976,1.644,4.084
		c1.096,1.109,2.442,1.66,4.038,1.66c1.578,0,2.922-0.562,4.024-1.677c1.104-1.116,1.659-2.474,1.659-4.067
		s-0.556-2.951-1.659-4.067C156.011,19.007,154.667,18.446,153.089,18.446z"/>
	<path fill="#44447F" d="M176.243,31.464V7.208h1.939v24.256H176.243z"/>
	<path fill="#44447F" d="M200.808,31.464h-1.945v-9.311c0-1.115-0.364-2.012-1.09-2.692c-0.734-0.679-1.59-1.015-2.579-1.015
		c-0.967,0-1.817,0.336-2.558,1.015c-0.741,0.68-1.116,1.577-1.116,2.692v9.311h-1.938v-9.311c0-1.115-0.363-2.012-1.09-2.692
		c-0.734-0.679-1.59-1.015-2.577-1.015c-0.967,0-1.821,0.336-2.562,1.015c-0.74,0.68-1.112,1.577-1.112,2.692v9.311h-1.939v-14.59
		l1.623,1.289c1.104-1.122,2.434-1.677,3.99-1.677c0.938,0,1.83,0.223,2.681,0.681c0.848,0.449,1.507,1.046,1.974,1.779
		c1.131-1.641,2.672-2.46,4.625-2.46c0.823,0,1.575,0.154,2.239,0.465c0.672,0.306,1.246,0.704,1.734,1.195
		c0.479,0.485,0.873,1.068,1.181,1.747c0.302,0.679,0.46,1.431,0.46,2.262V31.464z"/>
	<path fill="#44447F" d="M215.522,29.505c-1.535,1.594-3.364,2.39-5.51,2.39c-2.07,0-3.859-0.762-5.359-2.278
		c-1.509-1.524-2.263-3.333-2.263-5.426c0-2.141,0.754-3.962,2.263-5.459c1.5-1.497,3.289-2.246,5.359-2.246
		c2.146,0,3.975,0.797,5.51,2.391l2.119-2.002v14.59L215.522,29.505z M210.013,18.446c-1.597,0-2.942,0.551-4.04,1.659
		c-1.091,1.103-1.642,2.47-1.642,4.085c0,1.614,0.551,2.976,1.642,4.084c1.098,1.109,2.443,1.66,4.04,1.66
		c1.575,0,2.919-0.562,4.023-1.677c1.109-1.116,1.657-2.474,1.657-4.067s-0.548-2.951-1.657-4.067
		C212.932,19.007,211.588,18.446,210.013,18.446z"/>
	<path fill="#44447F" d="M222.014,36.925c1.131,1.547,2.694,2.321,4.695,2.321c1.599,0,2.972-0.558,4.11-1.659
		c1.143-1.108,1.709-2.518,1.709-4.229v-4.032c-1.528,1.718-3.42,2.569-5.683,2.569c-2.068,0-3.857-0.762-5.359-2.278
		c-1.509-1.524-2.263-3.333-2.263-5.426c0-2.141,0.754-3.962,2.263-5.459c1.502-1.497,3.291-2.246,5.359-2.246
		c2.146,0,3.982,0.797,5.51,2.391l2.119-2.002v16.484c0,2.188-0.769,4.045-2.296,5.563c-1.53,1.523-3.352,2.287-5.47,2.287
		c-2.542,0-4.601-1.024-6.177-3.069L222.014,36.925z M226.846,18.446c-1.597,0-2.942,0.551-4.039,1.659
		c-1.092,1.103-1.644,2.47-1.644,4.085c0,1.614,0.552,2.976,1.644,4.084c1.097,1.109,2.442,1.66,4.039,1.66
		c1.577,0,2.92-0.562,4.024-1.677c1.109-1.116,1.658-2.474,1.658-4.067s-0.549-2.951-1.658-4.067
		C229.766,19.007,228.423,18.446,226.846,18.446z"/>
	<path fill="#44447F" d="M248.695,26.866l1.694,0.963c-0.638,1.212-1.557,2.192-2.755,2.941c-1.2,0.752-2.516,1.124-3.955,1.124
		c-2.071,0-3.853-0.762-5.359-2.278c-1.509-1.524-2.263-3.333-2.263-5.426c0-2.141,0.754-3.962,2.263-5.459
		c1.507-1.497,3.288-2.246,5.359-2.246c1.321,0,2.56,0.333,3.725,0.999c1.166,0.665,2.066,1.51,2.703,2.536l-9.849,8.772
		c0.987,0.762,2.133,1.144,3.421,1.144c1.083,0,2.065-0.276,2.95-0.824C247.515,28.569,248.203,27.814,248.695,26.866z
		 M238.951,27.398l8.437-7.56c-1.057-0.928-2.297-1.392-3.708-1.392c-1.597,0-2.943,0.551-4.04,1.659
		c-1.092,1.103-1.642,2.47-1.642,4.085C237.998,25.355,238.32,26.428,238.951,27.398z"/>
	<path fill="#44447F" d="M253.172,28.362c0.474,0.954,1.247,1.428,2.33,1.428c0.733,0,1.343-0.25,1.837-0.749s0.74-1.117,0.74-1.857
		c0-0.589-0.168-1.119-0.51-1.584c-0.344-0.464-0.772-0.765-1.287-0.911l-1.698-0.499c-0.844-0.264-1.529-0.731-2.043-1.41
		c-0.521-0.68-0.774-1.444-0.774-2.303c0-1.067,0.367-1.979,1.107-2.727s1.641-1.126,2.703-1.126c0.748,0,1.45,0.216,2.102,0.646
		c0.644,0.429,1.106,0.997,1.388,1.71l-1.762,0.749c-0.281-0.763-0.858-1.137-1.728-1.137c-0.541,0-0.993,0.188-1.343,0.568
		c-0.35,0.381-0.527,0.819-0.527,1.317c0,0.956,0.458,1.559,1.378,1.821l1.693,0.5c0.958,0.262,1.743,0.796,2.347,1.606
		c0.596,0.811,0.895,1.734,0.895,2.779c0,0.858-0.199,1.636-0.598,2.321c-0.402,0.693-0.938,1.24-1.623,1.643
		c-0.685,0.401-1.447,0.61-2.297,0.61c-0.844,0-1.617-0.227-2.33-0.664c-0.699-0.441-1.269-1.041-1.692-1.805L253.172,28.362z"/>
</g>
</svg>
