<?xml version="1.0" encoding="utf-8"?>
<!-- Generator: Adobe Illustrator 15.1.0, SVG Export Plug-In . SVG Version: 6.00 Build 0)  -->
<!DOCTYPE svg PUBLIC "-//W3C//DTD SVG 1.1//EN" "http://www.w3.org/Graphics/SVG/1.1/DTD/svg11.dtd">
<svg version="1.1" id="Layer_1" xmlns="http://www.w3.org/2000/svg" xmlns:xlink="http://www.w3.org/1999/xlink" x="0px" y="0px"
	 width="100px" height="120px" viewBox="0 0 100 120" enable-background="new 0 0 100 120" xml:space="preserve">
<rect x="0.002" fill="#FFFFFF" width="99.993" height="120"/>
<g>
	<g>
		
			<radialGradient id="SVGID_1_" cx="50.002" cy="26.3164" r="24.4459" gradientTransform="matrix(1 0 0 1 -6.079674e-004 0)" gradientUnits="userSpaceOnUse">
			<stop  offset="0" style="stop-color:#859398"/>
			<stop  offset="1" style="stop-color:#283048"/>
		</radialGradient>
		<path fill="url(#SVGID_1_)" d="M50.003,52.633c12.384,0,22.419-11.783,22.419-26.32C72.422,6.16,62.387,0,50.003,0
			S27.582,6.16,27.582,26.313C27.582,40.85,37.619,52.633,50.003,52.633z"/>
		
			<radialGradient id="SVGID_2_" cx="50.0024" cy="76.5654" r="38.8493" gradientTransform="matrix(1 0 0 1 -6.079674e-004 0)" gradientUnits="userSpaceOnUse">
			<stop  offset="0" style="stop-color:#859398"/>
			<stop  offset="1" style="stop-color:#283048"/>
		</radialGradient>
		<path fill="url(#SVGID_2_)" d="M99.515,91.363L88.199,65.811c-0.518-1.168-1.424-2.139-2.557-2.727l-17.555-9.166
			c-0.387-0.199-0.855-0.158-1.207,0.102c-4.957,3.768-10.797,5.758-16.878,5.758s-11.917-1.99-16.881-5.758
			c-0.352-0.26-0.818-0.301-1.206-0.102L14.36,63.084c-1.133,0.588-2.037,1.559-2.557,2.727L0.492,91.363
			c-0.782,1.762-0.62,3.779,0.428,5.393c1.048,1.615,2.817,2.582,4.742,2.582h88.683c1.922,0,3.695-0.967,4.74-2.582
			C100.135,95.143,100.291,93.125,99.515,91.363z"/>
	</g>
</g>
<g>
	<radialGradient id="SVGID_3_" cx="33.6982" cy="112.7451" r="3.2439" gradientUnits="userSpaceOnUse">
		<stop  offset="0" style="stop-color:#859398"/>
		<stop  offset="1" style="stop-color:#283048"/>
	</radialGradient>
	<path fill="url(#SVGID_3_)" d="M36.519,109.127v4.619c0,0.527-0.113,0.989-0.338,1.385s-0.552,0.699-0.978,0.913
		c-0.427,0.213-0.937,0.319-1.531,0.319c-0.882,0-1.569-0.234-2.059-0.703s-0.735-1.113-0.735-1.934v-4.6h1.168v4.517
		c0,0.589,0.136,1.023,0.409,1.304s0.691,0.42,1.256,0.42c1.097,0,1.645-0.578,1.645-1.733v-4.507H36.519z"/>
	<radialGradient id="SVGID_4_" cx="40.6572" cy="114.7178" r="3.2835" gradientUnits="userSpaceOnUse">
		<stop  offset="0" style="stop-color:#859398"/>
		<stop  offset="1" style="stop-color:#283048"/>
	</radialGradient>
	<path fill="url(#SVGID_4_)" d="M40.947,116.363c-0.682,0-1.21-0.246-1.586-0.737h-0.068c0.045,0.456,0.068,0.732,0.068,0.83v2.212
		h-1.144v-7.803h0.925c0.026,0.101,0.08,0.342,0.161,0.723h0.059c0.356-0.547,0.892-0.82,1.606-0.82
		c0.671,0,1.195,0.244,1.569,0.732s0.562,1.174,0.562,2.056s-0.19,1.57-0.572,2.065S41.619,116.363,40.947,116.363z M40.67,111.705
		c-0.455,0-0.786,0.134-0.996,0.4c-0.209,0.267-0.313,0.693-0.313,1.279v0.171c0,0.657,0.104,1.134,0.311,1.429
		c0.208,0.294,0.547,0.441,1.018,0.441c0.396,0,0.701-0.163,0.915-0.488c0.214-0.325,0.321-0.789,0.321-1.392
		c0-0.605-0.106-1.063-0.319-1.374C41.394,111.86,41.082,111.705,40.67,111.705z"/>
	<radialGradient id="SVGID_5_" cx="44.998" cy="112.4668" r="2.7165" gradientUnits="userSpaceOnUse">
		<stop  offset="0" style="stop-color:#859398"/>
		<stop  offset="1" style="stop-color:#283048"/>
	</radialGradient>
	<path fill="url(#SVGID_5_)" d="M45.57,116.266h-1.144v-7.598h1.144V116.266z"/>
	<radialGradient id="SVGID_6_" cx="49.4316" cy="113.5654" r="2.6758" gradientUnits="userSpaceOnUse">
		<stop  offset="0" style="stop-color:#859398"/>
		<stop  offset="1" style="stop-color:#283048"/>
	</radialGradient>
	<path fill="url(#SVGID_6_)" d="M51.979,113.556c0,0.882-0.226,1.57-0.677,2.065c-0.451,0.495-1.079,0.742-1.883,0.742
		c-0.503,0-0.947-0.114-1.333-0.342c-0.386-0.228-0.683-0.555-0.891-0.981c-0.208-0.427-0.311-0.921-0.311-1.484
		c0-0.876,0.224-1.56,0.671-2.051s1.079-0.737,1.893-0.737c0.779,0,1.395,0.252,1.849,0.755S51.979,112.703,51.979,113.556z
		 M48.062,113.556c0,1.247,0.459,1.87,1.377,1.87c0.909,0,1.363-0.623,1.363-1.87c0-1.233-0.458-1.851-1.373-1.851
		c-0.48,0-0.828,0.159-1.044,0.479S48.062,112.96,48.062,113.556z"/>
	<radialGradient id="SVGID_7_" cx="55.1963" cy="113.5654" r="2.5531" gradientUnits="userSpaceOnUse">
		<stop  offset="0" style="stop-color:#859398"/>
		<stop  offset="1" style="stop-color:#283048"/>
	</radialGradient>
	<path fill="url(#SVGID_7_)" d="M56.661,116.266l-0.229-0.752h-0.039c-0.26,0.329-0.521,0.553-0.784,0.672
		c-0.263,0.118-0.6,0.178-1.012,0.178c-0.529,0-0.942-0.144-1.239-0.43s-0.444-0.691-0.444-1.216c0-0.557,0.205-0.977,0.617-1.26
		s1.04-0.438,1.884-0.464l0.93-0.029v-0.288c0-0.345-0.08-0.603-0.241-0.773c-0.16-0.171-0.409-0.257-0.747-0.257
		c-0.275,0-0.54,0.041-0.793,0.122s-0.496,0.178-0.73,0.288l-0.369-0.82c0.292-0.153,0.611-0.27,0.958-0.349
		c0.348-0.08,0.675-0.12,0.983-0.12c0.685,0,1.201,0.149,1.55,0.449s0.523,0.77,0.523,1.411v3.638H56.661z M54.958,115.484
		c0.415,0,0.748-0.116,1-0.349c0.251-0.233,0.377-0.56,0.377-0.979v-0.469l-0.691,0.029c-0.538,0.02-0.93,0.11-1.175,0.271
		s-0.368,0.407-0.368,0.739c0,0.241,0.071,0.428,0.215,0.56C54.458,115.419,54.672,115.484,54.958,115.484z"/>
	<radialGradient id="SVGID_8_" cx="61.2021" cy="112.5156" r="3.2248" gradientUnits="userSpaceOnUse">
		<stop  offset="0" style="stop-color:#859398"/>
		<stop  offset="1" style="stop-color:#283048"/>
	</radialGradient>
	<path fill="url(#SVGID_8_)" d="M60.891,116.363c-0.672,0-1.195-0.244-1.572-0.732c-0.376-0.488-0.564-1.174-0.564-2.056
		c0-0.886,0.19-1.574,0.572-2.067c0.381-0.493,0.909-0.74,1.584-0.74c0.707,0,1.246,0.262,1.615,0.786h0.059
		c-0.055-0.388-0.082-0.693-0.082-0.918v-1.968h1.148v7.598h-0.896l-0.2-0.708h-0.053C62.135,116.095,61.598,116.363,60.891,116.363
		z M61.197,115.436c0.471,0,0.813-0.133,1.026-0.397c0.215-0.266,0.325-0.696,0.331-1.292v-0.161c0-0.681-0.11-1.164-0.331-1.45
		c-0.22-0.286-0.565-0.43-1.036-0.43c-0.402,0-0.712,0.164-0.93,0.491c-0.217,0.327-0.326,0.793-0.326,1.398
		c0,0.599,0.105,1.056,0.316,1.37C60.459,115.278,60.775,115.436,61.197,115.436z"/>
	<radialGradient id="SVGID_9_" cx="70.3516" cy="112.6963" r="3.0239" gradientUnits="userSpaceOnUse">
		<stop  offset="0" style="stop-color:#859398"/>
		<stop  offset="1" style="stop-color:#283048"/>
	</radialGradient>
	<path fill="url(#SVGID_9_)" d="M72.707,111.285c0,0.745-0.243,1.316-0.73,1.714c-0.486,0.397-1.179,0.596-2.078,0.596h-0.739v2.671
		h-1.163v-7.139h2.049c0.889,0,1.555,0.183,1.997,0.547C72.485,110.038,72.707,110.575,72.707,111.285z M69.159,112.613h0.618
		c0.597,0,1.034-0.104,1.313-0.313s0.419-0.534,0.419-0.977c0-0.41-0.125-0.716-0.375-0.918s-0.639-0.303-1.168-0.303h-0.808
		V112.613z"/>
	<radialGradient id="SVGID_10_" cx="76.373" cy="112.4668" r="3.1654" gradientUnits="userSpaceOnUse">
		<stop  offset="0" style="stop-color:#859398"/>
		<stop  offset="1" style="stop-color:#283048"/>
	</radialGradient>
	<path fill="url(#SVGID_10_)" d="M78.741,116.266h-1.148v-3.32c0-0.417-0.084-0.728-0.251-0.933s-0.432-0.308-0.795-0.308
		c-0.48,0-0.833,0.145-1.059,0.433s-0.339,0.771-0.339,1.447v2.681h-1.144v-7.598h1.144v1.929c0,0.31-0.02,0.64-0.058,0.991h0.072
		c0.156-0.261,0.372-0.462,0.65-0.605c0.277-0.144,0.601-0.215,0.971-0.215c1.304,0,1.956,0.659,1.956,1.978V116.266z"/>
	<radialGradient id="SVGID_11_" cx="82.5586" cy="113.5654" r="2.6758" gradientUnits="userSpaceOnUse">
		<stop  offset="0" style="stop-color:#859398"/>
		<stop  offset="1" style="stop-color:#283048"/>
	</radialGradient>
	<path fill="url(#SVGID_11_)" d="M85.106,113.556c0,0.882-0.226,1.57-0.677,2.065s-1.078,0.742-1.883,0.742
		c-0.503,0-0.947-0.114-1.334-0.342c-0.386-0.228-0.683-0.555-0.891-0.981c-0.207-0.427-0.312-0.921-0.312-1.484
		c0-0.876,0.225-1.56,0.672-2.051s1.079-0.737,1.894-0.737c0.778,0,1.395,0.252,1.849,0.755S85.106,112.703,85.106,113.556z
		 M81.188,113.556c0,1.247,0.459,1.87,1.378,1.87c0.908,0,1.362-0.623,1.362-1.87c0-1.233-0.457-1.851-1.372-1.851
		c-0.48,0-0.828,0.159-1.044,0.479S81.188,112.96,81.188,113.556z"/>
	<radialGradient id="SVGID_12_" cx="87.5273" cy="113.0137" r="2.6675" gradientUnits="userSpaceOnUse">
		<stop  offset="0" style="stop-color:#859398"/>
		<stop  offset="1" style="stop-color:#283048"/>
	</radialGradient>
	<path fill="url(#SVGID_12_)" d="M88.425,115.436c0.279,0,0.559-0.044,0.838-0.132v0.864c-0.127,0.056-0.29,0.102-0.489,0.139
		c-0.2,0.038-0.406,0.057-0.621,0.057c-1.083,0-1.625-0.573-1.625-1.719v-2.91h-0.735v-0.508l0.789-0.42l0.389-1.143h0.706v1.201
		h1.533v0.869h-1.533v2.891c0,0.276,0.068,0.481,0.207,0.613C88.021,115.37,88.201,115.436,88.425,115.436z"/>
	<radialGradient id="SVGID_13_" cx="92.5645" cy="113.5654" r="2.6762" gradientUnits="userSpaceOnUse">
		<stop  offset="0" style="stop-color:#859398"/>
		<stop  offset="1" style="stop-color:#283048"/>
	</radialGradient>
	<path fill="url(#SVGID_13_)" d="M95.113,113.556c0,0.882-0.226,1.57-0.677,2.065s-1.078,0.742-1.883,0.742
		c-0.503,0-0.948-0.114-1.335-0.342c-0.386-0.228-0.683-0.555-0.891-0.981c-0.207-0.427-0.312-0.921-0.312-1.484
		c0-0.876,0.225-1.56,0.672-2.051s1.079-0.737,1.895-0.737c0.778,0,1.395,0.252,1.849,0.755S95.113,112.703,95.113,113.556z
		 M91.194,113.556c0,1.247,0.459,1.87,1.379,1.87c0.908,0,1.362-0.623,1.362-1.87c0-1.233-0.457-1.851-1.372-1.851
		c-0.48,0-0.829,0.159-1.045,0.479S91.194,112.96,91.194,113.556z"/>
</g>
<g>
	<g>
		<g>
			<radialGradient id="SVGID_14_" cx="15.3057" cy="112" r="8.9568" gradientUnits="userSpaceOnUse">
				<stop  offset="0" style="stop-color:#859398"/>
				<stop  offset="1" style="stop-color:#283048"/>
			</radialGradient>
			<path fill="url(#SVGID_14_)" d="M5.484,108.895v8.699c0,1.328,1.072,2.406,2.394,2.406h14.855c1.321,0,2.393-1.078,2.393-2.406
				v-8.699c0-1.268-1.018-2.287-2.281-2.287h-3.189l-0.076-0.34c-0.307-1.332-1.484-2.268-2.854-2.268h-2.844
				c-1.366,0-2.545,0.936-2.856,2.268l-0.073,0.34H7.766C6.503,106.607,5.484,107.639,5.484,108.895z M11.345,107.592
				c0.228,0,0.424-0.156,0.478-0.387l0.164-0.709c0.209-0.889,0.984-1.512,1.896-1.512h2.844c0.908,0,1.688,0.623,1.893,1.512
				l0.165,0.709c0.054,0.229,0.249,0.387,0.481,0.387h3.578c0.718,0,1.297,0.582,1.297,1.303v8.699c0,0.781-0.633,1.422-1.414,1.422
				H7.878c-0.782,0-1.414-0.641-1.414-1.422v-8.699c0-0.721,0.585-1.303,1.302-1.303H11.345L11.345,107.592z"/>
			<radialGradient id="SVGID_15_" cx="8.8062" cy="109.6953" r="0.6584" gradientUnits="userSpaceOnUse">
				<stop  offset="0" style="stop-color:#859398"/>
				<stop  offset="1" style="stop-color:#283048"/>
			</radialGradient>
			<path fill="url(#SVGID_15_)" d="M8.807,109.035c0.36,0,0.656,0.295,0.656,0.656c0,0.369-0.296,0.664-0.656,0.664
				c-0.366,0-0.657-0.295-0.657-0.664C8.149,109.33,8.44,109.035,8.807,109.035z"/>
			<radialGradient id="SVGID_16_" cx="15.3062" cy="113.3281" r="4.1331" gradientUnits="userSpaceOnUse">
				<stop  offset="0" style="stop-color:#859398"/>
				<stop  offset="1" style="stop-color:#283048"/>
			</radialGradient>
			<path fill="url(#SVGID_16_)" d="M15.307,117.469c2.273,0,4.125-1.859,4.125-4.141s-1.852-4.141-4.125-4.141
				s-4.126,1.857-4.126,4.141S13.033,117.469,15.307,117.469z M15.307,110.174c1.732,0,3.141,1.42,3.141,3.154
				c0,1.736-1.408,3.156-3.141,3.156c-1.734,0-3.147-1.42-3.147-3.156C12.159,111.594,13.572,110.174,15.307,110.174z"/>
		</g>
	</g>
	<radialGradient id="SVGID_17_" cx="15.2544" cy="113.3906" r="1.4763" gradientUnits="userSpaceOnUse">
		<stop  offset="0" style="stop-color:#859398"/>
		<stop  offset="1" style="stop-color:#283048"/>
	</radialGradient>
	<path fill="url(#SVGID_17_)" d="M15.854,114.926c0,0.258-0.269,0.465-0.601,0.465l0,0c-0.331,0-0.598-0.207-0.598-0.465v-3.07
		c0-0.258,0.267-0.465,0.598-0.465l0,0c0.332,0,0.601,0.207,0.601,0.465V114.926z"/>
	<radialGradient id="SVGID_18_" cx="15.2529" cy="113.3906" r="1.476" gradientUnits="userSpaceOnUse">
		<stop  offset="0" style="stop-color:#859398"/>
		<stop  offset="1" style="stop-color:#283048"/>
	</radialGradient>
	<path fill="url(#SVGID_18_)" d="M16.789,112.793c0.257,0,0.464,0.266,0.464,0.598l0,0c0,0.332-0.207,0.598-0.464,0.598h-3.071
		c-0.257,0-0.465-0.266-0.465-0.598l0,0c0-0.332,0.208-0.598,0.465-0.598H16.789z"/>
</g>
</svg>
